<svg width="62" height="50" viewBox="0 0 62 50" fill="none" xmlns="http://www.w3.org/2000/svg">
<g clip-path="url(#clip0_46_2192)">
<path d="M60.8643 27.1229C60.7736 25.1795 60.4349 23.2506 60.2474 21.3113C60.2398 21.1548 60.1971 21.0021 60.1226 20.8654C60.0481 20.7286 59.9438 20.6115 59.818 20.5232C59.9414 20.6124 60.0435 20.7293 60.1165 20.8652C60.1895 21.001 60.2315 21.1522 60.2393 21.3072C60.4268 23.2464 60.7655 25.1754 60.8562 27.1188C60.9046 28.1724 60.7191 29.2883 60.7191 30.3274C60.7212 31.8104 60.7353 33.3016 60.3683 34.6975C59.8885 36.5248 59.7514 38.4018 59.3381 40.225C59.1889 40.8824 58.2918 40.953 57.7011 41.067C55.872 41.4218 54.0287 41.7849 52.1472 41.6041C51.5234 41.6414 50.8976 41.6895 50.2919 41.4985C50.8988 41.6955 51.5278 41.6457 52.1528 41.6084C54.0358 41.7888 55.8785 41.4259 57.7091 41.0712C58.2998 40.9571 59.197 40.8866 59.3462 40.2291C59.7595 38.406 59.8945 36.531 60.3764 34.7017C60.7433 33.3058 60.7292 31.8145 60.7272 30.3315C60.7272 29.2924 60.9127 28.1766 60.8643 27.1229ZM44.0864 41.2185C42.7457 41.1376 41.409 40.9737 40.0704 40.8576C37.6712 40.6502 35.2701 40.4739 32.8729 40.2395C31.2782 40.0839 30.6875 40.6232 30.5948 42.3177C30.5323 43.4979 30.8589 44.6428 30.8064 45.8188C30.8022 46.195 30.7487 46.569 30.6472 46.9305C30.2601 48.1957 29.2742 48.7495 27.99 48.5607C27.2956 48.4557 26.612 48.2856 25.9477 48.0526C26.6143 48.2882 27.3007 48.4597 27.998 48.5649C29.2823 48.7536 30.2681 48.1999 30.6552 46.9347C30.7567 46.5732 30.8103 46.1992 30.8145 45.8229C30.8669 44.6469 30.5383 43.502 30.6028 42.3219C30.6956 40.6273 31.2863 40.0881 32.881 40.2436C35.2781 40.478 37.6793 40.6543 40.0784 40.8617C41.4171 40.9779 42.7538 41.1417 44.0945 41.2226C46.1126 41.3429 48.1287 41.5337 50.1528 41.4508V41.4487C50.15 41.449 50.1471 41.4483 50.1448 41.4466C48.1206 41.5296 46.1045 41.3388 44.0864 41.2185ZM30.0242 11.5569C30.1432 12.7661 30.2923 13.9441 30.2561 15.1928C30.2262 16.4653 30.3694 17.7358 30.6814 18.9676C30.7179 19.1059 30.8035 19.2251 30.9214 19.3015C30.8078 19.2241 30.7254 19.1069 30.6895 18.9717C30.3775 17.74 30.2343 16.4694 30.2641 15.1969C30.3004 13.9483 30.1512 12.7702 30.0323 11.561C30.0061 11.2872 29.9395 11.1317 29.8327 11.0653C29.8969 11.1284 29.9473 11.2049 29.9804 11.2897C30.0134 11.3745 30.0283 11.4656 30.0242 11.5569ZM4.82916 33.7745C4.90826 33.7828 4.98651 33.798 5.06303 33.8202C4.98619 33.7956 4.90718 33.7789 4.82715 33.7704C4.82715 33.7725 4.82916 33.7725 4.82916 33.7745Z" fill="#15151B"/>
<path d="M31.7878 40.2814C29.8633 40.7547 30.8792 44.5493 30.8268 45.7253C30.8225 46.1016 30.769 46.4756 30.6675 46.8371C30.2804 48.1023 29.2945 48.656 28.0103 48.4673C27.3129 48.3621 26.6265 48.1906 25.9599 47.955C23.9962 47.2747 22.2443 46.1174 20.5084 44.9828C17.8936 43.2738 15.2545 41.5938 12.7203 39.7437C12.7172 39.7432 12.7144 39.7417 12.7122 39.7395C10.2808 37.9641 8.05706 35.9336 5.69018 34.0814C5.65389 34.0544 5.61961 34.0275 5.58534 34.0005C5.43235 33.878 5.25973 33.784 5.07527 33.7226C4.99874 33.7005 4.9205 33.6852 4.8414 33.677C4.8414 33.6749 4.83939 33.6749 4.83939 33.6728H4.83334L4.83536 33.6749H4.83334C4.81318 34.3303 5.3676 34.6829 5.72848 34.9546C7.38974 36.2032 8.89576 37.6551 10.5489 38.8912C12.9824 40.7123 15.4097 42.5541 18.0145 44.1345C20.2625 45.5014 22.462 46.9698 24.8007 48.1458C26.2301 48.8635 32.7333 53.0041 31.6185 41.9748L59.1554 42.4384C60.8727 41.6563 61.4894 34.2142 61.6346 32.1567C61.7555 30.4372 62.1083 28.724 61.9672 27.0026C61.7938 24.8766 61.439 22.7673 61.2314 20.6434C61.1447 19.764 60.7818 19.3492 59.9431 19.1334C58.0701 18.6543 56.1528 18.6771 54.2597 18.588C51.3445 18.4511 48.4191 18.5506 46.5079 18.5506C41.1048 18.3951 36.7117 18.2603 32.3186 18.1503C31.8489 18.1379 31.613 18.0757 31.5606 17.5032C31.4763 16.6453 31.4413 15.7831 31.4558 14.921C31.4941 13.2596 31.3711 11.6232 30.6957 10.0759C30.4719 9.56151 30.2441 9.35203 29.6352 9.61129C28.6796 10.0178 27.6917 10.358 26.8087 10.9159C22.1172 13.8922 17.1798 16.4122 12.3876 19.2019C8.30907 21.5747 4.49463 24.3622 0.591485 27.0129C0.254798 27.2411 -0.0415667 27.4692 0.00480327 27.9898C0.0894789 28.9522 0.891549 30.2857 1.55282 31.1008C2.82094 31.7957 3.40797 33.343 4.83334 33.6749V33.6728C3.8757 32.5611 2.91871 31.4501 1.96241 30.3398C1.7065 30.0703 1.47504 29.7773 1.2709 29.4645C0.841469 28.7178 0.825341 28.135 1.70435 27.5957C4.19422 26.0609 6.45426 24.1548 9.04291 22.7756C11.3292 21.556 13.4541 20.0502 15.7524 18.8472C16.7161 18.3432 17.823 17.9284 18.6092 17.3394C21.3471 15.2902 24.5164 14.0665 27.2966 12.1396C27.8994 11.7207 28.5949 11.4469 29.236 11.0818C29.4699 10.947 29.6594 10.8848 29.7945 10.9408C29.8126 10.9469 29.8297 10.956 29.8449 10.9678C29.9518 11.0341 30.0183 11.1897 30.0445 11.4635C30.1634 12.6727 30.3126 13.8508 30.2763 15.0994C30.2465 16.3719 30.3897 17.6425 30.7017 18.8742C30.7376 19.0094 30.82 19.1266 30.9336 19.204C31.0111 19.2569 31.0952 19.2988 31.1836 19.3284C31.5648 19.4252 31.9545 19.4822 32.3469 19.4985C33.7037 19.6561 35.0787 19.6126 36.4456 19.6395C37.9556 19.6686 39.4697 19.5856 40.9878 19.7184C42.389 19.8407 43.8184 19.5898 45.2276 19.6541C46.4655 19.7101 47.7135 19.4487 48.9393 19.7785C49.8868 19.5255 50.8404 19.5835 51.794 19.7412C53.8484 19.9071 55.9169 19.6769 57.9693 19.988C58.4451 20.0606 58.9007 20.2203 59.3906 20.268C59.4712 20.2754 59.5505 20.2935 59.6265 20.3219C59.6981 20.3481 59.7665 20.3829 59.8301 20.4256C59.956 20.514 60.0603 20.6311 60.1348 20.7678C60.2093 20.9046 60.252 21.0572 60.2595 21.2138C60.447 23.1531 60.7858 25.082 60.8765 27.0254C60.9249 28.079 60.7394 29.1949 60.7394 30.234C60.7414 31.717 60.7555 33.2083 60.3886 34.6041C59.9067 36.4335 59.6203 40.7643 58.5115 40.9105M59.1473 41.2039C59.1493 41.2039 59.1513 41.2039 59.1553 41.208Z" fill="#15151B"/>
<path d="M60.8647 27.123C60.7739 25.1796 60.4352 23.2507 60.2477 21.3114C60.2402 21.1548 60.1975 21.0022 60.123 20.8654C60.0485 20.7287 59.9442 20.6116 59.8183 20.5232C59.7547 20.4805 59.6863 20.4457 59.6147 20.4195C59.5408 20.3944 59.4644 20.3777 59.3869 20.3698C58.897 20.3221 58.4413 20.1623 57.9655 20.0898C55.9131 19.7786 53.8446 20.0089 51.7882 19.8429C51.506 20.6352 51.0403 21.0169 50.3689 20.2951C49.9314 19.8263 49.3811 20.1167 48.9355 19.8803C47.7097 19.5505 46.4618 19.8118 45.2239 19.7558C43.8146 19.6915 42.3852 19.9425 40.984 19.8201C39.4659 19.6874 37.9519 19.7704 36.4418 19.7413C35.0749 19.7144 33.6999 19.7579 32.3411 19.6003C31.9465 19.5846 31.5545 19.5262 31.1718 19.4261C31.0833 19.3964 30.9992 19.3545 30.9218 19.3016C30.8082 19.2242 30.7258 19.107 30.6899 18.9718C30.3779 17.7401 30.2347 16.4695 30.2645 15.197C30.3008 13.9484 30.1516 12.7703 30.0327 11.5611C30.0065 11.2873 29.9399 11.1318 29.8331 11.0654C29.8178 11.0536 29.8008 11.0445 29.7827 11.0384C29.6476 10.9887 29.4621 11.0529 29.2323 11.1836C28.5912 11.5487 27.8956 11.8224 27.2928 12.2414C24.5126 14.1682 21.3433 15.3919 18.6055 17.4412C17.8192 18.0302 16.7124 18.445 15.7487 18.949C13.4483 20.152 11.3254 21.6578 9.03915 22.8773C6.4505 24.2566 4.19047 26.1627 1.7006 27.6975C0.821584 28.2368 0.837713 28.8196 1.26714 29.5663C1.47066 29.8796 1.70217 30.1726 1.95866 30.4416C2.91025 31.5533 3.86655 32.6629 4.82755 33.7705C4.82755 33.7725 4.82956 33.7725 4.82956 33.7746C4.90866 33.7828 4.98691 33.7981 5.06343 33.8203C5.24789 33.8816 5.42051 33.9757 5.5735 34.0982C5.61181 34.1251 5.6481 34.1542 5.6864 34.1832C8.05329 36.0354 10.277 38.0659 12.7084 39.8413C15.2427 41.6914 17.8817 43.3714 20.4966 45.0805C22.2324 46.215 23.9844 47.3724 25.9481 48.0527C26.6147 48.2882 27.3011 48.4597 27.9984 48.565C29.2827 48.7537 30.2686 48.1999 30.6556 46.9347C30.7571 46.5732 30.8107 46.1993 30.8149 45.823C30.8673 44.647 30.5387 43.5021 30.6032 42.3219C30.696 40.6274 31.2867 40.0881 32.8814 40.2437C35.2785 40.4781 37.6797 40.6544 40.0788 40.8618C41.4175 40.9779 42.7542 41.1418 44.0949 41.2227C46.113 41.343 48.1291 41.5338 50.1532 41.4508V41.4488C50.1109 41.0028 50.2076 40.7042 50.6996 40.5299C51.2016 40.3495 51.3326 40.6274 51.5444 40.9572C51.7268 41.1936 51.9306 41.4117 52.1531 41.6085C54.0362 41.7889 55.8789 41.426 57.7095 41.0713C58.3003 40.9572 59.1974 40.8867 59.3466 40.2292C59.7599 38.4061 59.895 36.5311 60.3768 34.7017C60.7437 33.3059 60.7296 31.8146 60.7276 30.3316C60.7276 29.2925 60.9131 28.1766 60.8647 27.123ZM50.9193 39.2772C49.0867 39.2627 47.2279 39.1195 45.3851 38.991C42.6977 38.8022 40.0284 38.4289 37.3147 38.6425C36.4178 38.6884 35.5187 38.6335 34.6334 38.4787C33.1495 38.2505 31.6858 38.7939 30.1939 38.5471C29.452 38.4247 28.7282 39.1673 28.6375 40.1006C28.5286 41.2414 28.321 42.3738 28.3835 43.5353C28.4399 44.5931 28.0992 44.8606 27.0267 44.7735C25.6315 44.6574 24.4844 43.9543 23.3271 43.2076C21.0973 41.764 19.0934 39.9886 16.7628 38.6798C15.8958 38.1945 15.1842 37.3338 14.3213 36.7468C12.7084 35.6475 11.1056 34.5296 9.46251 33.4801C8.00891 32.5509 6.50289 31.713 5.0251 30.8232C4.40011 30.4478 4.04125 29.8297 3.73682 29.1867C3.48884 28.6661 3.86383 28.3426 4.18439 28.0439C5.28568 27.0608 6.44441 26.1478 7.65407 25.3103C9.11775 24.2462 10.5351 23.1034 12.0633 22.1473C12.6822 21.7615 13.3173 21.2678 14.0955 21.1683C14.3596 20.9401 14.6257 20.7141 14.8898 20.488C15.4261 19.8761 16.1841 19.6272 16.8474 19.2228C17.2386 18.9863 17.7023 18.8412 17.9543 18.416C18.3272 17.7834 19.0429 17.9866 19.5651 17.6921C21.309 16.7028 23.0812 15.7694 24.8553 14.8423C25.3072 14.6197 25.7783 14.4412 26.2626 14.3093C27.2 14.0272 27.8029 14.1247 28.4722 15.1679C29.0105 16.0059 28.6476 16.7422 28.9117 17.4889C29.1556 18.1795 29.1597 18.9718 29.194 19.7227C29.2423 20.7804 29.7947 21.328 30.7383 21.581C32.1233 21.9523 33.5487 21.9855 34.9478 21.9212C37.7139 21.7967 40.4739 21.7304 43.242 21.8486C45.7722 21.9585 48.3044 21.8818 50.8366 21.8755C52.9112 21.8693 55.0039 21.7864 57.0825 21.9958C57.8062 22.0684 58.2054 22.3961 58.1974 23.2154C58.1832 24.6009 58.4937 25.947 58.7074 27.3076C58.7518 27.5959 59.0139 28.5935 57.9353 28.3778C57.4635 28.2824 57.153 28.776 57.0361 29.195C56.8788 29.7654 57.0482 30.3793 57.5723 30.6344C58.657 31.1613 58.6107 32.0241 58.6772 33.0839C58.782 34.7411 58.399 36.3403 58.4251 37.9746C58.4453 39.217 58.276 39.3124 57.1107 39.3103C55.0462 39.3062 52.9777 39.2938 50.9193 39.2772Z" fill="#5764D9"/>
<path d="M52.1534 41.6084C51.5284 41.6458 50.8994 41.6955 50.2926 41.4985C50.2453 41.4854 50.1989 41.4695 50.1534 41.4508V41.4487C50.1111 41.0028 50.2079 40.7041 50.6998 40.5299C51.2018 40.3494 51.3329 40.6274 51.5446 40.9572C51.7256 41.1923 51.9281 41.409 52.1494 41.6043L52.1534 41.6084Z" fill="#5764D9"/>
<path d="M51.7893 19.8436C51.5056 20.6359 51.041 21.016 50.368 20.2942C49.9314 19.826 49.3812 20.1167 48.9355 19.8797C49.8839 19.6278 50.836 19.6858 51.7893 19.8436Z" fill="#5764D9"/>
<path d="M14.0951 21.1673C14.3601 20.941 14.6252 20.7148 14.8902 20.4885C15.3429 20.6413 15.646 20.3186 15.9877 20.1215C19.3078 18.2066 22.6284 16.2893 26.1858 14.8665C27.6753 14.2708 27.6713 14.8168 28.5509 17.4693C28.6919 20.8695 28.4026 21.4953 31.1325 22.2029C31.8593 22.3914 32.5956 22.3721 33.3321 22.388C35.7805 22.4406 38.2252 22.2502 40.6775 22.346C45.9723 22.5529 51.2776 22.134 56.5707 22.5912C57.0358 22.6313 57.5229 22.5083 57.5983 23.2322C57.7192 24.393 57.873 25.5508 58.0405 26.7056C58.1193 27.2491 58.0428 27.582 57.4444 27.7778C56.7733 27.9974 56.5144 28.5982 56.5331 29.327C56.5559 30.215 56.9708 30.8922 57.5566 31.4949C57.7375 31.6811 58.0034 31.792 58.0102 32.1347C58.0488 34.0958 58.1921 36.0532 57.9103 38.0154C57.7948 38.8192 57.3773 38.8882 56.6645 38.7943C55.8809 38.6911 55.0942 38.6127 54.3044 38.5891C50.3895 38.4723 46.4679 38.6706 42.5585 38.3101C38.482 37.9601 34.3905 37.8309 30.3008 37.923C29.1794 37.9411 28.5518 38.4973 28.1889 39.6158C27.7853 40.8601 27.9853 42.145 27.9677 43.4109C27.9594 44.0035 27.779 44.1806 27.2252 44.1985C25.9437 44.2397 24.9132 43.6505 23.906 42.9448C19.566 39.904 15.2219 36.8695 10.8737 33.8413C9.10028 32.6125 7.33736 31.366 5.41991 30.3664C4.31698 29.7913 4.26645 29.3401 4.82554 28.262C5.15929 27.6184 5.66778 27.2036 6.22893 26.824C7.12112 26.2204 8.04069 25.6574 8.91189 25.0237C10.6528 23.7574 12.3688 22.4548 14.0951 21.1673Z" fill="#F4E957"/>
<path d="M14.0943 21.1673C12.368 22.4549 10.652 23.7574 8.91112 25.0237C8.03992 25.6574 7.12035 26.2204 6.22816 26.824C5.66701 27.2036 5.15852 27.6184 4.82477 28.262C4.26568 29.3401 4.31621 29.7913 5.41915 30.3664C7.33659 31.3661 9.09951 32.6125 10.8729 33.8413C15.228 36.859 19.5721 39.8935 23.9052 42.9448C24.9124 43.6505 25.9429 44.2397 27.2245 44.1985C27.7782 44.1806 27.9586 44.0036 27.9669 43.4109C27.9845 42.145 27.7845 40.8602 28.1881 39.6158C28.551 38.4973 29.1787 37.9411 30.3 37.923C34.3897 37.8309 38.4813 37.9601 42.5577 38.3101C46.4672 38.6706 50.3887 38.4723 54.3037 38.5891C55.0934 38.6127 55.8801 38.6911 56.6638 38.7943C57.3765 38.8882 57.7941 38.8192 57.9095 38.0154C58.1913 36.0532 58.048 34.0958 58.0094 32.1347C58.0027 31.792 57.7367 31.6811 57.5558 31.4949C56.97 30.8922 56.5552 30.215 56.5324 29.327C56.5137 28.5982 56.7725 27.9974 57.4436 27.7778C58.0421 27.582 58.1186 27.2491 58.0397 26.7056C57.8722 25.5508 57.7184 24.393 57.5975 23.2322C57.5222 22.5084 57.0351 22.6313 56.5699 22.5912C51.2768 22.134 45.9715 22.5529 40.6767 22.346C38.2244 22.2502 35.7798 22.4406 33.3313 22.388C32.5949 22.3721 31.8585 22.3914 31.1317 22.203C28.4019 21.4953 28.6912 20.8695 28.5501 17.4693C27.6705 14.8168 27.6745 14.2708 26.185 14.8665C22.6276 16.2893 19.307 18.2066 15.987 20.1216C15.6452 20.3186 15.3421 20.6413 14.8895 20.4885C15.4256 19.8755 16.1839 19.6267 16.848 19.2232C17.2385 18.9859 17.7016 18.8418 17.953 18.4155C18.3264 17.7824 19.0429 17.9871 19.5647 17.6914C21.308 16.7035 23.0807 15.7697 24.8554 14.8419C25.3074 14.6197 25.7784 14.441 26.2624 14.3082C27.1987 14.0273 27.8018 14.1249 28.4715 15.1673C29.0098 16.0051 28.6481 16.7432 28.9118 17.489C29.1557 18.1787 29.1583 18.972 29.1931 19.7234C29.242 20.7797 29.7949 21.3282 30.7377 21.5812C32.1223 21.9527 33.548 21.9844 34.9469 21.9216C37.7134 21.7973 40.4739 21.7293 43.2418 21.8492C45.7719 21.9588 48.3047 21.8825 50.8354 21.8747C52.911 21.8683 55.0042 21.7871 57.0829 21.9958C57.8059 22.0683 58.2042 22.3965 58.1965 23.2145C58.1834 24.6004 58.4924 25.9474 58.7064 27.3076C58.7518 27.596 59.0125 28.5942 57.9355 28.3776C57.4621 28.2824 57.152 28.7753 57.036 29.1956C56.8784 29.7661 57.0481 30.3795 57.5711 30.6336C58.6576 31.1613 58.6104 32.0241 58.6768 33.0838C58.7808 34.7417 58.3994 36.3396 58.425 37.9741C58.4445 39.2165 58.2758 39.3115 57.1109 39.3095C55.0465 39.306 52.9777 39.2947 50.918 39.2778C49.086 39.2628 47.2282 39.12 45.3847 38.9906C42.6979 38.802 40.0287 38.4294 37.3138 38.6421C36.4173 38.6887 35.5186 38.6342 34.6337 38.4795C33.15 38.2513 31.6845 38.7938 30.1932 38.5475C29.4521 38.425 28.7268 39.1678 28.6378 40.0997C28.5288 41.2415 28.3211 42.3731 28.3827 43.5358C28.4386 44.5929 28.0985 44.8607 27.0272 44.7727C25.6307 44.658 24.4834 43.9547 23.3273 43.2066C21.0978 41.7637 19.0935 39.9881 16.763 38.6807C15.8959 38.1942 15.1827 37.3331 14.3208 36.7465C12.7069 35.6484 11.1058 34.5286 9.46224 33.4793C8.00855 32.5513 6.50153 31.7119 5.02383 30.8233C4.39927 30.4477 4.04099 29.829 3.73625 29.1872C3.48918 28.6668 3.86424 28.343 4.18476 28.044C5.28559 27.0607 6.44386 26.1476 7.65307 25.3097C9.11796 24.2465 10.5347 23.1027 12.063 22.1473C12.6814 21.7607 13.3171 21.268 14.0943 21.1673Z" fill="#15151B"/>
</g>
<defs>
<clipPath id="clip0_46_2192">
<rect width="62" height="49" fill="white" transform="translate(0 0.5)"/>
</clipPath>
</defs>
</svg>
