<svg width="62" height="49" viewBox="0 0 62 49" fill="none" xmlns="http://www.w3.org/2000/svg"><path d="M1.135 26.623c.091-1.944.43-3.872.617-5.812a1.02 1.02 0 0 1 .43-.788q-.188.137-.299.342a1.05 1.05 0 0 0-.123.442c-.187 1.94-.526 3.868-.617 5.812-.048 1.053.137 2.17.137 3.208-.002 1.483-.016 2.975.351 4.37.48 1.828.617 3.705 1.03 5.528.15.657 1.047.728 1.638.842 1.829.355 3.672.718 5.553.537.624.038 1.25.086 1.856-.105-.607.197-1.236.147-1.861.11-1.883.18-3.726-.183-5.556-.538-.591-.114-1.488-.184-1.638-.842-.413-1.823-.548-3.698-1.03-5.527-.367-1.396-.353-2.887-.35-4.37 0-1.04-.186-2.155-.138-3.209m16.778 14.095c1.34-.08 2.678-.244 4.016-.36 2.4-.208 4.8-.384 7.198-.618 1.594-.156 2.185.383 2.278 2.078.062 1.18-.264 2.325-.212 3.5.004.377.058.751.16 1.113.386 1.265 1.372 1.819 2.657 1.63a11.3 11.3 0 0 0 2.042-.508q-1.002.353-2.05.512c-1.285.189-2.27-.365-2.658-1.63a4.3 4.3 0 0 1-.159-1.112c-.052-1.176.276-2.32.212-3.501-.093-1.695-.684-2.234-2.278-2.078-2.398.234-4.799.41-7.198.618-1.338.116-2.675.28-4.016.36-2.018.121-4.034.312-6.058.229v-.002l.008-.002c2.024.083 4.04-.108 6.058-.229m14.062-29.661c-.119 1.21-.268 2.387-.231 3.636a14 14 0 0 1-.426 3.775.57.57 0 0 1-.24.334.58.58 0 0 0 .232-.33c.312-1.232.455-2.503.425-3.775-.036-1.249.113-2.427.232-3.636.027-.274.093-.43.2-.496a.64.64 0 0 0-.192.492M57.17 33.275q-.119.012-.233.045.114-.036.236-.05z" fill="#15151B"/><path d="M30.212 39.781c1.925.474.909 4.268.961 5.444q.007.567.16 1.112c.387 1.265 1.373 1.819 2.657 1.63a11 11 0 0 0 2.05-.512c1.964-.68 3.716-1.838 5.452-2.972 2.614-1.71 5.254-3.39 7.788-5.24l.008-.004c2.431-1.775 4.655-3.805 7.022-5.658l.105-.08a1.7 1.7 0 0 1 .51-.278q.115-.034.234-.046l.002-.004h.006l-.002.002h.002c.02.655-.535 1.008-.895 1.28-1.662 1.248-3.168 2.7-4.82 3.936-2.434 1.821-4.862 3.663-7.466 5.244-2.248 1.366-4.448 2.835-6.787 4.01-1.43.718-7.932 4.86-6.817-6.17l-27.537.463C1.127 41.156.51 33.714.365 31.657c-.12-1.72-.473-3.433-.332-5.154.173-2.126.528-4.236.736-6.36.086-.879.45-1.294 1.288-1.51 1.873-.479 3.79-.456 5.683-.545 2.915-.137 5.84-.037 7.752-.037 5.403-.156 9.796-.29 14.19-.4.47-.013.705-.075.757-.648q.128-1.288.105-2.582c-.038-1.661.085-3.298.76-4.845.224-.514.452-.724 1.06-.465.956.407 1.944.747 2.827 1.305 4.692 2.976 9.63 5.496 14.421 8.286 4.079 2.373 7.893 5.16 11.796 7.81.337.23.634.457.587.978-.084.962-.886 2.296-1.548 3.11-1.268.696-1.855 2.243-3.28 2.575v-.002l2.87-3.333q.386-.406.692-.875c.43-.747.446-1.33-.433-1.87-2.49-1.534-4.75-3.44-7.339-4.82-2.286-1.219-4.411-2.725-6.71-3.928-.963-.504-2.07-.919-2.856-1.508-2.738-2.049-5.907-3.272-8.688-5.2-.602-.418-1.298-.692-1.939-1.057-.234-.135-.423-.197-.559-.141a.2.2 0 0 0-.05.027c-.107.066-.173.222-.2.495-.118 1.21-.268 2.388-.231 3.636a14 14 0 0 1-.426 3.775.58.58 0 0 1-.232.33 1 1 0 0 1-.25.124q-.572.146-1.163.17c-1.357.158-2.732.115-4.099.142-1.51.029-3.024-.054-4.542.078-1.401.123-2.83-.128-4.24-.064-1.237.056-2.485-.205-3.711.125-.948-.253-1.901-.195-2.855-.038-2.054.166-4.123-.064-6.175.247-.476.073-.932.232-1.422.28a.95.95 0 0 0-.44.158c-.125.088-.23.205-.304.342s-.117.29-.125.446c-.187 1.94-.526 3.868-.616 5.811-.049 1.054.137 2.17.137 3.209-.002 1.483-.016 2.974.35 4.37.482 1.83.769 6.16 1.878 6.307m-.636.293q-.002-.001-.008.004z" fill="#15151B"/><path d="M1.135 26.623c.091-1.943.43-3.872.617-5.812a1.02 1.02 0 0 1 .43-.788 1 1 0 0 1 .203-.104q.111-.037.228-.05c.49-.047.946-.207 1.421-.28 2.053-.31 4.121-.08 6.178-.246.282.792.748 1.174 1.42.452.437-.469.987-.178 1.433-.415 1.225-.33 2.473-.068 3.711-.124 1.41-.064 2.839.186 4.24.064 1.518-.133 3.032-.05 4.542-.079 1.367-.027 2.742.017 4.1-.14a5.5 5.5 0 0 0 1.17-.175q.134-.045.25-.124a.58.58 0 0 0 .232-.33c.312-1.232.455-2.503.425-3.775-.036-1.249.113-2.427.232-3.636.027-.274.093-.43.2-.496a.2.2 0 0 1 .05-.027c.135-.05.32.015.55.146.642.365 1.337.638 1.94 1.057 2.78 1.927 5.95 3.15 8.688 5.2.786.59 1.893 1.004 2.856 1.508 2.3 1.203 4.424 2.709 6.71 3.928 2.589 1.38 4.849 3.286 7.338 4.82.88.54.863 1.123.434 1.87a6 6 0 0 1-.692.875 657 657 0 0 1-2.868 3.328l-.003.005a1.3 1.3 0 0 0-.233.045 1.7 1.7 0 0 0-.51.278q-.057.041-.113.085c-2.367 1.852-4.591 3.883-7.022 5.658-2.535 1.85-5.174 3.53-7.789 5.24-1.735 1.134-3.487 2.291-5.451 2.972-.667.235-1.353.407-2.05.512-1.285.189-2.27-.365-2.658-1.63a4.3 4.3 0 0 1-.159-1.112c-.052-1.176.276-2.32.212-3.501-.093-1.695-.684-2.234-2.278-2.078-2.398.234-4.799.41-7.198.618-1.338.116-2.675.28-4.016.36-2.018.121-4.034.312-6.058.229v-.002c.042-.446-.055-.745-.547-.92-.502-.18-.633.098-.844.428a4.7 4.7 0 0 1-.61.651c-1.882.18-3.725-.182-5.556-.537-.59-.114-1.487-.184-1.637-.842-.413-1.823-.548-3.698-1.03-5.527-.367-1.396-.353-2.887-.35-4.37 0-1.04-.186-2.155-.138-3.209m9.946 12.154c1.832-.014 3.691-.157 5.534-.286 2.687-.189 5.357-.562 8.07-.349.897.046 1.796-.009 2.682-.163 1.483-.228 2.947.315 4.44.068.741-.122 1.465.62 1.555 1.554.11 1.14.317 2.273.255 3.434-.057 1.058.284 1.326 1.356 1.239 1.395-.117 2.543-.82 3.7-1.566 2.23-1.444 4.234-3.22 6.564-4.528.867-.486 1.579-1.346 2.442-1.933 1.613-1.1 3.215-2.217 4.858-3.267 1.454-.93 2.96-1.767 4.438-2.657.625-.375.984-.993 1.288-1.636.248-.52-.127-.844-.447-1.143a36 36 0 0 0-3.47-2.734c-1.464-1.064-2.881-2.207-4.41-3.163-.618-.385-1.253-.88-2.032-.979l-.794-.68c-.536-.612-1.294-.86-1.957-1.265-.392-.237-.855-.382-1.107-.807-.373-.633-1.089-.43-1.611-.724-1.744-.99-3.516-1.923-5.29-2.85a8 8 0 0 0-1.408-.533c-.937-.282-1.54-.184-2.21.859-.538.838-.175 1.574-.439 2.32-.244.692-.248 1.484-.282 2.235-.048 1.057-.6 1.605-1.544 1.858-1.385.371-2.81.404-4.21.34-2.766-.124-5.526-.19-8.294-.072-2.53.11-5.062.033-7.595.026-2.074-.006-4.167-.089-6.245.12-.724.073-1.123.401-1.115 1.22.014 1.386-.297 2.732-.51 4.093-.045.288-.307 1.285.772 1.07.472-.096.782.398.899.817.157.57-.012 1.184-.536 1.44-1.085.526-1.039 1.39-1.105 2.449-.105 1.657.278 3.256.252 4.89-.02 1.243.149 1.338 1.314 1.336a981 981 0 0 0 6.192-.033" fill="#5764D9"/><path d="M9.847 41.108c.625.038 1.254.088 1.86-.11q.071-.02.14-.047v-.002c.042-.446-.055-.745-.546-.92-.503-.18-.634.098-.845.428a4.6 4.6 0 0 1-.605.647zm.363-21.764c.284.792.75 1.172 1.422.45.437-.468.987-.177 1.433-.414-.949-.252-1.9-.194-2.854-.036" fill="#5764D9"/><path d="m47.905 20.667-.795-.678c-.453.152-.756-.17-1.097-.367-3.32-1.915-6.641-3.833-10.198-5.255-1.49-.596-1.486-.05-2.366 2.602-.14 3.4.149 4.026-2.581 4.734-.727.188-1.463.17-2.2.185-2.448.053-4.893-.138-7.345-.042-5.295.207-10.6-.212-15.893.245-.466.04-.953-.083-1.028.641a87 87 0 0 1-.442 3.474c-.079.543-.003.876.596 1.072.671.22.93.82.911 1.549-.023.888-.437 1.565-1.023 2.168-.181.186-.447.297-.454.64-.038 1.96-.182 3.918.1 5.88.115.804.533.873 1.246.78a23 23 0 0 1 2.36-.206c3.915-.117 7.836.082 11.746-.279a113 113 0 0 1 12.258-.387c1.12.018 1.749.574 2.111 1.693.404 1.244.204 2.529.222 3.795.008.593.188.77.742.788 1.282.04 2.312-.548 3.32-1.254q6.51-4.561 13.032-9.104c1.773-1.228 3.536-2.475 5.453-3.475 1.103-.575 1.154-1.026.595-2.104-.334-.643-.842-1.058-1.404-1.438-.892-.604-1.811-1.167-2.683-1.8-1.74-1.267-3.456-2.57-5.183-3.857" fill="#F4E957"/><path d="M47.905 20.667c1.727 1.288 3.442 2.59 5.183 3.857.872.633 1.791 1.196 2.683 1.8.562.38 1.07.794 1.404 1.438.559 1.078.508 1.53-.595 2.104-1.917 1-3.68 2.247-5.453 3.475a2091 2091 0 0 0-13.033 9.104c-1.007.706-2.037 1.295-3.319 1.254-.554-.018-.734-.195-.742-.788-.018-1.266.182-2.55-.222-3.795-.362-1.119-.99-1.675-2.111-1.693-4.09-.092-8.182.037-12.258.387-3.91.36-7.831.162-11.746.28-.79.023-1.577.101-2.36.204-.713.094-1.13.025-1.246-.779-.282-1.962-.138-3.92-.1-5.88.007-.343.273-.454.454-.64.586-.603 1-1.28 1.023-2.168.019-.729-.24-1.33-.911-1.55-.599-.195-.675-.528-.596-1.071.167-1.155.321-2.313.442-3.474.075-.724.562-.6 1.028-.64 5.293-.458 10.598-.039 15.893-.246 2.452-.096 4.897.095 7.345.042.737-.016 1.473.003 2.2-.185 2.73-.708 2.44-1.334 2.581-4.734.88-2.652.876-3.198 2.366-2.603 3.557 1.423 6.878 3.34 10.198 5.256.341.197.644.52 1.097.367-.536-.614-1.294-.862-1.958-1.266-.391-.237-.854-.381-1.105-.807-.374-.634-1.09-.429-1.612-.725-1.743-.988-3.516-1.921-5.29-2.85a8 8 0 0 0-1.408-.533c-.936-.28-1.54-.183-2.209.86-.538.837-.176 1.575-.44 2.321-.244.69-.247 1.483-.282 2.234-.048 1.057-.601 1.605-1.544 1.858-1.385.372-2.81.403-4.21.34-2.766-.124-5.526-.192-8.294-.072-2.53.11-5.063.034-7.594.026-2.075-.007-4.169-.088-6.247.12-.723.073-1.122.401-1.114 1.22.013 1.385-.296 2.732-.51 4.093-.045.288-.306 1.286.771 1.07.473-.096.784.397.9.818.157.57-.013 1.184-.536 1.438-1.086.527-1.039 1.39-1.105 2.45-.104 1.658.277 3.256.252 4.89-.02 1.243.149 1.338 1.314 1.336 2.064-.004 4.133-.015 6.193-.032 1.832-.015 3.69-.158 5.533-.287 2.687-.189 5.356-.562 8.07-.349a12 12 0 0 0 2.68-.163c1.485-.228 2.95.315 4.441.069.741-.123 1.467.62 1.556 1.552.109 1.142.316 2.273.255 3.436-.056 1.057.284 1.325 1.355 1.237 1.397-.115 2.544-.818 3.7-1.566 2.23-1.443 4.234-3.219 6.565-4.526.867-.487 1.58-1.348 2.442-1.934 1.614-1.099 3.215-2.218 4.858-3.268 1.454-.928 2.961-1.767 4.439-2.656.624-.375.983-.994 1.287-1.636.247-.52-.128-.844-.448-1.143a36 36 0 0 0-3.468-2.734c-1.465-1.063-2.882-2.207-4.41-3.163-.619-.386-1.255-.879-2.032-.98" fill="#15151B"/></svg>