<svg width="62" height="44" viewBox="0 0 62 44" fill="none" xmlns="http://www.w3.org/2000/svg"><path d="M46.52 8.698c-5.397-.15-9.787-.28-14.177-.386-.469-.011-.704-.072-.757-.622a21 21 0 0 1-.104-2.481c.038-1.596-.084-3.168-.76-4.655-.224-.494-.45-.697-1.06-.447-.954.39-1.942.718-2.822 1.255-4.688 2.859-9.62 5.281-14.41 7.96-4.075 2.281-7.885 4.96-11.785 7.506-.337.22-.634.44-.588.94.086.924.102 1.854.15 2.781.118 2.342.473 4.682-.066 7.022-.306 1.328-.198 1.446 1.17 1.889q.619.203 1.19.515c6.685 3.644 13.52 7.02 20.027 10.978 1.423.866 2.797 1.816 4.25 2.628 1.954 1.094 4.08-.058 4.267-2.247.085-.988.14-1.978.249-2.963.1-.903.337-1.575 1.534-1.674 1.908-.158 3.813-.125 5.718-.148 5.026-.06 10.05.014 15.068.319.776.047 1.585.02 2.185-.53 2.593-2.377 4.74-5.055 5.267-8.646.288-1.96.424-3.943.569-5.92.12-1.652.473-3.3.332-4.954-.173-2.042-.528-4.069-.736-6.109-.087-.846-.448-1.244-1.287-1.45-1.872-.463-3.787-.44-5.678-.526-2.912-.132-5.835-.035-7.745-.035" fill="#FEFEFE"/><path d="M46.52 8.698c1.911 0 4.834-.097 7.746.035 1.891.085 3.807.063 5.678.525.84.207 1.2.605 1.287 1.451.208 2.04.563 4.067.736 6.11.14 1.653-.211 3.301-.332 4.952-.145 1.978-.281 3.962-.569 5.921-.527 3.591-2.674 6.269-5.267 8.646-.6.55-1.41.577-2.185.53-5.019-.305-10.042-.379-15.068-.319-1.905.023-3.81-.01-5.718.148-1.197.1-1.434.77-1.534 1.674-.11.985-.164 1.975-.249 2.963-.187 2.189-2.313 3.34-4.268 2.247-1.453-.812-2.826-1.762-4.25-2.628-6.507-3.958-13.34-7.333-20.025-10.978a7 7 0 0 0-1.19-.515C-.057 29.017-.165 28.9.14 27.57c.539-2.34.184-4.68.065-7.022-.047-.927-.063-1.857-.149-2.78-.046-.501.251-.72.588-.94 3.9-2.546 7.71-5.226 11.786-7.506 4.788-2.68 9.721-5.102 14.409-7.961.88-.537 1.867-.864 2.823-1.255.608-.25.835-.047 1.06.447.675 1.487.797 3.06.759 4.655q-.022 1.244.104 2.481c.053.55.288.61.757.622 4.39.107 8.78.236 14.178.386m12.286 21.888c-1.713.32-3.444.532-5.184.632-3.834.194-7.648-.247-11.468-.41a33 33 0 0 1-3.708-.28 46 46 0 0 0-5.615-.498c-1.09-.036-1.524.29-1.57 1.32-.052 1.206.08 2.42.036 3.625-.023.604.268.635.702.642.927.015 1.859-.095 2.77-.158 3.939-.274 7.873-.056 11.803-.019 2.226.021 4.46.107 6.69.14 1.314.02 2.464-.155 3.206-1.474.463-.825 1.234-1.475 1.789-2.258.251-.354.689-.664.601-1.202l.227-.121c-.02-.021-.05-.064-.059-.06-.076.036-.147.08-.22.121M51.8 9.842c-.952-.152-1.903-.207-2.85.035-1.226-.316-2.473-.065-3.708-.12-1.41-.061-2.838.18-4.238.062-1.516-.127-3.029-.047-4.538-.075-1.366-.026-2.74.016-4.096-.135-.58-.065-1.5-.045-1.65-.604a13 13 0 0 1-.425-3.628c.036-1.199-.114-2.332-.232-3.493-.061-.608-.343-.615-.8-.364-.64.35-1.335.615-1.938 1.016-2.778 1.853-5.945 3.028-8.679 4.998-.786.566-1.893.963-2.854 1.448-2.298 1.157-4.421 2.604-6.705 3.775-2.586 1.326-4.845 3.158-7.333 4.63-.878.52-.86 1.081-.432 1.798q.305.451.69.84 1.431 1.608 2.871 3.206c-1.425-.318-2.02-1.785-3.287-2.453-.012 1.6-.106 3.2-.283 4.791-.11 1.074-.5 2.31.939 3.051 3.68 1.895 7.31 3.883 10.975 5.805 3.493 1.832 6.939 3.745 10.31 5.793 1.299.79 2.434 1.839 3.909 2.355 1.026.36 2.192.122 2.327-.637.24-1.203.325-2.432.255-3.656-.023-.302-.08-.53-.48-.403-1.693.534-3.288-.05-4.716-.74-2.337-1.13-4.535-2.543-6.782-3.855-2.602-1.52-5.026-3.29-7.458-5.039-1.652-1.188-3.157-2.583-4.816-3.782-.36-.261-.916-.601-.895-1.233.319.044.617.181.857.394 2.364 1.78 4.587 3.73 7.015 5.436 2.532 1.778 5.168 3.392 7.782 5.034 2.317 1.457 4.662 2.947 7.496 3.349 1.282.181 2.267-.352 2.654-1.568.1-.347.154-.706.159-1.068.052-1.129-.275-2.229-.21-3.364.091-1.627.682-2.145 2.275-1.996 2.394.225 4.794.394 7.192.594 1.337.111 2.672.27 4.011.346 2.016.116 4.03.3 6.054.22.651.242 1.325.188 1.997.15 1.883.175 3.723-.175 5.552-.514.59-.11 1.488-.178 1.637-.81.412-1.753.548-3.555 1.029-5.312.367-1.342.352-2.774.35-4.2 0-.997.185-2.07.137-3.082-.09-1.867-.43-3.721-.617-5.585a.93.93 0 0 0-.257-.614.95.95 0 0 0-.603-.29c-.49-.046-.944-.2-1.42-.27-2.05-.298-4.117-.077-6.17-.236" fill="#15151B"/><path d="m4.884 23.231-2.872-3.205a6 6 0 0 1-.69-.841c-.428-.717-.445-1.277.433-1.797 2.488-1.473 4.746-3.305 7.332-4.631 2.284-1.171 4.407-2.618 6.705-3.775.962-.485 2.069-.882 2.855-1.448 2.734-1.97 5.9-3.145 8.679-4.998.602-.401 1.297-.665 1.937-1.016.458-.25.74-.244.8.363.118 1.162.269 2.295.232 3.494-.03 1.223.113 2.444.425 3.628.15.56 1.07.539 1.65.604 1.357.151 2.73.109 4.097.135 1.509.028 3.021-.052 4.537.075 1.4.117 2.829-.123 4.238-.062 1.236.055 2.483-.196 3.708.12.445.227.995-.052 1.43.398.673.694 1.137.328 1.421-.433 2.053.159 4.12-.062 6.17.236.477.07.931.224 1.42.27.23.02.445.124.604.29a.93.93 0 0 1 .256.614c.188 1.864.527 3.718.617 5.585.049 1.012-.137 2.085-.136 3.083.002 1.425.017 2.857-.35 4.199-.481 1.757-.618 3.56-1.03 5.311-.149.633-1.046.7-1.636.81-1.83.34-3.67.69-5.552.516a4.5 4.5 0 0 1-.609-.625c-.21-.318-.342-.584-.843-.412-.49.168-.588.455-.545.886-2.024.08-4.038-.105-6.054-.22-1.34-.077-2.674-.235-4.012-.346-2.397-.2-4.797-.37-7.192-.594-1.593-.15-2.183.369-2.275 1.996-.064 1.135.263 2.235.21 3.364a4 4 0 0 1-.159 1.068c-.386 1.217-1.37 1.75-2.654 1.568-2.834-.402-5.178-1.892-7.495-3.349-2.614-1.642-5.25-3.256-7.783-5.034-2.428-1.706-4.65-3.657-7.014-5.436a1.63 1.63 0 0 0-.858-.394zm10.05-12.77-.795.653c-.776.097-1.412.57-2.03.942-1.527.918-2.942 2.017-4.406 3.039a36 36 0 0 0-3.465 2.627c-.32.287-.695.598-.448 1.098.304.617.662 1.212 1.286 1.572 1.477.854 2.983 1.661 4.435 2.553 1.642 1.008 3.242 2.084 4.854 3.14.861.563 1.574 1.39 2.44 1.858 2.329 1.256 4.332 2.962 6.56 4.349 1.154.719 2.3 1.395 3.696 1.505 1.07.084 1.41-.173 1.354-1.189-.061-1.117.146-2.204.255-3.302.089-.895.814-1.609 1.554-1.491 1.49.236 2.954-.285 4.437-.066.884.15 1.782.202 2.678.157 2.712-.205 5.379.153 8.064.335 1.841.124 3.698.261 5.528.276 2.058.016 4.125.027 6.188.03 1.163.002 1.332-.09 1.313-1.283-.026-1.57.355-3.106.251-4.7-.066-1.018-.02-1.847-1.105-2.354-.522-.244-.692-.833-.534-1.382.116-.404.425-.877.898-.786 1.076.209.816-.75.77-1.028-.213-1.307-.522-2.601-.509-3.933.008-.786-.39-1.101-1.113-1.171-2.076-.2-4.168-.123-6.242-.116-2.528.007-5.059.08-7.587-.025-2.765-.115-5.523-.05-8.287.07-1.398.06-2.822.03-4.206-.327-.942-.244-1.494-.77-1.543-1.786-.035-.722-.038-1.484-.281-2.147-.264-.716.098-1.425-.44-2.23-.67-1.002-1.272-1.096-2.207-.826q-.727.193-1.406.513a180 180 0 0 0-5.286 2.738c-.522.284-1.237.087-1.61.696-.252.41-.714.548-1.105.776-.663.388-1.42.627-1.957 1.216" fill="#5764D9"/><path d="M4.881 23.228c-.02.632.535.972.896 1.232 1.659 1.2 3.163 2.595 4.815 3.783 2.432 1.75 4.856 3.52 7.459 5.04 2.246 1.311 4.444 2.724 6.782 3.853 1.427.69 3.023 1.275 4.715.74.4-.126.457.102.48.404a14.5 14.5 0 0 1-.255 3.656c-.134.759-1.3.997-2.326.637-1.476-.516-2.61-1.566-3.91-2.355-3.37-2.048-6.816-3.961-10.31-5.794-3.665-1.921-7.295-3.909-10.975-5.804-1.438-.74-1.047-1.977-.938-3.05q.264-2.39.283-4.792c1.266.668 1.861 2.135 3.287 2.453zm53.979 7.419c.086.537-.352.847-.603 1.201-.555.783-1.326 1.433-1.79 2.258-.741 1.319-1.89 1.494-3.205 1.474-2.231-.033-4.464-.119-6.69-.14-3.93-.037-7.864-.255-11.802.019-.912.063-1.844.173-2.77.158-.435-.007-.727-.038-.704-.642.046-1.206-.087-2.42-.034-3.625.045-1.03.478-1.356 1.57-1.32 1.88.05 3.755.217 5.614.498q1.846.244 3.707.28c3.821.163 7.635.604 11.47.41 1.739-.1 3.47-.311 5.183-.632z" fill="#343781"/><path d="M50.167 30.605c-.043-.43.055-.718.546-.886.5-.172.632.094.843.412q.274.341.609.625c-.673.037-1.347.09-1.998-.15m1.634-20.764c-.283.761-.747 1.127-1.42.433-.436-.45-.986-.17-1.43-.398.947-.242 1.898-.187 2.85-.035" fill="#40428C"/><path d="M58.806 30.586c.073-.041.144-.085.22-.12.008-.005.039.038.06.059q-.114.06-.227.122z" fill="#343781"/><path d="m14.14 11.114.794-.652c.452.146.755-.164 1.097-.353 3.317-1.84 6.635-3.682 10.189-5.05 1.078-.414 1.373-.253 1.788.836.39 1.092.606 2.237.639 3.394.088 1.794.36 2.283 2.515 2.82.726.181 1.462.163 2.198.178 2.446.05 4.889-.133 7.339-.04 5.29.198 10.59-.204 15.88.235.464.039.95-.08 1.026.616.121 1.116.275 2.228.442 3.338.079.522.002.842-.596 1.03-.67.211-.929.788-.91 1.489.023.853.437 1.504 1.023 2.083.18.179.446.285.453.615.038 1.884.181 3.765-.1 5.65-.101.678-.434.812-.995.774-1.2-.08-2.399-.224-3.6-.245-3.582-.061-7.168.072-10.744-.245-4.073-.337-8.16-.46-12.247-.372-1.12.017-1.747.552-2.11 1.626-.403 1.196-.203 2.43-.22 3.647-.01.57-.19.74-.743.757-1.28.04-2.31-.527-3.316-1.205a5590 5590 0 0 0-13.021-8.747c-1.772-1.181-3.533-2.379-5.45-3.34-1.101-.552-1.152-.986-.593-2.022.333-.618.841-1.017 1.402-1.382.892-.58 1.81-1.12 2.68-1.73 1.74-1.216 3.455-2.468 5.18-3.705" fill="#F4E957"/><path d="M14.14 11.114c-1.725 1.237-3.44 2.489-5.179 3.706-.87.608-1.789 1.15-2.68 1.73-.561.364-1.07.763-1.403 1.381-.558 1.036-.508 1.47.594 2.022 1.916.961 3.678 2.159 5.45 3.34q6.526 4.35 13.02 8.747c1.007.678 2.036 1.245 3.317 1.205.553-.017.733-.187.742-.757.017-1.216-.183-2.45.22-3.647.363-1.074.99-1.609 2.11-1.626 4.087-.089 8.175.035 12.248.372 3.576.317 7.161.184 10.743.245 1.201.02 2.4.164 3.6.245.561.038.894-.097.995-.774.282-1.885.139-3.766.1-5.65-.007-.33-.272-.436-.453-.615-.585-.58-1-1.23-1.023-2.083-.018-.7.24-1.278.91-1.489.599-.188.675-.508.596-1.03a81 81 0 0 1-.441-3.338c-.076-.696-.562-.577-1.027-.616-5.289-.44-10.59-.037-15.88-.235-2.45-.092-4.892.09-7.339.04-.735-.015-1.471.003-2.197-.178-2.156-.537-2.427-1.026-2.516-2.82a11 11 0 0 0-.639-3.394c-.415-1.09-.71-1.25-1.788-.836-3.554 1.368-6.872 3.21-10.189 5.05-.341.19-.644.5-1.096.353.535-.59 1.293-.829 1.956-1.216.39-.228.853-.367 1.104-.776.373-.609 1.09-.412 1.61-.696 1.742-.95 3.514-1.847 5.287-2.738a8 8 0 0 1 1.406-.513c.935-.27 1.538-.176 2.207.825.538.805.176 1.515.44 2.231.243.663.246 1.425.28 2.147.05 1.015.602 1.542 1.544 1.786 1.383.357 2.808.387 4.206.327 2.764-.12 5.522-.185 8.287-.07 2.528.105 5.059.032 7.587.025 2.074-.007 4.166-.085 6.242.116.723.07 1.12.385 1.113 1.171-.013 1.332.296 2.626.51 3.933.045.277.305 1.236-.77 1.028-.474-.091-.784.382-.9.786-.157.549.013 1.138.535 1.382 1.086.507 1.039 1.336 1.105 2.355.104 1.593-.277 3.128-.252 4.699.02 1.194-.149 1.285-1.312 1.283-2.063-.003-4.13-.014-6.188-.03-1.83-.015-3.687-.152-5.529-.276-2.684-.182-5.351-.54-8.064-.335a12.4 12.4 0 0 1-2.677-.157c-1.483-.219-2.947.303-4.437.066-.74-.118-1.465.596-1.554 1.491-.109 1.098-.316 2.185-.255 3.302.056 1.016-.284 1.273-1.354 1.189-1.396-.11-2.542-.786-3.697-1.505-2.227-1.387-4.23-3.093-6.559-4.35-.866-.467-1.579-1.294-2.44-1.858-1.612-1.055-3.212-2.131-4.854-3.14-1.453-.891-2.958-1.698-4.435-2.552-.624-.36-.982-.955-1.286-1.572-.247-.5.128-.81.448-1.098a36 36 0 0 1 3.465-2.628c1.464-1.021 2.88-2.12 4.406-3.038.618-.372 1.254-.845 2.03-.942" fill="#15151B"/></svg>