<svg width="62" height="44" viewBox="0 0 62 44" fill="none" xmlns="http://www.w3.org/2000/svg"><g clip-path="url(#a)"><path d="M15.48 8.698c5.397-.15 9.787-.28 14.177-.386.469-.011.704-.072.757-.622q.126-1.237.104-2.481c-.038-1.596.084-3.168.76-4.655.224-.494.45-.697 1.06-.447.954.39 1.942.718 2.822 1.255 4.688 2.859 9.62 5.281 14.41 7.96 4.075 2.281 7.885 4.96 11.785 7.506.337.22.634.44.588.94-.086.924-.102 1.854-.15 2.781-.118 2.342-.473 4.682.066 7.022.306 1.328.198 1.446-1.17 1.889a7 7 0 0 0-1.19.515c-6.685 3.644-13.52 7.02-20.027 10.978-1.423.866-2.797 1.816-4.25 2.628-1.954 1.094-4.08-.058-4.267-2.247-.085-.988-.14-1.978-.249-2.963-.1-.903-.337-1.575-1.533-1.674-1.91-.158-3.813-.125-5.719-.148-5.026-.06-10.05.014-15.068.319-.775.047-1.585.02-2.185-.53-2.593-2.377-4.74-5.055-5.267-8.646-.288-1.96-.424-3.943-.569-5.92-.12-1.652-.473-3.3-.332-4.954.173-2.042.528-4.069.736-6.109.087-.846.448-1.244 1.287-1.45 1.871-.463 3.787-.44 5.678-.526 2.912-.132 5.835-.035 7.745-.035" fill="#FEFEFE"/><path d="M15.48 8.698c-1.911 0-4.834-.097-7.746.035-1.891.085-3.807.063-5.678.525-.84.207-1.2.605-1.287 1.451-.208 2.04-.563 4.067-.736 6.11-.14 1.653.211 3.301.332 4.952.145 1.978.281 3.962.569 5.921.527 3.591 2.674 6.269 5.267 8.646.6.55 1.41.577 2.185.53 5.019-.305 10.043-.379 15.068-.319 1.906.023 3.81-.01 5.718.148 1.197.1 1.434.77 1.534 1.674.11.985.164 1.975.249 2.963.187 2.189 2.313 3.34 4.268 2.247 1.453-.812 2.826-1.762 4.25-2.628 6.507-3.958 13.341-7.334 20.026-10.978q.571-.312 1.19-.515c1.368-.443 1.476-.56 1.17-1.889-.539-2.34-.184-4.68-.065-7.022.047-.927.063-1.857.149-2.78.046-.501-.251-.72-.588-.94-3.9-2.546-7.71-5.226-11.785-7.506-4.79-2.68-9.722-5.102-14.41-7.961-.88-.537-1.867-.864-2.823-1.255-.608-.25-.836-.047-1.06.447-.675 1.487-.797 3.06-.759 4.655a21 21 0 0 1-.104 2.481c-.053.55-.288.61-.757.622-4.39.107-8.78.236-14.178.386M3.193 30.586c1.713.32 3.444.532 5.184.632 3.833.194 7.648-.247 11.468-.41a33 33 0 0 0 3.708-.28 46 46 0 0 1 5.615-.498c1.09-.036 1.524.29 1.57 1.32.052 1.206-.08 2.42-.036 3.625.023.604-.268.635-.702.642-.927.015-1.859-.095-2.77-.158-3.939-.274-7.873-.056-11.803-.019-2.226.021-4.46.107-6.69.14-1.314.02-2.464-.155-3.205-1.474-.464-.825-1.235-1.475-1.79-2.258-.251-.354-.689-.664-.601-1.202l-.227-.121c.02-.021.05-.064.059-.06.076.036.147.08.22.121M10.2 9.842c.952-.152 1.903-.207 2.85.035 1.226-.316 2.473-.065 3.708-.12 1.41-.061 2.838.18 4.238.062 1.516-.127 3.029-.047 4.538-.075 1.366-.026 2.74.016 4.096-.135.58-.065 1.5-.045 1.65-.604.312-1.184.455-2.405.425-3.628-.036-1.199.114-2.332.232-3.493.061-.608.343-.615.8-.364.64.35 1.335.615 1.938 1.016 2.778 1.853 5.945 3.028 8.679 4.998.786.566 1.893.963 2.854 1.448 2.298 1.157 4.421 2.604 6.705 3.775 2.586 1.326 4.845 3.158 7.333 4.63.878.52.86 1.081.432 1.798q-.305.451-.69.84-1.431 1.608-2.871 3.206c1.425-.318 2.02-1.785 3.287-2.453.012 1.6.106 3.2.283 4.791.11 1.074.5 2.31-.939 3.051-3.68 1.895-7.31 3.883-10.975 5.805-3.493 1.832-6.939 3.745-10.31 5.793-1.299.79-2.434 1.839-3.909 2.355-1.026.36-2.192.122-2.327-.637a14.5 14.5 0 0 1-.255-3.656c.023-.302.08-.53.48-.403 1.693.534 3.288-.05 4.716-.74 2.337-1.13 4.535-2.543 6.782-3.855 2.602-1.52 5.026-3.29 7.459-5.039 1.651-1.188 3.156-2.583 4.815-3.782.36-.261.916-.601.895-1.233a1.63 1.63 0 0 0-.857.394c-2.364 1.78-4.587 3.73-7.015 5.436-2.532 1.778-5.168 3.392-7.782 5.034-2.317 1.457-4.661 2.947-7.496 3.349-1.283.181-2.267-.352-2.654-1.568a4 4 0 0 1-.159-1.068c-.052-1.129.275-2.229.21-3.364-.091-1.627-.682-2.145-2.275-1.996-2.394.225-4.794.394-7.192.594-1.337.111-2.672.27-4.011.346-2.016.116-4.03.3-6.054.22-.651.242-1.325.188-1.997.15-1.883.175-3.723-.175-5.552-.514-.59-.11-1.488-.178-1.637-.81-.412-1.753-.548-3.555-1.029-5.312-.367-1.342-.352-2.774-.35-4.2 0-.997-.185-2.07-.137-3.082.09-1.867.43-3.721.617-5.585a.93.93 0 0 1 .257-.614.95.95 0 0 1 .603-.29c.49-.046.944-.2 1.42-.27 2.05-.298 4.117-.077 6.17-.236" fill="#15151B"/><path d="m57.116 23.231 2.871-3.205q.385-.389.69-.841c.429-.717.446-1.277-.432-1.797-2.488-1.473-4.747-3.305-7.333-4.631-2.284-1.171-4.407-2.618-6.705-3.775-.961-.485-2.068-.882-2.854-1.448-2.734-1.97-5.901-3.145-8.68-4.997-.602-.402-1.297-.666-1.937-1.017-.457-.25-.739-.244-.8.364-.118 1.161-.268 2.294-.232 3.493a13 13 0 0 1-.425 3.628c-.15.56-1.07.539-1.65.604-1.357.151-2.73.109-4.096.135-1.51.028-3.022-.052-4.538.075-1.4.117-2.828-.123-4.238-.062-1.235.055-2.482-.196-3.707.12-.445.227-.995-.052-1.431.398-.673.694-1.137.328-1.42-.433-2.054.159-4.12-.062-6.17.236-.477.07-.931.224-1.42.27a.95.95 0 0 0-.604.29.93.93 0 0 0-.257.614c-.188 1.864-.527 3.718-.617 5.585-.048 1.012.137 2.085.136 3.083-.001 1.425-.016 2.857.351 4.199.48 1.757.617 3.56 1.03 5.311.148.633 1.045.7 1.636.81 1.83.34 3.669.69 5.551.516q.335-.284.61-.625c.21-.318.342-.584.842-.412.491.168.589.456.546.886 2.023.08 4.038-.104 6.054-.22 1.34-.077 2.674-.235 4.011-.346 2.398-.2 4.797-.369 7.192-.594 1.593-.15 2.184.369 2.276 1.996.064 1.135-.263 2.236-.211 3.364.005.362.058.721.16 1.068.386 1.217 1.37 1.75 2.653 1.568 2.834-.402 5.179-1.892 7.496-3.349 2.614-1.642 5.25-3.256 7.782-5.034 2.428-1.706 4.651-3.657 7.015-5.436.24-.213.538-.35.857-.394zm-10.05-12.77.794.653c.777.097 1.412.57 2.03.942 1.527.918 2.943 2.017 4.406 3.039a36 36 0 0 1 3.465 2.627c.32.287.695.598.449 1.098-.305.617-.663 1.212-1.287 1.572-1.476.855-2.982 1.661-4.434 2.553-1.643 1.008-3.242 2.084-4.855 3.14-.861.563-1.574 1.39-2.44 1.858-2.328 1.256-4.331 2.962-6.559 4.349-1.155.719-2.301 1.395-3.696 1.505-1.07.084-1.41-.173-1.355-1.189.062-1.117-.146-2.204-.255-3.302-.088-.895-.813-1.609-1.554-1.491-1.49.237-2.954-.285-4.436-.066-.884.15-1.782.202-2.678.157-2.713-.205-5.38.153-8.064.335-1.842.124-3.698.261-5.528.276a995 995 0 0 1-6.188.03c-1.164.002-1.332-.09-1.313-1.283.026-1.57-.356-3.106-.252-4.7.067-1.018.02-1.847 1.105-2.354.523-.244.692-.833.535-1.382-.116-.403-.426-.877-.899-.786-1.076.209-.816-.75-.77-1.028.214-1.307.522-2.601.51-3.933-.008-.786.39-1.101 1.112-1.171 2.077-.2 4.168-.123 6.242-.116 2.529.007 5.06.08 7.587-.025 2.766-.115 5.524-.05 8.288.07 1.398.06 2.822.03 4.205-.327.942-.244 1.495-.77 1.544-1.786.034-.722.037-1.484.28-2.147.264-.716-.097-1.425.44-2.23.67-1.002 1.272-1.096 2.208-.826q.726.193 1.406.513a180 180 0 0 1 5.286 2.738c.521.284 1.237.087 1.61.696.251.41.714.548 1.104.776.664.388 1.421.627 1.957 1.216" fill="#5764D9"/><path d="M57.118 23.228c.021.632-.535.972-.895 1.232-1.66 1.2-3.164 2.595-4.815 3.783-2.433 1.75-4.857 3.52-7.46 5.04-2.246 1.311-4.443 2.724-6.781 3.853-1.428.69-3.023 1.275-4.716.74-.4-.126-.457.102-.48.404-.07 1.224.016 2.453.255 3.656.135.759 1.301.997 2.327.637 1.475-.516 2.61-1.566 3.91-2.355 3.37-2.048 6.816-3.961 10.31-5.794 3.665-1.921 7.295-3.909 10.974-5.804 1.439-.74 1.048-1.977.939-3.05a47 47 0 0 1-.283-4.792c-1.267.668-1.862 2.135-3.287 2.453zM3.14 30.647c-.086.537.352.847.603 1.201.555.783 1.326 1.433 1.79 2.258.741 1.319 1.89 1.494 3.205 1.474 2.23-.033 4.464-.119 6.69-.14 3.93-.037 7.864-.255 11.802.019.912.063 1.844.173 2.77.158.435-.007.726-.038.703-.642-.045-1.206.088-2.42.035-3.625-.045-1.03-.479-1.356-1.57-1.32-1.88.05-3.755.217-5.614.498q-1.846.244-3.707.28c-3.821.163-7.636.604-11.47.41-1.739-.1-3.47-.311-5.183-.632z" fill="#343781"/><path d="M11.833 30.605c.043-.43-.055-.718-.546-.886-.5-.172-.632.094-.843.412a4.5 4.5 0 0 1-.609.625c.673.037 1.347.09 1.998-.15M10.199 9.842c.283.761.747 1.127 1.42.433.436-.45.986-.17 1.43-.398-.947-.242-1.898-.187-2.85-.035" fill="#40428C"/><path d="M3.194 30.586c-.073-.041-.144-.085-.22-.12-.008-.005-.04.038-.06.059q.114.06.227.122z" fill="#343781"/><path d="m47.86 11.114-.794-.652c-.452.146-.755-.163-1.097-.353-3.317-1.84-6.635-3.682-10.189-5.05-1.078-.414-1.373-.253-1.788.836a11 11 0 0 0-.639 3.394c-.088 1.794-.36 2.283-2.515 2.82-.726.181-1.462.163-2.198.178-2.446.05-4.889-.133-7.339-.04-5.29.198-10.59-.204-15.88.235-.464.039-.95-.08-1.026.616a81 81 0 0 1-.442 3.338c-.079.522-.002.842.596 1.03.67.211.929.788.91 1.489-.023.853-.437 1.504-1.023 2.083-.18.179-.446.285-.453.615-.038 1.884-.182 3.765.1 5.65.101.678.434.812.995.774 1.2-.08 2.399-.224 3.6-.245 3.582-.061 7.168.072 10.744-.245 4.073-.337 8.16-.46 12.247-.372 1.12.017 1.747.552 2.11 1.626.403 1.196.203 2.43.22 3.647.01.57.19.74.743.757 1.28.04 2.31-.527 3.316-1.205a5601 5601 0 0 1 13.021-8.747c1.772-1.181 3.533-2.379 5.45-3.34 1.101-.552 1.152-.986.593-2.022-.334-.618-.841-1.017-1.402-1.382-.892-.58-1.81-1.12-2.68-1.73-1.74-1.216-3.455-2.468-5.18-3.705" fill="#F4E957"/><path d="M47.86 11.114c1.725 1.237 3.44 2.489 5.18 3.706.87.608 1.788 1.15 2.68 1.73.56.364 1.069.763 1.402 1.381.559 1.036.508 1.47-.594 2.022-1.916.961-3.677 2.159-5.449 3.34q-6.527 4.35-13.021 8.747c-1.006.678-2.036 1.245-3.316 1.205-.554-.017-.734-.187-.742-.757-.018-1.216.182-2.45-.221-3.647-.363-1.074-.99-1.609-2.11-1.626-4.086-.089-8.174.035-12.247.372-3.576.317-7.162.184-10.744.245-1.201.02-2.4.164-3.6.245-.56.038-.894-.096-.995-.774-.282-1.885-.138-3.766-.1-5.65.007-.33.273-.436.453-.615.586-.58 1-1.23 1.023-2.083.019-.7-.24-1.278-.91-1.489-.598-.188-.675-.508-.596-1.03.167-1.11.321-2.222.442-3.338.075-.695.562-.577 1.027-.616 5.288-.44 10.589-.037 15.879-.235 2.45-.092 4.893.09 7.34.04.735-.015 1.47.003 2.197-.178 2.155-.537 2.427-1.026 2.515-2.82.033-1.157.248-2.302.64-3.394.414-1.09.71-1.25 1.787-.836 3.554 1.368 6.872 3.21 10.19 5.05.34.19.644.5 1.096.353-.536-.59-1.293-.828-1.957-1.216-.39-.228-.853-.367-1.104-.776-.373-.609-1.089-.412-1.61-.696-1.742-.95-3.513-1.847-5.286-2.738a8 8 0 0 0-1.406-.513c-.936-.27-1.538-.176-2.207.825-.538.806-.177 1.515-.44 2.231-.244.663-.247 1.425-.281 2.147-.05 1.015-.602 1.542-1.544 1.786-1.383.357-2.807.387-4.205.327-2.764-.12-5.522-.185-8.288-.07-2.528.105-5.058.032-7.587.025-2.074-.007-4.165-.085-6.242.116-.722.07-1.12.385-1.113 1.171.013 1.332-.295 2.626-.51 3.933-.045.277-.305 1.237.771 1.028.473-.091.783.383.899.786.157.549-.012 1.138-.535 1.382-1.085.507-1.038 1.336-1.105 2.355-.103 1.593.278 3.128.252 4.699-.02 1.194.15 1.285 1.313 1.283a995 995 0 0 0 6.188-.03c1.83-.015 3.686-.152 5.528-.276 2.685-.182 5.351-.54 8.064-.335a12.4 12.4 0 0 0 2.678-.156c1.482-.22 2.947.302 4.436.065.741-.118 1.466.596 1.555 1.491.108 1.098.316 2.185.255 3.302-.056 1.016.283 1.273 1.354 1.189 1.395-.11 2.541-.786 3.696-1.505 2.228-1.387 4.23-3.093 6.559-4.35.866-.467 1.579-1.294 2.44-1.858 1.613-1.055 3.212-2.131 4.855-3.14 1.452-.891 2.958-1.697 4.434-2.552.624-.36.982-.955 1.287-1.572.246-.5-.128-.81-.449-1.098a36 36 0 0 0-3.465-2.628c-1.463-1.021-2.879-2.12-4.406-3.038-.618-.372-1.253-.845-2.03-.942" fill="#15151B"/></g><defs><clipPath id="a"><path fill="#fff" d="M62 0H0v44h62z"/></clipPath></defs></svg>