<svg width="33" height="33" viewBox="0 0 33 33" fill="none" xmlns="http://www.w3.org/2000/svg"><path d="M27.5 4.125h-22A1.375 1.375 0 0 0 4.125 5.5v22A1.375 1.375 0 0 0 5.5 28.875h22a1.375 1.375 0 0 0 1.375-1.375v-22A1.375 1.375 0 0 0 27.5 4.125M11.466 25.213H7.792v-11.81h3.674zM9.63 11.79a2.128 2.128 0 1 1 0-4.257 2.128 2.128 0 0 1 0 4.257m15.586 13.424h-3.67V19.47c0-1.37-.025-3.13-1.909-3.13-1.91 0-2.201 1.492-2.201 3.034v5.84h-3.667v-11.81h3.52v1.614h.05c.489-.928 1.688-1.907 3.471-1.907 3.718 0 4.404 2.444 4.404 5.626z" fill="#fff"/></svg>