<svg width="735" height="735" viewBox="0 0 735 735" fill="#FF8902" xmlns="http://www.w3.org/2000/svg"><path d="M411.256 337.228c0 7.563-6.128 13.695-13.687 13.695s-13.686-6.132-13.686-13.695 6.127-13.694 13.686-13.694 13.687 6.131 13.687 13.694m-13.666 47.346c-7.568 0-13.704 6.138-13.704 13.711 0 7.572 6.136 13.711 13.704 13.711s13.703-6.139 13.703-13.711-6.135-13.711-13.703-13.711m-60.977-61.166c-7.564 0-13.695 6.135-13.695 13.704 0 7.568 6.131 13.703 13.695 13.703 7.565 0 13.696-6.135 13.696-13.703s-6.131-13.704-13.696-13.704m.03 61.07c-7.612 0-13.783 6.175-13.783 13.792s6.171 13.791 13.783 13.791c7.613 0 13.784-6.174 13.784-13.791s-6.171-13.792-13.784-13.792m30.514-60.847c-7.617 0-13.791 6.178-13.791 13.798 0 7.621 6.174 13.8 13.791 13.8 7.616 0 13.791-6.178 13.791-13.8 0-7.621-6.174-13.798-13.791-13.798m30.446-29.784c-7.337 0-13.285 5.952-13.285 13.293 0 7.342 5.948 13.293 13.285 13.293 7.338 0 13.286-5.951 13.286-13.293s-5.948-13.293-13.286-13.293m30.586 29.908c-7.377 0-13.359 5.984-13.359 13.366s5.981 13.366 13.359 13.366 13.359-5.984 13.359-13.366c-.001-7.382-5.982-13.366-13.359-13.366m-91.695-29.998c-7.363 0-13.333 5.973-13.333 13.341s5.97 13.34 13.333 13.34 13.333-5.973 13.333-13.34c0-7.369-5.97-13.341-13.333-13.341m91.689 91.16c-7.371 0-13.346 5.979-13.346 13.354s5.975 13.353 13.346 13.353c7.37 0 13.345-5.978 13.345-13.353s-5.975-13.354-13.345-13.354m-121.579-61.193c-7.391 0-13.381 5.994-13.381 13.389s5.99 13.388 13.381 13.388c7.39 0 13.381-5.994 13.381-13.388s-5.992-13.389-13.381-13.389m91.135 91.796c-7.344 0-13.299 5.957-13.299 13.306s5.954 13.305 13.299 13.305 13.298-5.957 13.298-13.305c0-7.349-5.954-13.306-13.298-13.306m-61.001-.03c-7.22 0-13.073 5.856-13.073 13.08s5.853 13.08 13.073 13.08c7.219 0 13.072-5.856 13.072-13.08s-5.853-13.08-13.072-13.08m-30.547-30.748c-7.257 0-13.141 5.887-13.141 13.148s5.884 13.148 13.141 13.148 13.14-5.887 13.14-13.148-5.882-13.148-13.14-13.148m121.936-90.561c-7.119 0-12.89 5.775-12.89 12.898s5.771 12.898 12.89 12.898 12.89-5.775 12.89-12.898c.001-7.123-5.77-12.898-12.89-12.898m-121.56-.018c-7.147 0-12.942 5.798-12.942 12.949 0 7.152 5.795 12.95 12.942 12.95s12.943-5.798 12.943-12.95-5.794-12.949-12.943-12.949M428.13 415.915c-7.137 0-12.922 5.789-12.922 12.929s5.785 12.93 12.922 12.93c7.136 0 12.922-5.789 12.922-12.93 0-7.14-5.786-12.929-12.922-12.929m-121.576-.56c-7.137 0-12.922 5.788-12.922 12.929s5.785 12.929 12.922 12.929c7.136 0 12.921-5.788 12.921-12.929s-5.785-12.929-12.921-12.929m151.938-90.703c-7.004 0-12.682 5.681-12.682 12.689 0 7.009 5.678 12.69 12.682 12.69s12.683-5.681 12.683-12.69-5.678-12.689-12.683-12.689m-61.064-60.938c-6.956 0-12.594 5.642-12.594 12.601s5.638 12.6 12.594 12.6 12.593-5.641 12.593-12.6c.001-6.958-5.638-12.601-12.593-12.601m-60.626-.052c-6.972 0-12.625 5.656-12.625 12.632 0 6.977 5.653 12.633 12.625 12.633s12.626-5.656 12.626-12.633-5.653-12.632-12.626-12.632M458.412 385.3c-6.98 0-12.639 5.662-12.639 12.646s5.659 12.646 12.639 12.646 12.638-5.662 12.638-12.646-5.658-12.646-12.638-12.646m-61.109 61.137c-7.006 0-12.684 5.683-12.684 12.692s5.679 12.692 12.684 12.692c7.007 0 12.685-5.683 12.685-12.692s-5.678-12.692-12.685-12.692M276.098 324.704c-7.012 0-12.697 5.688-12.697 12.705s5.685 12.705 12.697 12.705c7.013 0 12.698-5.688 12.698-12.705s-5.685-12.705-12.698-12.705m.192 60.589c-7.027 0-12.724 5.7-12.724 12.731 0 7.032 5.698 12.731 12.724 12.731 7.027 0 12.724-5.699 12.724-12.731.001-7.03-5.697-12.731-12.724-12.731m60.468 61.085c-7.013 0-12.698 5.689-12.698 12.705 0 7.017 5.685 12.706 12.698 12.706 7.012 0 12.698-5.689 12.698-12.706s-5.686-12.705-12.698-12.705m91.413-182.279c-6.891 0-12.477 5.589-12.477 12.483s5.586 12.484 12.477 12.484c6.89 0 12.476-5.589 12.476-12.484s-5.586-12.483-12.476-12.483m-61.241-.429c-7.091 0-12.84 5.751-12.84 12.847s5.749 12.846 12.84 12.846 12.839-5.751 12.839-12.846c0-7.096-5.748-12.847-12.839-12.847m91.242 30.967c-6.888 0-12.473 5.588-12.473 12.48s5.585 12.48 12.473 12.48 12.473-5.587 12.473-12.48c0-6.892-5.584-12.48-12.473-12.48m-.016 121.725c-6.883 0-12.462 5.583-12.462 12.47s5.579 12.47 12.462 12.47 12.463-5.583 12.463-12.47-5.58-12.47-12.463-12.47M275.913 294.518c-6.821 0-12.349 5.531-12.349 12.356s5.528 12.357 12.349 12.357 12.35-5.532 12.35-12.357-5.53-12.356-12.35-12.356m152.171 151.848c-6.87 0-12.438 5.572-12.438 12.445s5.568 12.445 12.438 12.445c6.869 0 12.437-5.572 12.437-12.445s-5.568-12.445-12.437-12.445M306.6 264.055c-6.817 0-12.344 5.53-12.344 12.351s5.527 12.352 12.344 12.352 12.344-5.53 12.344-12.352c0-6.821-5.527-12.351-12.344-12.351m-.302 182.847c-6.742 0-12.208 5.469-12.208 12.216s5.466 12.216 12.208 12.216 12.209-5.469 12.209-12.216-5.466-12.216-12.209-12.216m-30.526-30.53c-6.741 0-12.206 5.468-12.206 12.212s5.465 12.212 12.206 12.212 12.205-5.468 12.205-12.212-5.465-12.212-12.205-12.212m.251-60.994c-6.903 0-12.498 5.6-12.498 12.506 0 6.908 5.596 12.506 12.498 12.506 6.904 0 12.499-5.599 12.499-12.506s-5.596-12.506-12.499-12.506M397.667 233.99c-6.631 0-12.007 5.379-12.007 12.014s5.376 12.014 12.007 12.014c6.632 0 12.008-5.379 12.008-12.014s-5.376-12.014-12.008-12.014m91.047 91.184c-6.625 0-11.996 5.374-11.996 12.003s5.372 12.004 11.996 12.004c6.626 0 11.997-5.375 11.997-12.004 0-6.63-5.371-12.003-11.997-12.003m.022 61.039c-6.616 0-11.979 5.366-11.979 11.986s5.363 11.987 11.979 11.987c6.617 0 11.98-5.366 11.98-11.987 0-6.619-5.363-11.986-11.98-11.986M336.997 233.907c-6.638 0-12.02 5.384-12.02 12.026s5.382 12.026 12.02 12.026c6.637 0 12.019-5.385 12.019-12.026 0-6.642-5.382-12.026-12.019-12.026m121.196 30.45c-6.668 0-12.074 5.409-12.074 12.081s5.406 12.081 12.074 12.081 12.074-5.409 12.074-12.081-5.405-12.081-12.074-12.081m-90.759-30.173c-6.626 0-11.998 5.374-11.998 12.005 0 6.63 5.372 12.004 11.998 12.004 6.627 0 11.998-5.374 11.998-12.004 0-6.631-5.372-12.005-11.998-12.005m30.343 243.218c-6.638 0-12.019 5.385-12.019 12.026 0 6.642 5.382 12.026 12.019 12.026 6.639 0 12.02-5.384 12.02-12.026s-5.381-12.026-12.02-12.026M245.299 324.976c-6.647 0-12.036 5.392-12.036 12.043s5.389 12.043 12.036 12.043 12.036-5.392 12.036-12.043-5.389-12.043-12.036-12.043M458.17 446.672c-6.665 0-12.069 5.407-12.069 12.076s5.404 12.076 12.069 12.076 12.07-5.406 12.07-12.076c.001-6.67-5.403-12.076-12.07-12.076M275.917 264.474c-6.669 0-12.076 5.409-12.076 12.082s5.407 12.083 12.076 12.083 12.076-5.41 12.076-12.083-5.407-12.082-12.076-12.082m-30.555 121.681c-6.654 0-12.049 5.397-12.049 12.056s5.395 12.055 12.049 12.055 12.049-5.397 12.049-12.055c0-6.659-5.395-12.056-12.049-12.056m91.142 91.169c-6.654 0-12.049 5.398-12.049 12.056s5.395 12.056 12.049 12.056c6.655 0 12.049-5.398 12.049-12.056s-5.394-12.056-12.049-12.056m91.41-242.825c-6.512 0-11.791 5.282-11.791 11.798 0 6.515 5.279 11.797 11.791 11.797s11.791-5.282 11.791-11.797-5.279-11.798-11.791-11.798m61.074 60.553c-6.524 0-11.813 5.292-11.813 11.82 0 6.527 5.289 11.819 11.813 11.819s11.813-5.292 11.813-11.819-5.289-11.82-11.813-11.82M275.685 447.301c-6.537 0-11.835 5.302-11.835 11.842 0 6.539 5.299 11.842 11.835 11.842s11.835-5.303 11.835-11.842-5.298-11.842-11.835-11.842m30.456-212.891c-6.522 0-11.809 5.29-11.809 11.815s5.288 11.815 11.809 11.815c6.522 0 11.808-5.29 11.808-11.815 0-6.526-5.287-11.815-11.808-11.815m182.306 182.179c-6.556 0-11.87 5.317-11.87 11.877s5.314 11.878 11.87 11.878 11.87-5.318 11.87-11.878-5.315-11.877-11.87-11.877M245.744 294.934c-6.555 0-11.868 5.317-11.868 11.876s5.314 11.875 11.868 11.875c6.556 0 11.869-5.317 11.869-11.875 0-6.56-5.314-11.876-11.869-11.876m182.021 182.364c-6.527 0-11.817 5.294-11.817 11.825s5.29 11.824 11.817 11.824 11.818-5.294 11.818-11.824c.001-6.531-5.291-11.825-11.818-11.825m-121.269.533c-6.397 0-11.582 5.188-11.582 11.589s5.185 11.589 11.582 11.589 11.583-5.188 11.583-11.589-5.186-11.589-11.583-11.589m-61.018-61.056c-6.379 0-11.549 5.173-11.549 11.555s5.17 11.556 11.549 11.556 11.549-5.174 11.549-11.556-5.172-11.555-11.549-11.555M458.511 234.87c-6.308 0-11.422 5.117-11.422 11.429s5.114 11.429 11.422 11.429 11.422-5.117 11.422-11.429-5.114-11.429-11.422-11.429m30.524 30.533c-6.309 0-11.423 5.117-11.423 11.429 0 6.311 5.114 11.428 11.423 11.428 6.308 0 11.422-5.117 11.422-11.428s-5.113-11.429-11.422-11.429M367.181 477.44c-6.547 0-11.854 5.311-11.854 11.86 0 6.55 5.308 11.861 11.854 11.861s11.853-5.311 11.853-11.861c0-6.549-5.306-11.86-11.853-11.86m151.804-151.426c-6.314 0-11.433 5.122-11.433 11.44 0 6.319 5.119 11.44 11.433 11.44 6.315 0 11.434-5.121 11.434-11.44s-5.119-11.44-11.434-11.44m-121.679-121.84c-6.308 0-11.421 5.116-11.421 11.428s5.113 11.428 11.421 11.428 11.422-5.116 11.422-11.428-5.114-11.428-11.422-11.428m91.179 243.535c-6.296 0-11.399 5.107-11.399 11.406s5.104 11.406 11.399 11.406 11.399-5.107 11.399-11.406-5.104-11.406-11.399-11.406M276.244 234.864c-6.304 0-11.414 5.114-11.414 11.421s5.11 11.42 11.414 11.42 11.414-5.113 11.414-11.42-5.111-11.421-11.414-11.421m60.602-30.641c-6.334 0-11.47 5.139-11.47 11.476s5.136 11.476 11.47 11.476 11.469-5.138 11.469-11.476c0-6.337-5.135-11.476-11.469-11.476m-91.223 60.744c-6.327 0-11.456 5.132-11.456 11.463s5.129 11.462 11.456 11.462 11.456-5.132 11.456-11.462c0-6.331-5.129-11.463-11.456-11.463m212.841 212.669c-6.343 0-11.484 5.144-11.484 11.49s5.141 11.49 11.484 11.49c6.342 0 11.483-5.144 11.483-11.49s-5.141-11.49-11.483-11.49m60.549-91.127c-6.329 0-11.461 5.135-11.461 11.468s5.131 11.468 11.461 11.468c6.329 0 11.461-5.134 11.461-11.468-.001-6.333-5.132-11.468-11.461-11.468m-243.109 91.843c-6.129 0-11.098 4.972-11.098 11.105s4.969 11.105 11.098 11.105 11.098-4.972 11.098-11.105-4.968-11.105-11.098-11.105m121.684 30.515c-6.14 0-11.117 4.979-11.117 11.123s4.977 11.123 11.117 11.123c6.139 0 11.117-4.98 11.117-11.123 0-6.144-4.978-11.123-11.117-11.123M215.321 326.05c-6.147 0-11.128 4.985-11.128 11.134s4.982 11.134 11.128 11.134c6.145 0 11.127-4.985 11.127-11.134s-4.981-11.134-11.127-11.134m30.034 121.732c-6.137 0-11.113 4.978-11.113 11.119s4.976 11.12 11.113 11.12c6.138 0 11.114-4.979 11.114-11.12s-4.976-11.119-11.114-11.119m-30.008-60.626c-6.156 0-11.146 4.994-11.146 11.153s4.991 11.153 11.146 11.153 11.147-4.994 11.147-11.153-4.99-11.153-11.147-11.153m121.156 121.659c-6.182 0-11.194 5.014-11.194 11.201 0 6.186 5.011 11.201 11.194 11.201s11.195-5.015 11.195-11.201-5.012-11.201-11.195-11.201m91.692-304.06c-6.182 0-11.193 5.014-11.193 11.199s5.011 11.199 11.193 11.199 11.192-5.014 11.192-11.199-5.011-11.199-11.192-11.199m91.141 91.169c-6.181 0-11.193 5.015-11.193 11.2s5.012 11.199 11.193 11.199 11.193-5.015 11.193-11.199c0-6.186-5.012-11.2-11.193-11.2m-212.895-91.695c-6.214 0-11.251 5.04-11.251 11.257 0 6.218 5.037 11.258 11.251 11.258s11.251-5.04 11.251-11.258c-.001-6.217-5.038-11.257-11.251-11.257m212.925 213.332c-6.176 0-11.182 5.009-11.182 11.188s5.006 11.188 11.182 11.188 11.181-5.009 11.181-11.188c0-6.178-5.006-11.188-11.181-11.188m-91.481 91.132c-6.026 0-10.912 4.889-10.912 10.918s4.885 10.918 10.912 10.918c6.026 0 10.911-4.889 10.911-10.918s-4.886-10.918-10.911-10.918m-212.79-212.742c-6.023 0-10.905 4.886-10.905 10.911 0 6.027 4.883 10.911 10.905 10.911S226 312.888 226 306.862s-4.882-10.911-10.905-10.911m152.053-91.306c-6.182 0-11.194 5.014-11.194 11.201 0 6.186 5.011 11.201 11.194 11.201s11.195-5.015 11.195-11.201-5.012-11.201-11.195-11.201m151.908 151.981c-6.28 0-11.371 5.094-11.371 11.378s5.091 11.378 11.371 11.378 11.372-5.094 11.372-11.378-5.091-11.378-11.372-11.378m-303.987 61.021c-6.06 0-10.973 4.915-10.973 10.979s4.913 10.978 10.973 10.978 10.972-4.915 10.972-10.978c0-6.064-4.912-10.979-10.972-10.979m273.924-182.369c-6.062 0-10.975 4.917-10.975 10.982s4.914 10.981 10.975 10.981 10.975-4.917 10.975-10.981c0-6.065-4.913-10.982-10.975-10.982M306.246 508.741c-6.051 0-10.956 4.908-10.956 10.963s4.905 10.963 10.956 10.963 10.957-4.908 10.957-10.963c-.001-6.056-4.906-10.963-10.957-10.963m-60.635-273.462c-6.069 0-10.988 4.923-10.988 10.995s4.919 10.994 10.988 10.994c6.068 0 10.988-4.922 10.988-10.994s-4.92-10.995-10.988-10.995m242.893 242.845c-6.073 0-10.996 4.926-10.996 11.002s4.923 11.003 10.996 11.003 10.997-4.926 10.997-11.003c-.001-6.076-4.924-11.002-10.997-11.002M458.23 205.213c-5.921 0-10.72 4.802-10.72 10.726s4.799 10.726 10.72 10.726c5.92 0 10.719-4.802 10.719-10.726s-4.799-10.726-10.719-10.726m61.024 60.629c-5.919 0-10.717 4.801-10.717 10.723s4.797 10.723 10.717 10.723c5.918 0 10.717-4.8 10.717-10.723s-4.798-10.723-10.717-10.723M245.378 478.699c-5.948 0-10.771 4.825-10.771 10.776 0 5.952 4.823 10.777 10.771 10.777s10.77-4.825 10.77-10.777-4.821-10.776-10.77-10.776m273.84-30.35c-5.9 0-10.683 4.786-10.683 10.689s4.783 10.689 10.683 10.689 10.682-4.786 10.682-10.689-4.782-10.689-10.682-10.689M275.835 204.698c-5.911 0-10.702 4.794-10.702 10.708 0 5.913 4.791 10.707 10.702 10.707s10.701-4.794 10.701-10.707c.001-5.914-4.79-10.708-10.701-10.708m-60.471 61.161c-5.928 0-10.734 4.809-10.734 10.74s4.806 10.74 10.734 10.74 10.734-4.809 10.734-10.74-4.806-10.74-10.734-10.74m242.777 243.355c-5.951 0-10.776 4.827-10.776 10.781s4.825 10.782 10.776 10.782 10.775-4.827 10.775-10.782c0-5.954-4.824-10.781-10.775-10.781m91.478-182.333c-5.831 0-10.557 4.729-10.557 10.563s4.726 10.563 10.557 10.563 10.557-4.729 10.557-10.563-4.726-10.563-10.557-10.563M397.417 174.743c-5.778 0-10.462 4.687-10.462 10.468s4.685 10.468 10.462 10.468c5.779 0 10.463-4.687 10.463-10.468s-4.685-10.468-10.463-10.468M215.091 448.584c-5.791 0-10.486 4.697-10.486 10.491s4.695 10.492 10.486 10.492 10.486-4.698 10.486-10.492-4.695-10.491-10.486-10.491m60.524 60.618c-5.801 0-10.503 4.705-10.503 10.509s4.702 10.509 10.503 10.509 10.503-4.705 10.503-10.509-4.702-10.509-10.503-10.509m274.069-121.541c-5.759 0-10.426 4.67-10.426 10.432s4.667 10.432 10.426 10.432c5.758 0 10.426-4.67 10.426-10.432s-4.668-10.432-10.426-10.432M336.769 174.582c-5.799 0-10.5 4.704-10.5 10.507 0 5.802 4.701 10.506 10.5 10.506s10.5-4.704 10.5-10.506-4.701-10.507-10.5-10.507M397.3 539.759c-5.819 0-10.536 4.719-10.536 10.541s4.717 10.542 10.536 10.542c5.818 0 10.535-4.72 10.535-10.542s-4.717-10.541-10.535-10.541m152.366-243.561c-5.818 0-10.535 4.719-10.535 10.541s4.717 10.542 10.535 10.542 10.536-4.72 10.536-10.542c.001-5.822-4.716-10.541-10.536-10.541m-365.189 30.714c-5.815 0-10.529 4.716-10.529 10.534s4.714 10.534 10.529 10.534 10.528-4.716 10.528-10.534c0-5.817-4.714-10.534-10.528-10.534m.039 60.511c-5.802 0-10.506 4.706-10.506 10.513s4.704 10.512 10.506 10.512 10.507-4.706 10.507-10.512c0-5.807-4.704-10.513-10.507-10.513m152.19 152.4c-5.759 0-10.427 4.672-10.427 10.434s4.669 10.434 10.427 10.434c5.759 0 10.428-4.672 10.428-10.434 0-5.763-4.669-10.434-10.428-10.434m152.038-334.284c-5.68 0-10.284 4.607-10.284 10.29s4.604 10.29 10.284 10.29 10.284-4.607 10.284-10.29-4.604-10.29-10.284-10.29m-60.579-30.46c-5.694 0-10.312 4.619-10.312 10.317s4.617 10.318 10.312 10.318 10.312-4.619 10.312-10.318-4.618-10.317-10.312-10.317m-61.274-.272c-5.867 0-10.623 4.759-10.623 10.629s4.756 10.629 10.623 10.629 10.622-4.759 10.622-10.629-4.755-10.629-10.622-10.629m152.384 60.884c-5.694 0-10.309 4.617-10.309 10.314s4.615 10.315 10.309 10.315 10.309-4.618 10.309-10.315-4.615-10.314-10.309-10.314M306.493 175.12c-5.69 0-10.305 4.616-10.305 10.311 0 5.694 4.614 10.311 10.305 10.311s10.306-4.616 10.306-10.311-4.614-10.311-10.306-10.311m242.775 243.29c-5.716 0-10.35 4.637-10.35 10.357s4.634 10.355 10.35 10.355 10.35-4.636 10.35-10.355c.001-5.72-4.633-10.357-10.35-10.357m-.024-61.142c-5.834 0-10.563 4.732-10.563 10.569s4.729 10.569 10.563 10.569 10.563-4.731 10.563-10.569c0-5.837-4.729-10.569-10.563-10.569m-364.335-60.504c-5.719 0-10.354 4.639-10.354 10.36 0 5.722 4.635 10.361 10.354 10.361s10.354-4.639 10.354-10.361c.001-5.721-4.636-10.36-10.354-10.36m303.923 212.903c-5.711 0-10.341 4.632-10.341 10.347s4.63 10.347 10.341 10.347 10.341-4.633 10.341-10.347c0-5.715-4.63-10.347-10.341-10.347m-182.33 29.901c-5.733 0-10.379 4.649-10.379 10.385s4.646 10.385 10.379 10.385 10.379-4.649 10.379-10.385c-.001-5.736-4.648-10.385-10.379-10.385M184.895 417.94c-5.71 0-10.34 4.631-10.34 10.346 0 5.713 4.629 10.346 10.34 10.346 5.71 0 10.34-4.632 10.34-10.346-.001-5.715-4.63-10.346-10.34-10.346m-.469-60.646c-5.728 0-10.372 4.646-10.372 10.377s4.644 10.378 10.372 10.378 10.371-4.647 10.371-10.378-4.643-10.377-10.371-10.377m61.315 152.322c-5.57 0-10.085 4.518-10.085 10.091 0 5.574 4.516 10.092 10.085 10.092s10.086-4.519 10.086-10.092c0-5.572-4.515-10.091-10.086-10.091m-30.659-30.506c-5.58 0-10.104 4.526-10.104 10.109s4.524 10.109 10.104 10.109 10.103-4.526 10.103-10.109-4.524-10.109-10.103-10.109m334.483-212.508c-5.614 0-10.165 4.554-10.165 10.171s4.551 10.171 10.165 10.171 10.166-4.554 10.166-10.171-4.551-10.171-10.166-10.171m-.03 182.391c-5.591 0-10.124 4.535-10.124 10.129s4.533 10.13 10.124 10.13 10.123-4.536 10.123-10.13-4.531-10.129-10.123-10.129M276.169 174.887c-5.627 0-10.19 4.564-10.19 10.195s4.562 10.195 10.19 10.195 10.189-4.564 10.189-10.195-4.562-10.195-10.189-10.195m-91.336 91.845c-5.447 0-9.864 4.418-9.864 9.87s4.416 9.87 9.864 9.87 9.864-4.419 9.864-9.87c0-5.452-4.416-9.87-9.864-9.87m273.378 273.417c-5.453 0-9.873 4.424-9.873 9.879 0 5.456 4.421 9.878 9.873 9.878 5.453 0 9.873-4.423 9.873-9.878s-4.42-9.879-9.873-9.879m-182.21-.067c-5.466 0-9.897 4.433-9.897 9.902s4.431 9.903 9.897 9.903 9.897-4.434 9.897-9.903-4.431-9.902-9.897-9.902m-91.141-91.17c-5.466 0-9.897 4.434-9.897 9.903s4.431 9.902 9.897 9.902 9.897-4.433 9.897-9.902-4.431-9.903-9.897-9.903m334.511-242.995c-5.493 0-9.948 4.456-9.948 9.954 0 5.497 4.454 9.953 9.948 9.953s9.948-4.456 9.948-9.953c0-5.498-4.454-9.954-9.948-9.954m60.646 121.489c-5.365 0-9.715 4.352-9.715 9.72s4.35 9.72 9.715 9.72 9.714-4.352 9.714-9.72-4.349-9.72-9.714-9.72m-30.367-90.817c-5.369 0-9.722 4.356-9.722 9.728 0 5.373 4.353 9.729 9.722 9.729 5.37 0 9.723-4.356 9.723-9.729s-4.353-9.728-9.723-9.728m30.5 151.868c-5.344 0-9.676 4.335-9.676 9.682s4.331 9.682 9.676 9.682 9.677-4.334 9.677-9.682c0-5.347-4.333-9.682-9.677-9.682M336.767 145.331c-5.274 0-9.55 4.278-9.55 9.556s4.276 9.555 9.55 9.555 9.55-4.278 9.55-9.555-4.276-9.556-9.55-9.556m-121.725 60.688c-5.37 0-9.723 4.356-9.723 9.728 0 5.373 4.353 9.729 9.723 9.729s9.723-4.356 9.723-9.729c.001-5.372-4.353-9.728-9.723-9.728m273.962-30.567c-5.349 0-9.686 4.339-9.686 9.691s4.337 9.692 9.686 9.692 9.686-4.339 9.686-9.692-4.338-9.691-9.686-9.691m29.99 334.558c-5.339 0-9.667 4.33-9.667 9.672s4.327 9.672 9.667 9.672c5.338 0 9.666-4.33 9.666-9.672s-4.328-9.672-9.666-9.672m-91.098-364.638c-5.301 0-9.596 4.299-9.596 9.602 0 5.302 4.296 9.601 9.596 9.601s9.596-4.299 9.596-9.601-4.297-9.602-9.596-9.602m-30.557 425.721c-5.332 0-9.655 4.325-9.655 9.659s4.323 9.66 9.655 9.66 9.654-4.325 9.654-9.66c0-5.334-4.323-9.659-9.654-9.659m-60.422-.004c-5.359 0-9.704 4.347-9.704 9.71 0 5.362 4.345 9.71 9.704 9.71s9.704-4.348 9.704-9.71-4.344-9.71-9.704-9.71M154.602 327.781c-5.308 0-9.611 4.304-9.611 9.616s4.302 9.616 9.611 9.616c5.307 0 9.611-4.304 9.611-9.616s-4.304-9.616-9.611-9.616m395.131 152.18c-5.343 0-9.673 4.334-9.673 9.678s4.331 9.679 9.673 9.679 9.673-4.334 9.673-9.679c0-5.344-4.33-9.678-9.673-9.678M154.415 388.77c-5.121 0-9.271 4.153-9.271 9.277s4.15 9.276 9.271 9.276c5.12 0 9.271-4.153 9.271-9.276s-4.151-9.277-9.271-9.277m425.781-91.678c-5.319 0-9.632 4.315-9.632 9.638s4.313 9.638 9.632 9.638c5.32 0 9.632-4.315 9.632-9.638s-4.312-9.638-9.632-9.638M245.342 175.898c-5.197 0-9.409 4.215-9.409 9.414s4.213 9.413 9.409 9.413c5.195 0 9.408-4.214 9.408-9.413s-4.212-9.414-9.408-9.414m-60.566 60.684c-5.202 0-9.418 4.219-9.418 9.423s4.216 9.423 9.418 9.423 9.417-4.219 9.417-9.423-4.216-9.423-9.417-9.423m303.966 303.907c-5.218 0-9.448 4.233-9.448 9.454 0 5.22 4.23 9.453 9.448 9.453s9.448-4.233 9.448-9.453c0-5.222-4.23-9.454-9.448-9.454m91.196-121.054c-5.172 0-9.365 4.196-9.365 9.37 0 5.176 4.194 9.37 9.365 9.37 5.173 0 9.365-4.195 9.365-9.37s-4.193-9.37-9.365-9.37m-273.48-274.141c-5.216 0-9.444 4.231-9.444 9.45s4.228 9.45 9.444 9.45 9.444-4.231 9.444-9.45-4.229-9.45-9.444-9.45M184.746 480.111c-5.168 0-9.357 4.192-9.357 9.363s4.189 9.362 9.357 9.362 9.357-4.192 9.357-9.362c0-5.171-4.188-9.363-9.357-9.363m182.392 91.255c-5.243 0-9.492 4.253-9.492 9.498s4.25 9.497 9.492 9.497 9.492-4.252 9.492-9.497c0-5.246-4.249-9.498-9.492-9.498m-121.78-30.809c-5.253 0-9.511 4.26-9.511 9.516s4.258 9.517 9.511 9.517 9.511-4.261 9.511-9.517-4.259-9.516-9.511-9.516m182.268 30.6c-5.217 0-9.445 4.232-9.445 9.451s4.229 9.45 9.445 9.45 9.445-4.231 9.445-9.45-4.228-9.451-9.445-9.451M154.214 297.656c-5.217 0-9.446 4.232-9.446 9.452s4.229 9.451 9.446 9.451 9.446-4.231 9.446-9.451-4.229-9.452-9.446-9.452m152.279 273.327c-5.252 0-9.509 4.26-9.509 9.514s4.257 9.513 9.509 9.513c5.251 0 9.508-4.259 9.508-9.513s-4.257-9.514-9.508-9.514M154.378 419.286c-5.013 0-9.077 4.066-9.077 9.082s4.064 9.082 9.077 9.082c5.012 0 9.077-4.066 9.077-9.082-.001-5.016-4.065-9.082-9.077-9.082m.144-61.193c-5.321 0-9.635 4.316-9.635 9.64s4.314 9.641 9.635 9.641c5.322 0 9.635-4.316 9.635-9.641-.001-5.324-4.314-9.64-9.635-9.64m303.956-212.282c-5.055 0-9.153 4.1-9.153 9.158s4.098 9.158 9.153 9.158c5.054 0 9.152-4.1 9.152-9.158s-4.098-9.158-9.152-9.158m121.669 304.016c-5.137 0-9.301 4.166-9.301 9.307 0 5.14 4.164 9.306 9.301 9.306s9.302-4.166 9.302-9.306c0-5.141-4.164-9.307-9.302-9.307M276.068 145.816c-5.023 0-9.095 4.074-9.095 9.1 0 5.027 4.071 9.101 9.095 9.101 5.023 0 9.095-4.074 9.095-9.101 0-5.026-4.072-9.1-9.095-9.1m182.41 425.754c-5.112 0-9.256 4.146-9.256 9.26s4.144 9.261 9.256 9.261c5.111 0 9.255-4.147 9.255-9.261s-4.144-9.26-9.255-9.26m60.835-395.191c-4.986 0-9.029 4.045-9.029 9.034s4.043 9.034 9.029 9.034 9.029-4.045 9.029-9.034c0-4.988-4.043-9.034-9.029-9.034m30.524 30.534c-4.987 0-9.029 4.044-9.029 9.034 0 4.989 4.042 9.033 9.029 9.033 4.986 0 9.028-4.044 9.028-9.033 0-4.99-4.042-9.034-9.028-9.034M154.421 450.156c-4.842 0-8.767 3.928-8.767 8.773s3.925 8.772 8.767 8.772 8.768-3.927 8.768-8.772-3.926-8.773-8.768-8.773m121.513 121.433c-4.951 0-8.963 4.015-8.963 8.968s4.012 8.968 8.963 8.968 8.963-4.015 8.963-8.968-4.013-8.968-8.963-8.968m-60.562-395.21c-4.985 0-9.026 4.044-9.026 9.032s4.041 9.032 9.026 9.032c4.986 0 9.027-4.044 9.027-9.032s-4.041-9.032-9.027-9.032m333.911 334.55c-4.998 0-9.051 4.055-9.051 9.056s4.053 9.056 9.051 9.056 9.051-4.055 9.051-9.056-4.053-9.056-9.051-9.056M184.831 206.478c-4.979 0-9.016 4.039-9.016 9.02 0 4.982 4.037 9.021 9.016 9.021s9.016-4.039 9.016-9.021c0-4.981-4.036-9.02-9.016-9.02m334.407 334.374c-5.05 0-9.143 4.097-9.143 9.149 0 5.053 4.094 9.149 9.143 9.149s9.143-4.097 9.143-9.149c0-5.053-4.094-9.149-9.143-9.149m-334.675-30.045c-4.867 0-8.813 3.948-8.813 8.818s3.946 8.818 8.813 8.818 8.813-3.948 8.813-8.818-3.946-8.818-8.813-8.818m30.459 30.577c-4.853 0-8.787 3.936-8.787 8.793s3.933 8.793 8.787 8.793 8.788-3.936 8.788-8.793-3.934-8.793-8.788-8.793m273.985-395.11c-4.795 0-8.682 3.889-8.682 8.687 0 4.797 3.887 8.686 8.682 8.686s8.682-3.889 8.682-8.686-3.887-8.687-8.682-8.687m91.056 91.132c-4.827 0-8.741 3.916-8.741 8.746s3.914 8.746 8.741 8.746c4.828 0 8.742-3.916 8.742-8.746-.001-4.83-3.915-8.746-8.742-8.746M397.914 115.709c-4.877 0-8.831 3.957-8.831 8.837s3.954 8.836 8.831 8.836c4.878 0 8.832-3.956 8.832-8.836s-3.954-8.837-8.832-8.837m-61.169.044c-4.888 0-8.851 3.964-8.851 8.856s3.963 8.856 8.851 8.856 8.851-3.965 8.851-8.856c0-4.892-3.963-8.856-8.851-8.856m273.431 212.874c-4.801 0-8.692 3.894-8.692 8.697s3.891 8.696 8.692 8.696c4.8 0 8.691-3.893 8.691-8.696s-3.891-8.697-8.691-8.697m-.041 60.654c-4.806 0-8.702 3.899-8.702 8.707s3.896 8.707 8.702 8.707 8.702-3.898 8.702-8.707c0-4.808-3.896-8.707-8.702-8.707M367.16 115.89c-4.771 0-8.64 3.87-8.64 8.645s3.868 8.646 8.64 8.646 8.641-3.87 8.641-8.646c0-4.774-3.868-8.645-8.641-8.645m213.134 364.948c-4.849 0-8.779 3.933-8.779 8.784s3.93 8.784 8.779 8.784c4.848 0 8.778-3.933 8.778-8.784s-3.93-8.784-8.778-8.784m-334.57-334.589c-4.788 0-8.668 3.883-8.668 8.673s3.88 8.672 8.668 8.672 8.667-3.882 8.667-8.672-3.88-8.673-8.667-8.673m364.472 212.899c-4.795 0-8.681 3.889-8.681 8.686s3.886 8.687 8.681 8.687 8.682-3.889 8.682-8.687c0-4.797-3.887-8.686-8.682-8.686m-273.49 242.959c-4.828 0-8.742 3.916-8.742 8.747s3.914 8.746 8.742 8.746 8.742-3.916 8.742-8.746c0-4.831-3.914-8.747-8.742-8.747m273.651-304.01c-4.853 0-8.788 3.937-8.788 8.793s3.935 8.793 8.788 8.793 8.788-3.937 8.788-8.793-3.935-8.793-8.788-8.793M427.889 115.655c-4.756 0-8.611 3.858-8.611 8.616 0 4.759 3.855 8.617 8.611 8.617s8.611-3.858 8.611-8.617c0-4.758-3.855-8.616-8.611-8.616m-30.372 486.454c-4.872 0-8.822 3.952-8.822 8.827s3.95 8.827 8.822 8.827c4.873 0 8.823-3.952 8.823-8.827s-3.95-8.827-8.823-8.827m91.004-30.191c-4.761 0-8.62 3.861-8.62 8.624s3.859 8.625 8.62 8.625 8.619-3.862 8.619-8.625-3.859-8.624-8.619-8.624m-334.03-334.422c-4.709 0-8.525 3.819-8.525 8.53s3.817 8.53 8.525 8.53 8.525-3.82 8.525-8.53a8.527 8.527 0 0 0-8.525-8.53m-30.524 91.169c-4.709 0-8.525 3.82-8.525 8.53 0 4.711 3.817 8.53 8.525 8.53s8.525-3.819 8.525-8.53c.001-4.71-3.816-8.53-8.525-8.53m30.445 152.23a8.32 8.32 0 0 0-8.317 8.321c0 4.597 3.724 8.323 8.317 8.323 4.594 0 8.318-3.726 8.318-8.323-.001-4.595-3.725-8.321-8.318-8.321m90.957 91.137c-4.758 0-8.615 3.859-8.615 8.62 0 4.762 3.858 8.621 8.615 8.621 4.759 0 8.616-3.859 8.616-8.621 0-4.761-3.857-8.62-8.616-8.62m365.06-151.75c-4.733 0-8.571 3.84-8.571 8.576s3.838 8.576 8.571 8.576c4.734 0 8.572-3.839 8.572-8.576 0-4.736-3.838-8.576-8.572-8.576m-486.541-30.557c-4.594 0-8.318 3.726-8.318 8.323a8.32 8.32 0 0 0 8.318 8.322c4.593 0 8.317-3.726 8.317-8.322 0-4.597-3.724-8.323-8.317-8.323M306.443 115.82c-4.713 0-8.532 3.822-8.532 8.537a8.534 8.534 0 0 0 8.532 8.536c4.712 0 8.531-3.822 8.531-8.536.001-4.715-3.819-8.537-8.531-8.537M123.654 358.977c-4.755 0-8.61 3.858-8.61 8.616s3.855 8.615 8.61 8.615 8.61-3.858 8.61-8.615c0-4.758-3.854-8.616-8.61-8.616m.179 61.214c-4.51 0-8.166 3.659-8.166 8.171a8.17 8.17 0 0 0 8.166 8.17 8.17 8.17 0 0 0 8.166-8.17c0-4.512-3.656-8.171-8.166-8.171m.324-121.667c-4.704 0-8.518 3.816-8.518 8.523s3.814 8.522 8.518 8.522 8.518-3.816 8.518-8.522-3.814-8.523-8.518-8.523m303.576 303.874c-4.75 0-8.599 3.852-8.599 8.604s3.849 8.604 8.599 8.604c4.749 0 8.599-3.852 8.599-8.604.001-4.751-3.85-8.604-8.599-8.604m-121.334.103c-4.706 0-8.52 3.817-8.52 8.526s3.814 8.525 8.52 8.525 8.52-3.817 8.52-8.525-3.815-8.526-8.52-8.526m243.13-425.631c-4.597 0-8.325 3.73-8.325 8.331s3.728 8.33 8.325 8.33a8.33 8.33 0 0 0 8.326-8.33c-.001-4.602-3.728-8.331-8.326-8.331m60.59 91.527c-4.651 0-8.422 3.773-8.422 8.427s3.771 8.427 8.422 8.427 8.423-3.773 8.423-8.427-3.771-8.427-8.423-8.427m-425.073-91.652c-4.611 0-8.348 3.74-8.348 8.353s3.737 8.353 8.348 8.353c4.61 0 8.348-3.74 8.348-8.353-.001-4.613-3.738-8.353-8.348-8.353m395.214 30.417c-4.641 0-8.404 3.765-8.404 8.409 0 4.643 3.763 8.408 8.404 8.408s8.404-3.765 8.404-8.408c0-4.644-3.763-8.409-8.404-8.409m29.858 243.543c-4.643 0-8.407 3.766-8.407 8.413 0 4.645 3.763 8.412 8.407 8.412 4.643 0 8.408-3.766 8.408-8.412-.001-4.646-3.765-8.413-8.408-8.413M458.477 116.149c-4.641 0-8.404 3.765-8.404 8.409 0 4.643 3.763 8.408 8.404 8.408s8.403-3.765 8.403-8.408c0-4.644-3.761-8.409-8.403-8.409m91.24 425.787c-4.62 0-8.365 3.747-8.365 8.37a8.367 8.367 0 0 0 8.365 8.369 8.367 8.367 0 0 0 8.365-8.369c0-4.623-3.745-8.37-8.365-8.37m-273.568-425.79c-4.63 0-8.383 3.756-8.383 8.388 0 4.633 3.753 8.389 8.383 8.389s8.384-3.756 8.384-8.389-3.755-8.388-8.384-8.388m242.82 30.521c-4.553 0-8.243 3.693-8.243 8.248 0 4.556 3.69 8.249 8.243 8.249a8.246 8.246 0 0 0 8.244-8.249 8.246 8.246 0 0 0-8.244-8.248M124.182 268.452a8.125 8.125 0 0 0-8.123 8.128 8.125 8.125 0 0 0 8.123 8.128c4.486 0 8.123-3.639 8.123-8.128s-3.638-8.128-8.123-8.128m333.996 334.531a8.19 8.19 0 0 0-8.186 8.19 8.19 8.19 0 0 0 8.186 8.19c4.52 0 8.185-3.667 8.185-8.19s-3.665-8.19-8.185-8.19M154.225 207.358c-4.465 0-8.084 3.622-8.084 8.089s3.619 8.09 8.084 8.09 8.085-3.622 8.085-8.09a8.087 8.087 0 0 0-8.085-8.089m425.698 304.555a8.107 8.107 0 0 0-8.105 8.109c0 4.479 3.629 8.11 8.105 8.11a8.107 8.107 0 0 0 8.105-8.11 8.106 8.106 0 0 0-8.105-8.109m-60.655 60.472a8.12 8.12 0 0 0-8.12 8.124 8.12 8.12 0 0 0 8.12 8.124 8.12 8.12 0 0 0 8.119-8.124c-.001-4.487-3.636-8.124-8.119-8.124m-334.39-30.496c-4.484 0-8.12 3.638-8.12 8.125s3.636 8.125 8.12 8.125a8.123 8.123 0 0 0 8.121-8.125 8.123 8.123 0 0 0-8.121-8.125m30.48-395.295a8.14 8.14 0 0 0-8.139 8.143 8.14 8.14 0 0 0 8.139 8.142 8.14 8.14 0 0 0 8.138-8.142 8.14 8.14 0 0 0-8.138-8.143m60.604 456.39c-4.503 0-8.153 3.653-8.153 8.158a8.155 8.155 0 0 0 8.153 8.157c4.503 0 8.153-3.653 8.153-8.157 0-4.505-3.65-8.158-8.153-8.158m-152.11-151.871a7.784 7.784 0 0 0-7.782 7.787 7.784 7.784 0 0 0 7.782 7.787 7.784 7.784 0 0 0 7.783-7.787 7.784 7.784 0 0 0-7.783-7.787m91.135 121.3c-4.473 0-8.1 3.629-8.1 8.105s3.627 8.105 8.1 8.105c4.474 0 8.1-3.629 8.1-8.105s-3.626-8.105-8.1-8.105m-60.632-60.364a7.737 7.737 0 0 0-7.735 7.739 7.737 7.737 0 0 0 7.735 7.739 7.736 7.736 0 0 0 7.734-7.739 7.736 7.736 0 0 0-7.734-7.739M610.183 238.35a7.93 7.93 0 0 0-7.928 7.932 7.93 7.93 0 0 0 7.928 7.933 7.93 7.93 0 0 0 7.928-7.933 7.93 7.93 0 0 0-7.928-7.932M488.905 116.715a7.863 7.863 0 0 0-7.861 7.866c0 4.343 3.519 7.866 7.861 7.866a7.863 7.863 0 0 0 7.861-7.866c-.001-4.344-3.52-7.866-7.861-7.866m-243.294-.154a7.954 7.954 0 0 0-7.951 7.956 7.954 7.954 0 0 0 7.951 7.956 7.954 7.954 0 0 0 7.951-7.956 7.953 7.953 0 0 0-7.951-7.956M610.15 481.686a7.977 7.977 0 0 0-7.975 7.979c0 4.407 3.57 7.98 7.975 7.98a7.977 7.977 0 0 0 7.975-7.98 7.977 7.977 0 0 0-7.975-7.979M488.798 603.368a7.77 7.77 0 0 0-7.769 7.774 7.77 7.77 0 0 0 7.769 7.773 7.77 7.77 0 0 0 7.768-7.773c0-4.293-3.478-7.774-7.768-7.774m152.186-212.875a7.753 7.753 0 0 0-7.751 7.756 7.753 7.753 0 0 0 7.751 7.755 7.754 7.754 0 0 0 7.752-7.755 7.754 7.754 0 0 0-7.752-7.756m-.063-60.624a7.69 7.69 0 0 0-7.685 7.689 7.687 7.687 0 0 0 7.685 7.689 7.686 7.686 0 0 0 7.684-7.689 7.685 7.685 0 0 0-7.684-7.689M397.57 86.48a7.66 7.66 0 0 0-7.659 7.663 7.66 7.66 0 0 0 7.659 7.663 7.66 7.66 0 0 0 7.659-7.663 7.66 7.66 0 0 0-7.659-7.663m-60.532-.027a7.755 7.755 0 0 0-7.753 7.757 7.755 7.755 0 0 0 7.753 7.758 7.755 7.755 0 0 0 7.753-7.758 7.755 7.755 0 0 0-7.753-7.757M124.226 238.459a7.616 7.616 0 0 0-7.614 7.618 7.616 7.616 0 0 0 7.614 7.619 7.617 7.617 0 0 0 7.615-7.619 7.617 7.617 0 0 0-7.615-7.618m121.115 364.954a7.76 7.76 0 0 0-7.759 7.763 7.76 7.76 0 0 0 7.759 7.763 7.76 7.76 0 0 0 7.758-7.763 7.76 7.76 0 0 0-7.758-7.763m395.275-243.395a7.96 7.96 0 0 0-7.956 7.961 7.96 7.96 0 0 0 7.956 7.96 7.96 7.96 0 0 0 7.956-7.96 7.96 7.96 0 0 0-7.956-7.961M367.048 86.48a7.66 7.66 0 0 0-7.66 7.665 7.66 7.66 0 0 0 7.66 7.665 7.663 7.663 0 0 0 7.661-7.665 7.663 7.663 0 0 0-7.661-7.665M123.844 481.89a7.346 7.346 0 0 0-7.344 7.348 7.346 7.346 0 0 0 7.344 7.349 7.346 7.346 0 0 0 7.344-7.349 7.346 7.346 0 0 0-7.344-7.348m517.261-182.493a7.685 7.685 0 0 0-7.683 7.687 7.685 7.685 0 0 0 7.683 7.687 7.685 7.685 0 0 0 7.683-7.687 7.685 7.685 0 0 0-7.683-7.687M428.282 86.559a7.67 7.67 0 0 0-7.669 7.673 7.67 7.67 0 0 0 7.669 7.674 7.67 7.67 0 0 0 7.668-7.674 7.67 7.67 0 0 0-7.668-7.673m151.468 91.176a7.685 7.685 0 0 0-7.683 7.687 7.685 7.685 0 0 0 7.683 7.687 7.685 7.685 0 0 0 7.683-7.687 7.685 7.685 0 0 0-7.683-7.687M306.322 86.583a7.42 7.42 0 0 0-7.419 7.423c0 4.1 3.321 7.424 7.419 7.424a7.42 7.42 0 0 0 7.419-7.424 7.42 7.42 0 0 0-7.419-7.423m334.463 334.562a7.43 7.43 0 0 0-7.428 7.433 7.43 7.43 0 0 0 7.428 7.432 7.43 7.43 0 0 0 7.429-7.432 7.43 7.43 0 0 0-7.429-7.433M93.587 390.812a7.26 7.26 0 0 0-7.26 7.264 7.26 7.26 0 0 0 7.26 7.264 7.26 7.26 0 0 0 7.26-7.264 7.26 7.26 0 0 0-7.26-7.264m243.108 243.235a7.41 7.41 0 0 0-7.408 7.412 7.41 7.41 0 0 0 7.408 7.412 7.41 7.41 0 0 0 7.408-7.412 7.41 7.41 0 0 0-7.408-7.412M93.415 329.903a7.48 7.48 0 0 0-7.476 7.481 7.48 7.48 0 0 0 7.477 7.481 7.48 7.48 0 0 0 7.476-7.481 7.48 7.48 0 0 0-7.476-7.481m486.777 212.865a7.524 7.524 0 0 0-7.522 7.526 7.525 7.525 0 0 0 7.522 7.526 7.524 7.524 0 0 0 7.521-7.526 7.523 7.523 0 0 0-7.521-7.526m-30.484 30.54a7.55 7.55 0 0 0-7.55 7.555 7.55 7.55 0 0 0 7.55 7.554c4.17 0 7.55-3.382 7.55-7.554a7.55 7.55 0 0 0-7.55-7.555M185.155 147.534a7.38 7.38 0 0 0-7.377 7.381 7.38 7.38 0 0 0 7.377 7.382 7.38 7.38 0 0 0 7.377-7.382 7.38 7.38 0 0 0-7.377-7.381m-30.558 30.09a7.45 7.45 0 0 0-7.449 7.454 7.45 7.45 0 0 0 7.449 7.453 7.45 7.45 0 0 0 7.45-7.453 7.45 7.45 0 0 0-7.45-7.454m455.559 30.489a7.45 7.45 0 0 0-7.449 7.454 7.45 7.45 0 0 0 7.449 7.454 7.45 7.45 0 0 0 7.45-7.454 7.45 7.45 0 0 0-7.45-7.454M306.183 633.932a7.505 7.505 0 0 0-7.503 7.507 7.505 7.505 0 0 0 7.503 7.508 7.506 7.506 0 0 0 7.504-7.508 7.506 7.506 0 0 0-7.504-7.507m212.852-516.919a7.49 7.49 0 0 0-7.488 7.493 7.49 7.49 0 0 0 7.488 7.492 7.49 7.49 0 0 0 7.489-7.492 7.49 7.49 0 0 0-7.489-7.493M93.53 421.287a7.11 7.11 0 0 0-7.108 7.112 7.11 7.11 0 0 0 7.108 7.112 7.11 7.11 0 0 0 7.108-7.112 7.11 7.11 0 0 0-7.108-7.112m364.616-334.36a7.36 7.36 0 0 0-7.359 7.365 7.36 7.36 0 0 0 7.359 7.363 7.36 7.36 0 0 0 7.36-7.363 7.36 7.36 0 0 0-7.36-7.364m-273.31 486.394a7.33 7.33 0 0 0-7.33 7.334 7.331 7.331 0 1 0 14.66 0 7.33 7.33 0 0 0-7.33-7.334m-30.419-30.247a7.01 7.01 0 0 0-7.006 7.01 7.01 7.01 0 0 0 7.006 7.011 7.01 7.01 0 0 0 7.006-7.011 7.01 7.01 0 0 0-7.006-7.01m486.489-273.887a7.25 7.25 0 0 0-7.249 7.253 7.25 7.25 0 0 0 7.249 7.253 7.25 7.25 0 0 0 7.248-7.253 7.25 7.25 0 0 0-7.248-7.253m-516.629-60.99a7.23 7.23 0 0 0-7.227 7.233 7.23 7.23 0 0 0 7.227 7.231 7.23 7.23 0 0 0 7.228-7.231 7.23 7.23 0 0 0-7.228-7.233m91.174-91.397a7.364 7.364 0 0 0-7.362 7.367 7.364 7.364 0 0 0 7.362 7.366 7.365 7.365 0 0 0 7.363-7.366 7.365 7.365 0 0 0-7.363-7.367m425.474 334.592a7.356 7.356 0 0 0-7.354 7.358 7.356 7.356 0 0 0 7.354 7.358 7.355 7.355 0 0 0 7.354-7.358 7.356 7.356 0 0 0-7.354-7.358M275.828 86.915a7.275 7.275 0 0 0-7.273 7.277 7.275 7.275 0 0 0 7.273 7.278 7.276 7.276 0 0 0 7.274-7.278 7.276 7.276 0 0 0-7.274-7.277m334.701 425.74a7.305 7.305 0 0 0-7.302 7.307 7.304 7.304 0 0 0 7.302 7.306 7.305 7.305 0 0 0 7.303-7.306 7.306 7.306 0 0 0-7.303-7.307M519.3 603.848a7.32 7.32 0 0 0-7.317 7.321 7.32 7.32 0 0 0 7.317 7.323 7.32 7.32 0 0 0 7.317-7.323 7.32 7.32 0 0 0-7.317-7.321m-60.853 30.512a7.067 7.067 0 0 0-7.064 7.069 7.066 7.066 0 0 0 7.064 7.068 7.065 7.065 0 0 0 7.064-7.068 7.066 7.066 0 0 0-7.064-7.069m-182.795.009a7.12 7.12 0 0 0-7.118 7.122 7.12 7.12 0 0 0 7.118 7.122 7.12 7.12 0 0 0 7.118-7.122 7.12 7.12 0 0 0-7.118-7.122M93.569 452.111a6.79 6.79 0 0 0-6.785 6.79c0 3.75 3.037 6.79 6.785 6.79a6.79 6.79 0 0 0 6.786-6.79c0-3.75-3.038-6.79-6.786-6.79m30.288 60.638a6.79 6.79 0 0 0-6.786 6.79 6.787 6.787 0 1 0 13.572 0c0-3.75-3.039-6.79-6.786-6.79m91.342 91.032a7.055 7.055 0 0 0-7.052 7.057 7.054 7.054 0 0 0 7.052 7.056 7.055 7.055 0 0 0 7.053-7.056 7.055 7.055 0 0 0-7.053-7.057M93.407 269.232a7.07 7.07 0 0 0-7.067 7.072 7.07 7.07 0 0 0 7.067 7.071 7.07 7.07 0 0 0 7.068-7.071 7.07 7.07 0 0 0-7.068-7.072m395.225-181.88a6.893 6.893 0 0 0-6.891 6.894 6.894 6.894 0 0 0 6.891 6.895 6.893 6.893 0 0 0 6.89-6.895 6.89 6.89 0 0 0-6.89-6.894m152.34 151.828a6.87 6.87 0 0 0-6.866 6.871 6.87 6.87 0 0 0 6.866 6.87 6.87 6.87 0 0 0 6.867-6.87 6.87 6.87 0 0 0-6.867-6.871M245.362 87.363a6.874 6.874 0 0 0-6.872 6.876 6.874 6.874 0 0 0 6.872 6.876 6.874 6.874 0 0 0 6.872-6.876 6.874 6.874 0 0 0-6.872-6.876m334.468 60.463a6.947 6.947 0 0 0-6.945 6.949 6.947 6.947 0 0 0 6.945 6.949 6.947 6.947 0 0 0 6.945-6.949 6.947 6.947 0 0 0-6.945-6.949m60.574 334.639a6.9 6.9 0 0 0-6.897 6.901 6.9 6.9 0 0 0 6.897 6.901 6.9 6.9 0 0 0 6.897-6.901 6.9 6.9 0 0 0-6.897-6.901m-90.827-364.59a6.633 6.633 0 0 0-6.63 6.634 6.633 6.633 0 0 0 6.63 6.635 6.633 6.633 0 0 0 6.631-6.635 6.633 6.633 0 0 0-6.631-6.634m60.639 60.726a6.58 6.58 0 0 0-6.58 6.583 6.58 6.58 0 1 0 13.159 0 6.58 6.58 0 0 0-6.579-6.583m-35.827 405.307a.044.044 0 0 0-.044.044.044.044 0 1 0 .088 0 .044.044 0 0 0-.044-.044m5.75-9.74a6.58 6.58 0 0 0-6.579 6.583 6.58 6.58 0 0 0 6.579 6.584 6.58 6.58 0 0 0 6.579-6.584 6.58 6.58 0 0 0-6.579-6.583M93.344 239.537a6.713 6.713 0 0 0-6.712 6.715 6.713 6.713 0 0 0 6.712 6.716 6.713 6.713 0 0 0 6.711-6.716 6.713 6.713 0 0 0-6.712-6.715m152.392 395.208a6.68 6.68 0 0 0-6.679 6.683 6.68 6.68 0 1 0 13.358 0 6.68 6.68 0 0 0-6.679-6.683m242.72-.094a6.61 6.61 0 0 0-6.609 6.613 6.61 6.61 0 0 0 6.609 6.613 6.61 6.61 0 0 0 6.609-6.613 6.61 6.61 0 0 0-6.609-6.613m-333.89-486.777a6.687 6.687 0 0 0-6.686 6.689 6.69 6.69 0 0 0 6.686 6.69 6.69 6.69 0 0 0 6.686-6.69 6.69 6.69 0 0 0-6.686-6.689m516.773 213.435a6.644 6.644 0 0 0-6.643 6.646 6.645 6.645 0 0 0 6.643 6.646 6.644 6.644 0 0 0 6.642-6.646 6.643 6.643 0 0 0-6.642-6.646m-.084-30.54a6.64 6.64 0 0 0-6.637 6.642 6.64 6.64 0 0 0 6.637 6.641 6.64 6.64 0 0 0 6.638-6.641 6.64 6.64 0 0 0-6.638-6.642M154.565 573.64a6.643 6.643 0 0 0-6.641 6.645 6.64 6.64 0 0 0 6.641 6.643 6.64 6.64 0 0 0 6.639-6.643 6.64 6.64 0 0 0-6.639-6.645M397.88 56.756a6.65 6.65 0 0 0-6.647 6.65 6.65 6.65 0 0 0 6.647 6.652 6.65 6.65 0 0 0 6.647-6.651 6.65 6.65 0 0 0-6.647-6.65m151.753 547.421a6.674 6.674 0 0 0-6.671 6.675 6.674 6.674 0 0 0 6.671 6.675 6.674 6.674 0 0 0 6.671-6.675 6.673 6.673 0 0 0-6.671-6.675m60.471-60.602a6.65 6.65 0 0 0-6.648 6.653 6.65 6.65 0 0 0 6.648 6.653 6.65 6.65 0 0 0 6.649-6.653 6.65 6.65 0 0 0-6.649-6.653m61.122-152.322a6.714 6.714 0 0 0-6.711 6.715 6.714 6.714 0 0 0 6.711 6.715 6.714 6.714 0 0 0 6.711-6.715 6.714 6.714 0 0 0-6.711-6.715M123.967 178.441a6.703 6.703 0 0 0-6.701 6.705c0 3.703 3 6.706 6.701 6.706a6.704 6.704 0 0 0 6.702-6.706c0-3.703-3-6.705-6.702-6.705m61.177-60.506a6.6 6.6 0 0 0-6.6 6.604 6.603 6.603 0 0 0 6.6 6.605c3.645 0 6.6-2.957 6.6-6.605a6.6 6.6 0 0 0-6.6-6.604M93.527 482.974a6.24 6.24 0 0 0-6.239 6.242 6.24 6.24 0 0 0 6.239 6.242 6.24 6.24 0 0 0 6.239-6.242 6.24 6.24 0 0 0-6.24-6.242m243.24-426.241a6.723 6.723 0 0 0-6.721 6.725 6.723 6.723 0 0 0 6.721 6.725 6.723 6.723 0 0 0 6.721-6.725 6.723 6.723 0 0 0-6.721-6.725m30.417.187a6.504 6.504 0 0 0-6.502 6.506 6.504 6.504 0 0 0 6.502 6.507 6.504 6.504 0 0 0 6.503-6.507 6.504 6.504 0 0 0-6.503-6.506M63.126 361.365a6.42 6.42 0 0 0-6.42 6.424 6.42 6.42 0 0 0 6.42 6.424 6.42 6.42 0 0 0 6.42-6.424 6.42 6.42 0 0 0-6.42-6.424m121.759 243.277a6.477 6.477 0 0 0-6.476 6.479 6.48 6.48 0 0 0 6.476 6.48 6.48 6.48 0 0 0 6.476-6.48c0-3.578-2.9-6.479-6.476-6.479M306.552 57.194a6.477 6.477 0 0 0-6.476 6.48 6.477 6.477 0 1 0 12.951 0c0-3.578-2.9-6.48-6.475-6.48M63.225 392.01a6.057 6.057 0 0 0-6.055 6.059 6.057 6.057 0 0 0 6.055 6.059 6.057 6.057 0 0 0 6.055-6.059 6.055 6.055 0 0 0-6.055-6.059M671 300.593a6.455 6.455 0 0 0-6.454 6.457 6.455 6.455 0 1 0 12.907 0 6.454 6.454 0 0 0-6.453-6.457m-.064 121.72a6.48 6.48 0 0 0-6.477 6.48 6.48 6.48 0 0 0 6.477 6.481 6.48 6.48 0 0 0 6.477-6.481 6.48 6.48 0 0 0-6.477-6.48m-607.93-91.631a6.37 6.37 0 0 0-6.37 6.374 6.37 6.37 0 0 0 6.37 6.374 6.37 6.37 0 0 0 6.37-6.374 6.373 6.373 0 0 0-6.37-6.374m273.477 334.506a6.435 6.435 0 0 0-6.434 6.438 6.435 6.435 0 1 0 12.868 0 6.435 6.435 0 0 0-6.434-6.438m61.199-.016a6.44 6.44 0 0 0-6.439 6.442 6.44 6.44 0 0 0 6.439 6.443 6.44 6.44 0 0 0 6.439-6.443 6.44 6.44 0 0 0-6.439-6.442m30.511-608.083a6.456 6.456 0 0 0-6.454 6.457 6.456 6.456 0 0 0 6.454 6.457 6.455 6.455 0 0 0 6.452-6.457 6.453 6.453 0 0 0-6.452-6.457m-304.35 486.929a6.05 6.05 0 0 0-6.046 6.05 6.047 6.047 0 0 0 6.046 6.049 6.047 6.047 0 0 0 6.046-6.049 6.05 6.05 0 0 0-6.046-6.05M518.986 87.759a6.135 6.135 0 0 0-6.133 6.137 6.135 6.135 0 0 0 6.133 6.137 6.135 6.135 0 0 0 6.133-6.137 6.135 6.135 0 0 0-6.133-6.137M640.66 209.487a6.116 6.116 0 0 0-6.114 6.118 6.116 6.116 0 0 0 6.114 6.118 6.117 6.117 0 0 0 6.115-6.118 6.117 6.117 0 0 0-6.115-6.118m-334.491 456.27a6.214 6.214 0 0 0-6.212 6.217 6.214 6.214 0 0 0 6.212 6.216 6.214 6.214 0 0 0 6.213-6.216 6.214 6.214 0 0 0-6.213-6.217m121.802-.053a6.22 6.22 0 0 0-6.221 6.223 6.223 6.223 0 0 0 6.221 6.224 6.22 6.22 0 0 0 6.22-6.224 6.22 6.22 0 0 0-6.22-6.223M63.347 300.591a6.24 6.24 0 0 0-6.236 6.24 6.237 6.237 0 1 0 12.473 0 6.24 6.24 0 0 0-6.237-6.24m-.081 121.919a5.867 5.867 0 0 0-5.865 5.868 5.867 5.867 0 0 0 5.865 5.869 5.867 5.867 0 0 0 5.865-5.869 5.867 5.867 0 0 0-5.865-5.868m577.483 90.838a6.26 6.26 0 0 0-6.258 6.262 6.26 6.26 0 0 0 6.258 6.262 6.26 6.26 0 0 0 6.259-6.262 6.26 6.26 0 0 0-6.259-6.262M214.977 87.674a6.24 6.24 0 0 0-6.236 6.24 6.237 6.237 0 0 0 6.236 6.239 6.237 6.237 0 0 0 6.236-6.24 6.24 6.24 0 0 0-6.236-6.239m456.067 182.921a5.965 5.965 0 0 0-5.963 5.967 5.965 5.965 0 0 0 5.963 5.967 5.965 5.965 0 0 0 5.964-5.967 5.966 5.966 0 0 0-5.964-5.967M458.205 57.696a5.986 5.986 0 0 0-5.985 5.988 5.986 5.986 0 1 0 11.969 0 5.986 5.986 0 0 0-5.984-5.988m60.996 578.082a5.905 5.905 0 0 0-5.902 5.906 5.904 5.904 0 0 0 5.902 5.905 5.904 5.904 0 0 0 5.902-5.905 5.904 5.904 0 0 0-5.902-5.906m-425.5-426.365a6.026 6.026 0 0 0-6.024 6.028 6.025 6.025 0 0 0 6.024 6.027 6.025 6.025 0 0 0 6.024-6.027 6.025 6.025 0 0 0-6.024-6.028M275.782 57.699a6.023 6.023 0 0 0-6.021 6.025 6.023 6.023 0 0 0 6.021 6.024 6.023 6.023 0 0 0 6.021-6.024 6.023 6.023 0 0 0-6.021-6.025M93.568 513.89a5.646 5.646 0 0 0-5.644 5.648 5.646 5.646 0 1 0 11.289 0 5.646 5.646 0 0 0-5.645-5.648m121.194 121.272a5.98 5.98 0 0 0-5.976 5.98 5.977 5.977 0 1 0 11.952 0 5.98 5.98 0 0 0-5.976-5.98m456.18-182.351a6.017 6.017 0 0 0-6.015 6.019 6.015 6.015 0 1 0 12.029 0 6.017 6.017 0 0 0-6.014-6.019M63.425 270.55a5.765 5.765 0 0 0-5.763 5.767 5.764 5.764 0 1 0 11.526 0 5.765 5.765 0 0 0-5.763-5.767m394.973 395.738a5.727 5.727 0 0 0-5.725 5.728 5.727 5.727 0 0 0 5.725 5.729 5.727 5.727 0 0 0 5.725-5.729 5.727 5.727 0 0 0-5.725-5.728M63.256 453.44a5.465 5.465 0 0 0-5.463 5.467 5.464 5.464 0 1 0 10.926 0 5.464 5.464 0 0 0-5.463-5.467m546.966-304.155a5.803 5.803 0 0 0-5.802 5.805 5.803 5.803 0 0 0 5.802 5.806 5.803 5.803 0 0 0 5.802-5.806 5.803 5.803 0 0 0-5.802-5.805M275.574 666.212a5.79 5.79 0 0 0-5.786 5.79 5.787 5.787 0 0 0 5.786 5.789 5.79 5.79 0 0 0 5.786-5.789c0-3.198-2.59-5.79-5.786-5.79m304.594-547.644a5.804 5.804 0 0 0-5.802 5.805 5.803 5.803 0 0 0 5.802 5.806 5.804 5.804 0 0 0 5.801-5.806 5.803 5.803 0 0 0-5.801-5.805m-.315 486.963a5.58 5.58 0 0 0-5.579 5.582 5.58 5.58 0 0 0 5.579 5.582 5.58 5.58 0 0 0 5.579-5.582 5.58 5.58 0 0 0-5.579-5.582M124.146 149.342a5.51 5.51 0 0 0-5.507 5.509 5.51 5.51 0 0 0 5.507 5.51 5.51 5.51 0 0 0 5.506-5.51 5.506 5.506 0 0 0-5.506-5.509m486.246 425.737a5.52 5.52 0 0 0-5.517 5.521 5.518 5.518 0 1 0 11.035 0 5.52 5.52 0 0 0-5.518-5.521M154.288 118.904a5.47 5.47 0 0 0-5.466 5.469 5.467 5.467 0 1 0 10.932 0 5.47 5.47 0 0 0-5.466-5.469m486.754 60.93a5.624 5.624 0 0 0-5.623 5.626 5.625 5.625 0 0 0 5.623 5.627 5.626 5.626 0 0 0 5.623-5.627 5.625 5.625 0 0 0-5.623-5.626M549.795 88.66a5.605 5.605 0 0 0-5.604 5.607 5.605 5.605 0 1 0 11.208 0 5.606 5.606 0 0 0-5.604-5.607M245.737 58.11a5.327 5.327 0 0 0-5.326 5.328 5.33 5.33 0 0 0 5.326 5.33 5.327 5.327 0 0 0 5.325-5.33 5.326 5.326 0 0 0-5.325-5.328M124.075 575.093a5.3 5.3 0 0 0-5.298 5.301 5.3 5.3 0 0 0 5.298 5.301 5.3 5.3 0 0 0 5.299-5.301 5.3 5.3 0 0 0-5.299-5.301m30.517 30.316a5.41 5.41 0 0 0-5.408 5.41 5.408 5.408 0 1 0 10.815 0 5.41 5.41 0 0 0-5.407-5.41M671.26 484.245a5.34 5.34 0 0 0-5.339 5.343 5.34 5.34 0 0 0 5.339 5.343 5.343 5.343 0 0 0 0-10.686M63.4 240.934a5.314 5.314 0 0 0-5.312 5.315 5.314 5.314 0 0 0 5.312 5.315 5.313 5.313 0 0 0 5.312-5.315 5.313 5.313 0 0 0-5.312-5.315m424.99 425.739a5.316 5.316 0 0 0-5.313 5.317 5.315 5.315 0 0 0 5.313 5.316 5.316 5.316 0 0 0 5.314-5.316 5.315 5.315 0 0 0-5.314-5.317M63.008 484.295a4.92 4.92 0 0 0-4.918 4.92 4.92 4.92 0 0 0 4.918 4.921 4.92 4.92 0 0 0 4.918-4.921 4.92 4.92 0 0 0-4.918-4.92m182.386 182.207a5.163 5.163 0 0 0-5.161 5.164 5.164 5.164 0 0 0 5.161 5.165 5.164 5.164 0 0 0 0-10.329m456.204-303.813a5.066 5.066 0 0 0-5.065 5.068 5.066 5.066 0 0 0 5.065 5.067 5.067 5.067 0 0 0 5.064-5.067 5.065 5.065 0 0 0-5.064-5.068M367.086 27.955a5.11 5.11 0 0 0-5.107 5.11 5.108 5.108 0 1 0 10.215 0 5.11 5.11 0 0 0-5.108-5.11m334.536 365.182a5.13 5.13 0 0 0-5.127 5.13 5.13 5.13 0 0 0 5.127 5.13 5.13 5.13 0 0 0 5.127-5.13 5.13 5.13 0 0 0-5.127-5.13m-.002-60.637a5.123 5.123 0 0 0-5.122 5.125 5.122 5.122 0 1 0 10.243 0 5.123 5.123 0 0 0-5.121-5.125M93.578 545.297a4.77 4.77 0 0 0-4.77 4.772 4.77 4.77 0 0 0 4.77 4.771 4.77 4.77 0 0 0 4.769-4.771 4.77 4.77 0 0 0-4.77-4.772M397.35 353.964c-7.719 0-13.976 6.261-13.976 13.984 0 7.724 6.257 13.984 13.976 13.984s13.976-6.26 13.976-13.984c0-7.723-6.257-13.984-13.976-13.984m303.876 69.623a4.93 4.93 0 0 0-4.927 4.929 4.93 4.93 0 0 0 4.927 4.929 4.93 4.93 0 0 0 4.926-4.929 4.927 4.927 0 0 0-4.926-4.929M397.295 697.041a4.934 4.934 0 0 0-4.932 4.935 4.933 4.933 0 1 0 9.864 0 4.934 4.934 0 0 0-4.932-4.935m274.072-486.424a4.94 4.94 0 0 0-4.938 4.941 4.94 4.94 0 0 0 4.938 4.94 4.94 4.94 0 0 0 4.937-4.94 4.94 4.94 0 0 0-4.937-4.941m30.433 91.202a4.947 4.947 0 0 0-4.945 4.949 4.946 4.946 0 1 0 9.891 0 4.947 4.947 0 0 0-4.946-4.949M366.766 697.211a4.85 4.85 0 0 0-4.848 4.851 4.85 4.85 0 0 0 4.848 4.851 4.85 4.85 0 0 0 4.848-4.851 4.85 4.85 0 0 0-4.848-4.851M32.959 362.837a4.755 4.755 0 0 0-4.754 4.757 4.755 4.755 0 1 0 9.508 0 4.756 4.756 0 0 0-4.754-4.757M336.45 697.589a4.743 4.743 0 0 0-4.742 4.744 4.744 4.744 0 0 0 4.742 4.745 4.744 4.744 0 0 0 0-9.489M670.922 515.25a4.744 4.744 0 0 0 0 9.489 4.744 4.744 0 0 0 4.742-4.745 4.743 4.743 0 0 0-4.742-4.744M32.732 393.631a4.42 4.42 0 0 0-4.418 4.42 4.42 4.42 0 0 0 4.418 4.421 4.42 4.42 0 0 0 4.418-4.421 4.42 4.42 0 0 0-4.418-4.42m577.773-273.593a4.705 4.705 0 0 0-4.704 4.707 4.705 4.705 0 1 0 9.408 0c0-2.6-2.106-4.707-4.704-4.707M215.453 58.972a4.744 4.744 0 0 0-4.743 4.745 4.744 4.744 0 1 0 9.486 0 4.745 4.745 0 0 0-4.743-4.745m273.608 296.761c-6.61 0-11.968 5.362-11.968 11.975 0 6.614 5.358 11.976 11.968 11.976s11.969-5.362 11.969-11.976c0-6.613-5.359-11.975-11.969-11.975M32.823 302.38a4.45 4.45 0 0 0-4.45 4.453 4.452 4.452 0 1 0 8.9 0 4.45 4.45 0 0 0-4.45-4.453m486.326 365.229a4.385 4.385 0 0 0-4.384 4.386 4.385 4.385 0 1 0 8.768 0 4.385 4.385 0 0 0-4.384-4.386M63.347 211.211a4.45 4.45 0 0 0-4.45 4.452 4.45 4.45 0 1 0 8.9 0 4.45 4.45 0 0 0-4.45-4.452m364.636 486.538a4.39 4.39 0 0 0-4.39 4.392 4.39 4.39 0 0 0 4.39 4.392 4.39 4.39 0 0 0 4.389-4.392 4.39 4.39 0 0 0-4.389-4.392M306.338 354.532c-7.26 0-13.146 5.888-13.146 13.153 0 7.264 5.885 13.154 13.146 13.154 7.26 0 13.146-5.889 13.146-13.154s-5.885-13.153-13.146-13.153m30.324-.381c-7.642 0-13.837 6.199-13.837 13.845 0 7.645 6.196 13.844 13.837 13.844s13.836-6.199 13.836-13.844c0-7.646-6.194-13.845-13.836-13.845m273.422 252.264a4.467 4.467 0 0 0-4.466 4.469 4.467 4.467 0 0 0 4.466 4.469 4.47 4.47 0 0 0 0-8.938m30.588-455.819a4.488 4.488 0 0 0 0 8.976 4.487 4.487 0 0 0 4.485-4.488 4.486 4.486 0 0 0-4.485-4.488m60.538 304.041a4.474 4.474 0 0 0-4.473 4.475 4.473 4.473 0 1 0 8.945 0 4.474 4.474 0 0 0-4.472-4.475M123.887 120.062a4.473 4.473 0 0 0-4.472 4.474 4.474 4.474 0 0 0 4.472 4.475 4.473 4.473 0 0 0 4.471-4.475 4.473 4.473 0 0 0-4.471-4.474m-60.87 395.342a4.144 4.144 0 0 0-4.143 4.146 4.144 4.144 0 1 0 8.286 0 4.144 4.144 0 0 0-4.143-4.146M458.461 28.851a4.503 4.503 0 0 0 0 9.006c2.485 0 4.5-2.016 4.5-4.503a4.5 4.5 0 0 0-4.5-4.503M215.134 667.509a4.47 4.47 0 0 0-4.469 4.472 4.47 4.47 0 0 0 4.469 4.473 4.47 4.47 0 0 0 4.47-4.473 4.47 4.47 0 0 0-4.47-4.472M701.792 272.26a4.5 4.5 0 0 0-4.499 4.501 4.5 4.5 0 0 0 4.499 4.501 4.5 4.5 0 0 0 4.499-4.501 4.5 4.5 0 0 0-4.499-4.501M32.745 424.237a4.14 4.14 0 0 0-4.141 4.143 4.142 4.142 0 1 0 8.282 0 4.14 4.14 0 0 0-4.14-4.143M580.203 89.43a4.48 4.48 0 0 0-4.481 4.484 4.482 4.482 0 1 0 8.962 0 4.483 4.483 0 0 0-4.481-4.484M306.172 697.52a4.485 4.485 0 0 0-4.484 4.487 4.485 4.485 0 1 0 8.969 0 4.487 4.487 0 0 0-4.485-4.487M154.183 89.924a4.324 4.324 0 0 0-4.323 4.326 4.324 4.324 0 1 0 8.647 0 4.325 4.325 0 0 0-4.324-4.326m121.703-61.135a4.324 4.324 0 0 0-4.323 4.326 4.324 4.324 0 1 0 8.647 0 4.325 4.325 0 0 0-4.324-4.326m364.64 547.635a4.13 4.13 0 0 0-4.128 4.131 4.13 4.13 0 1 0 8.257 0 4.13 4.13 0 0 0-4.129-4.131m-60.845 61.024a4.01 4.01 0 0 0-4.009 4.012 4.01 4.01 0 1 0 8.018 0 4.01 4.01 0 0 0-4.009-4.012M32.823 272.294a4.02 4.02 0 0 0-4.02 4.023 4.02 4.02 0 1 0 8.04 0c0-2.222-1.8-4.023-4.02-4.023m91.141 334.622a4.01 4.01 0 0 0 0 8.02 4.01 4.01 0 0 0 4.008-4.01 4.01 4.01 0 0 0-4.008-4.01m334.545 91.132a4.027 4.027 0 0 0-4.026 4.029 4.03 4.03 0 0 0 4.026 4.029 4.029 4.029 0 0 0 0-8.058M93.392 150.765a3.946 3.946 0 0 0-3.944 3.947 3.945 3.945 0 0 0 3.944 3.946 3.945 3.945 0 0 0 3.944-3.946 3.945 3.945 0 0 0-3.944-3.947m61.175 486.631a4.046 4.046 0 0 0-4.046 4.048 4.046 4.046 0 1 0 8.092 0 4.047 4.047 0 0 0-4.046-4.048M32.747 455.213a3.704 3.704 0 0 0 0 7.409 3.704 3.704 0 0 0 0-7.409m60.63 121.024a4.06 4.06 0 0 0-4.056 4.06 4.058 4.058 0 1 0 8.114 0 4.06 4.06 0 0 0-4.057-4.06M674.87 185.149q-.003.001-.003.003l.003.003q.003 0 .003-.003t-.003-.003m-3.892-3.631a3.875 3.875 0 0 0-3.874 3.876 3.874 3.874 0 1 0 7.747 0 3.874 3.874 0 0 0-3.873-3.876M549.89 59.733a3.84 3.84 0 0 0-3.841 3.843 3.842 3.842 0 1 0 3.841-3.843M488.668 29.2a3.843 3.843 0 0 0-3.842 3.845 3.843 3.843 0 1 0 7.684 0 3.843 3.843 0 0 0-3.842-3.845m212.8 212.857a3.814 3.814 0 0 0-3.813 3.815 3.814 3.814 0 1 0 3.813-3.815M549.646 668.302a3.676 3.676 0 0 0-3.675 3.677 3.676 3.676 0 1 0 7.35 0 3.676 3.676 0 0 0-3.675-3.677M245.58 29.687a3.677 3.677 0 0 0-3.676 3.679 3.677 3.677 0 1 0 7.353 0 3.677 3.677 0 0 0-3.677-3.679m455.709 456.276a3.675 3.675 0 0 0-3.674 3.677 3.675 3.675 0 1 0 7.349 0 3.676 3.676 0 0 0-3.675-3.677m-29.955 60.803a3.554 3.554 0 0 0-3.553 3.555 3.555 3.555 0 1 0 3.553-3.555M185.076 59.956a3.46 3.46 0 0 0-3.461 3.463 3.463 3.463 0 0 0 3.461 3.464 3.463 3.463 0 0 0 0-6.928m60.176 295.824c-6.623 0-11.992 5.372-11.992 11.999 0 6.626 5.369 11.998 11.992 11.998s11.991-5.372 11.991-11.998c0-6.627-5.368-11.999-11.991-11.999M63.236 182.081a3.323 3.323 0 0 0-3.323 3.325 3.323 3.323 0 1 0 6.645 0 3.323 3.323 0 0 0-3.323-3.325m303.959 111.63c-7.256 0-13.139 5.886-13.139 13.147 0 7.26 5.882 13.146 13.139 13.146s13.14-5.886 13.14-13.146-5.883-13.147-13.14-13.147m121.573 405.193a3.43 3.43 0 1 0 .002 6.862 3.43 3.43 0 0 0-.002-6.862M32.544 242.715a3.338 3.338 0 1 0 .002 6.678 3.338 3.338 0 0 0-.002-6.678m212.972 456.386a3.015 3.015 0 0 0-3.014 3.016 3.014 3.014 0 1 0 6.027 0 3.014 3.014 0 0 0-3.013-3.016M32.696 486.23a3.02 3.02 0 1 0 .002 6.04 3.02 3.02 0 0 0-.002-6.04m30.368 60.82a3.018 3.018 0 0 0 0 6.035 3.017 3.017 0 0 0 0-6.035m121.649 121.706a3.037 3.037 0 1 0 .001 6.073 3.037 3.037 0 0 0-.001-6.073M731.844 364.81a3.141 3.141 0 0 0 0 6.284 3.14 3.14 0 0 0 3.139-3.142 3.14 3.14 0 0 0-3.139-3.142m.233-30.187a2.924 2.924 0 0 0 0 5.85 2.924 2.924 0 0 0 0-5.85M701.45 212.922a2.928 2.928 0 0 0 0 5.857 2.928 2.928 0 0 0 0-5.857M397.702.156a2.62 2.62 0 1 0 .001 5.239 2.62 2.62 0 0 0-.001-5.24m-60.794.013a2.618 2.618 0 1 0 0 5.236 2.618 2.618 0 0 0 0-5.236m395.059 304.346a2.368 2.368 0 0 0 0 4.737 2.368 2.368 0 0 0 0-4.737m-121.873 334.31a2.603 2.603 0 0 0 0 5.206 2.6 2.6 0 0 0 2.601-2.603 2.6 2.6 0 0 0-2.601-2.603M397.487 730.26a2.37 2.37 0 1 0 .001 4.74 2.37 2.37 0 0 0-.001-4.74m-30.524 0a2.37 2.37 0 1 0 .001 4.74 2.37 2.37 0 0 0-.001-4.74m273.812-122.104a2.646 2.646 0 1 0 .003 5.295 2.646 2.646 0 0 0-.003-5.295M124.062 91.643a2.37 2.37 0 1 0 .003 4.74 2.37 2.37 0 0 0-.003-4.74m607.897 334.575a2.37 2.37 0 0 0-2.369 2.371 2.37 2.37 0 1 0 2.369-2.371M428.011.473a2.37 2.37 0 0 0-2.368 2.37 2.37 2.37 0 1 0 2.368-2.37m-121.665 0a2.37 2.37 0 0 0-2.369 2.371 2.37 2.37 0 1 0 4.739 0 2.37 2.37 0 0 0-2.37-2.37m395.09 516.914a2.37 2.37 0 0 0 0 4.74 2.37 2.37 0 0 0 0-4.74M519.153 699.726a2.37 2.37 0 1 0 .001 4.74 2.37 2.37 0 0 0-.001-4.74M2.396 365.146a2.375 2.375 0 1 0 0 4.75 2.375 2.375 0 0 0 0-4.75M671.23 578.428a2.276 2.276 0 1 0 .002 4.554 2.276 2.276 0 0 0-.002-4.554M32.839 213.416a2.276 2.276 0 1 0 .001 4.552 2.276 2.276 0 0 0-.001-4.552m91.08 425.74a2.215 2.215 0 0 0-2.215 2.216 2.215 2.215 0 1 0 4.43 0 2.215 2.215 0 0 0-2.215-2.216m455.789 30.426a2.274 2.274 0 1 0 0 4.548 2.274 2.274 0 0 0 0-4.548M2.422 304.515a2.12 2.12 0 1 0 .002 4.239 2.12 2.12 0 0 0-.002-4.239m30.276 212.9a2.13 2.13 0 1 0 .002 4.26 2.13 2.13 0 0 0-.002-4.26M154.325 61.382a2.18 2.18 0 1 0 .002 4.362 2.18 2.18 0 0 0-.002-4.362m273.426 669.149a2.18 2.18 0 1 0 .002 4.36 2.18 2.18 0 0 0-.002-4.36m-91.139-.02a2.19 2.19 0 1 0 .002 4.38 2.19 2.19 0 0 0-.002-4.38m-243.1-121.952a2.314 2.314 0 1 0 0 4.627 2.314 2.314 0 0 0 0-4.627M2.45 395.955a2.125 2.125 0 1 0 .002 4.25 2.125 2.125 0 0 0-.002-4.25m212.493 304.029a2.186 2.186 0 1 0 0 4.373 2.186 2.186 0 0 0 0-4.373m91.562 30.609a1.941 1.941 0 1 0 .002 3.882 1.941 1.941 0 0 0-.002-3.882M63.327 152.668a1.927 1.927 0 1 0 .002 3.854 1.927 1.927 0 0 0-.002-3.854M458.468 1.1a1.81 1.81 0 1 0 .001 3.62 1.81 1.81 0 0 0-.001-3.62M2.452 426.573a1.797 1.797 0 1 0 .001 3.595 1.797 1.797 0 0 0-.001-3.595m731.336-149.595q-.002 0-.002.003.001.003.002.002.003 0 .003-.002 0-.003-.003-.003m-1.957-2.46c-1.08 0-1.955.875-1.955 1.956a1.955 1.955 0 1 0 1.955-1.956M367.133 384.421c-7.571 0-13.709 6.141-13.709 13.716 0 7.576 6.138 13.718 13.709 13.718 7.572 0 13.71-6.142 13.71-13.718s-6.139-13.716-13.71-13.716M276.172 2.025a1.348 1.348 0 1 0-.001 2.696 1.348 1.348 0 0 0 .001-2.696m455.125 455.612a1.3 1.3 0 1 0-.001 2.599 1.3 1.3 0 0 0 .001-2.599M63.63 578.826a1.233 1.233 0 1 0 0 2.466 1.233 1.233 0 0 0 0-2.466m91.18 91.14a1.278 1.278 0 1 0 0 2.556 1.278 1.278 0 0 0 0-2.556m212.162-254.477c-7.269 0-13.161 5.896-13.161 13.169s5.892 13.169 13.161 13.169 13.162-5.896 13.162-13.169-5.893-13.169-13.162-13.169M580.109 267.53c-5.084 0-9.205 4.124-9.205 9.211 0 5.086 4.122 9.21 9.205 9.21 5.085 0 9.206-4.124 9.206-9.21s-4.121-9.211-9.206-9.211M367.158 446.643c-6.9 0-12.493 5.596-12.493 12.5 0 6.903 5.593 12.499 12.493 12.499 6.899 0 12.492-5.596 12.492-12.499s-5.593-12.5-12.492-12.5m-.013 93.356c-5.704 0-10.33 4.627-10.33 10.335s4.625 10.336 10.33 10.336c5.706 0 10.331-4.627 10.331-10.336 0-5.707-4.625-10.335-10.331-10.335m.068-186.503c-7.796 0-14.115 6.322-14.115 14.123s6.319 14.123 14.115 14.123 14.115-6.323 14.115-14.123c0-7.801-6.319-14.123-14.115-14.123m-.287 312.084a6.25 6.25 0 0 0-6.248 6.251 6.25 6.25 0 0 0 6.248 6.252 6.25 6.25 0 0 0 6.248-6.252 6.25 6.25 0 0 0-6.248-6.251m.275-156.875c-6.06 0-10.973 4.916-10.973 10.98s4.913 10.98 10.973 10.98 10.973-4.916 10.973-10.98-4.913-10.98-10.973-10.98m151.991-29.203c-5.482 0-9.926 4.446-9.926 9.931s4.444 9.931 9.926 9.931c5.481 0 9.925-4.446 9.925-9.931s-4.444-9.931-9.925-9.931m-91.396 60.635c-5.482 0-9.926 4.447-9.926 9.932 0 5.484 4.444 9.931 9.926 9.931 5.481 0 9.925-4.447 9.925-9.931 0-5.485-4.444-9.932-9.925-9.932m-212.62-183.962c-6.086 0-11.02 4.936-11.02 11.026s4.934 11.026 11.02 11.026 11.02-4.937 11.02-11.026-4.934-11.026-11.02-11.026m152.053 246.326c-4.662 0-8.441 3.782-8.441 8.446s3.779 8.446 8.441 8.446c4.661 0 8.441-3.782 8.441-8.446s-3.779-8.446-8.441-8.446m-152.021-92.019c-5.119 0-9.268 4.152-9.268 9.272 0 5.121 4.15 9.273 9.268 9.273 5.117 0 9.267-4.152 9.267-9.273s-4.15-9.272-9.267-9.272m-60.79-242.973c-4.878 0-8.831 3.955-8.831 8.835s3.953 8.836 8.831 8.836c4.877 0 8.83-3.956 8.83-8.836s-3.954-8.835-8.83-8.835m212.727 366.426a7.317 7.317 0 0 0-7.315 7.32 7.316 7.316 0 1 0 14.631 0 7.32 7.32 0 0 0-7.316-7.32m30.384-.036a7.335 7.335 0 0 0-7.333 7.338 7.335 7.335 0 0 0 7.333 7.338 7.335 7.335 0 0 0 7.334-7.338 7.335 7.335 0 0 0-7.334-7.338m30.313.425a7.127 7.127 0 0 0-7.125 7.129 7.127 7.127 0 0 0 7.125 7.129 7.127 7.127 0 0 0 7.125-7.129 7.127 7.127 0 0 0-7.125-7.129m121.89-486.799a7.36 7.36 0 0 0-7.358 7.362 7.36 7.36 0 0 0 7.358 7.362 7.36 7.36 0 0 0 7.358-7.362 7.36 7.36 0 0 0-7.358-7.362M93.582 360.046a7.404 7.404 0 0 0-7.402 7.406 7.403 7.403 0 0 0 7.401 7.405 7.403 7.403 0 0 0 7.402-7.405 7.404 7.404 0 0 0-7.402-7.406m-.047-60.263a7.097 7.097 0 0 0-7.096 7.1c0 3.921 3.177 7.1 7.096 7.1a7.1 7.1 0 0 0 7.096-7.1c0-3.922-3.177-7.1-7.096-7.1m121.685-63.715c-5.49 0-9.941 4.453-9.941 9.946 0 5.494 4.451 9.947 9.941 9.947s9.94-4.453 9.94-9.947-4.45-9.946-9.94-9.946m30.318-30.521c-5.493 0-9.946 4.455-9.946 9.951s4.452 9.952 9.946 9.952 9.945-4.455 9.945-9.952-4.452-9.951-9.945-9.951m334.434 152.692c-5.254 0-9.512 4.262-9.512 9.518s4.258 9.519 9.512 9.519 9.513-4.262 9.513-9.519c0-5.256-4.259-9.518-9.513-9.518m-151.983-3.628c-7.248 0-13.123 5.878-13.123 13.13s5.875 13.13 13.123 13.13 13.123-5.878 13.123-13.13c-.001-7.252-5.876-13.13-13.123-13.13m-60.806-209.259c-5.24 0-9.488 4.25-9.488 9.493s4.248 9.493 9.488 9.493 9.487-4.25 9.487-9.493-4.247-9.493-9.487-9.493m30.348.043c-5.228 0-9.466 4.241-9.466 9.472s4.238 9.472 9.466 9.472 9.467-4.241 9.467-9.472-4.239-9.472-9.467-9.472m243.105 399.89a5 5 0 0 0-4.998 5.002 5 5 0 0 0 4.998 5.002 5 5 0 0 0 4.999-5.002 5 5 0 0 0-4.999-5.002M458.35 175.345c-5.409 0-9.792 4.386-9.792 9.797s4.383 9.798 9.792 9.798 9.792-4.386 9.792-9.798c0-5.411-4.384-9.797-9.792-9.797m91.144 461.109a5 5 0 0 0-4.999 5.002 5 5 0 1 0 9.998 0 5 5 0 0 0-4.999-5.002M184.929 89.007a5 5 0 0 0-4.998 5.001 5 5 0 1 0 9.997 0 5 5 0 0 0-4.999-5.001m303.929-30.54a5.223 5.223 0 0 0-5.222 5.225 5.224 5.224 0 0 0 5.222 5.225 5.223 5.223 0 0 0 5.221-5.225 5.223 5.223 0 0 0-5.221-5.224m-304.138 578a4.77 4.77 0 0 0-4.769 4.771 4.77 4.77 0 0 0 4.769 4.772 4.77 4.77 0 0 0 4.769-4.772 4.77 4.77 0 0 0-4.769-4.771M306.339 28.643a4.54 4.54 0 0 0-4.538 4.54 4.539 4.539 0 1 0 9.075 0 4.54 4.54 0 0 0-4.537-4.54m30.57-.259a4.77 4.77 0 0 0-4.769 4.772 4.77 4.77 0 1 0 9.538 0 4.77 4.77 0 0 0-4.769-4.772m334.225 212.404a5.25 5.25 0 0 0-5.248 5.251 5.25 5.25 0 0 0 5.248 5.252 5.25 5.25 0 0 0 5.248-5.252 5.25 5.25 0 0 0-5.248-5.251M32.753 332.684a4.54 4.54 0 0 0-4.539 4.541 4.54 4.54 0 1 0 9.077 0 4.54 4.54 0 0 0-4.538-4.541M519.145 59.176a4.54 4.54 0 0 0-4.538 4.541 4.54 4.54 0 1 0 9.077 0 4.54 4.54 0 0 0-4.539-4.54M397.702 28.383a4.77 4.77 0 0 0-4.768 4.772 4.77 4.77 0 0 0 4.768 4.771 4.77 4.77 0 0 0 4.769-4.771 4.77 4.77 0 0 0-4.769-4.772m30.301.259a4.54 4.54 0 0 0-4.539 4.541 4.54 4.54 0 0 0 4.539 4.542 4.54 4.54 0 0 0 4.539-4.542 4.54 4.54 0 0 0-4.539-4.541M93.547 180.19a4.994 4.994 0 0 0-4.992 4.995 4.994 4.994 0 0 0 4.992 4.995 4.994 4.994 0 0 0 4.992-4.995 4.994 4.994 0 0 0-4.992-4.995M458.28 354.97c-6.909 0-12.511 5.604-12.511 12.518s5.601 12.518 12.511 12.518 12.51-5.604 12.51-12.518-5.601-12.518-12.51-12.518M275.819 698.397a3.69 3.69 0 0 0 0 7.382 3.69 3.69 0 0 0 0-7.382M732.003 395.66a2.6 2.6 0 0 0-2.601 2.602 2.601 2.601 0 1 0 2.601-2.602M610.551 91.19a2.813 2.813 0 0 0-2.813 2.814 2.813 2.813 0 1 0 5.626 0 2.813 2.813 0 0 0-2.813-2.814M215.192 30.805a2.383 2.383 0 1 0 0 4.767 2.383 2.383 0 0 0 0-4.767m304.007-.253a2.6 2.6 0 0 0-2.601 2.603 2.601 2.601 0 1 0 5.202 0 2.6 2.6 0 0 0-2.601-2.603m121.612 91.165a2.823 2.823 0 1 0 .003 5.645 2.823 2.823 0 0 0-.003-5.645M367.255 0a2.835 2.835 0 1 0 0 5.67 2.835 2.835 0 0 0 0-5.67M93.528 121.969a2.386 2.386 0 1 0 .002 4.773 2.386 2.386 0 0 0-.002-4.773m486.505-60.633a2.384 2.384 0 1 0 .002 4.768 2.384 2.384 0 0 0-.002-4.768m91.145 91.171a2.383 2.383 0 0 0-2.383 2.384 2.383 2.383 0 1 0 4.765 0 2.384 2.384 0 0 0-2.382-2.384M2.386 334.841a2.387 2.387 0 1 0 .001 4.773 2.387 2.387 0 0 0 0-4.773" /></svg>