<svg width="397" height="687" viewBox="0 0 397 687" fill="none" xmlns="http://www.w3.org/2000/svg"><g clip-path="url(#a)" fill="#CBEF00"><path d="M-389.449 589.02q58.758-9.674 117.516-19.343 54.463-8.937 108.935-17.818 93.024-15.224 186.046-30.461 83.991-13.765 167.978-27.553 81.842-13.39 163.705-26.652c-46.505 9.326-93.271 17.249-139.917 25.816-60.379 11.089-120.804 21.926-181.203 32.907a124513 124513 0 0 0-138.309 25.225 707374 707374 0 0 1-270.089 49.051c-4.093.743-8.204 1.387-12.306 2.077zm-33.42-187.902c12.392-2.171 24.772-4.407 37.178-6.5a47225 47225 0 0 1 96.846-16.232q78.94-13.227 157.878-26.458 72.922-12.224 145.84-24.453 73.924-12.396 147.847-24.795 72.777-12.2 145.552-24.407c12.972-2.184 25.913-4.543 38.868-6.822l.207 1.165c-13.247 2.33-26.51 4.576-39.739 7.004a163703 163703 0 0 0-168.844 31.085L12.201 334.018q-82.993 15.285-165.987 30.566-67.423 12.42-134.845 24.848-65.995 12.164-131.989 24.333zM-470 136.129q30.07-5.118 60.143-10.23 34.378-5.803 68.767-11.54l223.78-37.527q72.636-12.18 145.273-24.348 110.17-18.465 220.338-36.95c16.32-2.744 32.601-5.715 48.901-8.582l.237 1.338c-16.21 2.85-32.439 5.6-48.627 8.57a243996 243996 0 0 0-222.01 40.831q-72.43 13.333-144.855 26.689-73.425 13.524-146.85 27.042a615429 615429 0 0 0-154.268 28.454 22783 22783 0 0 1-48.58 8.9zm64.483 362.553c10.584-1.841 21.155-3.761 31.754-5.51q85.99-14.192 171.992-28.311 83.274-13.698 166.55-27.387 79.691-13.105 159.383-26.213 86.859-14.276 173.719-28.537 25.8-4.237 51.604-8.452c.817-.134 1.634-.558 3.353.19-5.274.928-9.788 1.704-14.296 2.517q-97.491 17.59-194.981 35.191a202292 202292 0 0 0-131.499 23.801q-64.602 11.706-129.202 23.428-108.627 19.674-217.256 39.338-34.446 6.244-68.871 12.593zm-43.06-242.103c8.095-1.447 16.178-2.964 24.287-4.328a354946 354946 0 0 1 189.09-31.743q76.495-12.822 152.997-25.604A1188807 1188807 0 0 0 278.8 134.421c4.67-.785 9.328-1.636 13.992-2.456l.172.948c-3.423.602-6.849 1.183-10.267 1.81q-61.289 11.237-122.575 22.491A264542 264542 0 0 0 6.995 185.438q-67.705 12.475-135.413 24.936-76.423 14.078-152.845 28.165-72.419 13.349-144.834 26.715c-6.757 1.248-13.488 2.644-20.23 3.972zm22.494 126.472c16.512-2.826 33.017-5.687 49.536-8.468 22.631-3.811 45.275-7.549 67.91-11.338q102.006-17.075 204.011-34.165 74.353-12.458 148.705-24.93 86.245-14.442 172.496-28.852 42.981-7.177 85.978-14.269c3.529-.586 7.048-1.235 10.571-1.855l.153.872c-15.824 2.783-31.669 5.461-47.47 8.369a119194 119194 0 0 0-167.686 30.989 73499 73499 0 0 1-121.442 22.292 585030 585030 0 0 0-234.553 43.26q-66.423 12.248-132.849 24.479c-11.046 2.04-22.074 4.173-33.111 6.263zm17.675 99.371 725.97-119.276.15.863c-14.722 2.589-29.454 5.124-44.165 7.778a248436 248436 0 0 0-175.806 31.776q-55.312 10.01-110.618 20.062-112.62 20.415-225.242 40.824-55.452 10.053-110.9 20.13a19116 19116 0 0 0-57.14 10.49zm-53.344-299.92c8.013-1.908 16.185-2.935 24.292-4.309a41068 41068 0 0 1 114.022-19.157q71.913-12.055 143.828-24.099 71.2-11.918 142.405-23.814Q38.58 98.449 114.366 85.772q71.486-11.964 142.968-23.943c1.422-.238 2.84-.498 4.26-.748l.168.85c-3.049.537-6.101 1.053-9.146 1.612q-64.433 11.816-128.863 23.65a367204 367204 0 0 0-209.111 38.596q-41.136 7.592-82.275 15.17-109.132 20.103-218.265 40.202-35.71 6.58-71.418 13.177c-.751.139-1.528.143-2.293.209zm65.555 368.576q36.395-6.04 72.791-12.075a122497 122497 0 0 1 115.815-19.017 941216 941216 0 0 0 158.524-26.06q77.973-12.813 155.947-25.615 104.493-17.147 208.99-34.279c2.289-.375 4.57-.8 6.881-1.053-21.198 4.554-42.554 8.266-63.88 12.135a275344 275344 0 0 1-189.24 34.257 1007770 1007770 0 0 0-443.638 80.442c-6.664 1.211-13.295 2.604-19.941 3.912zm-22.388-125.87q39.675-6.689 79.351-13.374 86.095-14.446 172.196-28.858a629018 629018 0 0 1 207.162-34.627c51.098-8.545 102.169-17.249 153.298-25.612 30.963-5.064 61.8-10.879 92.883-15.22.307-.081.629-.087.941-.019a2.1 2.1 0 0 1 .862.415c-18.115 3.186-36.249 6.265-54.341 9.578a77186 77186 0 0 0-153.13 28.207Q10.93 358.555-58.77 371.433q-75.273 13.903-150.544 27.811-64.133 11.842-128.268 23.668-37.566 6.933-75.132 13.873c-1.23.227-2.485.315-3.729.468zm-20.994-118.041a955446 955446 0 0 1 90.807-15.289q45.696-7.665 91.4-15.275 104.437-17.457 208.873-34.917 71.628-11.979 143.255-23.973a723763 723763 0 0 1 160.739-26.853c5.72-.957 11.426-2.003 17.138-3.008l.196 1.105c-20.406 3.589-40.836 7.05-61.214 10.79A131105 131105 0 0 0 8.22 237.242q-111.981 20.652-223.964 41.301-73.844 13.624-147.683 27.274a74108 74108 0 0 1-70.851 13.043c-1.039.191-2.105.238-3.159.352zm-13.282-74.678 710.59-118.797.082.466-116.28 21.408a389640 389640 0 0 0-151.697 28.008q-69.279 12.786-138.56 25.557-103.413 19.099-206.824 38.219l-91.986 16.997c-1.039.192-2.051.523-3.076.789zm-13.604-76.486 68.184-11.475q55.869-9.395 111.739-18.779A559510 559510 0 0 1-75.067 90.381a920126 920126 0 0 1 148.722-24.85q74.503-12.45 149.011-24.882a75.4 75.4 0 0 1 12.185-1.06c-14.973 2.634-29.965 5.166-44.916 7.918A275437 275437 0 0 0-35.48 89.095q-71.852 13.26-143.706 26.505a1913251 1913251 0 0 0-151.135 27.885q-66.138 12.208-132.274 24.421c-.565.104-1.151.097-1.728.142zm64.591 363.156q96.621-15.816 193.241-31.637c30.868-5.063 61.72-10.216 92.588-15.279q82.854-13.588 165.715-27.124c30.868-5.063 61.72-10.22 92.587-15.283 52.176-8.557 104.358-17.074 156.608-25.218q-54.295 9.877-108.589 19.75a608312 608312 0 0 1-163.229 29.615q-53.883 9.782-107.761 19.584a930395 930395 0 0 1-203.54 36.892q-53.598 9.719-107.195 19.448c-2.747.496-5.423 1.489-8.283 1.297zm27.85 156.584c11.825-2.055 23.639-4.184 35.479-6.151q68.355-11.352 136.722-22.62a1583753 1583753 0 0 0 227.864-37.748 506189 506189 0 0 1 181.725-30.054c59.333-9.803 118.668-19.589 178.113-28.768-12.472 2.194-24.951 4.351-37.415 6.587A306591 306591 0 0 0 72.249 606.68q-83.922 15.113-167.844 30.22-71.911 12.949-143.821 25.905-65.19 11.756-130.376 23.531c-.758.137-1.536.168-2.304.248zm-61.699-346.895 89.982-15.017q80.817-13.462 161.635-26.916 63.044-10.533 126.07-21.174 70.057-11.742 140.122-23.434L218.2 219.558c9.73-1.631 19.435-3.407 29.151-5.116l.2 1.11c-9.145 1.608-18.302 3.153-27.434 4.835a661817 661817 0 0 0-237.994 43.895 486297 486297 0 0 0-136.846 25.271q-108.85 20.107-217.699 40.218-28.997 5.356-57.996 10.702c-1.044.192-2.107.282-3.161.42zm50.023 281.25q31.116-5.04 62.23-10.086 101.355-16.593 202.703-33.222 78.846-12.917 157.694-25.816a848139 848139 0 0 0 206.717-33.869c14.522-2.389 28.994-5.075 43.489-7.625l.243 1.36c-13.338 2.346-26.687 4.634-40.012 7.047a361623 361623 0 0 0-198.965 36.094q-95.905 17.41-191.809 34.838-56.883 10.334-113.765 20.684-62.164 11.333-124.318 22.724c-.662.121-1.306.343-1.958.518zm-29.242-164.413c17.944-3.052 35.882-6.133 53.833-9.148 22.248-3.736 44.509-7.405 66.76-11.125q104.43-17.459 208.858-34.932a418328 418328 0 0 1 136.377-22.776q99.703-16.657 199.407-33.324c3.048-.51 6.089-1.068 9.133-1.603l.179.999c-9.05 1.592-18.112 3.128-27.15 4.785q-62.427 11.445-124.843 22.951A378262 378262 0 0 0-81.192 396.39l-161.669 29.872q-69.123 12.776-138.243 25.561a12619 12619 0 0 0-31.696 5.906zm-30.421-171.039 157.888-26.394q78.514-13.113 157.031-26.207 63.616-10.624 127.227-21.27 101.01-16.87 202.022-33.728c10.6-1.77 21.19-3.595 31.87-4.852l.134.743c-22.596 3.974-45.218 7.81-67.784 11.948a117685 117685 0 0 0-208.278 38.39q-63.423 11.701-126.844 23.415-101.415 18.747-202.826 37.508a20029 20029 0 0 1-68.298 12.492zm46.702 262.58q33.53-5.57 67.059-11.134 85.57-14.072 171.148-28.093 79.843-13.098 159.685-26.186 73.248-12.012 146.496-24.029l116.107-19.04c6.206-1.02 12.391-2.169 18.585-3.259l.172.968c-9.513 1.673-19.033 3.307-28.538 5.026a380367 380367 0 0 0-167.234 30.283 131866 131866 0 0 0-118.332 21.516A838370 838370 0 0 1-219.6 517.044q-66.029 11.99-132.051 24.022a28506 28506 0 0 0-44.868 8.205zm5.141 28.908c10.332-.944 20.47-3.112 30.686-4.777a197273 197273 0 0 0 199.262-32.579q60.925-9.98 121.84-20.014a330043 330043 0 0 1 185.221-30.266q54.19-8.848 108.386-17.668a4.24 4.24 0 0 1 2.668.142c-9.505 1.672-19.018 3.299-28.514 5.023a912463 912463 0 0 0-238.107 43.252q-48.592 8.83-97.181 17.682-104.473 18.989-208.948 37.967-36.584 6.646-73.17 13.283zm-18.531-104.189q60.343-9.873 120.686-19.743 107.218-17.51 214.438-35.006 44.723-7.308 89.43-14.693 74.959-12.294 149.914-24.595c16.804-2.779 33.555-5.874 50.331-8.824l.264 1.459c-8.759 1.54-17.525 3.044-26.276 4.628A493761 493761 0 0 0 4.095 398.267a82265 82265 0 0 0-123.732 22.576 410075 410075 0 0 1-187.767 34.132 813639 813639 0 0 1-98.599 17.916c-1.324.24-2.674.335-4.013.497zm-20.459-115.029q37.526-6.314 75.051-12.625 47.988-8.042 95.983-16.046 104.156-17.367 208.314-34.716 64.76-10.79 129.519-21.574 55.017-9.147 110.042-18.253a65 65 0 0 1 8.648-1.091L94.52 261.246l-220.204 40.842a91262 91262 0 0 1-115.978 21.408 681231 681231 0 0 0-185.661 34.355c-1.046.194-2.101.34-3.152.508zm55.915 314.373c10.965-1.906 21.917-3.885 32.896-5.707a91435 91435 0 0 1 123.24-20.361q86.988-14.348 173.98-28.677 55.173-9.095 110.346-18.193 90.141-14.856 180.282-29.721c9.167-1.514 18.304-3.205 27.455-4.815l.174.972c-11.037 1.941-22.08 3.845-33.109 5.83a283171 283171 0 0 0-295.876 53.409q-62.745 11.342-125.493 22.676a768735 768735 0 0 0-190.657 34.518c-.475.086-.945.204-1.417.308zm-65.983-370.984c8.194-.826 16.263-2.444 24.373-3.789a55246 55246 0 0 0 106.889-17.841 467527 467527 0 0 1 182.842-30.418q70.932-11.793 141.867-23.567A260764 260764 0 0 1 124.6 196.26c.658-.109 1.314-.231 1.972-.346l.152.844c-8.564 1.506-17.14 2.95-25.691 4.529a343235 343235 0 0 0-185.404 34.279q-66.986 12.406-133.961 24.873-94.548 17.538-189.1 35.061c-11.043 2.049-22.073 4.163-33.11 6.247zm-15.425-86.724c11.156-1.943 22.299-3.956 33.468-5.817a345263 345263 0 0 1 202.306-33.645 904038 904038 0 0 1 187.123-31.075q65.766-10.908 131.541-21.765a.9.9 0 0 1 .505.023.96.96 0 0 1 .426.292l-553.441 102.827zm74.874 420.971 120.687-19.745q86.43-14.132 172.858-28.259 67.94-11.123 135.87-22.292 66.361-10.867 132.729-21.693c2.194-.359 4.38-.767 6.57-1.152l.199 1.125c-33.269 5.851-66.561 11.575-99.803 17.579a170514 170514 0 0 0-259.802 47.132 96721 96721 0 0 0-126.59 23.088 40201 40201 0 0 1-76.888 13.921c-1.325.24-2.672.359-4.009.534zm-45.524-255.955c16.803-2.841 33.601-5.713 50.411-8.518q51.867-8.652 103.745-17.247 87.984-14.604 175.97-29.199 79.245-13.157 158.48-26.354c16.13-2.698 32.219-5.645 48.326-8.478l.246 1.351c-8.1 1.425-16.21 2.789-24.298 4.284a317316 317316 0 0 0-173.108 32.04 147703 147703 0 0 0-130.241 24.212q-96.107 17.874-192.212 35.758c-5.138.956-10.261 1.992-15.391 2.991zm-26.886-151.165 97.151-16.133q48.867-8.105 97.736-16.189 70.798-11.69 141.602-23.35a67173 67173 0 0 0 104.606-17.374c10.02-1.674 20.014-3.507 30.02-5.267l.143.805-75.662 14.158a760915 760915 0 0 1-183.917 34.271q-67.113 12.502-134.228 24.997a39485 39485 0 0 0-73.092 13.704c-.854.161-1.692.409-2.538.617zm75.623 425.188c9.917-1.727 19.819-3.534 29.751-5.166a78466 78466 0 0 1 116.972-19.13 5203890 5203890 0 0 0 338.014-55.271 77 77 0 0 1 9.227-1.2q-51.702 9.45-103.404 18.895A308744 308744 0 0 1-157.13 611.25q-44.303 8.049-88.61 16.072-64.875 11.812-129.742 23.677c-.95.173-1.885.434-2.827.654z"/></g><defs><clipPath id="a"><path fill="#fff" d="M-469.983 136.121 299.033.87l97.93 550.61-769.016 135.252z"/></clipPath></defs></svg>