<svg width="457" height="375" viewBox="0 0 457 375" fill="none" xmlns="http://www.w3.org/2000/svg">
<path d="M228.933 176.183L258.845 111.019L308.519 135.589L327.213 171.91L322.406 238.142L302.109 292.624L264.186 285.146L242.286 233.869L179.793 219.982L228.933 176.183Z" fill="white"/>
<path d="M363 261.644L347.51 257.371L341.635 250.961L330.418 245.62L314.394 247.222L285.017 271.258H275.936L258.31 279.804L234.808 311.318V336.956L246.559 352.98L269.527 354.583L332.02 316.125L363 294.76L370.478 273.929L363 261.644Z" fill="#F59E18"/>
<path d="M133.323 277.668L135.994 245.62L130.118 231.732L114.094 237.074L93.2632 250.961L72.9661 271.258L60.147 294.76L62.8176 309.182L75.1027 313.455L85.7853 328.41L108.753 326.274L130.118 309.182L133.323 277.668Z" fill="#F59E18"/>
<path d="M363 261.644L347.51 257.371L341.635 250.961L330.418 245.62L314.394 247.222L285.017 271.258H275.936L258.31 279.804L234.808 311.318V336.956L246.559 352.98L269.527 354.583L332.02 316.125L363 294.76L370.478 273.929L363 261.644Z" stroke="black" stroke-width="1.06826"/>
<path d="M133.323 277.668L135.994 245.62L130.118 231.732L114.094 237.074L93.2632 250.961L72.9661 271.258L60.147 294.76L62.8176 309.182L75.1027 313.455L85.7853 328.41L108.753 326.274L130.118 309.182L133.323 277.668Z" stroke="black" stroke-width="1.06826"/>
<path d="M273.266 91.7907L271.129 30.3655L292.495 21.8193L320.27 27.6948L338.43 55.4697L343.237 80.0397L332.02 98.7344L273.266 91.7907Z" fill="white"/>
<path d="M362.465 88.5856L337.361 85.9149L326.678 85.3808L318.132 85.9149L312.791 90.7221L303.177 93.3927L295.165 90.7221L286.084 88.5856L276.47 84.3125H268.458L260.98 90.7221L258.31 100.871L262.583 113.156L268.458 127.577L272.731 136.657L280.743 146.806L288.755 154.284L303.177 159.091H315.996L327.747 154.284L334.156 141.465V120.633H342.702L365.67 116.895L375.819 107.28L373.148 97.1317L362.465 88.5856Z" fill="#F59E18"/>
<path d="M147.889 373.646C80.1303 371.474 108.301 368.894 198.78 368.986C261.234 369.05 316.29 370.266 316.29 371.582C316.29 372.027 310.881 372.698 304.272 373.072C283.215 374.263 179.062 374.646 147.889 373.646ZM182.222 367.304C145.795 366.836 106.856 365.931 95.6931 365.293C84.5297 364.654 74.1943 364.087 72.7254 364.034C70.1505 363.94 70.1652 363.903 73.1384 363.013C74.8345 362.506 91.063 361.497 109.202 360.772C146.857 359.268 268.545 360.926 319.389 363.637C335.017 364.47 349.967 365.175 352.611 365.203C356.801 365.247 357.144 365.414 355.281 366.507C352.536 368.117 273.837 368.48 182.222 367.304ZM112.073 357.867C78.1117 356.261 103.732 354.069 157.118 354.012C197.946 353.968 224.113 355.219 216.407 356.845C210.947 357.998 131.33 358.777 112.073 357.867ZM249.022 356.601C236.052 351.937 229.957 343.166 228.738 327.409C228.206 320.533 227.273 316.272 225.581 312.985C223.31 308.573 222.977 308.351 219.49 308.917C217.461 309.246 211.527 311.485 206.303 313.891C193.393 319.838 184.044 321.673 169.403 321.135C155.859 320.636 148.355 318.395 139.908 312.327L134.555 308.48L126.746 315.736C113.064 328.45 99.364 333.547 87.2279 330.438C78.7449 328.264 76.1504 326.432 73.6951 320.881C72.3114 317.753 70.8108 316.067 69.0075 315.615C67.5486 315.248 64.6703 313.47 62.6114 311.662C49.6687 300.298 59.2637 276.617 86.8403 251.864C102.62 237.7 119.182 228.451 128.765 228.451C130.91 228.451 131.299 227.647 132.41 220.925C133.868 212.092 137.008 202.502 141.162 194.191C145.029 186.454 156.143 169.885 159.688 166.572C162.534 163.913 163.434 160.082 161.213 160.082C160.528 160.082 160.224 159.824 160.539 159.509C160.854 159.194 166.547 159.916 173.189 161.112C179.832 162.308 187.947 163.234 191.222 163.171C196.592 163.066 196.023 162.863 185.427 161.106C154.767 156.022 152.168 155.749 146.253 156.987C140.462 158.199 134.91 160.933 130.804 164.596C128.632 166.533 128.598 166.863 130.073 171.634C131.911 177.58 131.294 184.075 128.342 189.862C126.058 194.339 120.491 199.607 118.045 199.607C117.208 199.607 116.524 200.591 116.524 201.792C116.524 204.624 112.203 208.905 107.261 210.97C102.126 213.115 97.164 212.116 92.4653 207.99C90.4215 206.196 88.7494 205.325 88.7494 206.056C88.7494 207.94 77.6237 206.672 74.1426 204.392C72.663 203.422 70.6571 201.164 69.6852 199.374C68.7132 197.584 66.1368 194.015 63.9596 191.443C57.3073 183.586 56.1809 175.824 60.3834 166.797C63.843 159.367 71.3107 152.111 79.4347 148.286C85.1726 145.585 86.5156 144.368 89.2834 139.366C95.0446 128.954 106.966 117.928 119.139 111.752C140.737 100.794 176.476 99.3255 199.099 108.466C204.268 110.554 208.721 112.039 208.994 111.767C209.267 111.494 205.999 109.681 201.732 107.739C197.465 105.796 193.805 104.071 193.599 103.906C193.393 103.74 194.275 102.492 195.559 101.131C202.264 94.0234 205.37 84.8936 207.848 65.0061C210.221 45.9558 212.213 36.957 215.578 30.0851C224.212 12.4518 243.199 1.58457 267.864 0.158185C310.516 -2.30838 338.914 24.2011 343.275 70.5532L344.462 83.1665H349.666C365.485 83.1665 378.258 92.3382 378.245 103.688C378.233 113.836 365.234 121.227 343.881 123.228L335.828 123.983L336.342 133.813C336.903 144.546 336.025 147.532 330.763 152.795L327.946 155.612L331.465 159.018C337.666 165.02 343.331 166.982 354.213 166.895C364.653 166.812 373.577 164.237 379.992 159.455C383.08 157.152 383.295 156.588 382.789 152.099C381.337 139.215 393.723 126.025 406.151 127.219C413.118 127.888 416.43 130.376 419.614 137.331C422.822 144.338 422.575 151.697 418.891 158.92C414.275 167.966 406.981 166.687 401.484 155.867C398.421 149.839 397.4 150.999 400.094 157.446C401.939 161.861 406.461 166.292 410.04 167.19C413.465 168.05 417.567 164.946 420.969 158.919C423.105 155.134 423.631 152.716 423.639 146.639C423.648 139.946 423.248 138.424 420.169 133.466C418.254 130.383 416.964 127.412 417.303 126.864C418.546 124.854 426.339 121.624 429.948 121.624C438.193 121.624 444.344 126.289 447.61 135.019C448.747 138.057 450.923 142.38 452.447 144.626C456.156 150.091 456.76 153.039 455.222 158.173C454.46 160.716 454.217 164.562 454.63 167.559C455.043 170.566 454.799 174.405 454.031 176.97C451.772 184.507 442.864 191.061 434.878 191.061C433.297 191.061 429.403 192.495 426.224 194.247C421.481 196.861 419.188 197.436 413.434 197.452C407.012 197.468 406.16 197.747 403.286 200.753C399.826 204.373 384.755 213.14 377.102 215.985C362.278 221.495 338.995 222.599 327.917 218.317C326.466 217.756 326.073 218.857 325.442 225.255C325.03 229.437 324.025 234.752 323.209 237.065L321.726 241.27L326.752 241.294C329.517 241.306 333.722 242.2 336.097 243.278C340.194 245.139 346.201 250.981 346.201 253.103C346.201 253.646 348.484 254.105 351.275 254.124C357.479 254.166 367.05 258.65 370.188 262.985C373.695 267.831 373.221 278.591 369.168 286.138C363.066 297.497 348.633 309.693 326.438 322.245C321.15 325.236 311.099 332.016 304.102 337.312C290.35 347.722 281.085 353.051 270.655 356.551C262.439 359.307 256.585 359.32 249.022 356.601ZM266.887 350.85C274.619 348.791 283.669 343.618 298.573 332.74C305.541 327.653 315.383 321.009 320.443 317.976C345.407 303.009 357.018 293.137 362.316 282.374C364.953 277.019 365.48 274.894 364.873 272.069C363.694 266.581 362.361 264.719 358.434 263.079C353.608 261.062 342.996 261.032 342.996 263.035C342.996 268.368 327.179 287.103 319.494 290.871L315.755 292.705L319.494 289.757C333.59 278.643 341.964 262.141 337.623 254.03C335.946 250.896 330.847 248.745 325.156 248.771C310.518 248.838 289.469 266.228 263.443 299.757C260.593 303.43 258.052 306.434 257.796 306.434C256.935 306.434 262.956 296.822 270.365 286.372C276.855 277.216 277.469 275.947 275.556 275.636C268.689 274.52 249.161 296.548 240.378 315.318C234.13 328.668 235.427 339.73 244.046 346.607C251.175 352.296 257.23 353.42 266.887 350.85ZM107.49 321.367C114.501 318.021 123.831 309.793 126.528 304.577C128.03 301.673 128.043 300.955 126.648 298.159C123.93 292.712 122.86 284.449 124.114 278.601C125.36 272.794 131.063 263.366 133.616 262.893C134.63 262.705 136.382 264.858 138.387 268.758C144.771 281.173 159.317 292.583 175.279 297.696C186.696 301.354 192.041 301.583 181.456 297.961C169.541 293.883 166.755 292.443 157.648 285.652C144.028 275.495 134.69 259.944 132.377 243.566L131.117 234.645L126.758 235.321C109.628 237.975 78.3744 263.786 67.1642 284.534C64.2368 289.953 63.6967 292.073 63.673 298.245C63.6447 305.011 63.8746 305.743 66.7783 308.243C69.3622 310.468 70.7027 310.851 74.4263 310.432C80.8139 309.712 87.8849 305.998 94.6632 299.803C97.8735 296.869 100.5 294.884 100.5 295.392C100.5 297.512 87.4906 310.511 82.9676 312.91C80.272 314.34 78.0666 315.835 78.0666 316.232C78.0666 318.124 83.9589 323.625 86.9684 324.542C92.0485 326.09 100.255 324.82 107.49 321.367ZM219.99 294.553C216.349 287.722 209.752 281.553 201.689 277.439C195.191 274.125 195.831 275.86 202.493 279.619C210.152 283.942 215.699 289.713 219.594 297.413C221.306 300.795 222.886 303.02 223.107 302.358C223.328 301.695 221.925 298.183 219.99 294.553ZM287.981 263.045C294.258 257.218 308.789 246.967 314.388 244.416C318.742 242.433 319.963 233.254 319.168 208.486C318.495 187.525 317.271 176.922 314.535 168.361C312.992 163.533 312.723 163.285 308.993 163.26C292.508 163.151 276.379 152.196 267.515 135.09L263.145 126.657L260.962 132.42C252.464 154.851 242.944 169.661 223.991 189.934C218.574 195.729 212.996 202.631 211.594 205.273C209.547 209.132 208.199 210.331 204.741 211.367C199.127 213.048 186.745 218.908 187.407 219.569C187.689 219.852 192.22 218.363 197.476 216.26C208.717 211.762 217.679 210.306 226.606 211.527C249.452 214.652 265.936 233.216 270.392 260.839L271.716 269.045L276.643 269.02C281.13 268.996 282.145 268.462 287.981 263.045ZM417.48 185.985C414.81 183.034 413.304 178.029 413.988 174.381L414.617 171.032L421.217 173.698C426.674 175.902 429.004 176.268 434.662 175.814C438.879 175.476 442.161 174.611 443.21 173.561C444.77 172.002 444.602 171.947 441.233 172.913C434.602 174.815 426.255 174.166 420.023 171.265C416.853 169.79 414.154 168.713 414.025 168.872C412.679 170.538 411.365 174.375 411.365 176.64C411.365 180.893 415.549 187.856 418.106 187.856C418.693 187.856 418.412 187.014 417.48 185.985ZM316.824 155.698C322.511 154.144 327.974 149.885 329.537 145.786C330.367 143.611 330.606 138.934 330.225 132.307C329.645 122.194 329.633 122.157 326.705 121.82L323.767 121.482L323.759 128.764C323.751 139.014 322.223 143.726 318.091 146.246C309.103 151.726 294.024 145.64 286.567 133.521C282.108 126.274 275.831 111.645 275.03 106.632C274.657 104.302 274.079 102.395 273.746 102.395C273.412 102.395 271.791 103.687 270.143 105.266C266.807 108.463 266.193 107.01 268.926 102.384C271.054 98.7827 274.477 97.0541 279.483 97.0541C283.601 97.0541 284.066 97.7572 281.302 99.8079C279.536 101.118 279.551 101.288 281.569 102.866C285.969 106.306 298.951 112.079 307.207 114.267C317.906 117.101 345.585 118.287 354.704 116.302C361.488 114.824 369.157 110.748 370.749 107.774C372.774 103.99 371.986 99.4344 368.649 95.6344C364.167 90.5293 356.784 88.7428 336.522 87.8596L319.902 87.1351L311.021 91.1451C300.739 95.7873 299.074 95.7488 287.341 90.599C277.289 86.1875 272.823 85.6056 267.694 88.0392C263.368 90.0921 259.736 96.2051 259.693 101.507C259.672 103.816 265.851 118.142 273.87 134.383C276.094 138.885 286.544 149.441 291.096 151.782C300.661 156.701 308.682 157.922 316.824 155.698ZM437.538 146.799C440.475 145.384 442.246 144.188 441.473 144.142C440.7 144.096 439.018 144.628 437.734 145.324C436.451 146.021 432.997 147.182 430.06 147.904C425.077 149.129 424.97 149.222 428.457 149.294C430.514 149.337 434.6 148.214 437.538 146.799ZM315.017 140.621C315.21 139.601 313.448 136.756 311.047 134.212C307.615 130.576 306.723 130.061 306.702 131.706C306.678 133.592 306.415 133.532 303.737 131.026C298.751 126.36 289.583 122.86 289.583 125.621C289.583 127.922 297.953 138.065 301.751 140.365C306.988 143.538 314.436 143.681 315.017 140.621ZM307.743 87.7749L313.619 84.9263L309.989 84.3136C304.932 83.4599 301.868 79.0664 301.869 72.6727C301.872 62.1078 307.183 56.759 312.61 61.8569C314.046 63.2062 315.221 65.1879 315.221 66.2606C315.221 67.3333 315.764 68.211 316.426 68.211C317.224 68.211 317.407 66.8569 316.97 64.2049C315.666 56.3062 313.983 52.0677 310.64 48.2596C302.58 39.0798 291.124 39.4465 283.966 49.1134C280.758 53.4453 279.279 66.2687 280.926 75.4811C282.266 82.982 282.289 83.0179 287.262 85.4007C292.965 88.1328 299.231 90.5337 300.8 90.5872C301.387 90.6074 304.512 89.3417 307.743 87.7749ZM327.097 83.1665C329.885 83.1665 330.124 82.9264 329.146 81.1003C327.047 77.1783 327.813 69.6601 330.644 66.4011C332.929 63.7692 333.516 63.5677 335.451 64.7481C337.511 66.0047 337.655 65.8523 337.655 62.4141C337.655 56.2081 335.995 53.2552 332.506 53.2552C327.297 53.2552 323.521 59.541 322.239 70.3474C321.855 73.5789 321.267 78.0979 320.931 80.3896C320.402 83.9983 320.563 84.4633 322.131 83.8615C323.127 83.4791 325.362 83.1665 327.097 83.1665ZM336.394 71.2324C335.89 67.8123 333.382 67.4459 333.382 70.7925C333.382 72.5877 333.968 73.5523 335.058 73.5523C336.172 73.5523 336.62 72.773 336.394 71.2324ZM313.085 66.6086C313.085 64.6501 312.515 63.9379 310.948 63.9379C309.381 63.9379 308.812 64.6501 308.812 66.6086C308.812 68.567 309.381 69.2791 310.948 69.2791C312.515 69.2791 313.085 68.567 313.085 66.6086ZM280.911 34.1846C285.432 29.0076 293.482 27.3321 299.323 30.3525C304.39 32.9727 305.445 31.5147 300.777 28.3429C292.881 22.977 283.532 25.0352 279.386 33.0525C277.565 36.5735 278.33 37.141 280.911 34.1846ZM12.3684 99.1906C11.9322 98.4849 27.1348 98.1223 57.1724 98.1223C86.7697 98.1223 102.637 98.495 102.637 99.1906C102.637 99.8858 86.9897 100.259 57.8326 100.259C29.1155 100.259 12.7916 99.8753 12.3684 99.1906ZM49.7577 76.8282C42.059 76.2829 41.6353 76.1446 45.4846 75.4334C50.5711 74.4937 150.935 74.6075 162.46 75.5662L170.472 76.2326L158.186 77.0242C144.412 77.9117 62.9768 77.7644 49.7577 76.8282ZM88.2151 53.3449C85.3188 52.8871 88.933 52.4211 99.4319 51.8981C129.353 50.4077 171.672 51.312 170.373 53.414C169.736 54.4457 94.7809 54.3826 88.2151 53.3449ZM23.9115 346L28.1671 341.438L31.7877 343.165C36.4743 345.4 44.3404 345.373 48.1737 343.108C52.2726 340.687 54.0306 337.011 54.0306 330.863C54.0306 326.483 53.5143 325.188 50.6101 322.283C47.6779 319.351 46.2586 318.795 40.6674 318.391L34.1451 317.919L36.5483 315.361C38.3424 313.451 38.951 311.522 38.9492 307.749C38.9452 298.128 31.9032 291.947 21.8947 292.777C15.6175 293.297 11.1096 296.422 7.97255 302.428C6.8185 304.637 5.64476 305.366 3.23811 305.366H0.0381966L0.327754 326.464L0.617064 347.562L4.35617 349.491C7.03996 350.875 9.72616 351.298 13.8753 350.991C19.0626 350.607 20.0926 350.094 23.9115 346Z" fill="#070502"/>
</svg>
