<svg width="460" height="456" viewBox="0 0 460 456" fill="none" xmlns="http://www.w3.org/2000/svg"><g clip-path="url(#a)"><path d="M159.509 437.693c-1.956 1.949-3.144 4.334-5.022 6.129-10.816 10.333-23.821 13.39-38.419 11.77-10.277-1.141-20.154-3.359-29.358-8.16l-16.412-13.173-5.234-5.79-5.245-9.367c-8.394-15.403-19.48-28.446-33.785-38.695-7.677-5.501-14.75-11.639-19.943-19.678-4.63-7.167-7.127-14.955-5.682-23.47 1.99-11.713 10.22-17.25 21.002-19.627 2.24-.494 2.99-1.142 2.697-3.302-2.58-19.023 5.177-34.72 16.313-49.09 11.727-15.131 25.963-27.816 40.534-40.125 11.485-9.702 22.834-19.537 33.195-30.491 16.513-17.459 25.391-38.097 26.966-62.04.907-13.797-.165-27.572-.03-41.357.166-16.816 2.259-33.332 10.135-48.439C163.9 18.47 184.072 4.248 211.253.714c21.386-2.78 40.937 2.573 58.033 15.82 11.179 8.66 17.368 20.774 21.833 33.88 3.07 9.012 3.761 18.4 3.957 27.8.227 10.903.142 21.815.035 32.721-.024 2.461.689 3.315 3.194 3.861 8.41 1.836 16.135 4.937 21.665 12.216 7.286 9.59 4.794 19.532-6.43 24.125a25.5 25.5 0 0 1-10.181 2.223c-2.602-.056-2.699.822-2.157 3.149 4.642 19.933 16.18 35.088 31.752 47.849 12.242 10.032 25.602 18.41 38.411 27.598 15.008 10.765 28.937 22.766 40.367 37.414 6.92 8.869 10.018 19.222 11.342 30.217.09.747.141 1.499.235 2.245.46 3.657.601 3.626 4.193 3.364 5.859-.427 11.696-.757 17.478 1.09 12.628 4.033 16.03 16.858 14.777 26.916-1.505 12.092-7.117 22.332-14.614 31.644-3.769 4.681-7.82 9.132-11.682 13.739-8.936 10.659-14.859 23.144-21.297 35.318a427 427 0 0 1-6.845 12.44c-.926 1.622-.594.751-1.515 1.905l-3.74 3.66c-1.568 1.976-1.451 2.133-2.977 3.663l-7.228 6.7a58.86 58.86 0 0 1-38.88 12.154c-13.693-.595-24.537-6.49-31.035-18.987-1.007-1.936-2.294-1.957-3.866-2.143-7.433-.877-14.73.288-22.025 1.48-16.179 2.644-32.516 3.361-48.861 3.651-18.917.335-37.795-.808-56.669-2.047-7.372-.484-14.713-1.279-22.081-1.755-.993-.064-2.115-.287-2.967.068a10.9 10.9 0 0 0-3.966 3.001m242.927-102.728a14 14 0 0 0-.534-.517 72.2 72.2 0 0 0 5.27-15.897c1.198-5.689 1.601-11.384-.431-16.987-1.826-5.032-5.077-8.588-10.54-9.615-7.921-1.489-14.802.58-20.675 6.131a56.4 56.4 0 0 0-10.453 13.193c-7.212 12.689-11.074 26.548-13.751 40.71-2.312 12.233-5.729 23.947-11.75 34.907-3.248 5.912-5.596 12.274-7.89 18.623a46.3 46.3 0 0 0-2.715 18.072c.601 13.14 8.544 21.208 22.079 22.463 14.253 1.322 26.484-3.538 36.988-13.142 8.529-7.799 14.894-17.139 20.059-27.391 7.014-13.922 15.198-27.041 26.022-38.4a81 81 0 0 0 9.293-11.301c5.359-8.179 9.256-16.933 9.341-26.905.071-8.285-3.854-13.251-11.639-15.811-5.001-1.644-9.878-.428-14.829.064-3.462.344-6.665 2.308-10.224 1.715-3.892-.647-3.752-.712-4.749 3.246-1.589 6.311-3.652 12.423-8.872 16.842m-341.233-2.556c-3.902-3.272-5.716-7.785-7.3-12.414-.581-1.699-1.209-2.253-2.801-.859-5.114 4.477-11.155 5.764-17.817 5.236-5.124-.406-10.222-.195-15.1 1.91-6.505 2.808-10.228 8.183-10.233 15.213-.005 5.984 2.165 11.274 5.417 16.151 4.372 6.555 10.305 11.575 16.484 16.311 8.865 6.795 17.546 13.777 24.554 22.59 5.387 6.774 9.934 14.131 14.757 21.294 13.395 19.895 31.977 30.024 56.015 29.758a23.1 23.1 0 0 0 15.961-6.425c8.424-7.933 10.437-18.092 8.864-28.944-1.599-11.032-6.763-20.864-12.08-30.517-3.987-7.239-8.247-14.326-12.28-21.54-6.056-10.833-9.616-22.733-14.359-34.127-3.044-7.312-6.22-14.559-11.103-20.829-4.473-5.744-9.4-11.059-16.604-13.593-9.497-3.34-21.544.023-24.443 11.737a38.6 38.6 0 0 0-1.238 8.121c-.216 7.022 1.835 13.541 4.091 20.035zm281.77-19.354c.346-2.96-.224-7.462-.988-11.877a124.4 124.4 0 0 0-17.314-45.562c-7.464-11.843-15.051-23.605-21.706-35.944a165.2 165.2 0 0 1-14.212-36.208c-.267-1.003-.192-2.678-1.31-2.82-1.505-.191-1.133 1.652-1.563 2.554-1.229 2.579-2.055 5.352-3.311 7.915-6.004 12.252-14.769 21.375-28.598 24.424-11.576 2.552-22.681.802-33.136-4.573-12.48-6.415-22.801-15.61-32.015-26.073-3.556-4.039-6.81-8.345-10.207-12.525-.38-.467-.648-1.288-1.334-1.146-1.023.211-.548 1.204-.633 1.858-.553 4.214-.922 8.458-1.615 12.649a201.5 201.5 0 0 1-7.634 32.061c-4.797 14.141-11.487 27.461-17.478 41.086-7.119 16.19-13.217 32.681-14.756 50.51-1.072 12.422.185 24.508 4.93 36.135a13.85 13.85 0 0 0 4.914 6.416 151 151 0 0 1 12.739 9.885c9.96 8.786 16.515 19.627 18.912 32.832.341 1.88.35 3.768 2.562 4.99a121.45 121.45 0 0 0 57.18 15.457 109.6 109.6 0 0 0 46.28-9.084c23.403-10.214 41.349-26.104 51.312-50.099 2.238-5.39 3.779-11.016 5.409-16.636 2.361-8.14 3.432-16.28 3.572-26.225m-95.791-103.494a34.3 34.3 0 0 0 16.778-4.571c7.524-4.368 12.136-11.101 14.988-19.043 2.544-7.084 4.662-14.326 6.8-21.548.987-3.335 1.547-6.796 2.356-10.186.418-1.748.01-2.488-1.973-2.415-3.569.132-5.138 1.086-6.336 4.481-2.78 7.875-5.137 15.907-8.424 23.593-2.688 6.288-5.959 12.203-12.525 15.357a33.9 33.9 0 0 1-24.762 2.128c-13.232-3.761-22.973-12.45-31.5-22.625-9.36-11.168-17.201-23.364-22.536-37.016-.971-2.486-1.834-2.112-3.27-.54a14.1 14.1 0 0 0-3.181 5.88c-.126.454-.027 1.081-.629 1.182-.709.119-.75-.581-.838-1.008-.811-3.956-.713-7.656 2.348-10.862 3.935-4.121 8.446-5.599 13.876-3.591 1.004.371 2.718.375 2.747 1.516.025 1.029-1.69.931-2.63 1.247-.824.277-1.629.565-2.433.905-1.645.694-2.125 1.458-.691 2.939 2.351 2.429 4.576 4.961 7.392 6.91 11.462 7.935 24.471 11.307 38.071 12.528 19.441 1.746 38.108-1.748 56.143-9.093 5.556-2.263 11.293-4.078 16.953-6.083.804-.285 2.066-.953 2.4-.278.501 1.011-.842 1.573-1.572 2.104a40 40 0 0 1-8.708 5.151c-.442.175-1.055.288-1.077.851-.02.502.534.42.872.412 4.857-.105 9.773.669 14.511-1.141 7.649-2.922 10.627-10.388 4.269-17.5-4.637-5.186-10.775-7.73-17.373-8.917-12.8-2.303-25.553-4.784-38.209-7.793a36.5 36.5 0 0 0-20.721 1.067 86 86 0 0 0-12.916 5.68c-11.873 6.426-23.717 8.35-35.598-.002a17 17 0 0 0-5.149-2.208c-10.838-3.138-21.302 3.562-23.017 14.736-.899 5.86.691 11.157 3.678 16.113 2.34 3.883 5.393 7.207 8.384 10.588 3.559 4.024 7.898 7.335 11.223 11.493 8.639 10.801 17.85 20.978 29.249 28.913 9.193 6.4 19.19 10.76 33.03 10.646M179.674 88.623a44.6 44.6 0 0 0 4.094 18.817c.816 1.817 1.665 3.794 3.647 4.952a91.4 91.4 0 0 0 12.648 6.535c6.846 2.676 14.101.943 18.434-4.3a29 29 0 0 0 5.661-10.884c1.724-6.294 1.692-12.58.955-19.114-.967-8.572-3.706-16.019-10.094-21.806-4.927-4.465-10.632-6.886-17.53-5.091-6.813 1.773-11.134 6.293-13.932 12.444a44.7 44.7 0 0 0-3.883 18.447m106.289.452c.198-7.694-1.128-15.068-4.837-21.844-3.243-5.925-7.787-10.463-14.931-10.92-8.016-.514-14.078 4.239-17.296 12.807-3.081 8.203-2.586 16.688-1.972 25.138a28.7 28.7 0 0 0 3.034 10.312c.762 1.573 4.278 3.156 5.268 2.269 1.452-1.304-.154-2.515-.539-3.66a28.6 28.6 0 0 1 .053-18.369 11.74 11.74 0 0 1 3.2-5.006c3.095-2.91 6.603-2.862 9.669.043a13.4 13.4 0 0 1 3.696 6.835c1.762 7.337 1.153 14.402-2.844 20.954-.902 1.478-1.349 2.272 1.016 2.506 2.732.308 5.438.816 8.096 1.519 1.595.4 2.529.172 3.278-1.394 3.211-6.716 5.207-13.708 5.109-21.19m-39.352 83.462c-1.002 0-2.005.036-3.005-.008-1.653-.073-2.126.369-.96 1.819 1.018 1.265 1.952 2.599 2.88 3.932.273.393.555.93.072 1.351-.489.425-.938-.015-1.281-.297-1.451-1.191-2.822-2.48-4.296-3.64-9.165-7.211-19.291-7.327-29.852-3.943-1.572.503-2.33 1.293-.819 2.927 7.148 7.73 15.141 14.415 25.23 17.727 10.062 3.304 19.784 2.477 27.784-5.432 4.697-4.645 3.622-9.526-2.54-12.025a35 35 0 0 0-13.213-2.411m-108.144 63.171c-.161-.418-.231-.831-.337-.84-.722-.064-1.078.503-1.458.987-3.937 5.014-7.816 10.075-11.815 15.037a142.4 142.4 0 0 0-18.028 28.388c-.301.634-1.09 1.235.27 1.535q.01.155-.009.308c-.014-.052-.057-.123-.037-.153.469-.708 1.005-1.379 1.411-2.121a135.6 135.6 0 0 1 15.628-22.843c4.522-5.32 9.132-10.623 12.63-16.735.678-1.185 1.207-2.455 1.745-3.563m67.785-196.12a10 10 0 0 1-1.237-.635c-5.629-3.823-11.487-4.483-17.494-1.04-5.608 3.213-8.878 8.29-10.714 14.354-.163.54-1.167 1.31-.154 1.818.708.355.988-.574 1.304-1.053a38.3 38.3 0 0 1 6.296-7.434c5.71-5.143 12.068-7.95 19.864-5.337.644.216 1.286.787 2.135-.672m57.131-5.752c-4.808.013-10.025 3.643-11.301 7.86a2.18 2.18 0 0 0 .084 1.796 7.3 7.3 0 0 0 1.199-.826c2.525-2.595 5.696-3.334 9.182-3.524 6.244-.34 10.955 2.736 15.394 6.549.273.234.219 1.149.901.54.184-.164.142-.72.04-1.045-1.83-5.813-9.43-11.366-15.499-11.35m98.027 260.706c-.848-9.049-4.941-17.599-9.485-25.989-.179-.33-.461-.755-.817-.533-.641.4.003.857.165 1.202 3.959 8.408 7.039 17.083 8.396 26.332.195 1.329-.666 3.465.977 3.77.674.125.626-2.631.764-4.782M267.506 90.334a10 10 0 0 0-.221-1.85c-.484-1.59-1.049-3.283-3.196-2.95-1.825.281-2.23 1.794-2.313 3.381a7.2 7.2 0 0 0 .099 1.865c.405 1.871.949 4.039 3.324 3.713 2.04-.28 2.44-2.246 2.307-4.159M105.927 283.847l-.351.554c-.029-.125-.122-.288-.075-.368q.189-.261.429-.476 0 .141-.003.29" fill="#0E0B04"/><path d="M342.972 313.055c-.139 9.945-1.21 18.085-3.571 26.225-1.63 5.619-3.171 11.246-5.409 16.636-9.963 23.995-27.909 39.885-51.313 50.099a109.6 109.6 0 0 1-46.28 9.084 121.46 121.46 0 0 1-57.179-15.457c-2.213-1.222-2.221-3.11-2.563-4.99-2.397-13.205-8.951-24.046-18.911-32.832a152 152 0 0 0-12.739-9.885 13.85 13.85 0 0 1-4.914-6.416c-4.746-11.627-6.002-23.714-4.93-36.135 1.538-17.829 7.636-34.32 14.755-50.51 5.991-13.625 12.681-26.945 17.479-41.087a201.6 201.6 0 0 0 7.634-32.06c.692-4.191 1.061-8.435 1.614-12.649.086-.654-.389-1.647.634-1.858.685-.142.954.679 1.333 1.146 3.398 4.179 6.651 8.485 10.208 12.525 9.213 10.463 19.534 19.658 32.015 26.073 10.454 5.375 21.559 7.125 33.136 4.573 13.829-3.049 22.594-12.172 28.598-24.424 1.256-2.563 2.081-5.336 3.31-7.915.43-.902.059-2.745 1.563-2.554 1.119.142 1.044 1.816 1.31 2.819a165.2 165.2 0 0 0 14.212 36.209c6.655 12.339 14.243 24.101 21.706 35.944a124.4 124.4 0 0 1 17.314 45.562c.765 4.415 1.335 8.917.988 11.877" fill="#F5E5C4"/><path d="M61.988 331.517c-2.256-6.494-4.307-13.013-4.091-20.035a38.6 38.6 0 0 1 1.237-8.121c2.9-11.714 14.947-15.077 24.444-11.737 7.204 2.534 12.13 7.849 16.604 13.593 4.883 6.27 8.059 13.517 11.103 20.829 4.742 11.394 8.302 23.294 14.358 34.127 4.033 7.214 8.294 14.301 12.28 21.54 5.317 9.653 10.481 19.485 12.081 30.517 1.573 10.852-.441 21.011-8.864 28.945a23.1 23.1 0 0 1-15.961 6.424c-24.038.266-42.62-9.863-56.015-29.758-4.823-7.163-9.37-14.52-14.757-21.294-7.008-8.813-15.69-15.795-24.555-22.59-6.179-4.736-12.111-9.756-16.483-16.311-3.252-4.877-5.422-10.167-5.418-16.151.006-7.03 3.729-12.405 10.235-15.213 4.877-2.105 9.975-2.316 15.099-1.91 6.662.528 12.703-.759 17.816-5.236 1.593-1.394 2.22-.84 2.802.859 1.584 4.629 3.397 9.142 7.3 12.414.334.424.499 1.103 1.281.853l.239.469.185-.238-.468-.185c.373-.729.021-1.275-.452-1.791m340.448 3.448c5.22-4.419 7.283-10.531 8.872-16.842.997-3.958.857-3.894 4.749-3.246 3.559.593 6.762-1.372 10.224-1.715 4.951-.492 9.828-1.708 14.829-.064 7.785 2.559 11.71 7.526 11.639 15.811-.085 9.972-3.982 18.726-9.341 26.904a81 81 0 0 1-9.293 11.302c-10.824 11.359-19.008 24.477-26.022 38.4-5.165 10.252-11.53 19.592-20.059 27.391-10.504 9.604-22.735 14.463-36.988 13.142-13.535-1.255-21.478-9.323-22.079-22.463a46.3 46.3 0 0 1 2.715-18.072c2.294-6.349 4.642-12.711 7.89-18.623 6.021-10.96 9.438-22.674 11.75-34.908 2.677-14.161 6.539-28.02 13.751-40.709a56.4 56.4 0 0 1 10.453-13.193c5.873-5.551 12.754-7.62 20.675-6.131 5.463 1.027 8.714 4.582 10.54 9.615 2.032 5.603 1.629 11.298.431 16.987a72.4 72.4 0 0 1-5.268 15.898c-.244.266-.461.629-.161.888.36.312.541-.088.693-.372M247.182 209.561c-13.84.114-23.837-4.246-33.03-10.646-11.399-7.935-20.61-18.112-29.248-28.913-3.326-4.158-7.665-7.469-11.224-11.493-2.991-3.381-6.044-6.705-8.384-10.588-2.987-4.956-4.577-10.253-3.678-16.113 1.715-11.174 12.179-17.874 23.017-14.736a17 17 0 0 1 5.149 2.208c11.881 8.352 23.725 6.428 35.598.002a86 86 0 0 1 12.916-5.68 36.5 36.5 0 0 1 20.721-1.067c12.657 3.009 25.409 5.49 38.209 7.793 6.598 1.187 12.736 3.731 17.373 8.917 6.358 7.112 3.38 14.578-4.269 17.5-4.738 1.81-9.654 1.036-14.511 1.141-.338.008-.892.09-.872-.412.022-.563.635-.676 1.077-.851a40 40 0 0 0 8.708-5.151c.73-.531 2.073-1.093 1.572-2.104-.334-.675-1.596-.007-2.4.278-5.66 2.005-11.397 3.82-16.953 6.083-18.035 7.345-36.702 10.839-56.143 9.093-13.6-1.221-26.609-4.593-38.071-12.528-2.815-1.949-5.041-4.481-7.392-6.91-1.434-1.481-.954-2.245.691-2.939.804-.34 1.609-.628 2.433-.905.94-.316 2.655-.218 2.63-1.247-.029-1.141-1.743-1.145-2.747-1.516-5.43-2.008-9.941-.53-13.875 3.591-3.062 3.206-3.16 6.906-2.349 10.862.088.427.129 1.127.838 1.008.602-.101.503-.728.629-1.182a14.1 14.1 0 0 1 3.181-5.88c1.436-1.572 2.299-1.946 3.27.54 5.335 13.652 13.176 25.848 22.536 37.016 8.527 10.175 18.268 18.864 31.5 22.625a33.9 33.9 0 0 0 24.762-2.128c6.566-3.154 9.837-9.069 12.525-15.357 3.287-7.686 5.644-15.718 8.424-23.593 1.198-3.395 2.767-4.349 6.336-4.481 1.983-.073 2.391.667 1.973 2.415-.809 3.39-1.369 6.851-2.356 10.186-2.138 7.222-4.256 14.464-6.8 21.548-2.852 7.942-7.464 14.675-14.988 19.043a34.3 34.3 0 0 1-16.778 4.571" fill="#F59E18"/><path d="M179.674 88.623a44.7 44.7 0 0 1 3.883-18.446c2.798-6.152 7.119-10.672 13.932-12.445 6.898-1.794 12.602.626 17.53 5.09 6.388 5.789 9.127 13.235 10.094 21.807.737 6.534.769 12.82-.955 19.114a29 29 0 0 1-5.661 10.884c-4.333 5.243-11.588 6.976-18.434 4.3a91.4 91.4 0 0 1-12.648-6.535c-1.983-1.158-2.831-3.134-3.648-4.952a44.6 44.6 0 0 1-4.093-18.817m33.845 11.15a28.66 28.66 0 0 0-2.28-12.783c-1.574-3.87-4.139-6.638-8.507-6.929-4.222-.281-7.164 2.052-9.13 5.521-4.909 8.663-4.159 17.237.909 25.547 2.088 3.424 5.188 5.653 9.349 5.132 4.079-.512 6.578-3.349 8.18-6.984 1.258-3 1.765-6.263 1.479-9.504m72.444-10.698c.098 7.481-1.898 14.473-5.109 21.19-.749 1.566-1.683 1.794-3.278 1.394a56 56 0 0 0-8.095-1.519c-2.366-.234-1.918-1.028-1.017-2.506 3.997-6.552 4.606-13.617 2.844-20.954a13.4 13.4 0 0 0-3.696-6.835c-3.066-2.905-6.574-2.953-9.669-.043a11.74 11.74 0 0 0-3.2 5.006 28.6 28.6 0 0 0-.053 18.369c.385 1.145 1.991 2.356.539 3.66-.99.887-4.506-.696-5.268-2.269a28.7 28.7 0 0 1-3.034-10.312c-.614-8.45-1.109-16.935 1.972-25.138 3.218-8.568 9.28-13.32 17.296-12.807 7.144.457 11.688 4.994 14.931 10.92 3.709 6.776 5.035 14.15 4.837 21.844" fill="#F5E5C4"/><path d="M246.611 172.537a35 35 0 0 1 13.213 2.411c6.162 2.499 7.237 7.38 2.539 12.025-7.999 7.909-17.721 8.736-27.783 5.432-10.09-3.312-18.082-9.998-25.23-17.727-1.511-1.634-.753-2.424.819-2.927 10.561-3.384 20.687-3.268 29.852 3.943 1.474 1.16 2.845 2.449 4.295 3.64.343.282.793.722 1.281.296.484-.421.202-.957-.072-1.35-.927-1.333-1.862-2.667-2.879-3.932-1.166-1.45-.693-1.892.96-1.819 1 .044 2.003.008 3.005.008" fill="#D14D29"/><path d="M206.252 39.589c-.849 1.459-1.49.888-2.135.672-7.796-2.613-14.154.194-19.863 5.337a38.3 38.3 0 0 0-6.296 7.434c-.316.478-.597 1.408-1.305 1.053-1.013-.508-.009-1.279.154-1.819 1.836-6.064 5.106-11.14 10.714-14.354 6.007-3.442 11.866-2.783 17.494 1.041q.597.36 1.237.636m57.131-5.752c6.069-.016 13.669 5.536 15.499 11.349.102.325.144.882-.04 1.046-.682.608-.628-.307-.901-.541-4.439-3.813-9.15-6.888-15.394-6.549-3.486.19-6.657.93-9.181 3.524a7.4 7.4 0 0 1-1.2.826 2.17 2.17 0 0 1-.083-1.796c1.275-4.217 6.492-7.847 11.3-7.86m4.123 56.498c.132 1.913-.267 3.88-2.308 4.16-2.374.325-2.919-1.843-3.323-3.714a7.2 7.2 0 0 1-.1-1.865c.084-1.587.489-3.1 2.314-3.382 2.147-.332 2.712 1.361 3.196 2.95a10 10 0 0 1 .221 1.851m-161.577 193.51.002-.287a3 3 0 0 0-.43.476c-.047.08.046.243.075.368z" fill="#F5E5C4"/><path d="M62.485 333.262c-.783.25-.947-.429-1.282-.853l.785-.891c.474.515.826 1.061.453 1.79z" fill="#0E0B04"/><path d="m62.44 333.308.468.185-.185.238-.239-.469zm339.997 1.657c-.153.284-.333.684-.694.372-.299-.259-.083-.622.161-.888q.272.25.533.516M213.52 99.773a20.04 20.04 0 0 1-1.479 9.504c-1.603 3.635-4.102 6.472-8.18 6.984-4.161.521-7.262-1.709-9.35-5.132-5.068-8.31-5.818-16.884-.909-25.547 1.966-3.47 4.908-5.802 9.13-5.521 4.368.29 6.933 3.06 8.508 6.93a28.7 28.7 0 0 1 2.28 12.782m-5.986-8.466c-.059-1.295-.392-3.15-2.549-3.337-1.89-.165-2.888 1.248-2.956 3.072-.07 1.852.447 3.527 2.637 3.78 2.129.246 2.775-1.142 2.868-3.515" fill="#0E0B04"/><path d="M207.534 91.307c-.093 2.373-.739 3.761-2.869 3.515-2.189-.253-2.706-1.928-2.637-3.78.069-1.824 1.067-3.237 2.957-3.072 2.157.188 2.49 2.042 2.549 3.337" fill="#F5E5C4"/></g><defs><clipPath id="a"><path fill="#fff" d="M0 0h460v456H0z"/></clipPath></defs></svg>