<svg width="179" height="35" viewBox="0 0 179 35" fill="none" xmlns="http://www.w3.org/2000/svg"><path d="M155.79 9.62c0-2.92.012-5.84-.011-8.76-.003-.49.134-.626.624-.624 4.557.018 9.114.013 13.671.01a4.33 4.33 0 0 1 3.666 1.973c.166.226.252.5.243.78-.01 1.799-.042 3.6.017 5.396.02.611-.667.795-.634 1.215.03.39.638.577.629 1.158a314 314 0 0 0-.006 7.64c.005.455-.151.53-.56.53q-8.517-.017-17.035.003c-.502.002-.618-.15-.615-.63.022-2.897.011-5.794.011-8.69m9.359 2.675c-1.167 0-2.335.025-3.501-.01-.552-.018-.448.32-.449.632 0 .318-.091.646.454.64 2.31-.022 4.622-.026 6.933.003.586.007.471-.341.49-.68.02-.364.004-.613-.496-.597-1.142.037-2.287.012-3.431.012m-.072-5.422c1.164 0 2.33-.024 3.494.012.484.016.534-.2.505-.58-.025-.337.099-.685-.494-.676-2.306.032-4.613.027-6.919.003-.53-.006-.471.3-.465.629.005.314-.093.643.454.624 1.14-.039 2.283-.012 3.425-.012m-90.203 4.507c0 2.313-.014 4.627.012 6.94.005.492-.136.631-.625.62a68 68 0 0 0-4.136.004c-.596.023-.672-.206-.665-.714.027-1.775-.007-3.551.022-5.327.008-.487-.118-.628-.614-.622q-3.33.042-6.66 0c-.5-.006-.621.139-.614.624.029 1.798-.003 3.598.022 5.397.006.459-.067.654-.593.64a93 93 0 0 0-4.276-.004c-.432.008-.553-.114-.552-.547.015-4.58-.013-9.159.019-13.738A4.29 4.29 0 0 1 60.665.25Q65.538.23 70.41.249a4.33 4.33 0 0 1 4.461 4.474c.014 2.22.002 4.439.003 6.658M65.49 6.873c1.188 0 2.376-.022 3.564.01.507.013.428-.296.414-.587-.014-.292.148-.668-.422-.663q-3.494.03-6.987-.002c-.544-.005-.451.32-.452.636 0 .318-.09.64.46.619 1.14-.043 2.281-.013 3.423-.013m89.044 4.473c0 2.337-.012 4.673.01 7.01.005.454-.115.594-.579.584q-2.137-.045-4.277 0c-.437.008-.548-.121-.542-.55.024-1.823-.005-3.646.02-5.468.007-.466-.08-.647-.6-.64q-3.365.045-6.731 0c-.49-.006-.566.172-.562.6.021 1.823-.005 3.646.019 5.468.005.45-.106.6-.577.59-1.448-.03-2.898-.022-4.347-.003-.387.005-.523-.095-.522-.505.014-4.626-.017-9.253.019-13.879a4.3 4.3 0 0 1 1.284-3.056 4.3 4.3 0 0 1 3.072-1.244q5.014-.037 10.027 0a4.29 4.29 0 0 1 4.277 4.293c.027 2.267.005 4.533.005 6.8zm-9.372-4.473c1.165 0 2.331-.025 3.495.012.487.016.53-.206.503-.583-.024-.338.097-.682-.496-.674-2.307.033-4.615.027-6.923.003-.536-.006-.464.307-.46.631.004.314-.094.642.454.623 1.141-.04 2.284-.012 3.427-.012M36.308 9.541c0-2.897.012-5.795-.012-8.693-.004-.498.139-.625.624-.614a73 73 0 0 0 4.137-.003c.553-.018.646.171.638.67-.03 1.799.003 3.599-.022 5.398-.006.45.109.59.575.585 2.243-.025 4.488-.029 6.731.002.523.007.602-.177.596-.639-.026-1.799 0-3.598-.018-5.398-.004-.416.051-.628.556-.615 1.449.035 2.898.023 4.347.005.384-.005.527.088.526.503q-.018 8.833.002 17.666c.002.46-.167.535-.57.529-1.426-.02-2.852-.027-4.278.003-.46.01-.593-.123-.586-.584.026-1.8-.005-3.599.021-5.398.007-.485-.063-.69-.63-.68-2.22.038-4.441.032-6.661.004-.5-.007-.62.138-.612.623.028 1.798-.003 3.598.022 5.397.006.458-.064.656-.592.64a75 75 0 0 0-4.207 0c-.52.014-.6-.175-.598-.638.02-2.92.01-5.842.01-8.763m75.28.049c.947.549 1.787 1.053 2.645 1.525a.75.75 0 0 1 .469.756 337 337 0 0 0 0 6.519c.004.423-.101.559-.542.55a122 122 0 0 0-4.347-.001c-.41.006-.506-.133-.502-.52.019-1.823-.009-3.646.02-5.468.008-.501-.09-.68-.641-.67a192 192 0 0 1-6.59-.002c-.59-.011-.674.199-.667.71.028 1.8-.002 3.6.021 5.398.006.424-.095.562-.538.554-1.45-.03-2.899-.027-4.347-.002-.43.008-.552-.12-.55-.55q.019-8.797 0-17.595c0-.423.11-.564.546-.557q2.174.038 4.348 0c.439-.009.547.125.541.552-.023 1.845.002 3.692-.018 5.538-.005.409.072.563.529.558q3.399-.038 6.801 0c.489.006.567-.17.562-.6-.021-1.822.007-3.645-.019-5.467-.007-.464.129-.59.586-.581 1.402.028 2.804.024 4.207.001.43-.007.608.077.602.564a346 346 0 0 0-.005 6.52.69.69 0 0 1-.421.708c-.879.48-1.735 1.001-2.69 1.56m-24.365 9.34c-2.15 0-4.3.004-6.452-.002a4.31 4.31 0 0 1-4.635-4.637q-.007-4.733 0-9.464a4.31 4.31 0 0 1 4.557-4.58c4.489-.005 8.977.006 13.465-.01.49-.003.702.07.684.636a63 63 0 0 0 0 4.135c.017.559-.19.645-.685.643-3.974-.018-7.948.004-11.922-.025-.593-.004-.734.162-.724.736.034 2.15.044 4.301-.005 6.45-.016.655.199.753.785.749 3.95-.025 7.9-.002 11.852-.026.552-.003.714.145.697.7a64 64 0 0 0 .002 4.064c.019.558-.176.647-.676.642-2.314-.026-4.628-.012-6.943-.012m38.081 0c-2.899 0-5.797-.014-8.695.013-.529.005-.661-.134-.66-.659q.03-8.692 0-17.387c-.001-.519.123-.68.658-.663 1.331.04 2.666.044 3.997-.001.595-.02.783.108.778.751-.036 3.95-.006 7.9-.031 11.849-.004.58.145.734.73.73 3.927-.028 7.855.004 11.782-.032.67-.006.812.204.791.822a64 64 0 0 0-.003 3.926c.014.513-.11.67-.651.665-2.898-.03-5.797-.014-8.696-.014" fill="#fff"/><path d="M36.208 28.246c0-1.915.018-3.83-.01-5.745-.008-.559.129-.779.735-.773 3.013.027 6.026.002 9.04.016a3.102 3.102 0 0 1 3.286 3.304c.004.537-.02 1.075.008 1.611a1.32 1.32 0 0 1-.474 1.24.42.42 0 0 0 .006.75 1.35 1.35 0 0 1 .468 1.243 92 92 0 0 0 .006 4.063c.017.62-.14.851-.81.846q-5.712-.046-11.423 0c-.7.006-.86-.227-.846-.881.04-1.89.014-3.783.014-5.674m6.515-2.726c-.746 0-1.492.01-2.239-.004-.364-.006-.492.15-.487.504.005.343.174.443.48.442q2.238-.004 4.477.002c.33.002.525-.088.524-.471 0-.377-.177-.482-.517-.477-.746.011-1.492.004-2.238.004m.016 5.57c.722 0 1.443-.006 2.164.003.346.003.584-.056.576-.491-.008-.399-.232-.449-.545-.448q-2.2.006-4.4 0c-.317-.001-.532.057-.54.453-.007.438.239.489.58.485.722-.007 1.443-.002 2.165-.002m84.51 3.695c-1.543 0-3.086.01-4.629-.004a2.92 2.92 0 0 1-2.711-1.825 2.9 2.9 0 0 1-.214-1.129c-.012-2.29-.006-4.58-.002-6.871a3.02 3.02 0 0 1 .843-2.278 3.02 3.02 0 0 1 2.247-.923c3.132-.045 6.266-.008 9.398-.02.43-.001.575.163.565.58-.021.818-.038 1.638.004 2.454.03.573-.148.769-.742.762-2.595-.029-5.19-.015-7.785-.007-.239.001-.531-.11-.7.174-.21.355.034.675.542.677 2.151.008 4.302-.013 6.453.013.713.008 1.627-.326 2.089.163.424.448.119 1.34.127 2.036.018 1.569.006 1.569-1.593 1.569-2.291 0-4.583-.007-6.874.008-.302.002-.769-.191-.782.402-.013.589.444.433.757.434 2.572.01 5.144.024 7.716-.006.609-.008.837.155.794.786q-.072 1.156-.001 2.312c.034.578-.204.712-.733.704-1.589-.026-3.179-.01-4.769-.01m39.629-.001c-1.612 0-3.225-.013-4.837.008-.478.006-.677-.142-.659-.639.029-.77.04-1.543-.004-2.312-.035-.633.171-.859.829-.85 2.523.032 5.048.013 7.571.013.164 0 .327-.004.491-.002.266.004.458-.072.461-.387.003-.329-.168-.459-.479-.459q-1.578 0-3.154-.003c-.842 0-1.683.004-2.525 0a2.91 2.91 0 0 1-3.128-2.743 13.6 13.6 0 0 1-.015-2.866 3.025 3.025 0 0 1 3.146-2.792c2.944-.042 5.889-.005 8.833-.02.484-.003.593.205.581.634-.021.817-.038 1.637.005 2.452.031.571-.189.713-.726.708-2.477-.022-4.954-.012-7.431-.005-.237 0-.56-.109-.644.25-.111.466.127.614.576.61a343 343 0 0 1 5.328 0c.349 0 .698.038 1.039.114a2.1 2.1 0 0 1 1.847 2.305v3.644a2.15 2.15 0 0 1-.607 1.676 2.17 2.17 0 0 1-1.661.65c-1.612.033-3.225.008-4.837.008zM50.112 28.2c0-1.915.017-3.83-.01-5.746-.008-.544.149-.73.711-.725 3.014.024 6.029.002 9.042.015a3.093 3.093 0 0 1 3.301 3.353c.002.49-.02.982.007 1.471a1.43 1.43 0 0 1-.502 1.37.39.39 0 0 0-.204.355.39.39 0 0 0 .224.342 1.4 1.4 0 0 1 .482 1.307c-.018 1.401-.022 2.803.002 4.204.008.487-.157.665-.645.648a32 32 0 0 0-2.454 0c-.513.022-.709-.144-.693-.675.032-1.097-.013-2.196.019-3.293.015-.526-.176-.69-.69-.68-1.401.027-2.803.022-4.205.002-.456-.006-.618.154-.608.61.023 1.12-.016 2.243.017 3.363.015.533-.182.696-.693.673a23 23 0 0 0-2.312.003c-.607.036-.815-.15-.803-.781.039-1.938.014-3.877.014-5.816m6.557-2.68c-.746 0-1.493.005-2.239-.003-.32-.004-.535.06-.538.454-.002.367.152.496.501.494q2.273-.009 4.547-.002c.337.001.528-.122.52-.49-.008-.378-.229-.46-.553-.456-.746.008-1.492.003-2.238.002m96.222 9.267c-1.588 0-3.177-.013-4.764.008-.479.006-.656-.145-.654-.64q.022-5.885 0-11.769c-.002-.479.141-.656.637-.653 3.083.018 6.167-.012 9.25.018a3.04 3.04 0 0 1 2.314.916 3.06 3.06 0 0 1 .859 2.336q.008 3.363-.001 6.725a2.905 2.905 0 0 1-3.086 3.057c-1.518.008-3.036.001-4.555.002m-1.622-6.47c0 .701.014 1.402-.005 2.102-.011.406.118.598.557.593q2.173-.024 4.345 0c.413.003.591-.137.586-.568a210 210 0 0 1 0-4.344c.004-.41-.125-.59-.561-.586-1.448.017-2.897.02-4.345-.002-.483-.007-.597.203-.584.633.023.724.007 1.448.007 2.172m-17.682 1.122c0-1.495-.007-2.99.001-4.486a3.05 3.05 0 0 1 .858-2.272 3.06 3.06 0 0 1 2.245-.928c2.289-.044 4.581-.05 6.871.002a3.05 3.05 0 0 1 3.068 3.23c.003 3.014-.012 6.028.012 9.042.004.561-.134.804-.739.77a28 28 0 0 0-2.453-.005c-.46.015-.616-.163-.607-.614.021-1.098-.014-2.197.015-3.294.014-.524-.114-.757-.697-.74a83 83 0 0 1-4.136.001c-.537-.012-.684.187-.67.696.031 1.097-.008 2.196.017 3.294.01.474-.131.678-.635.66a34 34 0 0 0-2.523 0c-.502.018-.641-.184-.635-.66.022-1.565.008-3.13.008-4.696m6.456-2.976c.748 0 1.495-.007 2.242.003.354.004.578-.074.569-.502-.01-.402-.235-.448-.549-.447q-2.207.007-4.413 0c-.327-.002-.531.071-.532.462 0 .373.17.49.512.486.724-.01 1.448-.003 2.171-.002m-21.209 1.826c0 1.94-.014 3.88.009 5.819.007.517-.155.71-.681.687a28 28 0 0 0-2.454 0c-.544.024-.677-.205-.665-.703.027-1.12-.004-2.243.014-3.365.007-.418-.138-.583-.567-.578-1.449.017-2.899.02-4.348-.001-.489-.007-.584.225-.578.645.016 1.098-.012 2.197.013 3.295.012.492-.113.73-.662.707-.863-.037-1.729-.02-2.594-.007-.387.007-.541-.148-.54-.537q.01-5.994 0-11.988c-.001-.402.175-.532.551-.526.865.012 1.73.02 2.594-.003.493-.014.657.192.65.667-.021 1.12.007 2.243-.012 3.364-.008.45.152.625.61.619q2.138-.027 4.277 0c.461.007.615-.169.607-.617-.021-1.098.024-2.198-.018-3.295-.024-.6.2-.771.768-.742.769.04 1.543.036 2.313.002.561-.026.728.2.722.738-.022 1.94-.009 3.88-.009 5.82m-36.208-.027c0-1.939.017-3.877-.01-5.815-.009-.558.178-.744.727-.717a24 24 0 0 0 2.311 0c.539-.025.685.192.67.699-.029 1.073.014 2.149-.017 3.222-.016.533.132.752.706.738 1.4-.036 2.804-.03 4.205-.002.519.01.703-.16.688-.683-.03-1.12 0-2.242-.013-3.363-.005-.392.089-.616.541-.606.887.02 1.775.016 2.663.002.427-.008.58.183.578.59-.01 1.449-.007 2.897-.004 4.345a.96.96 0 0 1-.574.956c-.251.12-.488.274-.733.41-.312.174-.383.383.003.507 1.248.403 1.411 1.323 1.322 2.466a30 30 0 0 0-.009 3.081c.012.496-.122.728-.667.703a28 28 0 0 0-2.453 0c-.533.022-.684-.192-.671-.697.028-1.097-.007-2.196.014-3.293.01-.483-.174-.663-.657-.657q-2.137.03-4.275 0c-.479-.006-.671.165-.661.653.022 1.074-.02 2.15.016 3.223.019.563-.138.808-.741.772a21 21 0 0 0-2.242-.002c-.547.028-.736-.158-.728-.717.028-1.938.011-3.877.011-5.815m-6.454 6.523c-1.471 0-2.945-.06-4.414.015a3.02 3.02 0 0 1-3.105-3.018 228 228 0 0 1 .001-6.936 3.086 3.086 0 0 1 3.285-3.099c3.036-.026 6.074 0 9.11-.015.486-.002.667.16.649.648a24 24 0 0 0 .004 2.311c.037.628-.15.851-.815.842-2.57-.037-5.14-.002-7.709-.026-.561-.006-.788.134-.769.738.04 1.353.036 2.71 0 4.063-.014.572.205.71.737.706 2.523-.02 5.046-.01 7.569-.009.975 0 .975.001.976 1.008 0 .724-.019 1.448.005 2.171.016.46-.17.612-.617.607-1.636-.017-3.271-.006-4.907-.006" fill="#189A3B"/><path d="M34.31 12.018c-.168.424-.413.312-.599.316a67 67 0 0 1-2.034.004c-.312-.004-.618-.047-.6.43.01.274-.23.238-.413.239l-3.788-.002c-.153 0-.413.05-.41-.149.015-.73-.506-.5-.871-.51-.677-.02-1.356.008-2.033-.012-.35-.01-.5.084-.5.466q.018 5.013 0 10.026c-.002.39.152.46.493.454.982-.018 1.965-.03 2.946.001.478.015.77-.05.678-.626-.056-.347.052-.482.421-.275.484.272.994.497 1.475.733.168-.096.095-.226.122-.328.043-.163-.106-.462.127-.47.337-.014.185.325.173.485-.032.445.198.481.552.477a156 156 0 0 1 3.576.003c.21.003.47-.116.63.152-.146.288-.41.176-.62.18-1.122.013-2.244.032-3.365.002-.527-.014-.876.051-.767.697.021.122.031.294-.23.316-.159-.23-.013-.53-.129-.817-.671.163-1.222.616-1.86.828a.37.37 0 0 1-.105-.404c.066-.503-.155-.634-.634-.619a49 49 0 0 1-2.875-.005c-.432-.012-.615.092-.611.576.02 2.899.012 5.797.007 8.695a.79.79 0 0 0 .31.715.69.69 0 0 1 .042 1.102.732.732 0 1 1-.967-1.095.75.75 0 0 0 .295-.718c-.002-2.898-.012-5.796.008-8.694.003-.462-.128-.587-.585-.584q-4.84.028-9.68 0c-.477-.003-.644.114-.64.62.022 2.897.013 5.796.007 8.694a.86.86 0 0 0 .337.776.66.66 0 0 1 .042 1.045.675.675 0 0 1-1.053.011.655.655 0 0 1 .03-1.046.84.84 0 0 0 .32-.778c-.005-2.898-.014-5.796.008-8.694.003-.475-.102-.635-.608-.63-2.922.027-5.845.034-8.766.004-.604-.006-.86.127-.764.76.03.205.137.51-.136.632-.28.125-.413-.172-.548-.332-.255-.303-.729-.468-.673-1.104l.993.913v-1.94c-.455.065-.577.577-1.038.737a2.16 2.16 0 0 1 1.118-1.37c.258-.188.28.168.295.371.073.995.073.997 1.054.997 2.83.002 5.658-.008 8.487.011.446.003.605-.1.587-.572-.038-.98-.048-1.964.002-2.943.03-.572-.114-.83-.712-.719a1.3 1.3 0 0 1-.31-.023c.14-.706.642-1.241.823-1.907l-.15-.061c-.21-.09-.622.156-.62-.214 0-.295.384-.15.587-.143.337.01.375-.15.372-.424a156 156 0 0 1 .003-3.506c.004-.334-.101-.446-.439-.439-.911.02-1.824.027-2.734-.004-.311-.01-.449.207-.664.325a.473.473 0 0 1-.626-.135.5.5 0 0 1-.04-.649c.146-.22.44-.36.598-.207.602.58 1.324.322 1.992.341.618.019 1.448.285 1.8-.121.307-.352.103-1.158.104-1.763.006-2.665 0-5.33.005-7.994a.9.9 0 0 0-.334-.843.65.65 0 0 1-.194-.815c.107-.162.249-.3.415-.403a.66.66 0 0 1 .778.157.647.647 0 0 1 .031 1.041 1.03 1.03 0 0 0-.37.972c.003 3.038.01 6.077-.009 9.115-.003.498.103.686.653.681q4.839-.04 9.678-.002c.474.004.576-.146.574-.59-.018-3.084-.028-6.17.005-9.254.007-.642-.486-.851-.78-1.242-.095-.127-.39-.236-.15-.436.171-.146.266.103.384.192a.9.9 0 0 1 .199.198c.33.476.656.51.998.01q.101-.146.247-.246c.112-.08.198-.338.38-.126.17.195-.07.308-.17.376a2.15 2.15 0 0 0-.811 2.08c.035 2.78.028 5.562 0 8.343-.005.557.158.738.71.695.605-.047 1.216.005 1.823-.017.364-.013.895.224.868-.516-.007-.207.252-.157.406-.158q1.893-.005 3.787 0c.15.002.41-.062.408.147-.008.71.492.525.875.53.773.01 1.547.003 2.377.003m-21.346 7.013q-.213.028-.428.019c-.556-.093-.714.135-.69.683.044 1.003.024 2.009.007 3.013-.006.36.048.54.483.538q4.978-.027 9.956-.001c.386.001.46-.135.458-.486q-.016-4.975.002-9.952c.002-.394-.105-.516-.508-.514q-4.943.022-9.886 0c-.416-.002-.511.154-.506.532a94 94 0 0 1 0 3.364c-.008.378.124.488.483.474.17-.006.508-.147.494.175-.013.283-.34.131-.528.175-.066.015-.13.035-.271.072zm15.81-6.372c.513 0 1.029-.024 1.54.008.409.026.446-.174.446-.502 0-.332-.048-.516-.452-.506a63 63 0 0 1-3.084 0c-.408-.01-.444.187-.45.512-.006.341.063.519.457.496.512-.03 1.028-.008 1.542-.008M22.91 34.572a.407.407 0 0 0 .396-.378.35.35 0 0 0-.345-.421.37.37 0 0 0-.453.385c-.004.233.157.367.402.414m-10.81-.329a.37.37 0 0 0-.244-.382.4.4 0 0 0-.16-.022.36.36 0 0 0-.369.247.4.4 0 0 0-.014.157.393.393 0 0 0 .787 0M12.1.8c-.012-.276-.146-.408-.392-.415a.387.387 0 0 0-.273.65A.386.386 0 0 0 12.1.8" fill="#fff"/><path d="M64.006 28.317c0-1.964.014-3.927-.01-5.89-.005-.506.13-.72.67-.696.84.037 1.684.028 2.525.003.465-.014.6.171.6.618a1865 1865 0 0 0 0 11.78c.002.47-.122.682-.63.663q-1.262-.047-2.524 0c-.5.017-.643-.183-.639-.659.019-1.94.008-3.88.008-5.82" fill="#189A3B"/><path d="M6.346 32.261c-.864 0-1.728-.029-2.59.011-.497.023-.633-.142-.625-.626.007-.399.308-1.006-.581-1.008-.306 0-.138-.52-.146-.797-.011-.39-.213-.93.564-.863.245.021.174-.283.176-.452.009-.723.004-1.446.004-2.17 0-.28-.051-.562.4-.554.355.006.603.038.536.479-.042.272.084.365.355.363q1.89-.017 3.78.002c.309.004.428-.106.39-.403-.056-.413.194-.43.512-.44.365-.01.42.17.416.473-.013.746-.01 1.492 0 2.239.003.183-.104.476.232.48.987.01.368.741.497 1.123.119.35.003.617-.485.582-.397-.03-.235.329-.242.52-.036 1.04-.028 1.041-1.094 1.041zm.042-1.707c.605 0 1.213-.033 1.816.009.599.041.486-.357.467-.683-.019-.32.207-.782-.46-.766a80 80 0 0 1-3.702 0c-.636-.013-.417.434-.413.72.004.283-.236.752.406.725.628-.026 1.257-.005 1.886-.005" fill="#fff"/><path d="M100.705 30.154c-1.19 0-2.379-.013-3.568.007-.446.007-.63-.143-.618-.603.024-.862.019-1.726.001-2.588-.008-.404.115-.598.553-.596q3.637.015 7.276.001c.411-.001.597.155.591.577a71 71 0 0 0 .002 2.658c.009.441-.198.555-.598.55-1.213-.015-2.426-.006-3.639-.006" fill="#189A3B"/><path d="M28.376 32.402c-.584 0-1.17-.031-1.751.01-.453.033-.553-.136-.536-.553.017-.405.233-1.005-.58-.905-.094-.617-.492-.757-1.055-.915-.231-.065-.107-.91-.05-1.39.04-.337.381-.15.586-.178.57-.079 1.106-.943 1.1-1.895-.002-.403.064-.561.525-.576.549-.018.715.168.63.673-.066.394.1.552.5.51q.387-.038.77 0c.643.062 1.15.03 1.005-.862-.07-.432.338-.301.551-.288.23.015.64-.195.638.276q.023.622.17 1.225c.057.294.72.945 1.017.925.39-.027.562.096.517.504a8 8 0 0 0-.006.77q.002.135-.01.268c-.662.016-.862.674-1.306.92-.321.179-.366.297-.37.575-.016.906-.02.906-.942.907zm.04-.699c.395 0 .79-.01 1.185.004.328.012.29-.202.3-.413.014-.239-.075-.33-.317-.326q-1.185.015-2.369 0c-.278-.004-.354.117-.355.376 0 .273.108.371.372.363.394-.011.79-.003 1.184-.004m-.77-3.04c0-.17.002-.287 0-.403-.003-.249.063-.503-.357-.51-.439-.008-.427.236-.419.532a7 7 0 0 1-.002.767c-.035.386.192.42.477.386.634-.078.119-.58.302-.772m2.275.017c0-.169.006-.285-.002-.401-.016-.233.097-.514-.338-.527-.468-.015-.386.278-.387.547-.002.279.01.558-.003.837-.012.257.12.301.34.304.732.01.222-.56.39-.76m-1.566-7.62c-1.027 0-2.055-.009-3.081.004-.313.005-.49-.062-.453-.42.024-.228.048-.455-.31-.494-.21-.022-.128-.266-.132-.415-.009-.56-.003-1.12-.003-1.68 0-.093-.028-.243.017-.271.764-.483.355-1.235.414-1.864.037-.397.148-.52.536-.506.7.026 1.406-.043 2.1.022.673.063.732-.273.634-.771-.047-.237-.268-.474.051-.677a.3.3 0 0 1 .387.012c.235.2.082.406.028.63-.162.688-.067.79.663.791.654.002 1.31.04 1.96-.011.552-.043.704.174.649.677q-.034.42-.003.84c.013.279-.117.62.341.712.212.043.121.274.125.422q.031.63-.004 1.26c-.025.335.23.82-.391.912-.026.003-.063.075-.058.11.132.993-.6.696-1.089.71-.792.024-1.587.007-2.38.006m-.104-1.015c.748 0 1.496-.015 2.244.006.361.01.505-.11.494-.478q-.03-.981 0-1.962c.013-.387-.168-.473-.51-.47-1.448.01-2.897.013-4.346-.002-.37-.004-.49.129-.478.49.021.654.026 1.31-.002 1.962-.016.39.147.47.495.46.7-.021 1.402-.006 2.103-.006M17.267 32.062c-.888 0-1.777-.004-2.665.001-.565.003-.964-.174-.97-.826-.001-.105.034-.23-.096-.299-.872-.461-1.13-.975-.825-1.768a5.6 5.6 0 0 0 .387-1.393c.073-.637.629-.982 1.396-1.002.365-.01.854.19.803-.52-.014-.2.24-.255.44-.234.219.023.39.187.348.367-.113.5.22.386.472.387 1.17.003 2.339-.003 3.507.003.944.006 1.386.384 1.475 1.308.064.363.18.715.345 1.044.231.578.127 1.453-.183 1.555-.697.228-.689.829-1.037 1.216-.178.198-.472.163-.732.162q-1.332-.003-2.665-.001m.058-.631c.841 0 1.683-.012 2.524.005.378.007.556-.104.541-.516-.025-.7-.021-1.402 0-2.103.01-.392-.135-.535-.53-.532q-2.559.021-5.118 0c-.376-.001-.566.114-.556.52q.025 1.051 0 2.103c-.01.4.16.534.545.527.865-.016 1.73-.005 2.594-.005m3.705-3.185c-.068-.808-.304-1.044-1.005-1.051q-1.816-.019-3.633.004c-.188.003-.526-.17-.538.221-.01.386.323.256.523.258q1.71.017 3.424.002a1.16 1.16 0 0 1 1.23.566m-7.492-.233a2.18 2.18 0 0 1 1.574-.33c.158-.002.343.03.373-.203a.233.233 0 0 0-.13-.282 1.5 1.5 0 0 0-1.817.815m-.897-20.618c0-.374.015-.748-.004-1.12-.022-.45.141-.72.618-.747.176-.01.45.028.35-.265-.184-.541.179-.442.467-.443.35-.002.922-.125 1.013.03.462.792 1.17.422 1.769.468.672.053 1.353.014 2.03.01.115 0 .325 0 .332-.034.184-.893.88-.345 1.326-.462.312-.083.614-.041.484.46-.078.297.22.22.376.234.41.04.556.269.552.659-.01.816-.013 1.633 0 2.45.01.483-.219.663-.682.662q-3.957-.011-7.913 0c-.496 0-.737-.205-.72-.712.013-.397.002-.794.002-1.19m4.646 1.558c1.192 0 2.385-.013 3.577.006.503.008.74-.185.73-.695-.013-.585-.006-1.169-.004-1.753.003-.433-.196-.635-.642-.634q-3.647.01-7.294.002c-.449-.001-.622.213-.608.652.02.56.028 1.123-.002 1.682-.03.547.193.757.736.747 1.169-.022 2.338-.007 3.507-.007m-9.959 1.995c-.19.401-.57.474-.877.658-.403.24-.912.313-1.092.875a.42.42 0 0 1-.656.157c-.99-.618-2.078-.173-3.115-.282-.369-.039-.233.313-.274.519-.066.322.134.942-.146.912-.386-.04-.154-.614-.171-.95-.036-.674-.013-1.352-.008-2.028 0-.127-.038-.311.18-.295.151.011.132.158.145.27.043.387-.18.9.114 1.133.355.282.901.123 1.355.087q.943-.04 1.876-.189c.944-.184 1.75-.666 2.669-.867m2.163 6.407-.358-.72c.665-.21.817.432 1.192.66a.2.2 0 0 1-.03.17c-.253.196-.338-.151-.527-.174-.118-.097-.217-.095-.287.055a1.04 1.04 0 0 0 .494.734c.102.074.169.168.053.283a.16.16 0 0 1-.126.052.16.16 0 0 1-.118-.065c-.245-.272-.77-.188-.84-.69-.037-.266.166-.14.257-.197.124.039.29.188.29-.108M.354 13.312v-2.27l.15-.006v2.273z" fill="#fff"/><path d="M9.491 17.352c0 .297-.165.148-.29.109zm-.009-.008c.07-.15.17-.153.288-.056z" fill="#333440"/><path d="M30.194 18.439a.466.466 0 0 1-.526.515.442.442 0 0 1-.488-.467.52.52 0 0 1 .125-.375.507.507 0 0 1 .889.327m-2.654-.033c-.016.412-.217.56-.543.546a.444.444 0 0 1-.472-.484.51.51 0 0 1 1.015-.062M17.206 30.883c-.653 0-1.306-.018-1.959.006-.429.015-.574-.163-.57-.577.019-1.798-.132-1.43 1.36-1.455 1.096-.018 2.192.013 3.287-.011.461-.01.613.159.603.61-.038 1.675.2 1.4-1.392 1.426-.443.007-.886 0-1.329 0m2.267-1.011c-.049-.297-.214-.523-.527-.526a.525.525 0 0 0-.024 1.05c.32.013.48-.219.551-.524m-3.844-.545c-.296.089-.502.252-.47.593a.48.48 0 0 0 .312.448q.091.035.19.03a.488.488 0 0 0 .506-.545c-.006-.344-.23-.478-.538-.526m1.698-20.858c-.91 0-1.822.012-2.733-.003-.732-.013-1.028-.32-1.038-1.021-.012-.73.31-1.102 1.038-1.108a314 314 0 0 1 5.466 0c.682.007 1.002.38 1.004 1.073.001.71-.296 1.041-1.004 1.055-.91.017-1.821.004-2.733.004m-1.704-1.09a.753.753 0 0 0-.834-.75.73.73 0 0 0-.743.776.744.744 0 0 0 .794.8.763.763 0 0 0 .783-.825m4.965.025a.8.8 0 0 0-.846-.78.75.75 0 0 0-.753.778.762.762 0 0 0 .8.805.8.8 0 0 0 .799-.803" fill="#fff"/></svg>