<svg width="106" height="69" viewBox="0 0 106 69" fill="none" xmlns="http://www.w3.org/2000/svg"><path d="m18.388 14.58-3.906 3.38q-.924-1.216-1.974-1.805-1.053-.586-2.473-.585-1.562 0-2.46.743-.9.745-.899 1.693 0 .655.38 1.162.38.508 1.159.81.78.301 2.887.71 3.221.631 4.803 1.409 1.585.779 2.448 2.175.864 1.4.864 3.156 0 2.03-1.064 3.675-1.064 1.647-3.313 2.651-2.25 1.005-5.585 1.004-3.315.001-5.501-.947-2.192-.949-3.752-2.57l3.857-3.495q1.35 1.488 2.603 2.119 1.255.633 2.863.633 1.893 0 2.863-.777.97-.778.97-1.837 0-.678-.366-1.205a2.5 2.5 0 0 0-1.005-.834q-.639-.306-2.058-.575c-2.4-.456-4.163-.924-5.29-1.413q-1.694-.733-2.649-2.119-.96-1.386-.959-3.28 0-3.043 2.448-5.107 2.45-2.063 6.85-2.062 3.006.001 5.347 1.061 1.66.74 2.912 2.23m24.717-.046-4.022 3.9q-1.228-1.216-2.389-1.737a6.1 6.1 0 0 0-2.532-.52c-1.799 0-3.31.63-4.532 1.882q-1.834 1.883-1.834 5.06.001 3.09 1.894 4.994 1.891 1.904 4.616 1.905 1.464 0 2.603-.562 1.137-.563 2.318-1.918l3.833 4.036q-3.196 3.223-8.825 3.223-5.465.001-8.898-3.236-3.43-3.235-3.432-8.488-.001-5.23 3.503-8.512 3.502-3.279 9.038-3.28 2.72.001 4.957.88 2.234.884 3.702 2.373m25.591 10.302H51.185q.426 2.729 2.153 4.16 1.728 1.433 4.353 1.433 1.656 0 3.028-.71 1.37-.707 2.792-2.38l4.188 3c-1.31 1.52-2.8 2.64-4.472 3.37q-2.508 1.095-5.986 1.095-5.586 0-8.863-3.394-3.277-3.393-3.277-8.421-.001-5.097 3.418-8.365 3.42-3.27 8.743-3.27 3.36 0 6.046 1.466 2.687 1.467 4.057 4.057c.913 1.727 1.374 3.87 1.374 6.426.003.332-.011.84-.043 1.533m-5.915-3.946c-.032-1.607-.566-2.899-1.599-3.866q-1.55-1.451-3.937-1.452-2.344.002-4.012 1.419c-1.114.944-1.785 2.246-2.024 3.9zM89.6 14.58l-3.903 3.38q-.924-1.216-1.975-1.805-1.048-.586-2.472-.585-1.562 0-2.46.743-.9.744-.899 1.69 0 .653.38 1.162.378.508 1.159.81c.52.204 1.482.438 2.887.71q3.222.63 4.802 1.408c1.054.519 1.873 1.245 2.449 2.176q.864 1.4.864 3.156 0 2.028-1.064 3.675t-3.313 2.65c-1.5.67-3.358 1.005-5.585 1.005q-3.315 0-5.501-.947-2.187-.95-3.752-2.57l3.857-3.495c.9.99 1.767 1.7 2.603 2.119q1.255.632 2.863.632 1.892 0 2.863-.776.97-.78.97-1.838-.001-.678-.366-1.205a2.5 2.5 0 0 0-1.005-.833q-.639-.305-2.058-.576-3.598-.677-5.287-1.409-1.694-.733-2.649-2.119-.959-1.386-.959-3.28-.001-3.043 2.449-5.107t6.85-2.062c2.002 0 3.787.355 5.346 1.061 1.1.492 2.07 1.238 2.906 2.23M97.518.916q1.513 0 2.568 1.014 1.053 1.015 1.053 2.437 0 1.441-1.064 2.446-1.066 1.005-2.554 1.004-1.515 0-2.568-1.004c-.702-.67-1.054-1.482-1.054-2.446q0-1.42 1.054-2.437Q96.001.916 97.518.916m2.908 11.048v22.208h-5.82V11.964z" fill="#CC2838"/><path d="M.4 46.256v-6.731h1.93v6.125c0 .954.12 1.633.355 2.049q.57 1.002 2.241 1 1.67 0 2.242-1 .353-.618.354-2.049v-6.125h1.933v6.73q.001 1.974-1.237 3.033-1.19 1.003-3.292 1.001-2.102-.001-3.277-1Q.4 48.228.4 46.255m11.018 3.786V39.525h2.719l3.046 8.234h.031l2.969-8.234h2.69v10.516h-1.84v-8.113H21l-3.06 8.113h-1.59l-3.06-8.113h-.031v8.113zm12.877-3.504h1.932q0 1.15.819 1.737.727.517 1.977.516 1.19 0 1.81-.502.526-.428.526-1.091 0-.975-.913-1.296-.125-.043-3.292-.87-2.44-.635-2.441-2.664-.001-1.485 1.268-2.343 1.129-.751 2.768-.75 1.808 0 2.983.853 1.252.929 1.25 2.504H31.05q-.12-1.855-2.382-1.854-.804 0-1.345.281-.68.368-.681 1.091.001 1.016 1.313 1.349 1.313.33 3.183.817 1.033.294 1.623 1.09.527.724.527 1.59.002 1.652-1.377 2.534-1.191.767-3.014.767-2.009 0-3.232-.897c-.889-.663-1.349-1.617-1.37-2.862m9.781 0h1.932q0 1.15.819 1.737.728.517 1.977.516 1.19 0 1.81-.502.526-.428.527-1.091-.001-.975-.914-1.296-.125-.043-3.291-.87-2.441-.635-2.442-2.664 0-1.485 1.268-2.343 1.129-.751 2.769-.75 1.807 0 2.982.853 1.252.929 1.25 2.504h-1.932q-.12-1.855-2.381-1.854-.805 0-1.346.281-.68.368-.681 1.091 0 1.016 1.314 1.349 1.311.33 3.182.817 1.033.294 1.623 1.09.527.724.527 1.59.001 1.652-1.377 2.534-1.191.767-3.014.767-2.008 0-3.232-.897c-.889-.663-1.349-1.617-1.37-2.862M78.46 63.485c-.89.736-2.01 1.14-3.092 1.546a416 416 0 0 1-7.265 2.614c-.773.294-1.661.59-2.434.258-.773-.295-1.16-1.105-1.507-1.841-.541-1.215-1.044-2.393-1.585-3.608-.27-.59-.502-1.178-.502-1.767.039-1.4 1.43-1.73 2.55-2.136 1.507-.589 3.014-1.141 4.483-1.73.85-.332 1.7-.626 2.55-.958 1.082-.405 2.126-.81 3.285-.846 2.086-.11 4.134 1.178 4.907 3.019.773 1.874.193 4.16-1.39 5.449" fill="#fff"/><path d="M66.425 68.083c-.264 0-.524-.044-.773-.15-.79-.302-1.18-1.129-1.525-1.859-.27-.605-.534-1.211-.79-1.8-.257-.59-.524-1.202-.794-1.81-.302-.66-.506-1.216-.506-1.782.035-1.285 1.205-1.69 2.238-2.048q.168-.06.337-.117c.629-.244 1.268-.489 1.886-.723.858-.325 1.743-.663 2.596-1.004.425-.167.861-.325 1.28-.479.417-.154.85-.311 1.27-.478l.113-.04c1.061-.399 2.059-.774 3.186-.807 2.08-.114 4.156 1.168 4.943 3.039.776 1.888.186 4.194-1.402 5.486-.864.716-1.946 1.12-2.993 1.512l-.109.04a408 408 0 0 1-7.264 2.615c-.559.207-1.135.405-1.693.405m8.768-13.044q-.123.001-.246.007c-1.114.037-2.111.408-3.162.803l-.112.04c-.425.164-.857.325-1.272.48-.418.153-.85.314-1.275.478-.854.341-1.742.68-2.596 1.007-.618.235-1.258.479-1.886.723l-.338.12c-1.06.369-2.156.747-2.192 1.989 0 .552.2 1.101.5 1.754.27.609.537 1.221.793 1.81.257.586.52 1.192.79 1.798.338.716.724 1.533 1.49 1.824.752.321 1.602.05 2.41-.258 2.122-.74 4.433-1.57 7.264-2.614l.11-.04c1.039-.388 2.117-.793 2.971-1.5 1.567-1.275 2.146-3.55 1.38-5.412-.748-1.774-2.666-3.009-4.63-3.009" fill="#fff"/><path d="m79.057 58.431-.295-.609c1.91-.84 4.078-1.79 5.508-3.417 1.275-1.453 1.942-3.89.67-5.553-1.095-1.432-3.15-1.754-4.703-1.573-1.493.17-2.933.74-4.328 1.292q-.442.177-.885.345a42.8 42.8 0 0 1-13.858 2.808c-1.504.053-3.095.027-4.577-.506-1.648-.595-2.884-1.82-3.222-3.196-.46-1.861.7-3.715 2.048-4.73 1.48-1.11 3.341-1.596 4.97-1.964 15.103-3.414 31.314-1.326 45.615.519l-.095.662c-14.244-1.837-30.386-3.916-45.357-.532-1.557.352-3.33.814-4.697 1.841-1.177.884-2.189 2.477-1.799 4.05.288 1.161 1.356 2.206 2.79 2.721 1.366.492 2.873.512 4.303.462a42.2 42.2 0 0 0 14.5-3.106c1.441-.569 2.927-1.158 4.515-1.339 1.75-.2 4.078.177 5.353 1.844 1.497 1.955.78 4.69-.702 6.377-1.532 1.75-3.773 2.734-5.754 3.604" fill="#fff"/></svg>