<svg
    width="223.25006mm"
    height="262.69467mm"
    viewBox="0 0 223.25006 262.69467"
    version="1.1"
    id="svg5"
    xml:space="preserve"
    xmlns:inkscape="http://www.inkscape.org/namespaces/inkscape"
    xmlns:sodipodi="http://sodipodi.sourceforge.net/DTD/sodipodi-0.dtd"
    xmlns="http://www.w3.org/2000/svg"
    xmlns:svg="http://www.w3.org/2000/svg"><sodipodi:namedview
     id="namedview7"
     pagecolor="#ffffff"
     bordercolor="#999999"
     borderopacity="1"
     inkscape:showpageshadow="0"
     inkscape:pageopacity="0"
     inkscape:pagecheckerboard="0"
     inkscape:deskcolor="#d1d1d1"
     inkscape:document-units="mm"
     showgrid="false" /><defs
     id="defs2" /><g
     inkscape:label="Layer 1"
     inkscape:groupmode="layer"
     id="layer1"
     transform="translate(-785.3243,-150.86251)"><g
       id="g1870"
       transform="translate(162.97246,86.834746)"
       inkscape:export-filename="g1870.png"
       inkscape:export-xdpi="96"
       inkscape:export-ydpi="96"><g
         id="g179"
         transform="translate(384.80727,88.13252)"><path
           style="fill:#f5f6f1;stroke-width:0.264583"
           d="m 405.48911,238.22553 c 3.81697,-0.80853 6.83379,-2.61468 12.51346,-7.49172 4.05262,-3.47991 11.99782,-9.68078 16.20142,-12.64447 1.23693,-0.87208 5.88037,-3.95258 10.31875,-6.84557 8.98447,-5.85617 11.34236,-7.56873 13.53852,-9.83317 2.25812,-2.32833 2.73336,-3.42527 2.73336,-6.30912 0,-2.03997 -0.10117,-2.58981 -0.7059,-3.83646 -0.80638,-1.66234 -3.33422,-4.33995 -7.24167,-7.67072 -4.03959,-3.44341 -7.11695,-6.60463 -7.86091,-8.07512 -0.94529,-1.86842 -1.66558,-4.34893 -2.56062,-8.8181 -0.42723,-2.13332 -0.95875,-4.38609 -1.18115,-5.00615 -1.2462,-3.47442 -4.63274,-6.11813 -8.71614,-6.80425 -0.76137,-0.12793 -0.97588,-0.27056 -0.86021,-0.57197 0.36726,-0.95706 1.20295,-4.65889 1.57451,-6.97452 1.17772,-7.33985 0.58742,-14.88308 -1.73921,-22.225 -10.50702,-28.963721 -28.10003,-45.969876 -32.91369,-71.753671 -0.82248,-4.47662 -1.14984,-5.47503 -2.38828,-7.283992 -1.34005,-1.957377 -4.15821,-3.649815 -7.03583,-4.22534 -0.62522,-0.125044 -0.74342,-0.289525 -0.79483,-1.106003 -0.0332,-0.527513 -0.063,-7.209895 -0.0661,-14.849739 -0.005,-12.09722 -0.0667,-14.249304 -0.47773,-16.6687492 -1.8293,-10.767333 -4.95034,-17.525207 -10.7754,-23.3315478 -6.5613,-6.540208 -15.28531,-10.008378 -25.16679,-10.004888 -5.72364,0.002 -10.61651,1.17934 -16.0425,3.86011 -8.96832,4.430899 -15.0641,11.2051658 -18.3102,20.34820082 -2.65658,7.48258098 -3.11622,16.18897518 -2.09215,39.62915818 0.1954,4.472458 0.22577,7.437704 0.0776,7.574025 -0.13395,0.12322 -1.01745,0.47992 -1.96334,0.792671 -3.98126,1.316376 -6.88105,4.776824 -7.83817,9.353644 -0.2205,1.05444 -0.49766,3.7031 -0.6159,5.88592 -0.22891,4.22565 -0.69972,6.15697 -1.96822,8.0738 -0.85995,1.29947 -2.39254,4.38983 -2.79989,5.64578 -0.51576,1.59019 -0.39538,4.24583 0.27354,6.03451 l 0.58432,1.56244 -1.40047,2.30631 c -1.53851,2.53365 -3.92202,6.28697 -7.34533,11.56674 -1.22659,1.891771 -3.00143,4.630211 -3.94408,6.085411 -0.94265,1.45521 -2.25502,3.47927 -2.91639,4.49792 -3.7516,5.7783 -8.87718,15.63843 -10.52166,20.24062 -1.13554,3.17791 -2.4494,8.63843 -2.79319,11.60882 -0.18081,1.5622 -0.26575,4.46975 -0.19711,6.74687 l 0.12062,4.0016 -1.64139,1.75387 c -0.90277,0.96463 -2.26887,2.86963 -3.03578,4.23333 -3.62886,6.45277 -5.16601,7.65279 -11.64007,9.08719 -9.88402,2.1899 -11.99882,3.18714 -14.27238,6.73019 -1.77146,2.76057 -2.19267,6.5252 -1.50136,13.41873 0.53026,5.28763 0.5473,10.02968 0.0452,12.57685 -0.21049,1.06783 -0.8784,3.48932 -1.48423,5.38109 -0.92558,2.89019 -1.10393,3.80075 -1.1166,5.70074 -0.0128,1.91337 0.0945,2.50059 0.69766,3.81797 1.23102,2.6889 2.27615,3.70665 5.28845,5.14992 2.74507,1.31523 6.59472,2.6485 9.68581,3.35455 0.95227,0.21751 2.98156,0.69738 4.50953,1.06637 1.52797,0.36899 6.58813,1.47943 11.24479,2.46764 8.72576,1.85174 10.96014,2.5334 20.35068,6.20856 8.94348,3.50019 17.28764,4.7163 22.80023,3.32299 3.7696,-0.95277 5.69939,-2.11077 9.00415,-5.40309 3.21661,-3.2045 5.05752,-5.9425 5.8652,-8.72335 0.54692,-1.88308 0.68194,-1.95609 5.34745,-2.89189 8.63219,-1.73141 18.69867,-1.84023 28.31041,-0.30603 7.63823,1.21919 12.24327,2.54541 17.06562,4.91477 1.52409,0.74883 1.6068,0.84174 2.07047,2.32591 1.41272,4.52193 3.58094,7.125 8.0269,9.63672 2.23258,1.26128 4.85297,2.27864 6.94053,2.69464 2.42938,0.48411 8.44633,0.48302 10.73576,-0.002 z"
           id="path185"
           sodipodi:nodetypes="ssssssssssssssccssssssssssssssssscssssssscsssssssssssssssssssssssss" /></g><g
         id="g1853"
         transform="translate(122.35797,-22.691837)"><path
           style="fill:#f1a40b;stroke-width:0.264583"
           d="m 151.25582,280.97071 c -5.8771,-1.09415 -11.04875,-4.49507 -12.83878,-8.44289 -1.14931,-2.53475 -1.5763,-4.4065 -1.75676,-7.70101 -0.20496,-3.74159 0.094,-5.89335 2.03128,-14.62035 0.86386,-3.89151 1.69269,-7.90891 1.84184,-8.92756 0.14914,-1.01865 0.39086,-6.49552 0.53714,-12.17083 0.50862,-19.73342 0.91064,-22.7419 3.34803,-25.05524 0.8226,-0.78073 2.571,-1.61241 2.8349,-1.34851 0.0912,0.0913 0.1666,0.94973 0.16746,1.90774 0.002,2.28843 0.62209,6.3058 1.33056,8.62101 1.16877,3.81937 3.36998,6.69389 6.02547,7.86854 4.56179,2.0179 12.32109,-0.57784 18.38186,-6.14934 2.77273,-2.54889 5.65376,-6.64437 7.07877,-10.06268 0.33156,-0.79536 0.78539,-1.59493 1.0085,-1.77683 0.55022,-0.44859 4.20782,-0.41954 6.42804,0.0511 2.28891,0.48514 3.60315,1.17595 4.83841,2.54323 1.38654,1.53474 1.91916,2.88038 2.65369,6.70446 1.19961,6.2454 2.25152,9.10759 4.40739,11.9923 0.5677,0.75963 3.08485,3.21317 5.59365,5.45229 7.63429,6.81365 8.54895,8.03475 8.3507,11.14832 -0.19328,3.03538 -1.79045,4.55547 -11.72673,11.1608 -3.05594,2.0315 -6.21109,4.1017 -7.01146,4.60046 -5.68186,3.54073 -16.22635,11.49716 -23.25675,17.54856 -4.99483,4.29927 -7.63659,5.80987 -11.66825,6.67207 -2.11629,0.45258 -6.12326,0.44531 -8.59896,-0.0156 z M 58.916243,278.9542 c -1.309687,-0.12816 -3.631406,-0.5446 -5.159375,-0.92543 -3.06511,-0.76394 -4.197358,-1.15918 -15.07097,-5.26093 -4.067321,-1.53427 -7.274386,-2.37287 -15.716173,-4.10954 -15.6303213,-3.21551 -23.1411373,-5.54526 -25.5081542,-7.91228 -2.2913684,-2.29137 -2.5020439,-4.80284 -0.8558697,-10.20287 0.5920761,-1.94222 1.2512709,-4.44474 1.4648772,-5.56116 0.4985682,-2.60578 0.4977577,-8.53837 -0.00191,-13.93942 -0.6920695,-7.48087 0.1467483,-10.65372 3.4101513,-12.899 1.5583323,-1.07216 4.2014324,-1.91477 9.4673094,-3.01813 7.834358,-1.64153 9.888797,-3.19224 14.354363,-10.83483 2.591596,-4.43539 4.900636,-6.04533 8.744913,-6.09725 1.550429,-0.0209 2.132189,0.10751 3.571875,0.78869 2.571591,1.21673 4.664738,3.52501 9.298336,10.25399 5.236612,7.60469 7.553171,10.93312 10.424012,14.97724 3.164861,4.45829 5.072131,7.22203 7.487258,10.84944 3.922736,5.89178 5.022789,7.35413 9.054817,12.03701 4.078104,4.7364 5.462013,7.12112 6.232977,10.74051 0.54706,2.56826 0.370149,6.65221 -0.380053,8.77345 -1.4347,4.05672 -5.904764,8.97549 -9.970473,10.97132 -2.604294,1.27843 -6.609498,1.78395 -10.847917,1.36919 z m 61.251527,-52.09418 c -0.41721,-0.77956 -0.31184,-3.15492 0.2641,-5.95404 0.29104,-1.41448 0.52916,-3.01358 0.52916,-3.55355 0,-0.94861 0.0313,-0.98122 0.92604,-0.96604 0.50933,0.009 0.92605,0.11064 0.92605,0.22666 0,0.11602 -0.29766,1.94036 -0.66146,4.05409 -0.3638,2.11373 -0.66146,4.46536 -0.66146,5.22584 0,1.19259 -0.0727,1.38816 -0.52868,1.42251 -0.29077,0.0219 -0.64796,-0.18306 -0.79375,-0.45547 z m -7.62715,-0.34206 c -0.74414,-0.89663 -1.10015,-6.05339 -0.66694,-9.66055 l 0.16847,-1.40274 0.91058,0.0798 0.91058,0.0798 -0.0333,5.2769 c -0.0313,4.96273 -0.16712,5.96789 -0.80652,5.96789 -0.10988,0 -0.32719,-0.15352 -0.48291,-0.34115 z m 3.02235,-0.57591 c -0.0901,-0.35885 0.0734,-2.23409 0.36323,-4.16718 0.28984,-1.9331 0.55898,-3.99097 0.5981,-4.57305 0.062,-0.92299 0.15973,-1.06862 0.76413,-1.13872 0.84565,-0.0981 1.01798,0.38632 1.02316,2.87606 0.007,3.34798 -1.17653,7.65537 -2.10338,7.65537 -0.29115,0 -0.54621,-0.25793 -0.64524,-0.65248 z m -9.14254,-0.25973 c -0.25062,-0.30198 -0.14037,-1.43586 0.52094,-5.35782 0.46136,-2.73612 0.93831,-5.07916 1.05988,-5.20675 0.3613,-0.37919 1.50849,0.0519 1.65784,0.62303 0.0761,0.29102 -0.0761,1.51271 -0.33819,2.71487 -0.26211,1.20216 -0.61761,3.13825 -0.79,4.30242 -0.43002,2.90401 -1.21946,3.99785 -2.11047,2.92425 z m 18.00108,-2.41713 c 0.0127,-0.30823 0.0754,-0.37092 0.15985,-0.15986 0.0764,0.191 0.067,0.4192 -0.0209,0.50712 -0.0879,0.0879 -0.15045,-0.0684 -0.13896,-0.34726 z m 9.65341,-1.62019 c -0.14359,-0.37708 -0.1132,-0.40747 0.14811,-0.14811 0.18082,0.17947 0.26212,0.39297 0.18065,0.47443 -0.0815,0.0815 -0.2294,-0.0654 -0.32876,-0.32632 z m -31.83258,-3.64943 c 0.003,-0.58209 0.0571,-0.78906 0.12041,-0.45994 0.0633,0.32912 0.0609,0.80537 -0.005,1.05833 -0.0662,0.25297 -0.118,-0.0163 -0.11507,-0.59839 z m 8.30426,0 c 0.0838,-0.21828 0.19909,-0.39688 0.25628,-0.39688 0.0572,0 0.10399,0.1786 0.10399,0.39688 0,0.21828 -0.11533,0.39687 -0.25628,0.39687 -0.14096,0 -0.18775,-0.17859 -0.10399,-0.39687 z m 18.51691,-0.80398 c -0.25532,-0.66535 -0.18,-0.83702 0.1319,-0.30066 0.15444,0.26558 0.22506,0.5386 0.15694,0.60673 -0.0681,0.0681 -0.1981,-0.0696 -0.28884,-0.30607 z m 9.38091,-18.26807 c 0.0127,-0.30823 0.0754,-0.37092 0.15985,-0.15985 0.0764,0.19099 0.067,0.4192 -0.0209,0.50712 -0.0879,0.0879 -0.15046,-0.0684 -0.13897,-0.34727 z m -18.01255,-7.96535 c -6.18648,-0.46628 -14.40507,-1.68114 -19.97604,-2.95282 l -2.116671,-0.48317 0.06582,-1.05575 c 0.139732,-2.24129 3.716711,-20.52583 4.153801,-21.23304 0.0707,-0.11438 2.42441,0.18559 5.23049,0.6666 8.73533,1.49737 23.56143,2.64575 29.50978,2.28574 1.20055,-0.0727 2.18282,-0.0554 2.18282,0.0384 0,0.0938 -0.29647,2.57961 -0.65882,5.5241 -0.56829,4.61793 -1.72243,16.04383 -1.72243,17.05183 0,0.27068 -1.58386,0.33087 -7.73907,0.2941 -4.25648,-0.0254 -8.27484,-0.0866 -8.92968,-0.13596 z m -24.738545,-8.08533 c -0.582083,-0.14473 -1.692851,-0.43341 -2.468372,-0.64151 l -1.410041,-0.37837 0.186669,-1.11098 c 0.21155,-1.25906 3.241461,-12.90754 4.24621,-16.32454 0.882862,-3.00247 1.172957,-3.7049 1.528154,-3.70026 0.420325,0.005 3.290955,0.91585 3.478125,1.10303 0.0851,0.0851 -0.0773,1.09123 -0.36094,2.23586 -0.2836,1.14464 -1.271925,5.92058 -2.196265,10.6132 -0.924343,4.69262 -1.740154,8.51734 -1.812915,8.49938 -0.07276,-0.018 -0.608541,-0.15108 -1.190625,-0.29581 z m 2.116667,-31.95717 c -6.578203,-0.6553 -12.966665,-2.23376 -18.360048,-4.53638 l -1.162135,-0.49615 0.141375,-2.70525 c 0.203777,-3.89935 1.054108,-6.32065 3.732609,-10.62852 0.654881,-1.05326 0.745797,-1.43622 0.679916,-2.86398 -0.140129,-3.0368 0.02141,-5.86535 0.449215,-7.86586 0.490847,-2.2953 1.626602,-4.94271 2.422697,-5.64724 0.537321,-0.47551 0.610327,-0.47066 2.884238,0.19188 3.595037,1.04748 6.703491,1.48661 10.523082,1.48661 6.062379,0 13.072329,-1.57831 19.238829,-4.33167 l 1.49977,-0.66965 0.69911,0.91657 c 1.93735,2.54 3.29802,7.42281 3.50437,12.57553 0.11846,2.95826 0.24328,3.78729 0.70382,4.67471 0.3079,0.5933 1.05141,2.0112 1.65223,3.15089 1.57373,2.98515 2.70583,6.7196 2.79949,9.23466 l 0.0769,2.06361 -2.11667,0.88243 c -8.01048,3.33954 -21.16321,5.38523 -29.368748,4.56781 z m 0.08268,-34.83313 c 0.190995,-0.0764 0.419201,-0.067 0.507119,0.0209 0.08792,0.0879 -0.06835,0.15045 -0.347265,0.13896 -0.308227,-0.0127 -0.37092,-0.0754 -0.159854,-0.15985 z m -4.86423,-4.45854 c -2.092288,-0.45949 -4.259731,-1.43041 -6.144347,-2.75239 -1.899028,-1.33209 -7.004957,-6.81255 -8.108825,-8.70362 -0.287854,-0.493134 1.108974,0.25072 3.518389,1.87365 2.623756,1.7673 4.296336,2.46717 7.41494,3.1027 4.678423,0.9534 8.723468,0.64096 13.873521,-1.0716 4.45373,-1.481 8.20594,-3.62122 14.76875,-8.423892 1.11103,-0.813051 2.39642,-1.684237 2.85643,-1.935969 0.72291,-0.395597 0.7974,-0.530532 0.54906,-0.994572 -0.40677,-0.760052 -1.35081,-0.462259 -3.3237,1.048449 -2.33866,1.790787 -7.65941,5.111326 -10.34965,6.458944 -6.6943,3.35336 -13.773995,4.44896 -18.986996,2.93829 -2.557335,-0.74108 -4.732398,-1.76239 -7.293313,-3.424594 -2.542905,-1.650516 -3.434808,-2.141503 -4.838557,-2.663613 -1.499246,-0.557628 -2.569776,-1.717109 -2.569776,-2.783292 0,-0.419939 0.254259,-1.452602 0.565017,-2.294806 1.342319,-3.637864 10.15025,-10.350695 16.465915,-12.549245 1.806585,-0.628893 2.579195,-0.749479 4.821015,-0.752451 3.425973,-0.0046 5.485475,0.521629 11.410965,2.915327 2.53539,1.024216 6.41089,2.4637 8.61222,3.198858 2.20133,0.735158 4.78938,1.732957 5.75121,2.217327 2.05444,1.0346 3.60016,2.622629 3.85024,3.955616 0.25718,1.370917 -0.0809,3.54834 -0.78786,5.074245 -0.55284,1.193252 -0.88639,1.494446 -3.29225,2.972903 -1.4724,0.90482 -3.83903,2.557995 -5.25918,3.673735 -5.56959,4.37573 -6.97814,5.33376 -10.14571,6.90063 -1.80636,0.89354 -4.0582,1.80301 -5.00408,2.02106 -2.083996,0.48039 -6.162014,0.47957 -8.353428,-0.002 z M 91.95358,82.285845 c 0.680281,-0.422299 0.716616,-0.512209 0.353677,-0.875149 -0.58193,-0.58193 -2.138844,-0.231608 -2.820175,0.634564 -0.612379,0.778512 -0.688253,1.420817 -0.222819,1.886251 0.247359,0.247359 0.496631,0.152347 1.124479,-0.428601 0.443666,-0.410525 1.147844,-0.958204 1.564838,-1.217065 z m 10.43251,0.8958 c 0.15342,-1.315175 -1.98313,-2.450872 -3.767984,-2.002901 -1.015566,0.254891 -0.814662,0.911161 0.448657,1.465582 0.618463,0.271421 1.362607,0.682715 1.653647,0.913993 0.77142,0.61301 1.57133,0.432123 1.66568,-0.376674 z"
           id="path183"
           transform="translate(507.16524,65.440679)" /><path
           style="fill:#37393a;stroke-width:0.264583"
           d="m 150.03747,283.61115 c -2.08756,-0.416 -4.70795,-1.43336 -6.94053,-2.69464 -4.44596,-2.51172 -6.61418,-5.11479 -8.0269,-9.63672 -0.46367,-1.48417 -0.54638,-1.57708 -2.07047,-2.32591 -4.82235,-2.36936 -9.42739,-3.69558 -17.06562,-4.91477 -9.61174,-1.5342 -19.678229,-1.42538 -28.310416,0.30603 -4.665517,0.9358 -4.800534,1.00881 -5.347457,2.89189 -0.807677,2.78085 -2.648587,5.51885 -5.865193,8.72335 -3.304767,3.29232 -5.234551,4.45032 -9.004151,5.40309 -5.512591,1.39331 -13.856753,0.1772 -22.80023,-3.32299 -9.390536,-3.67516 -11.624919,-4.35682 -20.350676,-6.20856 -4.656666,-0.98821 -9.716822,-2.09865 -11.244791,-2.46764 -1.527969,-0.36899 -3.5572588,-0.84886 -4.5095334,-1.06637 -3.0910907,-0.70605 -6.9407429,-2.03932 -9.6858084,-3.35455 -3.0123042,-1.44327 -4.0574268,-2.46102 -5.2884479,-5.14992 -0.6031147,-1.31738 -0.7104189,-1.9046 -0.6976625,-3.81797 0.012668,-1.89999 0.1910177,-2.81055 1.1165966,-5.70074 0.6058371,-1.89177 1.2737407,-4.31326 1.4842305,-5.38109 0.5020987,-2.54717 0.4850548,-7.28922 -0.045203,-12.57685 -0.6913025,-6.89353 -0.2700959,-10.65816 1.5013588,-13.41873 2.27356634,-3.54305 4.3883658,-4.54029 14.2723863,-6.73019 6.474057,-1.4344 8.011207,-2.63442 11.640065,-9.08719 0.766911,-1.3637 2.133013,-3.2687 3.035779,-4.23333 l 1.641393,-1.75387 -0.120623,-4.0016 c -0.06864,-2.27712 0.0163,-5.18467 0.197114,-6.74687 0.343794,-2.97039 1.657646,-8.43091 2.79319,-11.60882 1.644478,-4.60219 6.770055,-14.46232 10.521662,-20.24062 0.661363,-1.01865 1.973738,-3.04271 2.916391,-4.49792 0.942649,-1.4552 2.717882,-4.19364 3.944958,-6.08541 3.581112,-5.52097 4.154792,-6.4224 6.473727,-10.17232 1.210051,-1.95676 2.200092,-3.6978 2.200092,-3.86897 0,-0.17118 -0.249483,-0.87523 -0.554407,-1.56457 -0.456409,-1.03178 -0.538023,-1.65741 -0.461722,-3.53936 0.101462,-2.50254 0.702815,-4.10632 2.921672,-7.79196 1.409057,-2.34053 2.061025,-4.72797 2.071378,-7.58522 0.01759,-4.85598 0.964702,-8.98244 2.613969,-11.388783 1.396315,-2.037281 3.700087,-3.824718 5.823096,-4.517995 0.957672,-0.312733 1.850818,-0.669417 1.984771,-0.792637 0.148199,-0.136321 0.117833,-3.101567 -0.07756,-7.574025 -1.024072,-23.440183 -0.564433,-32.146577 2.092148,-39.629158 3.246101,-9.143035 9.341881,-15.917302 18.310195,-20.348201 5.42599,-2.680773 10.318869,-3.858084 16.042509,-3.860108 9.88148,-0.0035 18.60549,3.464678 25.16679,10.004886 5.82506,5.806341 8.9461,12.564215 10.7754,23.331548 0.41104,2.419445 0.47272,4.571529 0.47773,16.668749 0.003,7.639844 0.0329,14.317588 0.0661,14.839433 0.0588,0.923158 0.10397,0.960925 1.67223,1.396942 3.51293,0.97668 5.71953,2.671948 6.99944,5.37745 0.41055,0.867825 1.01003,3.124152 1.48062,5.572738 1.20724,6.281521 1.73898,7.438211 5.19954,11.310311 3.38348,3.78585 4.58854,8.91199 2.97819,12.66878 l -0.54648,1.27489 2.82505,4.40525 c 14.40632,22.46454 18.88529,30.89052 22.52404,42.37295 2.32663,7.34192 2.91693,14.88515 1.73921,22.225 -0.37156,2.31563 -1.20725,6.01746 -1.57451,6.97452 -0.11567,0.30141 0.0988,0.44404 0.86021,0.57197 4.0834,0.68612 7.46994,3.32983 8.71614,6.80425 0.2224,0.62006 0.75392,2.87283 1.18115,5.00615 0.89504,4.46917 1.61533,6.94968 2.56062,8.8181 0.74396,1.47049 3.82132,4.63171 7.86091,8.07512 3.90745,3.33077 6.43529,6.00838 7.24167,7.67072 0.60473,1.24665 0.7059,1.79649 0.7059,3.83646 0,2.88385 -0.47524,3.98079 -2.73336,6.30912 -2.19616,2.26444 -4.55405,3.977 -13.53852,9.83317 -4.43838,2.89299 -9.08182,5.97349 -10.31875,6.84557 -4.2036,2.96369 -12.1488,9.16456 -16.20142,12.64447 -5.67967,4.87704 -8.69649,6.68319 -12.51346,7.49172 -2.28943,0.48497 -8.30638,0.48606 -10.73576,0.002 z m 9.81731,-2.62485 c 4.03166,-0.8622 6.67342,-2.3728 11.66825,-6.67207 7.0304,-6.0514 17.57489,-14.00783 23.25675,-17.54856 3.4214,-2.13209 12.73219,-8.42073 14.62224,-9.87607 1.12999,-0.87009 2.4949,-2.18188 3.03312,-2.91509 0.8266,-1.12605 0.99478,-1.58736 1.08283,-2.9701 0.19825,-3.11357 -0.71641,-4.33467 -8.3507,-11.14832 -2.5088,-2.23912 -5.02595,-4.69266 -5.59365,-5.45229 -2.15587,-2.88471 -3.20778,-5.7469 -4.40739,-11.9923 -0.73453,-3.82408 -1.26715,-5.16972 -2.65369,-6.70446 -1.23526,-1.36728 -2.5495,-2.05809 -4.83841,-2.54323 -2.22022,-0.47059 -5.87782,-0.49964 -6.42804,-0.0511 -0.22311,0.1819 -0.67694,0.98147 -1.0085,1.77683 -1.42501,3.41831 -4.30604,7.51379 -7.07877,10.06268 -6.06077,5.5715 -13.82007,8.16724 -18.38186,6.14934 -2.65549,-1.17465 -4.8567,-4.04917 -6.02547,-7.86854 -0.70847,-2.31521 -1.32852,-6.33258 -1.33056,-8.62101 -8e-4,-0.95801 -0.0762,-1.81649 -0.16746,-1.90774 -0.2639,-0.2639 -2.0123,0.56778 -2.8349,1.34851 -2.43739,2.31334 -2.83941,5.32182 -3.34803,25.05524 -0.14628,5.67531 -0.388,11.15218 -0.53714,12.17083 -0.14915,1.01865 -0.97798,5.03605 -1.84184,8.92756 -1.93729,8.727 -2.23624,10.87876 -2.03128,14.62035 0.28382,5.18135 1.54857,8.48899 4.23599,11.07822 1.71448,1.65184 4.69202,3.42165 7.18455,4.2704 3.35765,1.14333 8.54788,1.50078 11.77396,0.81087 z m -92.736454,-2.46602 c 4.111974,-1.07687 7.839276,-4.00845 10.845075,-8.52981 1.705041,-2.56475 2.282825,-4.35199 2.439141,-7.5449 0.15431,-3.15198 -0.316558,-5.73421 -1.511123,-8.28694 -0.9955,-2.12733 -2.083353,-3.66016 -5.009711,-7.0589 -4.032027,-4.68288 -5.13208,-6.14523 -9.054816,-12.03701 -2.415128,-3.62741 -4.322398,-6.39115 -7.487259,-10.84944 -2.87084,-4.04412 -5.187399,-7.37255 -10.424011,-14.97724 -4.633598,-6.72898 -6.726746,-9.03726 -9.298337,-10.25399 -1.439685,-0.68118 -2.021445,-0.80963 -3.571875,-0.78869 -3.844276,0.0519 -6.153316,1.66186 -8.744912,6.09725 -4.465566,7.64259 -6.520006,9.1933 -14.354364,10.83483 -5.2658762,1.10336 -7.9089763,1.94597 -9.4673086,3.01813 -3.263403,2.24528 -4.1022208,5.41813 -3.4101513,12.899 0.4996619,5.40105 0.5004724,11.33364 0.00191,13.93942 -0.2136063,1.11642 -0.8728011,3.61894 -1.4648772,5.56116 -1.6461742,5.40003 -1.4354987,7.9115 0.8558697,10.20287 2.36701689,2.36702 9.8778329,4.69677 25.5081544,7.91228 8.441787,1.73667 11.648852,2.57527 15.716172,4.10954 10.873613,4.10175 12.00586,4.49699 15.070971,5.26093 4.899194,1.22106 9.87656,1.40416 13.361458,0.49151 z m 36.050684,-30.10095 c 4.56671,-0.27633 11.08507,-1.72138 15.60051,-3.45848 6.44309,-2.47865 11.69186,-5.95382 16.67745,-11.04203 l 3.24115,-3.30785 0.004,-1.94208 c 0.002,-1.06814 0.0754,-2.20996 0.16316,-2.53739 0.0957,-0.35718 0.0414,-0.59531 -0.13591,-0.59531 -0.16248,0 -0.29543,0.13946 -0.29543,0.3099 0,0.63864 -0.88694,1.2776 -1.77343,1.2776 -0.63086,0 -1.09051,-0.20808 -1.54649,-0.70009 -0.59435,-0.64131 -0.64883,-0.65541 -0.64883,-0.16797 0,0.29266 -0.24676,0.84583 -0.54837,1.22926 -0.90059,1.14492 -2.55394,0.853 -3.11236,-0.54952 -0.41557,-1.04376 -1.36556,-6.89455 -1.3704,-8.44003 -0.002,-0.71144 -0.12493,-1.47212 -0.27266,-1.6904 -0.18481,-0.27307 -0.24545,1.30608 -0.19438,5.0621 0.0687,5.05531 0.0369,5.50039 -0.42981,6.01927 -0.27785,0.30886 -0.82581,0.5603 -1.22109,0.5603 -1.58754,0 -2.61446,-1.69445 -2.66439,-4.39632 -0.0236,-1.27767 -0.0277,-1.27111 -0.36433,0.58259 -0.43585,2.40013 -0.73352,2.92882 -1.93071,3.42903 -1.94486,0.81262 -3.09944,0.009 -3.46376,-2.41032 l -0.19666,-1.30602 -0.35021,1.05833 c -0.19262,0.58208 -0.59443,1.32622 -0.89291,1.65365 -0.61909,0.6791 -1.81358,0.78759 -2.2943,0.20837 -0.27835,-0.3354 -0.4208,-0.31325 -1.06944,0.16631 -1.13653,0.84027 -2.01841,0.49994 -2.71049,-1.04601 -0.47927,-1.0706 -0.56072,-1.77691 -0.57607,-4.99547 -0.01,-2.06171 -0.10051,-3.60222 -0.20152,-3.42336 -0.101,0.17887 -0.43474,1.8062 -0.74162,3.61628 -0.92195,5.43777 -1.69199,6.28618 -4.41572,4.86508 -1.21366,-0.63322 -1.55916,-0.96704 -1.83333,-1.77134 -0.46018,-1.35001 -0.89547,-4.62879 -0.89547,-6.74509 0,-0.95961 -0.0844,-1.66035 -0.18753,-1.55721 -0.10314,0.10314 -0.19243,2.00335 -0.19843,4.22268 -0.009,3.36101 -0.0871,4.15147 -0.46688,4.7313 -0.83082,1.26841 -2.47507,1.29189 -3.290762,0.047 -0.341685,-0.52148 -0.487314,-1.58901 -0.622035,-4.55986 -0.09675,-2.13344 -0.198221,-3.58132 -0.225499,-3.21752 -0.241758,3.22429 -0.605827,5.93334 -0.863034,6.42183 -0.418383,0.7946 -0.741391,0.97767 -1.733394,0.98245 -2.425231,0.0117 -2.669492,-3.51344 -0.778108,-11.22953 0.566,-2.30904 0.599663,-2.7005 0.272408,-3.16772 -0.20537,-0.29321 -0.373399,-0.44239 -0.373399,-0.33151 0,0.94678 -0.620805,5.41439 -0.828146,5.95974 -0.468863,1.2332 -1.649002,1.48883 -2.504284,0.54244 -0.743407,-0.8226 -0.68867,-6.93666 0.08679,-9.69488 0.296617,-1.05503 0.443421,-1.91823 0.326234,-1.91823 -0.315174,0 -0.951179,2.11657 -1.679628,5.58965 -0.732792,3.4938 -1.219549,4.61886 -2.189556,5.06082 -0.555332,0.25303 -0.732206,0.23482 -0.979461,-0.10083 -0.16596,-0.2253 -0.436753,-0.3641 -0.601763,-0.30845 -0.16501,0.0556 -0.507453,-0.10626 -0.760982,-0.35978 -0.71534,-0.71535 -0.366032,-3.03049 1.192022,-7.90048 1.245124,-3.89187 1.327931,-4.30811 1.036228,-5.20864 -0.392854,-1.21281 -0.251029,-2.73997 0.977971,-10.53063 1.846183,-11.703 4.999863,-24.19994 9.140306,-36.21986 0.420762,-1.2215 0.710253,-2.27567 0.643311,-2.34262 -0.06694,-0.0669 -1.111441,-0.22767 -2.321108,-0.35719 -9.396285,-1.00602 -18.259596,-4.27579 -26.408771,-9.74248 -1.236927,-0.82976 -2.388105,-1.59174 -2.558171,-1.69328 -0.203301,-0.12138 -0.762151,0.76357 -1.631577,2.58363 -0.7273,1.52254 -1.853758,3.51788 -2.503239,4.43409 -0.64948,0.91621 -2.046867,3.25019 -3.105303,5.18661 -5.77129,10.55865 -10.030836,25.04101 -10.922672,37.13684 l -0.318635,4.32156 -1.00915,-2.34041 c -2.243296,-5.20263 -3.104454,-12.53491 -2.180021,-18.56168 1.333691,-8.69488 4.198953,-15.71858 9.336357,-22.88645 l 1.422255,-1.98438 -1.36153,1.45521 c -4.167428,4.45416 -8.423444,12.39427 -9.998345,18.65312 -1.309936,5.20585 -1.691653,8.67934 -1.555578,14.15521 0.115959,4.66636 0.207547,5.47245 0.958459,8.43568 1.788414,7.05739 4.103936,10.63493 10.45039,16.14608 4.219411,3.66406 8.775557,7.27994 12.463219,9.89114 9.288451,6.57708 11.26954,8.91973 10.908665,12.89953 -0.301448,3.32443 -2.355279,6.09795 -5.721295,7.72612 l -1.896308,0.91726 1.720464,1.60941 c 1.86233,1.74212 4.554894,3.43397 7.313413,4.59533 3.389011,1.4268 9.808549,2.76961 14.927143,3.1224 2.837048,0.19554 4.01233,0.17914 9.063189,-0.12648 z m 18.32119,-22.47005 c 0,-0.79144 0.29766,-3.16841 0.66146,-5.28214 0.3638,-2.11373 0.66146,-3.9665 0.66146,-4.11726 0,-0.15076 -0.41672,-0.2741 -0.92605,-0.2741 -0.89962,0 -0.92604,0.0293 -0.92604,1.0292 0,0.56607 -0.23812,2.18652 -0.52916,3.601 -0.85173,4.13948 -0.65712,6.4823 0.53847,6.4823 0.45303,0 0.51986,-0.18498 0.51986,-1.439 z m -7.98014,0.56434 c 0.18215,-0.21949 0.29886,-2.27007 0.31999,-5.6224 l 0.0333,-5.2769 -0.91058,-0.0798 -0.91058,-0.0798 -0.16847,1.40274 c -0.25723,2.14186 -0.193,6.81635 0.11184,8.1392 0.39581,1.7176 0.92283,2.24202 1.52454,1.51701 z m 3.70492,-1.32308 c 0.70438,-1.88263 1.10099,-4.14356 1.09661,-6.25138 -0.005,-2.49187 -0.16687,-2.92797 -1.08558,-2.92797 -0.72943,0 -0.76289,0.053 -0.76289,1.2083 0,0.66456 -0.23976,2.75069 -0.5328,4.63585 -0.56869,3.65854 -0.50533,4.73919 0.27789,4.73919 0.33909,0 0.63681,-0.41519 1.00677,-1.40399 z m -9.3787,0.27951 c 0.20965,-0.32743 0.52223,-1.54782 0.69462,-2.71198 0.17239,-1.16417 0.53681,-3.1287 0.80981,-4.36563 0.27301,-1.23692 0.49895,-2.44786 0.5021,-2.69095 0.006,-0.49079 -1.48686,-0.9569 -1.84834,-0.57696 -0.11784,0.12386 -0.59174,2.46385 -1.0531,5.19997 -0.66131,3.92196 -0.77156,5.05584 -0.52094,5.35782 0.45691,0.55053 0.97737,0.4725 1.41585,-0.21227 z M 134.3277,221.369 c -0.0626,-0.40018 -0.25356,-1.88846 -0.42431,-3.30729 -0.28656,-2.38118 -0.50593,-2.95889 -0.88849,-2.3399 -0.23376,0.37824 0.99962,6.3748 1.31117,6.3748 0.0635,0 0.0643,-0.32742 0.002,-0.72761 z m 4.87897,-7.12226 c 0.39686,-6.55269 1.18795,-9.39916 3.22703,-11.61129 1.26397,-1.37125 2.59246,-2.14189 4.1109,-2.3847 0.97729,-0.15627 1.04088,-0.22719 1.3426,-1.49736 0.69056,-2.9071 2.59934,-4.12139 8.06647,-5.13158 6.48517,-1.19829 13.30748,-1.0754 18.67267,0.33637 3.69158,0.97138 4.08665,0.99036 2.22501,0.10686 -1.93129,-0.91656 -6.58968,-2.27317 -9.05907,-2.63817 -0.94588,-0.13982 -3.05924,-0.33633 -4.69635,-0.43669 -1.63711,-0.10037 -2.97656,-0.2781 -2.97656,-0.39498 0,-0.11687 0.35568,-1.17717 0.79041,-2.35622 5.03589,-13.65807 1.65538,-27.33636 -9.41842,-38.10903 -2.63399,-2.56236 -2.56725,-2.3539 0.35127,1.0973 2.1683,2.56404 4.67361,6.80549 5.96906,10.10553 3.41935,8.71044 3.56299,17.11935 0.43009,25.17737 -1.48776,3.82663 -1.79466,4.25306 -3.1995,4.44562 -0.6405,0.0878 -1.34882,0.23033 -1.57404,0.31675 -0.3561,0.13665 -0.43125,-0.43958 -0.5764,-4.41928 -0.16967,-4.65221 -0.83418,-9.97468 -1.80785,-14.48025 -0.70691,-3.27111 -3.52383,-11.58954 -5.11317,-15.09929 -0.69192,-1.52797 -1.3801,-3.07579 -1.52929,-3.43959 -0.26289,-0.64107 -0.28252,-0.62477 -0.63694,0.52917 -0.85176,2.77322 -2.72017,14.62077 -3.79706,24.07708 -0.94327,8.28305 -1.31377,14.29874 -1.48288,24.07708 -0.15128,8.74805 -0.19973,9.46963 -0.70597,10.51344 l -0.54353,1.12073 0.58574,3.1126 c 0.83584,4.4416 0.9388,4.72937 1.01901,2.84802 0.0372,-0.87312 0.18427,-3.5126 0.32677,-5.86549 z m -23.79806,4.12844 c 0.0778,-2.32348 0.0389,-2.68617 -0.26841,-2.49628 -0.14892,0.092 -0.25725,1.28445 -0.24781,2.7276 0.0186,2.84124 0.41929,2.66168 0.51622,-0.23132 z m 9.49799,-0.97493 c 0.0189,-0.91545 -0.0654,-1.12447 -0.45357,-1.12447 -0.43181,0 -0.45803,0.16836 -0.27817,1.78593 0.10922,0.98227 0.2206,2.0836 0.24752,2.4474 0.0636,0.85988 0.45409,-1.64706 0.48422,-3.10886 z m -4.97057,0.0661 c 0.0557,-0.90709 -0.0199,-1.32292 -0.24061,-1.32292 -0.17704,0 -0.32189,0.0893 -0.32189,0.19844 0,2.71236 0.0423,3.1964 0.24866,2.84427 0.12791,-0.21828 0.26914,-0.99219 0.31384,-1.71979 z m 17.16459,-26.66637 c 0,-1.008 1.15414,-12.4339 1.72243,-17.05183 0.36235,-2.94449 0.65882,-5.43033 0.65882,-5.5241 0,-0.0938 -0.98227,-0.11103 -2.18282,-0.0384 -5.94835,0.36001 -20.77445,-0.78837 -29.50978,-2.28574 -2.80608,-0.48101 -5.15981,-0.78098 -5.23049,-0.6666 -0.43709,0.70721 -4.014069,18.99175 -4.153801,21.23304 l -0.06582,1.05575 2.116671,0.48317 c 4.35095,0.99319 9.1419,1.79342 13.89062,2.32015 6.6241,0.73475 6.26516,0.71637 15.0151,0.76863 6.15521,0.0368 7.73907,-0.0234 7.73907,-0.2941 z M 98.696865,174.66927 c 0.92434,-4.69262 1.912665,-9.46856 2.196265,-10.6132 0.28361,-1.14463 0.44603,-2.15077 0.36094,-2.23586 -0.18717,-0.18718 -3.0578,-1.09755 -3.478125,-1.10303 -0.355197,-0.005 -0.645292,0.69779 -1.528154,3.70026 -1.004749,3.417 -4.03466,15.06548 -4.24621,16.32454 l -0.186669,1.11098 1.410041,0.37837 c 1.156304,0.31028 2.145628,0.56371 3.658997,0.93732 0.07276,0.018 0.888572,-3.80676 1.812915,-8.49938 z m 12.018985,-24.15961 c 5.36576,-0.68722 12.38458,-2.46157 16.46289,-4.1618 l 2.11667,-0.88243 -0.0769,-2.06361 c -0.0937,-2.51506 -1.22576,-6.24951 -2.79949,-9.23466 -0.60082,-1.13969 -1.34433,-2.55759 -1.65223,-3.15089 -0.46054,-0.88742 -0.58536,-1.71645 -0.70382,-4.67471 -0.20635,-5.15272 -1.56702,-10.03553 -3.50437,-12.57553 l -0.69911,-0.91657 -1.49977,0.66965 c -6.1665,2.75336 -13.17645,4.33167 -19.238829,4.33167 -3.819591,0 -6.928045,-0.43913 -10.523082,-1.48661 -2.273911,-0.66254 -2.346917,-0.66739 -2.884238,-0.19188 -0.796095,0.70453 -1.93185,3.35194 -2.422697,5.64724 -0.427805,2.00051 -0.589344,4.82906 -0.449215,7.86586 0.06588,1.42776 -0.02503,1.81072 -0.679916,2.86398 -2.678501,4.30787 -3.528832,6.72917 -3.732609,10.62852 l -0.141375,2.70525 1.162135,0.49615 c 5.393383,2.30262 11.781845,3.88108 18.360048,4.53638 2.994388,0.29829 8.843368,0.11429 12.905858,-0.40601 z m -7.97295,-34.51773 c 5.33521,-0.52835 12.21277,-2.60137 18.34719,-5.53017 2.10679,-1.00586 4.17847,-2.07659 4.60372,-2.3794 l 0.77318,-0.55055 -0.40487,-1.52124 c -0.22268,-0.83669 -0.59832,-2.67708 -0.83475,-4.08976 l -0.42988,-2.568518 -2.51354,1.553098 c -1.38245,0.8542 -3.88276,2.65998 -5.55625,4.01285 -5.91286,4.78 -9.38632,6.83624 -13.98617,8.27958 -4.293194,1.34713 -8.321687,1.15001 -12.946399,-0.63346 -3.302143,-1.27344 -6.750794,-4.0902 -10.472391,-8.55354 -0.704789,-0.84526 -1.328325,-1.48995 -1.385636,-1.43264 -0.05731,0.0573 -0.286793,1.22514 -0.509958,2.59517 -0.223168,1.37004 -0.452117,2.70777 -0.508778,2.97275 -0.07711,0.36058 0.448151,0.83735 2.087814,1.89511 7.413096,4.78225 15.376466,6.77865 23.736718,5.95072 z m -1.36103,-4.36624 c 0.94588,-0.21805 3.19772,-1.12752 5.00408,-2.02106 3.16757,-1.56687 4.57612,-2.5249 10.14571,-6.90063 1.42015,-1.11574 3.78678,-2.768915 5.25918,-3.673735 2.40586,-1.478457 2.73941,-1.779651 3.29225,-2.972903 0.70696,-1.525905 1.04504,-3.703328 0.78786,-5.074245 -0.25008,-1.332987 -1.7958,-2.921016 -3.85024,-3.955616 -0.96183,-0.48437 -3.54988,-1.482169 -5.75121,-2.217327 -2.20133,-0.735158 -6.07683,-2.174642 -8.61222,-3.198858 -5.92549,-2.393698 -7.984992,-2.91987 -11.410965,-2.915327 -2.24182,0.003 -3.01443,0.123558 -4.821015,0.752451 -4.100655,1.427483 -10.073275,5.248823 -13.489352,8.630621 -1.964031,1.944325 -2.516394,2.671506 -2.976563,3.918624 -0.310758,0.842204 -0.565017,1.874867 -0.565017,2.294806 0,1.066183 1.07053,2.225664 2.569776,2.783292 1.403749,0.52211 2.295652,1.013097 4.838557,2.663613 2.560915,1.662204 4.735978,2.683514 7.293313,3.424594 5.213001,1.51067 12.292696,0.41507 18.986996,-2.93829 2.69024,-1.347618 8.01099,-4.668157 10.34965,-6.458944 1.97289,-1.510708 2.91693,-1.808501 3.3237,-1.048449 0.24834,0.46404 0.17385,0.598975 -0.54906,0.994572 -0.46001,0.251732 -1.7454,1.122918 -2.85643,1.935969 -6.56281,4.802672 -10.31502,6.942892 -14.76875,8.423892 -5.150053,1.71256 -9.195098,2.025 -13.873521,1.0716 -3.118604,-0.63553 -4.791184,-1.3354 -7.41494,-3.1027 -2.409415,-1.62293 -3.806243,-2.366784 -3.518389,-1.87365 1.103868,1.89107 6.209797,7.37153 8.108825,8.70362 1.884616,1.32198 4.052059,2.2929 6.144347,2.75239 2.191414,0.48126 6.269432,0.48208 8.353428,0.002 z M 89.264263,83.931511 c -0.465434,-0.465434 -0.38956,-1.107739 0.222819,-1.886251 0.681331,-0.866172 2.238245,-1.216494 2.820175,-0.634564 0.362939,0.36294 0.326604,0.45285 -0.353677,0.875149 -0.416994,0.258861 -1.121172,0.80654 -1.564838,1.217065 -0.627848,0.580948 -0.87712,0.67596 -1.124479,0.428601 z m 11.456147,-0.373192 c -0.29104,-0.231278 -1.035184,-0.642572 -1.653647,-0.913993 -1.263319,-0.554421 -1.464223,-1.210691 -0.448657,-1.465582 1.784854,-0.447971 3.921404,0.687726 3.767984,2.002901 -0.0943,0.808797 -0.89426,0.989684 -1.66568,0.376674 z m -20.451208,0.07126 0.71546,-0.520771 -1.164259,-1.294935 c -1.679498,-1.868005 -2.344351,-3.752595 -2.36129,-6.693299 -0.0117,-2.030396 0.08817,-2.59983 0.677765,-3.864758 2.202709,-4.725722 7.229474,-3.935968 9.267838,1.456074 0.466822,1.234874 0.611108,2.159772 0.613095,3.930038 0.0013,1.273308 0.02918,2.315104 0.06167,2.315104 0.03249,0 0.613,-0.26789 1.290026,-0.595312 l 1.230961,-0.595313 -0.144587,-2.778124 c -0.263728,-5.067313 -1.599028,-8.807188 -4.078258,-11.422282 -2.537852,-2.67693 -4.755134,-3.250139 -7.425248,-1.919565 -5.427268,2.704523 -6.077746,13.580996 -1.257826,21.031831 0.8011,1.238372 1.31418,1.796733 1.531871,1.66706 0.18003,-0.107238 0.649282,-0.429326 1.042786,-0.715748 z m 42.018568,-0.373068 c 2.40069,-2.725184 4.03319,-6.255617 4.55816,-9.857387 0.77778,-5.336357 -1.99769,-11.021306 -6.54636,-13.4088 -1.84375,-0.967742 -4.4909,-1.51928 -6.05242,-1.26103 -2.99652,0.495577 -5.88053,2.251604 -7.749,4.71825 -2.48518,3.280778 -3.52878,6.72447 -3.52878,11.644259 v 2.702804 l 2.13403,0.872527 c 1.17372,0.479893 2.19111,0.815451 2.26087,0.745691 0.0698,-0.06976 -0.0134,-0.683631 -0.18472,-1.364147 -0.65829,-2.614303 0.19909,-6.169768 2.00184,-8.301473 2.70875,-3.203012 7.40619,-3.257833 9.80635,-0.114449 2.67209,3.49953 2.18823,8.852501 -1.13292,12.533458 l -0.86636,0.960226 1.78785,0.6615 c 0.98332,0.363826 1.92656,0.675868 2.09609,0.693423 0.16953,0.01754 0.80645,-0.533628 1.41537,-1.224852 z M 118.83506,72.88901 c 0.63565,-1.187725 -0.0122,-2.663227 -1.16941,-2.663227 -0.77846,0 -1.20253,0.491315 -1.20253,1.393227 0,1.182732 0.44477,1.781773 1.32291,1.781773 0.49556,0 0.87392,-0.184584 1.04903,-0.511773 z"
           id="path181"
           transform="translate(507.16524,65.440679)" /><g
           id="g1071"
           transform="translate(-325.63029,-167.0625)"><g
             id="g1095"
             transform="matrix(0.8263405,0,0,0.8263405,1141.7825,39.587877)"><path
               style="fill:#eaaa19;stroke-width:0.264583"
               d="m -225.79113,463.59867 c -0.58208,-0.053 -2.60614,-0.22415 -4.49792,-0.38044 -8.48513,-0.701 -22.8395,-3.026 -23.643,-3.8295 -0.19511,-0.1951 0.48298,-5.36851 1.02215,-7.79832 0.27447,-1.23692 0.80911,-3.91583 1.18809,-5.95312 0.93648,-5.03415 2.5127,-12.12563 2.74989,-12.37185 0.1065,-0.11055 2.15106,0.15142 4.54347,0.58216 6.34864,1.14304 7.43334,1.29965 12.8924,1.86147 7.3218,0.75351 13.2183,1.07558 19.9777,1.09117 5.51139,0.0127 6.01926,0.052 5.89798,0.45673 -0.31618,1.05502 -2.11014,17.52421 -2.49079,22.86623 -0.12183,1.70986 -0.3107,3.19814 -0.41971,3.30729 -0.19981,0.20009 -15.25349,0.3471 -17.22026,0.16818 z m -34.6145,-10.47917 c -1.51991,-0.4028 -1.46494,-1.08723 0.7497,-9.3343 0.35169,-1.30968 1.1261,-4.22671 1.72089,-6.48229 2.4593,-9.32616 2.80713,-10.03369 4.37065,-8.89042 0.49716,0.36354 0.49597,0.41322 -0.0682,2.84427 -0.31583,1.36086 -0.64986,2.891 -0.74229,3.40032 -0.0924,0.50932 -0.41097,1.75948 -0.70785,2.77812 -0.84521,2.90009 -1.77796,7.20679 -2.06294,9.525 -0.14311,1.16417 -0.4951,2.77152 -0.7822,3.57188 -0.2871,0.80036 -0.52588,1.71036 -0.53063,2.02221 -0.007,0.43807 -0.61726,1.02855 -0.89018,0.86086 -0.0245,-0.015 -0.50009,-0.14808 -1.05692,-0.29565 z m 8.28846,-41.2338 c -7.13247,-0.30681 -14.45601,-1.78892 -23.43441,-4.74257 -0.4469,-0.14702 -1.01018,-0.2673 -1.25173,-0.2673 -1.47573,0 -0.70923,-4.34574 1.6405,-9.30096 1.04158,-2.19654 1.05373,-2.20046 3.93914,-1.27257 17.03099,5.47687 32.97604,4.81965 46.44768,-1.91447 2.62174,-1.31054 3.92686,0.21505 6.13839,7.1753 1.16235,3.65822 1.10213,3.912 -1.09871,4.62998 -0.8563,0.27934 -2.60018,0.906 -3.87529,1.39257 -4.887,1.86482 -14.54012,3.84267 -20.43794,4.18758 -1.45402,0.085 -2.94133,0.18481 -3.30513,0.22173 -0.3638,0.0369 -2.50693,-0.0122 -4.7625,-0.10929 z m -1.85209,-18.66962 c -5.94631,-0.54884 -9.97917,-1.33945 -14.94895,-2.93061 -3.66991,-1.17497 -3.57188,-1.08533 -3.57188,-3.26664 0,-7.63307 2.52362,-13.08591 5.6132,-12.12855 8.77022,2.71762 16.80547,2.75038 27.0984,0.11047 1.91133,-0.49021 5.13553,-1.55558 7.1649,-2.36748 4.46659,-1.78698 4.10143,-1.78089 5.22479,-0.0871 2.38683,3.59875 4.61799,13.89376 3.11903,14.39181 -0.25467,0.0846 -1.23644,0.51533 -2.18172,0.95715 -7.58099,3.5433 -20.24559,5.99219 -27.51777,5.32098 z"
               id="path1087"
               sodipodi:nodetypes="sssssssssssssssssssssscssscsssssssssscsssssssssss" /><path
               style="fill:#dc7a0f;stroke-width:0.264583"
               d="m -252.91092,415.9727 c -9.6711,-0.79715 -23.70742,-4.32739 -24.92446,-6.26869 -1.19546,-1.90688 1.28485,-11.83696 3.5734,-14.30635 1.4229,-1.53533 1.869,-2.91539 1.62209,-5.01815 -1.13763,-9.68829 1.85125,-16.91295 6.44106,-15.56921 1.33835,0.39182 2.32425,0.74927 2.19089,0.79433 -0.13335,0.0451 -1.20663,-0.21417 -2.38506,-0.57607 -2.42747,-0.74548 -2.83812,-0.55397 -3.96846,1.85071 -1.7401,3.70191 -2.86574,11.3447 -1.7979,12.20724 3.25238,2.62709 20.81065,4.9918 28.24427,3.80389 5.07389,-0.81082 15.57214,-3.80468 17.2912,-4.93105 2.20321,-1.4436 2.73653,-1.26464 2.88968,0.96967 0.10153,1.48129 0.33742,2.50177 0.78942,3.41509 0.60427,1.22102 0.61356,1.30255 0.14837,1.30255 -0.27294,0 -1.17747,0.34046 -2.01007,0.75657 -13.44183,6.71788 -29.40197,7.37086 -46.41718,1.89907 -2.88541,-0.92789 -2.89756,-0.92397 -3.93914,1.27257 -2.34973,4.95522 -3.11623,9.30096 -1.6405,9.30096 0.24155,0 0.80483,0.12028 1.25173,0.2673 17.46783,5.74643 30.04765,6.27204 47.08738,1.96741 1.44022,-0.36384 3.34522,-0.95135 4.23333,-1.30558 0.88811,-0.35423 2.56724,-0.95782 3.73141,-1.34132 1.16416,-0.3835 2.25575,-0.87379 2.42574,-1.08953 0.34728,-0.44076 0.74258,1.76719 0.57402,3.20617 -0.37022,3.16056 -24.82252,8.2652 -35.41122,7.39242 z"
               id="path1085"
               sodipodi:nodetypes="sssssssssssssssssssssssss" /><path
               style="fill:#308743;stroke-width:0.264583"
               d="m -228.83384,491.14505 c -0.21828,-0.0606 -2.12328,-0.23661 -4.23333,-0.39108 -5.01877,-0.3674 -11.73088,-1.22296 -14.55209,-1.85488 -1.23692,-0.27706 -3.39793,-0.76007 -4.80224,-1.07335 -5.32853,-1.18873 -5.42327,-1.44291 -4.18672,-11.2322 0.27572,-2.18281 0.74764,-6.00795 1.04871,-8.5003 0.30107,-2.49235 0.76305,-5.30927 1.02664,-6.25984 0.29819,-1.07537 0.39266,-1.88298 0.25008,-2.13777 -0.19515,-0.34871 -0.12017,-0.37244 0.50521,-0.15987 1.55096,0.52719 11.50547,2.38462 15.41874,2.87702 8.57746,1.07927 10.67586,1.20365 20.41251,1.20993 8.70106,0.006 9.67425,0.0486 9.47649,0.41892 -0.12121,0.22697 -0.30205,5.70385 -0.40186,12.17083 -0.21006,13.61149 -0.1486,13.24597 -2.3321,13.86813 -2.66544,0.75949 -15.85986,1.55614 -17.63004,1.06446 z m -35.09452,-14.16677 c -1.66318,-1.06555 -1.75253,-2.71013 -0.49526,-9.11599 0.34274,-1.74625 0.75998,-4.18703 0.92721,-5.42396 0.48762,-3.60677 1.342,-7.76023 1.71754,-8.34971 0.22075,-0.3465 0.2619,-0.69637 0.11318,-0.96214 -0.2098,-0.37488 -0.10547,-0.38268 1.01937,-0.0761 0.68921,0.18782 2.02199,0.49347 2.96173,0.67922 0.93974,0.18576 1.57192,0.3833 1.40483,0.439 -0.16708,0.0557 -0.69783,-0.002 -1.17945,-0.12885 -1.58046,-0.4153 -1.74094,-0.24976 -1.93674,1.99779 -0.23645,2.71406 -0.78117,5.8864 -1.44645,8.42391 -0.31087,1.18572 -0.71738,4.17967 -0.94672,6.97274 -0.55645,6.77671 -0.48884,6.60148 -2.13924,5.54412 z m 46.38932,-70.23474 c -0.36177,-4.01461 -2.16244,-8.9876 -4.83804,-13.36146 -0.48961,-0.80036 -0.95886,-1.87193 -1.04278,-2.38125 -0.11574,-0.70243 -0.0294,-0.58615 0.35734,0.48155 0.28045,0.77418 0.64275,1.54044 0.80512,1.7028 0.53035,0.53035 11.56783,-5.24456 15.25169,-7.97983 8.43001,-6.2593 10.90096,-8.31317 15.52114,-12.90133 3.96285,-3.93539 4.16931,-4.05419 4.82884,-2.77879 3.28366,6.34989 2.61947,10.89892 -2.35831,16.15188 -5.16111,5.44643 -16.77376,13.85739 -22.14645,16.04051 -0.8743,0.35526 -2.24183,1.07883 -3.03896,1.60793 -0.79713,0.5291 -1.76682,1.04644 -2.15487,1.14964 -0.67915,0.18061 -0.71051,0.27114 -0.83785,2.41862 -0.13229,2.23098 -0.13229,2.23098 -0.34687,-0.15027 z m -6.19146,-19.84375 c -0.01,-5.08839 -1.65035,-11.3928 -3.76964,-14.48594 -0.82348,-1.20189 -0.94795,-1.52201 -0.59272,-1.52451 0.24731,-0.002 1.16402,-0.41682 2.03715,-0.92242 0.87312,-0.50559 2.89719,-1.59149 4.49791,-2.4131 5.76005,-2.95647 9.87778,-5.65491 15.74271,-10.31656 5.45519,-4.33597 7.37994,-6.70354 9.01031,-11.08331 0.86153,-2.31437 1.42067,-2.3995 3.19647,-0.48664 3.24441,3.49482 2.26958,14.82322 -1.82871,21.25125 -2.44058,3.82797 -10.91845,10.50927 -18.97702,14.95557 -2.0373,1.12406 -3.83992,2.15286 -4.00583,2.2862 -0.46345,0.37249 -3.57629,1.54883 -4.09852,1.54883 -0.66966,0 -0.84574,0.42632 -1.0362,2.50885 -0.14511,1.58674 -0.17069,1.39502 -0.17591,-1.31822 z"
               id="path1083" /><path
               style="fill:#9a1f28;stroke-width:0.264583"
               d="m -205.41821,436.77375 c -0.0986,-0.15956 -1.9691,-0.26602 -4.71197,-0.26818 -9.8559,-0.008 -22.36608,-0.99491 -30.60991,-2.41529 -7.97291,-1.37369 -8.22932,-1.40361 -8.4908,-0.9907 -0.12779,0.20178 -0.23417,0.24186 -0.2364,0.0891 -0.002,-0.15279 0.14377,-0.42563 0.32445,-0.60631 0.18067,-0.18067 0.4604,-1.24628 0.62162,-2.36802 0.77864,-5.41755 0.97222,-5.61232 6.23788,-6.27614 5.89012,-0.74254 13.64621,-2.49896 18.07971,-4.09428 1.16417,-0.4189 3.78354,-1.36043 5.82084,-2.09229 5.30867,-1.90702 8.13847,-3.20068 9.32113,-4.26119 0.82832,-0.74276 1.28114,-0.93985 2.28796,-0.99585 1.61934,-0.0901 3.48207,-1.04564 4.70957,-2.41601 1.47837,-1.65044 2.27058,-0.93585 1.56484,1.4115 -0.59062,1.96444 -1.31426,5.01085 -1.85786,7.8212 -0.29554,1.52797 -0.77611,3.79015 -1.06793,5.02708 -0.29182,1.23693 -0.65854,3.38005 -0.81493,4.7625 -0.15639,1.38245 -0.45679,3.51765 -0.66755,4.7449 -0.21076,1.22725 -0.31456,2.44764 -0.23066,2.71198 0.16372,0.51582 -0.0113,0.65084 -0.27999,0.21604 z m -73.76637,-31.38828 c -2.53034,-1.36681 -4.33953,-2.20651 -4.76145,-2.20994 -0.64967,-0.005 -3.26201,-1.70628 -3.60515,-2.34746 -0.15295,-0.28578 -1.34819,-1.30504 -2.65609,-2.26501 -3.15465,-2.31545 -4.69548,-3.70798 -6.67178,-6.02963 -0.90336,-1.06121 -2.34992,-2.69516 -3.21457,-3.631 -3.26002,-3.5284 -3.59065,-6.51897 -1.10356,-9.98166 0.5062,-0.70477 1.22126,-1.84695 1.58902,-2.53817 0.75555,-1.4201 1.33719,-1.5971 1.74277,-0.53034 0.15191,0.39954 0.53833,1.08415 0.85873,1.52136 0.32039,0.4372 0.75574,1.15211 0.96744,1.58867 0.56021,1.15525 8.39566,8.88733 10.26315,10.12776 1.90765,1.26709 4.45815,2.63284 7.33285,3.92661 1.16417,0.52394 2.49687,1.23812 2.96156,1.58708 0.84489,0.63446 0.84489,0.63446 1.53203,-0.26642 1.42211,-1.86449 1.43944,-5.7342 0.0233,-5.19577 -0.50307,0.19126 -0.70534,0.10344 -1.15145,-0.49996 -0.29765,-0.40259 -1.17663,-1.03291 -1.95329,-1.40072 -8.39089,-3.97367 -16.54384,-11.30906 -19.40843,-17.46219 -2.56536,-5.51039 0.70206,-16.44823 5.67073,-18.98306 1.81445,-0.92566 2.05825,-0.49016 1.04464,1.86604 -1.39658,3.24643 1.19944,8.91621 5.6293,12.29457 0.92559,0.70589 2.6354,2.0473 3.79957,2.98091 1.32482,1.06245 3.20544,2.2135 5.02708,3.07687 1.60073,0.75867 3.49927,1.75607 4.21899,2.21644 0.71971,0.46038 1.56448,0.83705 1.87726,0.83705 0.5149,0 0.47871,0.0953 -0.38253,1.00756 -2.41096,2.55377 -3.7833,9.36099 -3.0854,15.30445 0.24691,2.10276 -0.19918,3.48282 -1.62208,5.01815 -4.34712,6.89692 -2.00417,12.49466 -4.92264,9.98781 z"
               id="path1081"
               sodipodi:nodetypes="scsscssssssssssssssssccsssssssssssssssssssssssssscc" /><path
               style="fill:#276332;stroke-width:0.264583"
               d="m -262.11975,478.17352 c -2.62462,-0.83919 -3.49117,-1.84267 -3.49117,-4.04279 0,-1.90335 3.21845,-20.81351 3.60983,-21.20974 0.34108,-0.3453 0.5391,0.67058 0.22637,1.1613 -0.37912,0.59489 -1.2321,4.73474 -1.72169,8.35604 -0.16723,1.23693 -0.58573,3.67771 -0.93,5.42396 -1.30423,6.61544 -1.16769,8.21932 0.78943,9.2733 1.07949,0.58135 1.45384,0.33776 1.46159,-0.95104 0.0143,-2.37315 0.88284,-10.00247 1.33547,-11.73057 0.66325,-2.53223 1.20791,-5.70686 1.44397,-8.41647 0.19973,-2.29256 0.30396,-2.38565 2.19624,-1.9616 1.03413,0.23174 1.12299,0.31496 0.99827,0.93497 -0.0753,0.37431 -0.32544,2.10932 -0.55589,3.85557 -0.23044,1.74625 -0.7205,5.02047 -1.08902,7.27605 -0.36852,2.25557 -0.86732,5.94651 -1.10845,8.20208 -0.49426,4.62346 -0.5331,4.67045 -3.16495,3.82894 z m 44.92758,-71.27026 c 0.12741,-2.15788 0.15832,-2.24746 0.83785,-2.42812 0.38805,-0.10317 1.35774,-0.62049 2.15487,-1.14959 0.79713,-0.5291 2.16466,-1.25267 3.03896,-1.60793 5.37269,-2.18312 16.98534,-10.59408 22.14645,-16.04051 4.97778,-5.25296 5.64197,-9.80199 2.35831,-16.15188 -0.65953,-1.2754 -0.86599,-1.1566 -4.82884,2.77879 -4.62018,4.58816 -7.09113,6.64203 -15.52114,12.90133 -4.49816,3.33988 -14.81115,8.55583 -15.37958,7.77845 -1.43103,-1.95705 -1.54452,-7.27464 -0.15526,-7.27464 0.53905,0 3.64713,-1.16822 4.12068,-1.54883 0.16591,-0.13334 1.96853,-1.16214 4.00583,-2.2862 8.05857,-4.4463 16.53644,-11.1276 18.97702,-14.95557 4.09829,-6.42803 5.07312,-17.75643 1.82871,-21.25125 -1.7758,-1.91286 -2.33494,-1.82773 -3.19647,0.48664 -1.63037,4.37977 -3.55512,6.74734 -9.01031,11.08331 -5.86493,4.66165 -9.98266,7.36009 -15.74271,10.31656 -1.60072,0.82161 -3.62479,1.90751 -4.49791,2.4131 -0.87313,0.5056 -1.82563,0.91867 -2.11667,0.91794 -0.29104,-7.9e-4 1.55443,-1.08175 4.10104,-2.40226 15.38878,-7.97968 26.45834,-17.21896 26.45834,-22.08361 0,-1.18111 -0.50679,-1.86698 -1.18673,-1.60606 -0.50562,0.19403 -1.2688,-0.91567 -1.03993,-1.51211 0.22205,-0.57864 0.9957,-0.5472 2.89729,0.11777 4.55585,1.59314 4.94953,2.37763 7.23065,14.4088 0.71779,3.78577 1.31686,4.95634 4.84605,9.46917 4.21033,5.38379 5.19714,7.63108 4.91181,11.18573 -0.50939,6.3459 -13.716,18.68456 -28.37477,26.50994 -8.98538,4.79672 -9.03336,4.80717 -8.86354,1.93103 z"
               id="path1079" /><path
               style="fill:#5d1c1b;stroke-width:0.264583"
               d="m -288.27614,406.19763 c -6.16603,-2.45382 -11.48664,-9.17353 -14.64475,-14.93975 -2.36892,-2.76851 -1.75086,-12.09508 0.83698,-13.72627 1.08959,-0.48229 2.91658,-4.65544 2.50626,-5.72471 -0.16662,-0.4342 0.31627,-2.23768 0.59914,-2.23768 0.11532,0 0.35569,-0.32045 0.53414,-0.71212 0.73317,0.0578 1.73834,0.23577 2.00478,0.92125 2.86459,6.15313 11.01754,13.48852 19.40843,17.46219 0.77666,0.36781 1.65564,0.99813 1.95328,1.40072 0.44612,0.6034 0.64839,0.69122 1.15146,0.49996 1.41617,-0.53843 1.39884,3.33128 -0.0233,5.19577 -0.68714,0.90088 -0.68714,0.90088 -1.53203,0.26642 -0.4647,-0.34896 -1.7974,-1.06314 -2.96157,-1.58708 -2.8747,-1.29377 -5.4252,-2.65952 -7.33285,-3.92661 -1.86749,-1.24043 -9.70294,-8.97251 -10.26315,-10.12776 -0.2117,-0.43656 -0.64705,-1.15147 -0.96744,-1.58867 -0.3204,-0.43721 -0.70682,-1.12182 -0.85873,-1.52136 -0.40558,-1.06676 -0.98722,-0.88976 -1.74277,0.53034 -0.36776,0.69122 -1.08282,1.8334 -1.58902,2.53817 -2.48709,3.46269 -2.15646,6.45326 1.10356,9.98166 0.86465,0.93584 2.31121,2.56979 3.21457,3.631 1.9763,2.32165 3.51713,3.71418 6.67178,6.02963 1.3079,0.95997 2.50314,1.97923 2.65609,2.26501 0.34314,0.64118 2.95548,2.34218 3.60515,2.34746 0.42192,0.003 2.92633,1.03779 5.45667,2.4046 0.83183,0.44933 0.40958,0.24006 0.48064,3.61074 0.73963,1.64027 -6.37596,-1.44431 -10.26732,-2.99291 z"
               id="path1075"
               sodipodi:nodetypes="sccssccsssssssssssssssscscs" /></g><path
             style="fill:#000000;fill-opacity:0;stroke-width:0.264583"
             d="m 921.62467,436.75052 c 0,0 -1.27918,0.55618 -2.28031,4.78308 -1.00111,4.2269 0.38933,8.28696 2.22469,1.22357 1.83536,-7.06337 0.0556,-6.00665 0.0556,-6.00665 z"
             id="path1151" /></g><path
           style="fill:#000000;fill-opacity:0;stroke-width:0.264583"
           d="m 596.16122,270.07732 c 0,0 -2.11344,2.44716 -2.55839,4.78309 -0.44492,2.33592 -0.22246,9.12124 2.28032,0.94551 2.50277,-8.17575 0.27807,-5.7286 0.27807,-5.7286 z"
           id="path1830" /></g></g></g></svg>