<svg width="371" height="256" viewBox="0 0 371 256" fill="none" xmlns="http://www.w3.org/2000/svg">
<path d="M134.349 251.387C137.589 244.811 137.319 244.272 132.329 247.355L127.602 250.275L123.833 247.316C121.76 245.69 120.064 243.164 120.064 241.704C120.064 240.244 118.712 236.834 117.059 234.125C112.784 227.12 113.07 221.722 117.81 219.917C123.057 217.92 122.561 215.819 117.059 216.739C107.708 218.301 112.992 211.903 128.035 203.446C132.006 201.214 134.999 198.73 134.686 197.926C133.681 195.344 126.11 193.042 121.832 194.017C116.376 195.261 97.419 195.454 96.5466 194.274C95.3782 192.695 88.0277 193.224 83.4541 195.217C77.5636 197.783 76.4885 197.592 76.4885 193.978C76.4885 190.522 71.8063 188.815 65.2146 189.868C61.7894 190.415 61.4376 190.007 60.5587 184.472C59.8051 179.726 58.3976 177.497 53.7734 173.724C48.0721 169.073 46.3062 165.708 49.5667 165.708C50.462 165.708 50.9152 165.008 50.5737 164.152C50.1978 163.21 47.905 162.743 44.7636 162.969C40.0891 163.306 39.2386 162.843 36.1876 158.308L32.8007 153.274L36.2376 151.617C38.1279 150.705 40.9817 149.37 42.5793 148.649C47.5706 146.396 48.7875 143.643 46.4238 139.953C44.5254 136.99 44.6455 135.797 47.538 128.887C49.321 124.628 51.5263 115.782 52.4388 109.231C53.601 100.887 54.9247 96.5639 56.8591 94.7946C62.1286 89.9748 68.9754 78.2599 68.9754 74.0635C68.9754 71.7571 67.9357 68.9102 66.6649 67.7371C64.8119 66.0265 64.6925 64.9844 66.0616 62.474C67.3538 60.1046 71.1654 58.2479 81.7443 54.8346C103.638 47.7708 112.595 46.5665 93.0172 53.319C75.7613 59.2707 72.059 60.8556 72.0194 62.3076C71.9981 63.0901 73.333 64.0259 74.9859 64.387C77.1391 64.8574 77.9911 66.0993 77.9911 68.7676C77.9911 72.507 72.625 84.1523 70.3231 85.4084C68.0776 86.6337 62.7915 97.9234 63.8153 99.3073C64.3687 100.055 63.2738 102.417 61.382 104.554C58.4031 107.921 57.9177 110.048 57.7571 120.441C57.6551 127.041 56.9989 136.237 56.2989 140.876C55.0751 148.986 54.8321 149.364 50.0008 150.697C43.9346 152.369 42.7767 153.684 44.8067 156.597C46.114 158.472 46.3518 158.504 46.3906 156.805C46.4187 155.577 48.7469 154.229 52.4321 153.306C58.9212 151.682 59.1462 151.299 60.6226 139.345C61.5941 131.48 64.9433 122.586 66.4574 123.851C67.0159 124.318 67.4513 122.487 67.425 119.782C67.3823 115.383 67.1636 115.101 65.3471 117.101C63.495 119.141 63.2306 118.953 62.3332 114.956C61.5016 111.253 62.2049 109.499 66.881 103.615C71.6435 97.6224 72.748 96.8735 74.8261 98.228C76.9516 99.6134 77.0007 99.5461 75.2374 97.6645C73.1605 95.4484 74.1011 90.3859 76.5897 90.3859C78.9955 90.3859 78.1261 114.659 75.0728 132.737C70.4064 160.366 70.0411 164.715 72.0399 168.846L73.8618 172.612L75.1594 168.846C75.8731 166.775 76.1295 163.386 75.7292 161.314C75.3289 159.243 75.6048 155.571 76.3424 153.154C77.2937 150.038 77.7282 155.055 77.8373 170.416C77.9332 183.93 78.556 192.071 79.4937 192.071C80.3201 192.071 80.9963 191.223 80.9963 190.188C80.9963 189.152 82.0323 188.305 83.2985 188.305C84.5647 188.305 88.0281 189.152 90.995 190.188C93.9619 191.223 98.9106 192.071 101.992 192.071C105.074 192.071 109.755 192.7 112.395 193.469C116.341 194.618 117.673 194.506 119.875 192.841C121.349 191.727 123.854 190.839 125.442 190.869C128.545 190.926 150.447 197.006 147.744 197.06C144.203 197.13 132.085 204.958 132.085 207.174C132.085 209.136 132.943 209.381 137.72 208.787C143.178 208.107 147.73 205.221 146.329 203.327C145.368 202.028 151.252 200.878 158.381 200.972C165.054 201.06 178.574 204.273 173.198 204.493C171.43 204.565 168.441 205.667 166.557 206.942C163.149 209.247 163.178 209.257 171.813 208.658C176.697 208.32 180.917 208.597 181.459 209.291C181.989 209.97 185.465 210.852 189.184 211.253C195.57 211.94 195.737 211.883 192.189 210.23C187.322 207.962 190.54 207.903 197.794 210.128C200.91 211.083 206.376 212.529 209.941 213.34C213.738 214.205 216.175 215.435 215.826 216.311C215.498 217.133 214.497 217.806 213.602 217.806C212.706 217.806 211.467 218.229 210.847 218.747C210.227 219.265 207.687 219.689 205.203 219.689C194.678 219.689 155.376 239.086 145.123 249.341C142.353 252.113 139.562 253.584 137.074 253.584C134.037 253.584 133.485 253.139 134.349 251.387ZM138.091 226.878C138.094 226.344 136.236 226.828 133.963 227.952C130.878 229.479 130.52 229.517 132.551 228.102C134.279 226.897 134.69 225.907 133.678 225.384C131.072 224.039 128.779 226.042 129.621 228.927C130.053 230.405 129.431 232.711 128.24 234.052C127.049 235.392 126.103 237.087 126.139 237.818C126.21 239.292 138.085 228.423 138.091 226.878ZM167.951 228.42C173.985 224.936 183.737 220.49 189.623 218.538C201.197 214.701 204.971 211.62 196.442 212.972C193.69 213.408 190.625 214.297 189.632 214.948C188.639 215.598 186.554 215.793 184.999 215.38C183.444 214.968 179.327 215.469 175.851 216.494C172.374 217.519 169.934 217.81 170.43 217.14C170.925 216.471 170.705 215.923 169.942 215.923C168.01 215.923 160.628 220.896 160.983 221.958C161.142 222.436 160.438 224.085 159.416 225.623C157.779 228.09 157.874 228.337 160.224 227.718C161.783 227.307 161.174 228.144 158.756 229.734C154.771 232.355 153.36 234.753 155.803 234.753C156.451 234.753 161.918 231.903 167.951 228.42ZM65.9973 172.092C64.204 165.032 65.325 150.886 68.443 141.228C69.2245 138.808 69.171 138.811 66.9519 141.332C62.2523 146.669 57.4014 174.709 61.5481 172.568C62.3274 172.166 62.965 172.754 62.965 173.876C62.965 176.511 65.9595 181.2 67.0565 180.283C67.52 179.896 67.0433 176.21 65.9973 172.092ZM74.1157 231.563L75.0739 228.374L70.447 230.373C65.8877 232.343 59.9598 231.932 59.9598 229.647C59.9598 229.003 61.8192 228.468 64.0919 228.457C66.3646 228.446 69.2384 227.853 70.478 227.139C72.1329 226.185 70.673 225.939 64.9846 226.216C60.7235 226.424 57.5516 226.17 57.9358 225.652C58.3201 225.134 60.4541 224.698 62.678 224.683C64.9019 224.667 69.6959 223.528 73.3313 222.15C76.9667 220.772 80.1816 219.845 80.4755 220.091C80.7694 220.336 80.3865 222.182 79.6247 224.193C78.8629 226.203 77.8327 229.402 77.3354 231.301C76.8381 233.2 75.6946 234.753 74.7943 234.753C73.7916 234.753 73.5287 233.517 74.1157 231.563ZM276.288 226.785C275.074 225.854 270.363 222.002 265.817 218.225C255.228 209.425 252.687 208.106 237.356 203.453C222.757 199.022 219.723 198.752 218.77 201.8C218.341 203.169 218.017 202.713 217.908 200.589C217.73 197.105 222.345 193.711 225.234 195.202C226.019 195.608 228.702 195.057 231.197 193.98C233.692 192.902 236.093 192.053 236.532 192.093C236.972 192.133 238.5 191.597 239.929 190.901C242.036 189.875 242.101 189.601 240.273 189.449C239.033 189.347 237.005 189.353 235.765 189.463C233.762 189.642 233.762 189.521 235.765 188.376C238.932 186.566 245.245 186.661 243.886 188.498C243.208 189.415 243.475 189.606 244.614 189.018C247.005 187.784 251.144 190.748 250.125 192.965C249.684 193.926 249.945 194.391 250.706 193.998C251.466 193.605 253.036 194.415 254.195 195.797C255.413 197.25 258.607 198.556 261.772 198.894C270.048 199.78 273.093 201.662 274.196 206.577C274.75 209.041 275.947 210.8 276.891 210.537C277.825 210.277 278.522 209.405 278.439 208.6C278.357 207.794 278.188 205.679 278.064 203.9C277.735 199.188 270.128 193.326 264.342 193.326C261.532 193.326 260.011 192.811 260.573 192.05C261.092 191.348 262.049 191.049 262.699 191.385C263.349 191.72 263.551 190.553 263.148 188.791C262.744 187.029 261.321 185.266 259.984 184.872C258.647 184.479 256.437 183.359 255.073 182.383C253.221 181.058 252.315 180.983 251.499 182.086C250.898 182.899 251.338 184.057 252.477 184.66C253.674 185.293 253.833 185.763 252.853 185.775C251.922 185.786 250.348 184.978 249.358 183.98C247.862 182.474 249.751 180.983 260.495 175.193C267.612 171.357 273.75 168.219 274.134 168.219C274.518 168.219 276.098 167.23 277.644 166.022C279.189 164.814 283.979 162.13 288.288 160.059C292.596 157.987 297.03 155.587 298.142 154.723C301.496 152.119 301.526 152.894 298.299 158.709C296.603 161.764 294.572 163.931 293.785 163.524C292.995 163.116 292.753 163.655 293.245 164.727C293.736 165.795 293.14 169.086 291.921 172.042C289.519 177.865 289.617 187.416 292.029 182.655C297.823 171.221 301.251 165.835 305.012 162.257C307.421 159.964 309.415 158.532 309.443 159.074C309.47 159.615 310.813 158.735 312.426 157.118C314.7 154.838 315.01 153.63 313.803 151.747C312.948 150.411 311.605 149.649 310.82 150.055C310.035 150.46 309.393 150.298 309.393 149.693C309.393 149.089 311.929 147.393 315.028 145.925C318.127 144.456 323.029 141.49 325.922 139.334L331.181 135.415L325.777 136.014L320.373 136.614L316.911 127.623C315.007 122.678 313.185 118.225 312.862 117.727C312.539 117.229 314.127 116.434 316.391 115.959C319.315 115.346 322.161 115.891 326.219 117.843C329.361 119.354 331.932 119.983 331.932 119.242C331.932 118.501 325.046 111.44 316.631 103.551C308.215 95.6627 301.226 88.0433 301.101 86.6193C300.975 85.1952 299.494 82.4721 297.808 80.5678C296.123 78.6635 294.266 75.2859 293.682 73.0621C292.234 67.5543 289.108 65.2786 282.99 65.2786C277.133 65.2786 276.766 65.9165 280.468 69.6573C281.914 71.1189 278.195 68.0612 272.203 62.8625C261.582 53.6471 257.541 49.3299 265.06 55.231C267.123 56.8501 269.32 57.7349 269.943 57.1972C270.567 56.6596 266.542 52.75 260.999 48.5093C252.715 42.1709 251.188 40.4125 252.417 38.6272C253.525 37.0181 252.903 34.6126 250.017 29.3418C244.545 19.3469 246.028 18.6791 263.19 23.4095L277.087 27.2398L282.072 35.2747C284.813 39.694 288.079 44.6298 289.329 46.2432C293.487 51.6106 292.95 48.2089 288.281 39.6063C285.746 34.935 283.942 30.8875 284.271 30.6119C284.601 30.3363 287.84 31.9073 291.468 34.1031C295.096 36.2988 297.252 38.3218 296.258 38.5985C295.082 38.926 295.684 40.212 297.982 42.2831C299.924 44.0329 301.355 46.392 301.161 47.5255C300.967 48.6591 301.092 48.9117 301.438 48.0869C301.785 47.2621 303.151 46.9344 304.474 47.3587C307.311 48.2682 306.155 46.1582 301.394 41.7405C296.848 37.5213 299.793 38.3302 304.915 42.7073C310.236 47.2555 312.222 52.5077 309.221 54.0958C308.076 54.7016 304.434 55.2247 301.129 55.2582C295.215 55.3182 295.169 55.3546 298.249 57.5065C300.976 59.4114 301.318 60.8282 300.898 68.4772C300.434 76.9242 300.681 77.6533 307.35 87.5189C315.472 99.5337 327.603 111.402 332.895 112.511C335.599 113.078 336.342 113.852 335.608 115.334C335.051 116.457 334.256 118.365 333.84 119.573C333.007 121.993 325.278 122.692 323.653 120.494C323.133 119.793 322.118 119.524 321.395 119.897C320.673 120.27 321.227 123.2 322.626 126.408C324.443 130.575 326.337 132.613 329.253 133.542C332.461 134.564 333.157 135.438 332.502 137.62C331.537 140.831 335.71 143.6 343.577 144.971C348.023 145.745 348.461 146.238 348.461 150.464C348.461 156.604 344.918 160.714 339.736 160.587C337.51 160.533 336.534 160.203 337.567 159.855C340.394 158.902 339.823 156.92 336.721 156.92C333.873 156.92 324.807 163.94 326.177 165.085C326.611 165.447 328.928 164.472 331.327 162.919C334.565 160.823 334.012 161.702 329.181 166.332C325.602 169.763 321.568 174.132 320.217 176.043C317.773 179.499 314.793 180.188 308.44 178.764C306.18 178.257 305.456 177.336 305.986 175.643C306.4 174.321 306.009 173.24 305.118 173.24C304.227 173.24 302.725 175.641 301.78 178.575C300.834 181.51 298.495 186.17 296.581 188.932C294.667 191.694 291.984 197.343 290.618 201.486C286.211 214.859 280.625 228.476 279.545 228.476C278.967 228.476 277.501 227.715 276.288 226.785ZM275.912 221.06C276.183 218.058 272.429 215.27 266.569 214.12L262.061 213.235L268.001 218.345C274.72 224.126 275.608 224.43 275.912 221.06ZM284.76 180.77C284.848 178.7 284.341 177.006 283.633 177.006C282.925 177.006 282.346 178.701 282.346 180.772C282.346 185.683 284.551 185.681 284.76 180.77ZM296.443 158.738C296.956 157.621 296.704 157.117 295.852 157.557C295.035 157.979 294.367 158.855 294.367 159.505C294.367 161.311 295.444 160.913 296.443 158.738ZM286.224 47.8997C283.231 43.0642 281.628 42.2622 279.414 44.4913C277.998 45.9171 278.339 46.5778 281.122 47.7992C283.035 48.6386 285.169 50.1326 285.865 51.1193C288.26 54.5167 288.574 51.6971 286.224 47.8997ZM214.752 208.704C214.765 208.186 215.43 206.915 216.231 205.88C217.409 204.357 217.692 204.537 217.711 206.821C217.724 208.375 217.058 209.646 216.231 209.646C215.405 209.646 214.739 209.222 214.752 208.704ZM353.616 208.25C353.048 207.483 348.999 205.53 344.618 203.911C336.687 200.981 336.659 200.951 338.378 197.147C339.327 195.045 340.97 193.326 342.028 193.326C343.087 193.326 343.953 192.81 343.953 192.18C343.953 191.549 345.981 191.673 348.461 192.455C350.94 193.237 352.969 194.331 352.969 194.886C352.969 195.441 354.659 194.969 356.725 193.838C360.276 191.895 360.482 191.912 360.482 194.158C360.482 197.643 355.369 200.817 351.203 199.92C348.019 199.234 347.902 199.363 349.879 201.376C351.401 202.926 353.308 203.375 356.265 202.881C360.937 202.1 361.72 203.784 358.39 207.449C356.068 210.005 355.042 210.177 353.616 208.25ZM3.98755 126.721C0.0720652 124.771 0.746546 122.625 4.99511 123.516C6.99553 123.935 9.69554 123.938 10.9951 123.521C12.8439 122.928 12.2999 122.167 8.49537 120.025C3.54667 117.239 1.92429 114.321 3.46253 110.972C4.12896 109.521 4.98604 109.406 7.33118 110.455C8.98809 111.196 10.1814 112.438 9.98304 113.216C9.78466 113.994 13.0032 115.67 17.1354 116.94C26.1971 119.725 25.9283 119.71 24.8564 117.376C24.3191 116.206 24.865 115.493 26.297 115.493C30.2811 115.493 34.4154 117.998 34.4154 120.412C34.4154 122.753 32.9327 123.274 20.1406 125.427C16.8349 125.984 12.4397 126.797 10.3736 127.235C8.30756 127.673 5.43382 127.442 3.98755 126.721ZM336.875 80.343C337.755 77.5341 335.084 76.9564 332.233 79.3387C330.83 80.5104 330.43 80.5104 330.43 79.3387C330.43 78.5102 331.106 77.8323 331.932 77.8323C332.759 77.8323 333.435 77.234 333.435 76.5028C333.435 75.7716 332.759 75.5225 331.932 75.9492C331.106 76.3759 330.43 76.4999 330.43 76.2247C330.43 75.9496 334.656 73.0185 339.821 69.7113C344.986 66.4042 348.367 64.4493 347.334 65.3672C344.495 67.8899 345.083 69.2998 348.362 67.8335C349.961 67.1188 354.153 66.534 357.678 66.534C362.664 66.534 363.687 66.8687 362.285 68.0404C361.293 68.869 360.482 70.5033 360.482 71.6722C360.482 72.8411 359.467 74.1227 358.228 74.5201C356.988 74.9176 355.974 74.6955 355.974 74.0268C355.974 71.9987 352.133 72.6606 348.461 75.3215C344.792 77.9803 346.68 78.717 351.565 76.5327C353.163 75.818 354.471 75.7396 354.471 76.3585C354.471 77.2955 339.42 82.8537 336.882 82.8537C336.446 82.8537 336.444 81.7239 336.875 80.343ZM286.662 75.6354C284.793 73.6443 284.846 73.5999 287.229 75.1614C289.732 76.8014 290.528 77.8323 289.292 77.8323C288.98 77.8323 287.796 76.8437 286.662 75.6354ZM101.779 43.8937C100.4 43.2213 98.1387 40.1937 96.7546 37.1657C94.61 32.4742 94.4983 30.6127 95.999 24.5734C98.5076 14.4776 102.06 11.6318 114.914 9.41977C122.824 8.05868 127.776 7.89474 134.278 8.77877C144.56 10.1769 145.33 10.6276 142.927 13.8427C140.945 16.4935 141.623 16.7702 153.122 18.0019C161.838 18.9356 189.824 13.6228 207.967 7.59C225.11 1.88957 228.02 1.25488 237.012 1.25488H245.041L240.403 6.52366C235.246 12.3821 234.429 17.9325 238.081 22.2889C239.354 23.8081 241.325 27.6274 242.459 30.7763L244.521 36.5015L238.265 31.8042C234.824 29.2207 230.01 25.5575 227.566 23.664L223.124 20.2211L226.614 13.1856C228.534 9.31616 229.792 5.88929 229.411 5.57037C229.029 5.25146 225.738 6.06721 222.098 7.38315C203.14 14.2368 128.198 40.8559 126.868 41.2084C126.018 41.4335 126.338 41.0185 127.577 40.2861C131.358 38.0524 126.951 38.7528 116.452 42.0543C105.242 45.5795 105.238 45.58 101.779 43.8937ZM124.572 31.2509C129.117 30.6284 134.7 29.9294 136.978 29.6974C139.256 29.4654 141.622 28.8324 142.237 28.2907C142.852 27.7489 141.749 27.7188 139.786 28.2238C137.325 28.8569 136.538 28.7076 137.251 27.7432C140.354 23.5486 120.412 26.6266 108.431 32.1915L104.287 34.1167L110.297 33.2497C113.603 32.7728 120.027 31.8734 124.572 31.2509ZM102.475 21.0269C102.855 17.7473 102.604 15.0639 101.916 15.0639C100.034 15.0639 98.5838 23.2219 99.8716 26.5669C101.176 29.9551 101.527 29.2082 102.475 21.0269ZM233.801 16.657C233.42 15.4356 233.083 16.131 233.053 18.2023C233.022 20.2737 233.334 21.273 233.746 20.4231C234.157 19.5732 234.182 17.8784 233.801 16.657ZM189.184 16.9205C192.678 15.2275 192.309 15.154 183.925 15.87C178.966 16.2934 174.267 17.1327 173.482 17.7349C171.05 19.6004 185.165 18.8684 189.184 16.9205ZM57.7073 28.8735C51.4266 25.1528 49.1199 24.8963 52.495 28.2939C54.2481 30.0587 53.9723 30.1887 50.0796 29.4326C44.9711 28.4403 35.9433 23.7488 35.9283 22.0787C35.9117 20.2368 43.4369 10.0424 44.813 10.0424C47.0858 10.0424 50.2017 14.1494 49.7224 16.5131C49.406 18.0733 50.5805 19.254 53.3118 20.1215C55.5445 20.8307 57.7212 21.1187 58.1488 20.7615C58.5763 20.4043 56.7354 17.1402 54.0577 13.508L49.1892 6.90403L57.2041 14.3573C71.3298 27.4933 71.2318 27.3517 68.1579 30.1895C64.8929 33.2036 65.0499 33.2233 57.7073 28.8735Z" fill="#EEEEEE"/>
<path d="M132.923 253.701C132.46 253.075 133.434 252.859 135.088 253.22C138.597 253.986 139.04 254.839 135.93 254.839C134.739 254.839 133.386 254.327 132.923 253.701ZM145.076 249.655C150.934 243.432 172.895 229.627 176.689 229.782C177.363 229.81 176.079 230.665 173.835 231.683C167.528 234.542 150.855 245.351 145.552 250.018L140.786 254.212L145.076 249.655ZM122.956 247.621L119.313 244.169L123.334 247.125C125.701 248.865 128.114 249.689 129.201 249.128C130.384 248.517 130.662 248.695 129.975 249.624C128.357 251.81 126.953 251.41 122.956 247.621ZM132.085 247.879C132.085 247.734 133.099 246.911 134.339 246.052C136.167 244.784 136.593 244.835 136.593 246.317C136.593 247.322 135.579 248.144 134.339 248.144C133.099 248.144 132.085 248.025 132.085 247.879ZM126.139 237.818C126.103 237.087 127.049 235.392 128.24 234.052C129.431 232.712 130.053 230.406 129.621 228.928C128.779 226.042 131.072 224.039 133.678 225.385C134.69 225.908 134.279 226.897 132.551 228.102C130.52 229.517 130.878 229.479 133.963 227.952C136.236 226.828 138.094 226.345 138.091 226.879C138.085 228.424 126.21 239.292 126.139 237.818ZM115.773 233.812C114.133 230.611 114.171 230.537 116.283 232.797C117.536 234.137 118.562 235.69 118.562 236.249C118.562 238.157 117.542 237.266 115.773 233.812ZM71.122 232.274C71.122 230.91 72.0666 229.491 73.2212 229.121C74.6614 228.66 75.0321 229.076 74.4018 230.448C73.8966 231.548 73.4832 232.967 73.4832 233.601C73.4832 234.235 72.9519 234.754 72.3026 234.754C71.6533 234.754 71.122 233.638 71.122 232.274ZM154.624 233.652C154.624 233.046 155.638 231.847 156.878 230.988C158.575 229.811 159.132 229.794 159.132 230.919C159.132 231.811 160.949 231.333 163.64 229.732C166.119 228.257 168.148 227.351 168.148 227.718C168.148 228.581 157.295 234.754 155.778 234.754C155.143 234.754 154.624 234.258 154.624 233.652ZM60.8458 232.425C60.4091 231.835 61.9932 231.411 64.3659 231.483C66.7386 231.556 68.3685 232.039 67.9877 232.557C67.0409 233.844 61.8246 233.748 60.8458 232.425ZM78.6089 227.849C78.9798 225.778 79.786 222.996 80.4006 221.668C81.3249 219.671 81.0186 219.4 78.6276 220.102C75.8043 220.931 75.8049 220.907 78.6539 219.065C84.6522 215.186 84.9156 216.779 80.0021 227.221C78.0146 231.445 77.9606 231.469 78.6089 227.849ZM282.127 224.124C283.441 221.071 284.771 218.786 285.083 219.047C285.907 219.735 282.343 228.33 280.932 229.059C280.275 229.398 280.813 227.177 282.127 224.124ZM60.096 227.318C58.9313 226.702 56.9028 226.475 55.5882 226.812C53.8691 227.254 54.017 226.869 56.1148 225.441C57.719 224.349 61.0998 223.53 63.6278 223.621L68.2241 223.786L62.965 224.711C57.9436 225.594 58.0455 225.644 65.2189 225.82C70.6733 225.954 72.1143 226.338 70.478 227.221C67.659 228.743 62.875 228.788 60.096 227.318ZM112.844 225.338C112.875 223.267 113.211 222.572 113.592 223.793C113.973 225.014 113.948 226.709 113.537 227.559C113.125 228.409 112.813 227.41 112.844 225.338ZM159.571 225.383C160.507 223.978 161.142 222.436 160.983 221.958C160.628 220.896 168.01 215.923 169.942 215.923C170.705 215.923 170.934 216.459 170.449 217.114C169.965 217.769 172.584 217.446 176.27 216.397C181.257 214.977 183.741 214.833 185.979 215.834C189.826 217.554 193.95 217.673 190.729 215.971C188.782 214.943 188.782 214.732 190.729 214.213C203.914 210.693 204.505 213.52 191.509 217.938C186.648 219.59 182.394 220.712 182.057 220.43C181.72 220.149 182.937 219.523 184.762 219.039C187.354 218.352 187.625 217.919 186.002 217.061C183.305 215.633 181.268 215.618 182.315 217.033C183.007 217.969 175.82 221.336 173.545 221.141C173.137 221.106 170.825 222.621 168.407 224.508C165.99 226.395 162.629 227.939 160.94 227.939C158.295 227.939 158.105 227.584 159.571 225.383ZM168.82 222.093C168.336 221.439 167.299 221.234 166.517 221.639C165.734 222.043 165.489 222.909 165.973 223.563C166.457 224.217 167.493 224.421 168.276 224.017C169.059 223.613 169.303 222.747 168.82 222.093ZM181.796 228.009C183.343 226.853 192.189 223.456 192.189 224.019C192.189 224.742 183.859 228.477 182.247 228.477C181.655 228.477 181.452 228.266 181.796 228.009ZM169.65 226.782C169.65 226.492 171.424 225.284 173.592 224.097C175.76 222.91 177.074 222.56 176.513 223.318C175.441 224.768 169.65 227.69 169.65 226.782ZM273.36 225.369C272.315 224.316 272.018 223.455 272.7 223.455C273.382 223.455 271.267 221.156 268 218.346L262.061 213.236L266.569 214.12C269.048 214.607 272.213 215.829 273.602 216.835C276.322 218.807 276.696 223.443 274.137 223.475C273.28 223.486 273.574 224.019 274.789 224.662C276.005 225.304 276.609 226.156 276.13 226.556C275.652 226.955 274.406 226.421 273.36 225.369ZM195.857 221.642C197.462 220.568 201.214 219.689 204.197 219.689C207.179 219.689 210.567 218.983 211.726 218.12C213.518 216.785 213.535 216.879 211.842 218.748C210.624 220.093 207.847 220.945 204.679 220.945C201.833 220.945 198.028 221.541 196.223 222.269C193.052 223.549 193.04 223.527 195.857 221.642ZM264.145 218.748C259.36 214.328 256.262 210.902 257.051 210.902C257.39 210.902 260.211 213.444 263.32 216.551C269.526 222.753 270.08 224.231 264.145 218.748ZM117.352 218.509C119.382 215.792 121.567 215.08 121.567 217.134C121.567 217.8 120.183 218.964 118.493 219.72C115.654 220.989 115.567 220.897 117.352 218.509ZM215.62 216.697C216.247 215.332 214.727 214.432 209.968 213.348C206.388 212.533 200.91 211.084 197.794 210.128C190.54 207.904 187.322 207.962 192.189 210.23C195.737 211.884 195.57 211.94 189.184 211.253C185.465 210.853 181.989 209.97 181.459 209.291C180.923 208.605 176.769 208.316 172.095 208.639C165.244 209.114 163.998 208.915 165.344 207.56C167.698 205.19 179.167 202.742 179.854 204.463C180.147 205.199 182.874 206.159 185.913 206.597C188.952 207.035 194.819 208.134 198.951 209.038C213.832 212.295 213.949 212.297 214.292 209.278C215.518 198.48 216.448 196.945 224.3 192.764C228.886 190.321 233.53 188.798 235.765 189.005C237.831 189.195 240.198 189.415 241.024 189.494C241.851 189.572 241.358 190.206 239.929 190.901C238.5 191.597 236.972 192.133 236.532 192.093C236.093 192.053 233.692 192.902 231.197 193.98C228.702 195.058 226.019 195.608 225.234 195.203C224.449 194.797 222.372 195.107 220.619 195.891C217.848 197.13 217.546 198.079 218.305 203.167C218.816 206.591 218.676 208.015 217.967 206.6C216.779 204.226 216.736 204.226 215.657 206.576C215.023 207.955 215.231 209.158 216.145 209.413C218.153 209.972 218.237 216.771 216.248 217.797C215.41 218.23 215.137 217.75 215.62 216.697ZM115.556 210.274C117.497 208.548 119.423 207.136 119.837 207.136C120.25 207.136 119 208.548 117.059 210.274C115.118 212 113.192 213.412 112.779 213.412C112.365 213.412 113.615 212 115.556 210.274ZM249.289 208.391C246.396 207.068 244.57 205.962 245.231 205.933C246.823 205.863 255.299 209.545 255.299 210.306C255.299 211.128 255.211 211.1 249.289 208.391ZM274.833 209.226C274.833 208.189 274.38 206.355 273.826 205.149C273.14 203.655 273.379 203.246 274.578 203.865C277.881 205.571 276.394 200.793 272.647 197.663C270.132 195.562 267.281 194.582 263.685 194.582C258.717 194.582 254.169 191.293 256.103 189.098C256.487 188.662 256.341 188.595 255.779 188.95C254.683 189.641 246.283 183.417 246.283 181.914C246.283 181.419 251.862 178.04 258.68 174.405C265.498 170.77 272.435 167.068 274.096 166.178C276.258 165.019 277.752 164.935 279.355 165.88C281.226 166.983 281.161 167.084 278.965 166.494C277.519 166.105 276.336 166.334 276.336 167.003C276.336 167.672 275.683 168.219 274.885 168.219C274.088 168.219 267.612 171.357 260.495 175.193C249.751 180.984 247.862 182.475 249.357 183.981C250.348 184.978 251.922 185.786 252.853 185.775C253.833 185.764 253.674 185.294 252.477 184.66C251.338 184.057 250.898 182.899 251.499 182.087C252.315 180.984 253.221 181.059 255.072 182.383C256.437 183.359 258.647 184.479 259.984 184.873C261.321 185.266 262.744 187.03 263.147 188.792C263.551 190.554 263.349 191.721 262.699 191.385C262.049 191.049 261.092 191.349 260.573 192.051C260.011 192.811 261.532 193.326 264.342 193.326C270.128 193.326 277.735 199.188 278.064 203.901C278.187 205.68 278.357 207.795 278.439 208.6C278.522 209.406 277.744 210.3 276.711 210.588C275.678 210.875 274.833 210.263 274.833 209.226ZM132.367 206.756C132.662 205.022 133.953 203.949 135.842 203.869C137.494 203.798 140.311 203.351 142.101 202.876C143.891 202.401 145.729 202.517 146.185 203.133C147.724 205.214 143.393 208.081 137.626 208.8C132.376 209.454 131.936 209.283 132.367 206.756ZM349.963 207.023C346.727 204.812 346.663 204.643 349.504 205.803C351.317 206.543 353.217 207.711 353.725 208.398C355.081 210.231 354.17 209.898 349.963 207.023ZM290.07 203.369C290.07 202.334 290.651 200.357 291.362 198.976C292.176 197.393 292.653 197.161 292.653 198.348C292.653 199.384 292.072 201.361 291.362 202.742C290.548 204.324 290.07 204.556 290.07 203.369ZM360.482 203.61C360.482 202.709 358.916 202.439 356.265 202.881C353.314 203.374 351.398 202.926 349.879 201.386C347.883 199.362 348.039 199.256 351.842 200.047C354.394 200.578 355.974 200.399 355.974 199.578C355.974 198.848 357.446 199.396 359.245 200.797C361.045 202.197 362.059 203.726 361.499 204.193C360.94 204.661 360.482 204.398 360.482 203.61ZM137.18 202.336C138.207 200.948 148.924 195.837 150.808 195.837C151.254 195.837 151.619 196.402 151.619 197.093C151.619 197.783 150.515 198.348 149.167 198.348C147.818 198.348 144.317 199.586 141.388 201.098C138.458 202.611 136.564 203.168 137.18 202.336ZM336.509 202.176C334.637 201.187 334.62 200.562 336.386 197.804C337.52 196.034 338.727 194.819 339.068 195.104C339.409 195.389 338.953 196.77 338.054 198.173C336.742 200.222 336.94 200.978 339.059 202.009C340.511 202.715 341.023 203.302 340.196 203.312C339.37 203.323 337.711 202.811 336.509 202.176ZM132.028 200.492C133.541 198.817 133.626 197.878 132.361 196.821C130.387 195.172 122.17 194.898 117.81 196.338C115.488 197.104 115.31 197.031 117.03 196.016C118.662 195.053 117.06 194.816 111.019 195.125C104.561 195.455 104.081 195.372 108.795 194.742C114.264 194.01 114.467 193.856 111.048 193.022C108.982 192.518 104.587 192.089 101.282 192.069C97.9758 192.049 94.3686 191.555 93.2656 190.971C90.6348 189.577 105.755 190.627 112.234 192.287C115.959 193.242 117.808 193.139 119.747 191.871C121.981 190.409 122.085 190.439 120.539 192.1C119.014 193.739 119.599 194.011 124.652 194.011C128.23 194.011 131.563 194.863 133.139 196.18C135.598 198.234 135.583 198.464 132.865 200.545C130.125 202.643 130.088 202.64 132.028 200.492ZM158.381 200.859L150.868 199.998L158.381 199.82C162.513 199.722 166.908 200.189 168.148 200.859C170.762 202.27 170.697 202.27 158.381 200.859ZM224.495 200.859C222.601 200.179 222.323 199.78 223.744 199.78C224.984 199.78 227.35 200.265 229.003 200.859C230.898 201.539 231.175 201.938 229.755 201.938C228.515 201.938 226.148 201.452 224.495 200.859ZM269.963 200.765C268.524 200.064 264.862 199.226 261.824 198.901C258.611 198.557 255.42 197.259 254.195 195.797C253.036 194.415 251.466 193.606 250.706 193.998C249.931 194.398 249.77 193.717 250.338 192.45C251.265 190.386 251.099 190.353 248.443 192.071C245.784 193.791 245.701 193.774 247.483 191.869C249.656 189.547 247.534 187.511 244.549 189.053C243.4 189.646 243.225 189.392 244.031 188.303C244.988 187.01 243.993 186.822 239.38 187.424C233.999 188.127 233.754 188.039 236.428 186.365C241.03 183.484 243.213 184.126 251.027 190.654C256.22 194.992 259.949 196.987 263.856 197.517C266.887 197.928 270.403 199.13 271.67 200.189C274.313 202.397 273.725 202.596 269.963 200.765ZM81.9756 195.772C84.2185 193.898 95.4067 192.734 96.5334 194.257C97.0596 194.968 95.9129 195.232 93.7752 194.89C91.7628 194.569 87.9107 194.948 85.215 195.733C81.7202 196.751 80.7906 196.762 81.9756 195.772ZM137.457 193.855C134.213 192.863 131.172 191.727 130.698 191.331C129.468 190.303 138.017 192.18 143.355 194.109C149.446 196.311 144.833 196.113 137.457 193.855ZM352.969 194.853C352.969 194.28 351.162 193.278 348.954 192.627C345.548 191.623 346.233 191.433 353.461 191.377C361.136 191.317 361.967 191.567 361.81 193.888C361.66 196.11 361.539 196.152 360.931 194.193C360.278 192.086 359.964 192.066 356.598 193.908C354.602 195.001 352.969 195.426 352.969 194.853ZM340.196 192.071C340.707 191.381 341.761 190.816 342.539 190.816C343.317 190.816 343.953 191.381 343.953 192.071C343.953 192.762 342.899 193.326 341.61 193.326C340.322 193.326 339.686 192.762 340.196 192.071ZM77.9911 190.212C77.9911 187.78 84.5277 186.45 88.0248 188.17C90.224 189.252 89.8016 189.367 85.8798 188.754C81.9989 188.148 80.9963 188.41 80.9963 190.031C80.9963 191.153 80.3201 192.071 79.4937 192.071C78.6672 192.071 77.9911 191.235 77.9911 190.212ZM60.197 188.305C60.197 186.579 60.538 185.873 60.9549 186.736C61.3717 187.599 61.3717 189.011 60.9549 189.874C60.538 190.737 60.197 190.031 60.197 188.305ZM65.612 189.928C67.4812 189.628 70.1859 189.639 71.6225 189.953C73.0591 190.267 71.5298 190.513 68.2241 190.499C64.9184 190.485 63.7429 190.228 65.612 189.928ZM124.196 189.984C125.229 189.636 126.92 189.636 127.953 189.984C128.986 190.333 128.141 190.618 126.075 190.618C124.008 190.618 123.163 190.333 124.196 189.984ZM297.523 187.421C298.617 185.899 299.836 184.923 300.231 185.254C300.626 185.584 299.731 186.829 298.242 188.021C295.654 190.092 295.622 190.065 297.523 187.421ZM282.346 180.773C282.346 178.701 282.925 177.007 283.633 177.007C284.341 177.007 284.848 178.7 284.76 180.77C284.551 185.681 282.346 185.684 282.346 180.773ZM289.925 180.71C289.961 178.328 290.923 174.193 292.063 171.522C293.203 168.851 293.735 165.793 293.244 164.726C292.696 163.532 292.974 163.106 293.965 163.618C294.895 164.098 296.274 162.779 297.226 160.498C299.245 155.658 299.245 155.665 297.283 155.665C296.408 155.665 296.025 156.116 296.433 156.667C296.84 157.218 296.478 158.489 295.629 159.492C294.369 160.978 294.24 160.909 294.929 159.118C296.02 156.284 294.183 156.329 289.686 159.244C285.294 162.092 279.341 164.771 279.341 163.9C279.341 162.529 298.152 153.335 298.627 154.473C298.904 155.138 299.75 155.362 300.506 154.971C302.518 153.932 302.282 154.628 297.918 162.591C295.713 166.616 293.799 172.568 293.6 176.017C293.179 183.34 289.82 187.63 289.925 180.71ZM58.5758 180.826C58.5105 179.819 55.9327 176.712 52.8472 173.921L47.2374 168.847L53.7809 174.039C57.5411 177.023 59.9777 179.96 59.5094 180.944C58.8553 182.318 58.671 182.295 58.5758 180.826ZM64.5893 178.452C63.6959 177.057 62.965 174.999 62.965 173.877C62.965 172.755 62.2888 172.186 61.4624 172.613C60.6068 173.055 59.9597 171.974 59.9597 170.102C59.9597 168.231 60.6068 167.15 61.4624 167.591C62.9264 168.347 63.3007 165.507 63.6135 151.272C63.7004 147.32 64.7708 143.832 66.5026 141.856C68.7502 139.292 69.1053 139.177 68.443 141.229C65.325 150.886 64.204 165.032 65.9973 172.092C67.9866 179.924 67.3562 182.771 64.5893 178.452ZM312.022 179.941C313.056 179.593 314.746 179.593 315.779 179.941C316.812 180.29 315.967 180.575 313.901 180.575C311.835 180.575 310.989 180.29 312.022 179.941ZM301.903 177.321C301.916 176.803 302.555 175.548 303.324 174.532C305.055 172.245 307.086 173.676 305.869 176.325C304.971 178.281 301.86 179.062 301.903 177.321ZM319.449 176.693C320.223 175.83 323.175 172.61 326.007 169.537C329.438 165.816 330.284 164.231 328.54 164.79C324.676 166.029 325.353 164.123 330.136 160.294C334.325 156.941 339.445 155.776 339.445 158.176C339.445 158.867 338.6 159.44 337.567 159.451C336.098 159.466 336.107 159.692 337.609 160.488C339.008 161.23 338.528 161.889 335.843 162.911C333.814 163.683 329.319 167.453 325.852 171.288C322.386 175.124 319.21 178.262 318.795 178.262C318.38 178.262 318.674 177.556 319.449 176.693ZM333.626 162.256C335.495 160.265 335.442 160.221 333.059 161.782C331.613 162.73 330.429 163.718 330.429 163.979C330.429 165.012 331.663 164.347 333.626 162.256ZM294.367 175.312C294.367 173.998 298.803 166.964 299.632 166.964C300.478 166.964 297.242 173.436 295.584 175.061C294.915 175.717 294.367 175.83 294.367 175.312ZM71.8662 168.707C70.5524 165.906 70.7439 161.08 72.7077 147.506C74.1062 137.839 75.4139 129.791 75.6139 129.621C75.8139 129.451 75.8468 138.647 75.6871 150.058C75.5274 161.469 74.9851 171.149 74.482 171.569C73.9789 171.99 72.8018 170.702 71.8662 168.707ZM43.431 164.453L38.1719 163.528L43.0554 163.363C45.7413 163.272 48.4291 163.155 49.0283 163.104C49.6274 163.052 50.3599 163.617 50.6561 164.359C51.2391 165.82 51.207 165.821 43.431 164.453ZM60.3084 161.942C60.3084 159.526 60.6176 158.537 60.9955 159.745C61.3735 160.954 61.3735 162.931 60.9955 164.139C60.6176 165.347 60.3084 164.359 60.3084 161.942ZM300.645 165.076C300.911 164.382 302.819 160.194 304.885 155.768C308.243 148.576 309.552 147.243 317.214 143.22C326.396 138.398 327.916 136.685 322.591 137.164C319.933 137.402 318.865 136.476 317.3 132.573C316.221 129.884 315.644 127.428 316.018 127.116C316.392 126.803 317.511 128.815 318.504 131.585C320.247 136.444 320.504 136.601 325.746 136.019L331.181 135.415L325.922 139.335C323.029 141.491 318.127 144.456 315.028 145.925C311.929 147.394 309.393 149.09 309.393 149.694C309.393 150.298 310.035 150.461 310.82 150.055C311.605 149.65 312.948 150.412 313.804 151.748C315.01 153.631 314.7 154.838 312.426 157.118C310.813 158.736 309.47 159.627 309.443 159.098C309.415 158.569 307.316 159.981 304.777 162.236C302.239 164.491 300.379 165.769 300.645 165.076ZM33.6023 156.837C33.0575 156.101 32.9341 155.229 33.328 154.9C33.7219 154.571 34.4445 155.174 34.9339 156.239C35.9499 158.451 35.0839 158.84 33.6023 156.837ZM44.2613 156.012C43.6385 154.657 44.2467 153.25 45.8904 152.246C48.3397 150.75 49.6898 150.452 55.4519 150.139C56.9532 150.057 58.0068 148.13 58.6071 144.367L59.5084 138.718L59.7341 143.964C60.0077 150.323 57.2682 153.054 51.4046 152.268C47.9723 151.808 47.607 151.975 49.4415 153.165C51.3062 154.375 51.101 154.519 48.2528 153.995C45.4017 153.472 44.9673 153.776 45.7245 155.77C46.8614 158.762 45.6191 158.969 44.2613 156.012ZM348.754 151.272C348.784 149.2 349.121 148.505 349.502 149.726C349.883 150.948 349.858 152.643 349.446 153.492C349.035 154.342 348.723 153.343 348.754 151.272ZM34.4559 151.231C35.9682 149.708 44.9336 146.465 44.9336 147.44C44.9336 147.677 42.2079 148.998 38.8765 150.375C35.4939 151.773 33.542 152.151 34.4559 151.231ZM301.129 151.899C301.639 151.209 302.355 150.644 302.72 150.644C303.084 150.644 303.382 151.209 303.382 151.899C303.382 152.59 302.666 153.155 301.791 153.155C300.916 153.155 300.618 152.59 301.129 151.899ZM76.7814 146.25C76.812 144.179 77.1488 143.483 77.5297 144.705C77.9107 145.926 77.8857 147.621 77.4741 148.471C77.0625 149.321 76.7508 148.322 76.7814 146.25ZM46.6735 143.112C46.6735 141.386 47.0146 140.68 47.4314 141.543C47.8482 142.406 47.8482 143.818 47.4314 144.681C47.0146 145.544 46.6735 144.838 46.6735 143.112ZM340.476 144.346C334.929 142.955 331.91 140.777 332.027 138.25C332.094 136.821 332.518 137.028 333.44 138.938C334.303 140.726 337.251 142.305 341.985 143.515C345.96 144.53 348.198 145.371 346.958 145.384C345.718 145.397 342.802 144.93 340.476 144.346ZM56.3504 139.346C56.8911 137.62 57.5152 129.84 57.7372 122.058C58.126 108.426 59.5666 103.889 63.2969 104.549C64.1474 104.7 65.1845 104.038 65.6016 103.079C66.0188 102.12 65.7065 101.673 64.9078 102.085C62.5855 103.284 63.7144 95.9576 66.7061 90.4149C68.2052 87.6374 69.9134 85.3649 70.5021 85.3649C71.0907 85.3649 72.7948 82.6907 74.2889 79.4222C75.783 76.1536 77.2683 74.1381 77.5895 74.9433C77.9108 75.7484 77.1217 78.1066 75.836 80.1837C72.6433 85.3419 65.9744 100.851 66.6915 101.45C67.0111 101.717 69.2408 98.6839 71.6465 94.7093C74.2722 90.371 76.4496 88.0629 77.0944 88.9345C77.6851 89.7331 77.4068 90.3864 76.4759 90.3864C75.4406 90.3864 75.1526 91.4833 75.7343 93.211C76.4788 95.4221 76.3426 95.6266 75.1073 94.1525C73.7141 92.4901 73.5266 92.4974 73.5062 94.2153C73.4937 95.2855 74.3284 96.953 75.3615 97.9208C76.9408 99.4005 76.8498 99.4358 74.7894 98.1425C72.6865 96.8224 71.6524 97.4984 67.4954 102.911C62.443 109.489 60.9146 110.741 62.482 107.02C63.2023 105.31 62.9906 105.144 61.5265 106.272C60.2756 107.236 59.5334 112.491 59.3102 121.964C59.1243 129.854 58.17 137.607 57.1709 139.346L55.3671 142.484L56.3504 139.346ZM43.6683 136.835C43.6683 135.109 44.0093 134.403 44.4262 135.266C44.843 136.129 44.843 137.541 44.4262 138.404C44.0093 139.267 43.6683 138.561 43.6683 136.835ZM331.181 134.324C328.313 133.295 328.33 133.241 331.556 133.157C333.416 133.109 334.937 133.634 334.937 134.324C334.937 135.015 334.768 135.54 334.562 135.491C334.355 135.443 332.834 134.918 331.181 134.324ZM325.109 131.73C324.564 130.994 324.44 130.122 324.834 129.793C325.228 129.464 325.951 130.066 326.44 131.132C327.456 133.344 326.59 133.733 325.109 131.73ZM61.8924 122.243C61.9421 117.495 62.258 114.928 62.5944 116.537C63.1749 119.315 63.3123 119.347 65.2916 117.165C67.1887 115.074 67.3815 115.298 67.425 119.648C67.4538 122.524 66.8742 124.12 65.9702 123.654C65.1437 123.227 64.4572 123.9 64.4446 125.149C64.432 126.398 63.8322 128.197 63.1118 129.147C62.2979 130.221 61.8363 127.607 61.8924 122.243ZM9.34717 127.85C10.7817 127.179 15.1494 126.148 19.0532 125.559C22.957 124.97 27.8415 124.139 29.9075 123.711C31.9736 123.284 30.6274 124.015 26.916 125.335C23.2045 126.656 19.2056 127.428 18.0295 127.051C16.8533 126.674 16.2979 126.915 16.7951 127.588C17.3128 128.287 15.3572 128.865 12.2191 128.939C7.93137 129.041 7.30649 128.804 9.34717 127.85ZM1.39989 126.207C0.394136 125.194 -0.0801274 123.641 0.345977 122.754C0.844922 121.717 1.16294 121.903 1.23934 123.277C1.30459 124.451 2.54127 125.988 3.98753 126.691C5.43379 127.395 5.85468 127.988 4.92283 128.009C3.99097 128.03 2.40566 127.219 1.39989 126.207ZM76.8674 123.654C76.8841 120.892 77.1918 119.91 77.5512 121.471C77.9106 123.033 77.897 125.293 77.5209 126.493C77.1448 127.693 76.8507 126.415 76.8674 123.654ZM48.9249 122.398C49.4283 119.636 50.0885 117.141 50.3921 116.854C51.5303 115.775 50.6782 122.499 49.3713 124.909C48.4224 126.659 48.2871 125.898 48.9249 122.398ZM312.398 121.143C311.407 118.634 310.882 116.342 311.231 116.05C311.58 115.759 314.183 115.233 317.016 114.883L322.165 114.247L317.367 115.515C312.806 116.721 312.648 116.972 314.16 120.597C315.035 122.694 315.402 124.701 314.976 125.057C314.549 125.413 313.389 123.652 312.398 121.143ZM321.056 123.274C320.582 121.758 320.759 120.225 321.451 119.868C323.363 118.881 324.172 120.847 322.981 123.586C321.97 125.911 321.877 125.895 321.056 123.274ZM7.88641 123.193C10.3738 122.376 10.2581 122.13 6.75946 120.798C4.61507 119.982 2.86058 118.763 2.86058 118.089C2.86058 117.416 5.13236 118.11 7.90899 119.631C12.8101 122.318 12.5703 124.333 7.3684 124.174C5.78411 124.125 5.93801 123.834 7.88641 123.193ZM34.534 121.038C34.6061 119.576 34.9622 119.278 35.4418 120.28C35.8759 121.186 35.8225 122.269 35.3232 122.686C34.8239 123.103 34.4688 122.362 34.534 121.038ZM330.651 122.185C332.012 121.883 333.457 120.678 333.861 119.507C334.266 118.335 335.083 116.388 335.679 115.18C336.41 113.696 336.071 112.983 334.634 112.983C333.464 112.983 331.194 112.137 329.59 111.104C326.98 109.422 327.226 109.411 331.932 110.997C334.825 111.971 337.134 113.241 337.064 113.818C336.344 119.738 334.286 123.013 331.369 122.88C329.07 122.775 328.869 122.581 330.651 122.185ZM328.158 118.716C326.188 117.472 325.873 116.815 327.234 116.789C328.368 116.767 323.338 111.241 316.054 104.509C308.771 97.7774 300.742 90.3487 298.213 88.001C295.685 85.6533 294.63 84.1904 295.869 84.75C297.206 85.3532 297.614 85.3022 296.871 84.6247C296.182 83.9961 295.168 83.4651 294.617 83.4447C293.275 83.3949 246.283 43.2357 246.283 42.1389C246.283 41.6659 246.96 41.628 247.786 42.0548C248.612 42.4815 249.237 42.3736 249.174 41.815C249.11 41.2564 242.707 36.2801 234.944 30.7565C227.181 25.2329 220.809 20.3978 220.784 20.0119C220.759 19.6261 221.764 18.2138 223.016 16.8735C225.197 14.5388 225.257 14.5701 224.436 17.6203C223.761 20.1318 224.628 21.5839 228.545 24.499C231.277 26.5314 235.925 30.0155 238.875 32.2415L244.239 36.2888L243.88 29.7565C243.5 22.844 246.05 18.7574 250.648 18.9101C252.208 18.9618 251.865 19.386 249.664 20.125C247.805 20.7494 246.283 21.5442 246.283 21.8912C246.283 22.2383 248 25.6573 250.098 29.4891C252.92 34.644 253.523 37.0208 252.417 38.6277C251.188 40.413 252.715 42.1714 260.999 48.5098C266.542 52.7505 270.567 56.6601 269.944 57.1977C269.32 57.7353 267.123 56.8505 265.06 55.2315C258.679 50.2231 260.912 52.9924 269.574 60.8299C274.119 64.9422 277.838 67.6255 277.838 66.7929C277.838 65.1236 286.496 64.7282 289.389 66.2654C291.41 67.3388 294.367 73.2361 294.367 76.1929C294.367 77.3721 292.073 75.9963 288.621 72.7464C283.813 68.2194 282.712 67.6918 281.877 69.5117C281.208 70.9675 281.445 71.3932 282.595 70.7994C283.726 70.2158 283.897 70.4744 283.097 71.5559C282.35 72.5665 282.472 72.8942 283.416 72.4071C285.131 71.5213 290.293 75.6776 289.111 76.9931C288.696 77.4549 288.809 77.549 289.361 77.2023C289.914 76.8556 291.721 77.5617 293.376 78.7715C295.149 80.0671 295.876 80.2465 295.144 79.208C294.303 78.0139 294.466 77.7357 295.648 78.3461C297.865 79.4906 302.036 86.161 301.519 87.735C301.304 88.3898 308.108 95.4887 316.637 103.51C325.167 111.532 331.921 118.659 331.646 119.349C331.358 120.07 329.877 119.801 328.158 118.716ZM16.3841 116.894C12.6651 115.734 9.62232 114.077 9.62232 113.211C9.62232 112.345 8.60806 111.1 7.3684 110.446C6.12875 109.791 5.79067 109.25 6.6171 109.244C7.44354 109.238 10.1482 110.356 12.6275 111.728C15.1068 113.099 18.6568 114.226 20.5162 114.23C22.3757 114.235 23.8971 114.475 23.8971 114.763C23.8971 115.052 24.3075 116.182 24.8092 117.274C25.903 119.656 25.1308 119.621 16.3841 116.894ZM31.4102 116.749C29.484 115.709 29.5386 115.529 31.7858 115.513C33.2321 115.502 34.4154 116.059 34.4154 116.749C34.4154 118.28 34.2459 118.28 31.4102 116.749ZM1.47659 113.506C1.5487 112.044 1.90475 111.746 2.38442 112.748C2.81848 113.654 2.7651 114.737 2.26579 115.154C1.76648 115.571 1.41135 114.83 1.47659 113.506ZM51.2927 110.472C51.2927 108.056 51.6019 107.067 51.9799 108.275C52.3578 109.484 52.3578 111.461 51.9799 112.669C51.6019 113.877 51.2927 112.889 51.2927 110.472ZM320.52 103.882L317.657 101.057L321.038 103.448C324.215 105.696 325.103 106.706 323.901 106.706C323.615 106.706 322.094 105.435 320.52 103.882ZM52.6839 100.429C52.6839 98.7032 53.025 97.9971 53.4418 98.8601C53.8587 99.7232 53.8587 101.135 53.4418 101.999C53.025 102.862 52.6839 102.155 52.6839 100.429ZM314.249 96.9771C310.359 92.2833 309.095 90.3864 309.856 90.3864C310.208 90.3864 312.286 92.6461 314.474 95.4079C318.92 101.021 318.726 102.378 314.249 96.9771ZM56.9499 93.211C58.9161 90.967 60.7596 89.131 61.0465 89.131C62.1876 89.131 58.462 93.8393 55.998 95.5111C54.3748 96.6125 54.7377 95.7356 56.9499 93.211ZM306.388 86.6203C305.503 85.2394 305.117 84.1096 305.531 84.1096C305.944 84.1096 307.006 85.2394 307.89 86.6203C308.775 88.0012 309.161 89.131 308.747 89.131C308.334 89.131 307.272 88.0012 306.388 86.6203ZM63.7163 84.1096C64.9984 82.0382 66.3854 80.3435 66.7987 80.3435C67.2119 80.3435 66.501 82.0382 65.2189 84.1096C63.9368 86.1809 62.5497 87.8757 62.1365 87.8757C61.7233 87.8757 62.4342 86.1809 63.7163 84.1096ZM334.54 83.3591C334.046 82.9464 334.06 81.6754 334.571 80.5346C335.384 78.7202 335.178 78.6794 332.928 80.2085C331.514 81.17 329.903 81.5773 329.348 81.1137C326.667 78.8737 328.352 76.1742 335.45 71.3377C339.713 68.4326 344.435 65.1906 345.942 64.1333C348.093 62.6247 348.578 62.5826 348.196 63.9377C347.82 65.2738 349.664 65.6001 356.35 65.3806C364.341 65.1183 367.376 66.4095 363.487 68.4175C362.661 68.8442 361.984 70.2565 361.984 71.5559C361.984 74.197 360.041 75.5273 355.366 76.0864C353.634 76.2935 350.527 76.853 348.461 77.3298L344.704 78.1966L348.315 75.5039C352.086 72.6916 355.974 71.942 355.974 74.0272C355.974 74.696 356.988 74.918 358.228 74.5206C359.467 74.1232 360.482 72.8416 360.482 71.6727C360.482 70.5037 361.293 68.8694 362.285 68.0409C363.687 66.8692 362.664 66.5344 357.678 66.5344C354.153 66.5344 349.961 67.1192 348.362 67.834C346.309 68.7518 345.456 68.7289 345.456 67.756C345.456 66.9983 342.464 68.1734 338.807 70.3672C332.506 74.148 330.976 77.8327 335.709 77.8327C336.921 77.8327 337.363 78.784 336.875 80.3435C335.933 83.3552 336.463 83.4043 343.481 80.9547C346.473 79.9099 349.185 79.2743 349.505 79.5422C350.124 80.059 338.732 84.1096 336.66 84.1096C335.988 84.1096 335.034 83.7719 334.54 83.3591ZM332.683 79.0881C333.194 78.3976 332.896 77.8327 332.021 77.8327C331.146 77.8327 330.429 78.3976 330.429 79.0881C330.429 79.7785 330.728 80.3435 331.092 80.3435C331.457 80.3435 332.173 79.7785 332.683 79.0881ZM65.2321 68.6106C63.2933 66.1383 63.1145 64.8806 64.4136 62.8525C65.3279 61.4253 66.414 60.2576 66.8272 60.2576C67.2404 60.2576 66.8246 61.4344 65.9033 62.8728C64.5662 64.96 64.7559 65.9752 66.8429 67.9019C68.2811 69.2296 69.0652 70.6439 68.5854 71.0448C68.1055 71.4457 66.5966 70.3503 65.2321 68.6106ZM75.5482 66.2206C76.0934 64.8048 75.6095 64.0237 74.1874 64.0237C72.9737 64.0237 71.9806 63.1763 71.9806 62.1406C71.9806 59.5693 73.9011 59.7735 75.9891 62.5668C77.1626 64.1367 77.2329 65.443 76.2088 66.6467C75.0149 68.0501 74.8778 67.9617 75.5482 66.2206ZM78.7424 58.7773C80.3952 57.7932 86.6535 55.373 92.6497 53.399C103.267 49.9038 107.003 47.2661 97.358 50.0752C94.7025 50.8486 92.2561 51.2526 91.9215 50.9731C91.1647 50.3408 99.3003 48.225 107.292 46.9758C111.362 46.3397 112.346 45.8533 110.342 45.4694C108.28 45.0747 110.312 43.982 117.03 41.872C122.337 40.2052 127.531 39.1146 128.572 39.4485C129.614 39.7824 137.362 37.5358 145.791 34.4561C154.219 31.3763 161.356 29.0576 161.65 29.3034C162.947 30.3865 130.419 41.2959 128.105 40.554C126.526 40.0477 125.949 40.2423 126.565 41.0741C127.164 41.8842 118.312 45.7028 103.896 50.8525C76.6959 60.5698 74.648 61.215 78.7424 58.7773ZM69.741 57.969C71.0804 56.9477 73.138 56.2498 83.2502 53.3867C85.9085 52.634 85.9563 52.6968 83.6646 53.9302C80.13 55.8326 67.8845 59.3846 69.741 57.969ZM297.431 57.1786C295.743 55.4795 296.23 55.2544 301.32 55.3817C304.625 55.4644 305.84 55.7984 304.134 56.1547C302.481 56.4997 300.731 57.3082 300.245 57.9515C299.758 58.5948 298.492 58.247 297.431 57.1786ZM285.865 51.1198C285.169 50.1331 283.035 48.639 281.122 47.7996C278.339 46.5783 277.998 45.9176 279.414 44.4918C281.628 42.2626 283.231 43.0647 286.224 47.9002C288.574 51.6976 288.26 54.5172 285.865 51.1198ZM301.161 47.526C301.355 46.3925 299.878 43.9916 297.879 42.1907C295.881 40.3898 295.054 38.9163 296.042 38.9163C297.11 38.9163 296.678 37.8031 294.975 36.1683C292.117 33.424 292.12 33.4241 296.996 36.2538C301.673 38.9672 303.911 41.3122 300.002 39.4023C298.969 38.8977 299.426 39.7251 301.018 41.241C302.959 43.089 304.258 43.5296 304.962 42.5781C305.726 41.5463 306.293 41.5382 307.04 42.5484C307.605 43.3126 307.279 43.9378 306.316 43.9378C305.322 43.9378 304.966 44.8132 305.493 45.9606C306.145 47.3802 305.773 47.7753 304.245 47.2856C303.048 46.9018 301.785 47.2625 301.438 48.0873C301.092 48.9121 300.967 48.6595 301.161 47.526ZM290.332 47.4204C284.699 41.2403 281.063 34.0221 282.042 30.9634L283.101 27.6535L287.607 30.8439C291.526 33.6186 291.599 33.7744 288.169 32.04C284.324 30.0961 284.224 30.1255 284.224 33.2027C284.224 35.0783 284.862 36.0307 285.794 35.5491C286.764 35.0486 286.997 35.5378 286.405 36.8274C285.877 37.9763 285.975 38.9164 286.623 38.9164C287.27 38.9164 288.968 40.9635 290.396 43.4656C293.031 48.0808 292.994 50.3409 290.332 47.4204ZM308.738 46.8165C307.923 45.0274 308.095 44.8832 309.579 46.1138C310.606 46.9653 311.068 47.9783 310.605 48.3648C310.143 48.7513 309.302 48.0546 308.738 46.8165ZM97.5073 41.1132C93.6434 35.8209 92.574 30.4355 94.4538 25.735C95.8263 22.3028 95.8871 22.4278 95.1399 27.1449C94.2366 32.8478 97.438 40.9922 101.618 43.624C103.064 44.5345 103.349 45.1932 102.298 45.1932C101.301 45.1932 99.1456 43.3572 97.5073 41.1132ZM60.9787 31.698C58.8839 29.9484 58.0998 29.8371 57.1272 31.1513C56.1324 32.4957 54.9588 32.435 50.7955 30.8243C47.0839 29.3883 46.6919 29.0081 49.3633 29.4354C51.3864 29.759 53.8264 29.4795 54.7857 28.8145C55.9584 28.0013 57.8537 28.4753 60.5718 30.2616C64.5223 32.8577 64.6853 32.865 67.7588 30.5818C70.873 28.2686 70.8834 28.2734 68.8268 31.0703C66.3285 34.4679 64.4727 34.6163 60.9787 31.698ZM108.431 32.192C120.412 26.6271 140.354 23.549 137.251 27.7437C136.538 28.7081 137.325 28.8573 139.786 28.2243C141.748 27.7193 142.852 27.7494 142.237 28.2911C141.622 28.8329 139.256 29.4659 136.978 29.6979C132.872 30.116 121.868 31.5811 110.297 33.2501L104.287 34.1171L108.431 32.192ZM241.894 29.3965C241.966 27.9341 242.322 27.6366 242.802 28.638C243.236 29.5443 243.183 30.627 242.683 31.0442C242.184 31.4613 241.829 30.7199 241.894 29.3965ZM38.5476 25.9565C33.8077 22.7143 33.5245 21.5186 36.6937 18.1289C38.8058 15.8698 38.8428 15.9443 37.2009 19.1496C36.2268 21.0513 35.7087 22.7821 36.0496 22.996C43.3736 27.5907 45.1139 28.8658 44.0093 28.8283C43.278 28.8034 40.8202 27.5112 38.5476 25.9565ZM51.9458 28.0365C51.3949 27.5762 50.9441 26.6158 50.9441 25.9024C50.9441 25.1158 51.644 25.1899 52.7222 26.0907C53.7001 26.9077 54.1509 27.8681 53.7239 28.2248C53.2969 28.5815 52.4968 28.4968 51.9458 28.0365ZM100.043 26.3627C98.5598 21.9 99.765 13.9103 102.232 11.8489C103.384 10.8865 106.685 9.8058 109.566 9.4475L114.805 8.79605L109.546 10.1603C103.368 11.763 99.8498 13.9114 101.697 14.9536C102.417 15.3597 102.574 18.7991 102.046 22.5966C101.278 28.1193 100.877 28.873 100.043 26.3627ZM170.402 25.7978C174.534 24.1219 178.591 22.741 179.417 22.7291C181.683 22.6966 170.952 27.186 166.645 28.0721C164.579 28.4971 166.269 27.4737 170.402 25.7978ZM63.8403 20.6401C56.6837 13.7145 53.6031 12.3433 56.9545 17.5751C59.2091 21.0947 58.3234 21.7139 53.3117 20.122C50.5422 19.2422 49.4016 18.0773 49.7225 16.4561C49.9811 15.1491 48.8404 12.7918 47.1876 11.2178C45.5347 9.6438 45.0276 8.76886 46.0606 9.27352C47.2297 9.84463 47.9389 9.45211 47.9389 8.23395C47.9389 7.15752 48.4798 6.27681 49.1409 6.27681C51.3125 6.27681 53.7295 9.06075 52.9781 10.6966C52.5732 11.5783 53.0686 12.7266 54.079 13.2483C55.3496 13.9044 55.5448 13.6532 54.712 12.4338C52.8921 9.7692 65.7829 20.2053 69.2036 24.1658C74.0157 29.7373 71.6005 28.1496 63.8403 20.6401ZM238.316 22.6781C236.913 20.6941 235.765 18.3323 235.765 17.4298C235.765 16.5273 237.107 17.9882 238.748 20.6763C242.274 26.4549 241.973 27.8505 238.316 22.6781ZM264.315 23.8519C261.568 22.369 263.94 22.369 268.071 23.8519C270.053 24.5633 270.309 24.9544 268.822 24.9999C267.583 25.0378 265.554 24.5213 264.315 23.8519ZM189.935 18.7846C194.894 16.8065 199.627 15.2087 200.454 15.2339C201.28 15.2592 197.899 16.8983 192.941 18.8764C187.982 20.8545 183.249 22.4523 182.422 22.427C181.596 22.4018 184.977 20.7627 189.935 18.7846ZM233.053 18.2028C233.083 16.1314 233.42 15.436 233.801 16.6575C234.182 17.8789 234.157 19.5737 233.746 20.4236C233.334 21.2735 233.022 20.2741 233.053 18.2028ZM149.804 17.6694C145.913 17.2153 142.477 16.5846 142.167 16.2679C141.858 15.9512 142.556 14.2798 143.719 12.5536L145.833 9.41522L145.178 12.8675C144.547 16.192 144.779 16.3271 151.452 16.5175C160.293 16.7698 160.263 16.7711 167.396 15.8595C172.771 15.1728 172.612 15.2868 165.894 16.9368C161.762 17.9517 158.043 18.7175 157.629 18.6385C157.216 18.5596 153.695 18.1235 149.804 17.6694ZM173.482 17.7354C174.267 17.1331 178.966 16.2939 183.925 15.8704C192.309 15.1544 192.678 15.228 189.184 16.921C185.165 18.8688 171.05 19.6009 173.482 17.7354ZM40.4258 12.5536C41.3104 11.1727 42.3722 10.0429 42.7855 10.0429C43.1987 10.0429 42.813 11.1727 41.9284 12.5536C41.0438 13.9345 39.982 15.0644 39.5688 15.0644C39.1556 15.0644 39.5412 13.9345 40.4258 12.5536ZM205.713 13.1813C207.779 12.1946 210.146 11.3872 210.972 11.3872C211.798 11.3872 210.784 12.1946 208.718 13.1813C206.652 14.1681 204.285 14.9754 203.459 14.9754C202.633 14.9754 203.647 14.1681 205.713 13.1813ZM235.86 13.6342C235.808 12.5024 236.948 10.4986 238.395 9.18129C239.841 7.86397 240.544 7.40813 239.958 8.16832C239.371 8.92851 238.231 10.9323 237.424 12.6213C236.495 14.5627 235.921 14.9352 235.86 13.6342ZM189.184 12.7654C190.424 12.1255 193.129 11.2242 195.195 10.7625C197.805 10.1791 198.264 10.2779 196.697 11.0865C195.458 11.7264 192.753 12.6277 190.687 13.0894C188.076 13.6728 187.618 13.574 189.184 12.7654ZM214.729 10.0429C215.968 9.3736 217.659 8.82599 218.485 8.82599C219.311 8.82599 218.973 9.3736 217.734 10.0429C216.494 10.7122 214.804 11.2598 213.977 11.2598C213.151 11.2598 213.489 10.7122 214.729 10.0429ZM227.591 9.10928C228.289 6.81612 227.942 6.42542 225.721 7.00718C223.107 7.69196 223.107 7.66066 225.736 6.25652C229.388 4.30515 230.634 5.59157 228.481 9.08936L226.734 11.926L227.591 9.10928ZM119.782 7.92999C120.867 7.56735 122.163 7.61195 122.662 8.0291C123.162 8.44625 122.274 8.74295 120.69 8.68844C118.94 8.6282 118.584 8.33073 119.782 7.92999ZM130.207 7.95614C131.24 7.60789 132.93 7.60789 133.963 7.95614C134.996 8.30439 134.151 8.58933 132.085 8.58933C130.019 8.58933 129.174 8.30439 130.207 7.95614ZM208.718 6.4886C209.958 5.8487 212.662 4.94738 214.729 4.48567C217.339 3.90224 217.798 4.00106 216.231 4.80965C214.991 5.44955 212.287 6.35087 210.221 6.81258C207.61 7.39601 207.152 7.2972 208.718 6.4886ZM243.086 3.45223C244.985 1.42933 244.569 1.23797 237.827 1.03602L230.506 0.816696L237.096 0.327821C244.761 -0.240735 247.643 1.3065 243.717 3.88205C241.263 5.49275 241.207 5.45471 243.086 3.45223Z" fill="#535353"/>
<path d="M130.582 254.932C130.582 254.292 129.545 253.586 128.278 253.362C126.441 253.039 126.594 252.636 129.029 251.377C131.699 249.997 132.085 250.102 132.085 252.214C132.085 253.543 132.93 254.915 133.963 255.263C135.085 255.642 134.783 255.937 133.212 255.996C131.766 256.05 130.582 255.571 130.582 254.932ZM142.008 253.613C143.746 253.026 146.451 251.127 148.018 249.394C153.17 243.696 168.018 234.645 180.587 229.541C187.382 226.782 194.631 223.728 196.697 222.753C198.763 221.779 202.82 220.934 205.713 220.875C215.598 220.674 216.84 219.632 218.489 210.148L219.995 201.486L224.912 201.809C227.616 201.987 232.009 202.922 234.675 203.887L239.522 205.643L234.154 205.006C228.823 204.373 228.764 204.417 225.514 211.513C223.714 215.442 222.242 219.316 222.242 220.122C222.242 222.278 214.58 224.742 203.982 225.993C194.92 227.063 194.319 227.377 182.499 237.201C170.924 246.821 165.142 249.56 165.142 245.424C165.142 242.864 163.127 243.058 160.031 245.916C158.522 247.309 156.269 248.03 154.58 247.661C152.628 247.235 150.437 248.288 147.77 250.936C145.608 253.083 142.716 254.804 141.343 254.76C139.475 254.7 139.642 254.412 142.008 253.613ZM120.807 248.555C119.307 247.17 118.434 245.74 118.868 245.377C119.302 245.015 120.779 246.148 122.149 247.896C125.144 251.714 124.547 252.007 120.807 248.555ZM117.178 241.554C117.25 240.091 117.606 239.794 118.085 240.795C118.52 241.701 118.466 242.784 117.967 243.201C117.467 243.618 117.112 242.877 117.178 241.554ZM68.9755 234.126C68.9755 233.09 69.2412 232.243 69.566 232.243C69.8908 232.243 70.5458 233.09 71.0215 234.126C71.4972 235.162 71.2314 236.009 70.4309 236.009C69.6304 236.009 68.9755 235.162 68.9755 234.126ZM60.7218 233.513C60.1953 232.801 60.7985 232.591 62.1357 233.019C64.7388 233.854 65.2151 234.754 63.0537 234.754C62.2761 234.754 61.2267 234.195 60.7218 233.513ZM272.579 227.085C268.447 224.297 263.019 220.119 260.517 217.8C258.015 215.481 252.943 212.079 249.247 210.24C245.551 208.4 243.766 207.232 245.279 207.643C246.793 208.054 248.617 208.391 249.333 208.391C250.049 208.391 256.79 213.193 264.315 219.062C271.839 224.93 278.912 229.732 280.031 229.732C281.727 229.732 288.599 213.83 293.865 197.72C294.317 196.339 296.741 191.67 299.252 187.344L303.818 179.479L310.823 180.256L317.829 181.032L324.964 172.912C328.889 168.446 333.908 164.104 336.119 163.262C340.018 161.778 340.061 161.804 337.538 164.133C336.056 165.501 334.937 168.537 334.937 171.191C334.937 174.866 333.708 176.949 329.112 181.066C323.624 185.981 322.719 186.314 313.479 186.805L303.671 187.327L298.875 204.45C293.01 225.392 291.832 228.116 289.487 226.157C286.829 223.936 285.781 224.385 284.074 228.477C283.21 230.548 281.96 232.223 281.297 232.198C280.634 232.173 276.711 229.872 272.579 227.085ZM54.5579 228.163L51.6955 225.338L55.0763 227.73C58.2535 229.977 59.1413 230.988 57.9388 230.988C57.6537 230.988 56.1323 229.716 54.5579 228.163ZM111.286 225.966C111.286 224.24 111.627 223.534 112.044 224.397C112.461 225.26 112.461 226.672 112.044 227.535C111.627 228.398 111.286 227.692 111.286 225.966ZM61.0868 222.624C62.1198 222.276 63.8103 222.276 64.8433 222.624C65.8763 222.972 65.0311 223.257 62.965 223.257C60.8989 223.257 60.0537 222.972 61.0868 222.624ZM172.656 222.962C172.656 222.691 173.705 222.132 174.987 221.721C176.325 221.292 176.928 221.503 176.401 222.214C175.519 223.407 172.656 223.979 172.656 222.962ZM111.549 220.317C111.549 219.281 112.534 218.434 113.737 218.434C115.511 218.434 115.571 218.79 114.054 220.317C113.025 221.353 112.041 222.2 111.866 222.2C111.692 222.2 111.549 221.353 111.549 220.317ZM112.551 210.976C112.551 210.326 113.22 209.449 114.037 209.028C114.888 208.588 115.14 209.092 114.627 210.209C113.628 212.384 112.551 212.782 112.551 210.976ZM202.708 209.383C197.336 208.047 190.912 206.642 188.433 206.26C185.954 205.877 183.249 205.168 182.423 204.683C180.067 203.301 167.939 199.881 162.137 198.962C159.245 198.504 154.173 197.068 150.868 195.772C147.562 194.475 140.264 192.41 134.65 191.182C125.267 189.129 124.107 189.11 120.288 190.941C117.556 192.251 115.023 192.589 112.888 191.93C111.103 191.378 106.409 190.641 102.457 190.291C98.5048 189.942 92.3525 188.777 88.7852 187.702C85.218 186.628 81.6681 186.075 80.8965 186.474C80.0472 186.912 79.4937 178.047 79.4937 164.004C79.4937 147.319 78.997 140.672 77.7234 140.317C76.3647 139.939 76.3651 137.36 77.7252 129.228C79.6768 117.561 80.1575 82.8344 78.3668 82.888C77.7469 82.9066 75.2793 86.5882 72.8831 91.0695C70.4869 95.5508 68.2984 99.0268 68.0197 98.794C67.741 98.5612 69.9761 93.6084 72.9864 87.7879C79.3676 75.4498 81.1341 65.6198 77.3819 63.3277C75.2926 62.0513 76.0769 61.4342 82.8531 59.0236C87.2037 57.4758 93.468 55.2016 96.7737 53.9698C100.079 52.738 107.179 50.2075 112.551 48.3464C117.923 46.4854 129.756 42.2643 138.847 38.9662C147.938 35.6681 161.123 30.9406 168.148 28.4606C175.172 25.9806 191.037 20.2571 203.403 15.7418C215.769 11.2265 226.418 7.5322 227.069 7.5322C227.719 7.5322 226.392 10.3924 224.119 13.8883L219.988 20.2443L231.257 28.8808C237.456 33.6309 242.527 38.0708 242.527 38.7473C242.527 39.4237 254.057 50.0482 268.15 62.3572C289.642 81.1293 309.924 99.5624 325.064 114.084L328.176 117.069L323.668 115.212C320.476 113.898 317.777 113.669 314.425 114.429L309.69 115.501L311.684 120.833C317.283 135.806 318.639 138.09 321.931 138.097C324.284 138.101 322.806 139.378 316.528 142.763C311.775 145.326 307.482 148.487 306.988 149.788C306.393 151.352 305.585 151.731 304.598 150.906C303.611 150.081 299.976 151.377 293.853 154.735C279.139 162.805 261.223 172.501 252.669 177.024C248.331 179.319 244.785 181.524 244.79 181.926C244.796 182.327 248.452 185.622 252.917 189.247C259.622 194.69 261.965 195.837 266.378 195.837C270.124 195.837 272.187 196.564 273.278 198.265C275.634 201.944 275.156 202.384 271.828 199.603C270.112 198.17 266.819 197.093 264.154 197.093C260.495 197.093 257.962 195.736 252.433 190.816C247.653 186.562 244.193 184.546 241.699 184.561C239.675 184.574 232.779 187.391 226.374 190.821C215.907 196.428 214.711 197.474 214.551 201.156C214.453 203.409 213.946 206.728 213.424 208.532L212.475 211.812L202.708 209.383ZM90.9535 205.067L91.9521 201.742L84.2491 202.596C78.0198 203.286 76.6987 203.117 77.3441 201.712C78.3473 199.528 71.815 195.837 66.9458 195.837C61.1298 195.837 53.2082 188.03 50.9126 180.035C49.8345 176.281 48.0483 172.582 46.9431 171.816C45.8379 171.049 44.9337 169.644 44.9337 168.693C44.9337 167.742 43.5665 166.964 41.8954 166.964C38.8732 166.964 29.9076 156.977 29.9076 153.611C29.9076 150.618 32.163 150.906 32.38 153.926C32.5001 155.599 34.3967 158.937 36.5946 161.344C39.7832 164.837 41.3123 165.57 44.16 164.973C47.2176 164.332 47.6109 164.602 46.9048 166.858C46.2996 168.792 47.5518 170.617 51.6167 173.728C56.0134 177.092 57.3666 179.222 58.1918 184.076L59.2308 190.188L66.7327 190.816C72.9966 191.34 74.3111 191.892 74.6981 194.162C75.3384 197.917 78.0679 198.465 85.4917 196.328C89.2073 195.258 93.1778 194.892 95.0596 195.445C96.8288 195.965 105.714 196.407 114.805 196.427C128.283 196.458 131.334 196.804 131.334 198.3C131.334 200.805 118.554 207.901 117.241 206.126C116.69 205.381 114.26 203.914 111.842 202.866C107.673 201.059 107.042 201.153 99.6727 204.676C95.3978 206.719 91.4624 208.391 90.9274 208.391C90.3925 208.391 90.4042 206.895 90.9535 205.067ZM143.705 200.703C144.725 199.845 145.937 199.459 146.4 199.846C146.862 200.232 146.028 200.934 144.546 201.406C142.405 202.087 142.232 201.943 143.705 200.703ZM149.835 198.746C150.919 198.383 152.215 198.428 152.715 198.845C153.214 199.262 152.326 199.559 150.742 199.504C148.992 199.444 148.636 199.147 149.835 198.746ZM338.694 190.816C339.205 190.125 339.921 189.56 340.285 189.56C340.65 189.56 340.948 190.125 340.948 190.816C340.948 191.506 340.232 192.071 339.357 192.071C338.481 192.071 338.183 191.506 338.694 190.816ZM294.439 171.949C294.399 171.584 296.285 167.486 298.63 162.843C303.008 154.173 306.142 150.08 304.126 155.666C302.916 159.017 294.56 173.063 294.439 171.949ZM61.811 160.687C61.811 158.27 62.1203 157.282 62.4982 158.49C62.8762 159.698 62.8762 161.676 62.4982 162.884C62.1203 164.092 61.811 163.104 61.811 160.687ZM345.456 160.835C345.456 160.145 346.132 159.231 346.958 158.804C347.785 158.377 348.461 158.593 348.461 159.283C348.461 159.974 347.785 160.888 346.958 161.315C346.132 161.741 345.456 161.526 345.456 160.835ZM39.6746 146.408C43.7086 143.615 43.9778 143.006 42.2354 140.614C40.4174 138.118 40.498 138.034 43.4536 139.356C48.2468 141.499 46.7279 145.737 40.4259 147.804L35.1668 149.529L39.6746 146.408ZM75.1045 144.89C75.1766 143.428 75.5327 143.13 76.0124 144.132C76.4464 145.038 76.393 146.121 75.8937 146.538C75.3944 146.955 75.0393 146.214 75.1045 144.89ZM44.4589 130.558C45.0072 128.832 46.3518 124.595 47.4468 121.143L49.4378 114.866L48.6564 120.276C48.2266 123.251 46.8821 127.488 45.6685 129.691C44.1423 132.462 43.7694 132.729 44.4589 130.558ZM60.2527 128.675C60.2834 126.604 60.6201 125.908 61.0011 127.13C61.3821 128.351 61.357 130.046 60.9454 130.896C60.5338 131.746 60.2221 130.747 60.2527 128.675ZM16.3841 129.834C16.3841 128.987 24.1895 126.618 24.9336 127.239C25.2744 127.524 23.4902 128.358 20.9687 129.092C18.4472 129.827 16.3841 130.161 16.3841 129.834ZM2.11998 128.062C1.59355 127.35 2.19671 127.14 3.53391 127.568C6.13706 128.403 6.61334 129.303 4.45194 129.303C3.67427 129.303 2.62489 128.744 2.11998 128.062ZM324.538 127.315C324.61 125.853 324.966 125.555 325.446 126.557C325.88 127.463 325.826 128.546 325.327 128.963C324.828 129.38 324.473 128.639 324.538 127.315ZM60.4408 115.494C60.4408 111.006 60.7135 109.17 61.0468 111.414C61.3801 113.658 61.3801 117.33 61.0468 119.574C60.7135 121.818 60.4408 119.982 60.4408 115.494ZM0.417831 116.163C-0.047407 115.15 -0.138079 113.596 0.216339 112.711C0.570758 111.825 1.21695 112.653 1.65232 114.552C2.5024 118.26 1.80114 119.175 0.417831 116.163ZM28.7807 114.628C30.2269 114.313 32.5935 114.313 34.0398 114.628C35.4861 114.944 34.3028 115.203 31.4102 115.203C28.5177 115.203 27.3344 114.944 28.7807 114.628ZM337.943 114.238C337.943 113.548 338.659 112.983 339.534 112.983C340.409 112.983 340.707 113.548 340.197 114.238C339.686 114.929 338.97 115.494 338.605 115.494C338.241 115.494 337.943 114.929 337.943 114.238ZM324.336 105.376C321.239 102.573 315.088 95.3702 310.668 89.37C302.656 78.4944 302.631 78.4281 302.631 68.0889C302.631 58.808 302.947 57.6373 305.636 56.9559C307.289 56.5372 309.994 55.2728 311.647 54.1461C314.541 52.1734 314.565 52.1904 312.301 54.6085C310.886 56.1189 309.808 60.1278 309.596 64.6703C309.298 71.0201 309.971 73.3631 313.825 79.3972C316.346 83.3438 318.409 87.805 318.409 89.3109C318.409 92.5754 324.788 102.19 330.159 107.02C332.525 109.149 333.225 110.472 331.982 110.472C330.874 110.472 327.434 108.179 324.336 105.376ZM48.3146 104.274C45.8065 97.5164 45.9306 96.1794 49.3026 93.6299C50.8791 92.438 53.672 88.5373 55.5093 84.9616C57.3465 81.386 60.0896 77.1388 61.6051 75.5234C64.1192 72.8437 64.1585 72.3288 62.0534 69.6446C60.2681 67.3683 60.1222 66.1159 61.4085 64.1079C63.5158 60.8183 64.416 60.7793 63.4011 64.0215C62.9693 65.4012 63.7087 67.9234 65.0444 69.6265C66.3801 71.3295 67.4729 73.6127 67.4729 74.7002C67.4729 77.2019 62.3728 85.6361 56.6107 92.6636C54.1684 95.6422 51.7253 100.612 51.1815 103.707L50.1929 109.335L48.3146 104.274ZM332.934 84.5281C332.383 84.0678 331.932 82.83 331.932 81.7774C331.932 80.0972 332.161 80.1051 333.81 81.8422C334.843 82.9304 336.703 84.1236 337.943 84.4938C339.49 84.9558 339.215 85.1978 337.066 85.2659C335.344 85.3204 333.485 84.9884 332.934 84.5281ZM355.974 77.8328C355.974 77.1423 356.69 76.5774 357.565 76.5774C358.44 76.5774 358.739 77.1423 358.228 77.8328C357.717 78.5232 357.001 79.0881 356.637 79.0881C356.272 79.0881 355.974 78.5232 355.974 77.8328ZM362.222 71.5559C362.222 69.8298 362.563 69.1237 362.98 69.9867C363.396 70.8498 363.396 72.2621 362.98 73.1251C362.563 73.9882 362.222 73.2821 362.222 71.5559ZM366.492 65.2397C366.492 64.5709 367.506 64.0237 368.746 64.0237C369.986 64.0237 371 64.2458 371 64.5171C371 64.7885 369.986 65.3356 368.746 65.7331C367.506 66.1305 366.492 65.9085 366.492 65.2397ZM64.4676 59.7837C64.4676 59.523 65.651 58.5344 67.0972 57.5868C69.4804 56.0253 69.5336 56.0697 67.6645 58.0607C65.7016 60.1519 64.4676 60.8169 64.4676 59.7837ZM77.8669 51.7339L82.8883 48.2316L80.6364 39.9834C77.2522 27.5884 80.5779 21.0845 92.0606 17.6413C96.0842 16.4348 96.3009 16.5333 95.403 19.16C92.4917 27.677 92.6588 33.7391 95.962 39.4397C97.7955 42.6041 99.9116 45.1932 100.664 45.1932C101.417 45.1932 102.033 45.7581 102.033 46.4486C102.033 47.139 101.3 47.704 100.405 47.704C99.5096 47.704 93.711 49.3987 87.5192 51.4701C73.5353 56.1482 71.4565 56.205 77.8669 51.7339ZM278.59 27.6181C278.079 26.9276 278.377 26.3627 279.252 26.3627C280.127 26.3627 280.843 26.9276 280.843 27.6181C280.843 28.3085 280.545 28.8734 280.181 28.8734C279.816 28.8734 279.1 28.3085 278.59 27.6181ZM239.673 21.5708C238.25 19.2805 237.387 16.4559 237.754 15.294C238.24 13.7557 238.469 13.9249 238.596 15.9163C238.692 17.4205 239.839 19.5439 241.145 20.6351C242.451 21.7263 243.236 23.3201 242.89 24.177C242.543 25.0339 241.096 23.8611 239.673 21.5708ZM31.4102 21.4153C31.4102 20.7656 32.0787 19.8889 32.8956 19.4671C33.7474 19.0273 33.9993 19.5312 33.4862 20.6484C32.4872 22.8232 31.4102 23.2211 31.4102 21.4153ZM37.1608 14.4367C37.9784 13.0558 40.3134 10.6243 42.3498 9.03331C45.4025 6.64831 46.2044 6.47185 46.9191 8.02785C47.4828 9.25514 47.0876 9.69121 45.789 9.27488C44.6907 8.92278 41.9656 10.5051 39.7332 12.7911C37.5008 15.0771 36.3432 15.8176 37.1608 14.4367ZM149.741 15.4884C150.774 15.1401 152.464 15.1401 153.497 15.4884C154.53 15.8366 153.685 16.1216 151.619 16.1216C149.553 16.1216 148.708 15.8366 149.741 15.4884ZM158.756 15.4884C159.789 15.1401 161.48 15.1401 162.513 15.4884C163.546 15.8366 162.701 16.1216 160.635 16.1216C158.569 16.1216 157.723 15.8366 158.756 15.4884ZM173.06 14.1945C174.522 13.8762 176.55 13.8971 177.568 14.241C178.585 14.5848 177.389 14.8453 174.909 14.8197C172.43 14.7941 171.598 14.5127 173.06 14.1945ZM238.77 11.7782C238.77 11.0877 239.763 9.42624 240.977 8.08598C242.19 6.74573 243.183 6.21407 243.183 6.90452C243.183 7.59497 242.19 9.25646 240.977 10.5967C239.763 11.937 238.77 12.4686 238.77 11.7782ZM190.687 10.8732C190.687 10.5464 193.73 9.41277 197.449 8.35409C204.243 6.4198 207.151 6.67517 200.829 8.65101C194.469 10.6389 190.687 11.4676 190.687 10.8732ZM105.038 8.77122C106.278 8.11091 109.264 7.562 111.675 7.55143C117.487 7.52593 116.222 8.2507 108.795 9.202C104.702 9.72622 103.503 9.58879 105.038 8.77122ZM205.713 5.87366C205.713 4.78867 222.496 -0.141671 224.327 0.405483C225.246 0.680223 222.617 1.77631 218.485 2.84124C214.353 3.90616 209.789 5.17526 208.343 5.66146C206.896 6.14766 205.713 6.24315 205.713 5.87366ZM246.283 1.25537C246.283 0.564919 246.96 0 247.786 0C248.612 0 249.289 0.564919 249.289 1.25537C249.289 1.94582 248.612 2.51074 247.786 2.51074C246.96 2.51074 246.283 1.94582 246.283 1.25537Z" fill="#040502"/>
</svg>
