<svg width="1132" height="888" viewBox="0 0 1132 888" fill="none" xmlns="http://www.w3.org/2000/svg"><path d="M1132 52.652V41.376L934.666 175.264zm-45.22 73.606L818.659 278.666 1080 143.212l52-26.679v-10.022l-41.86 23.562zM1084.63 0h-12.28L936.325 114.42zM1132 219.031v-5.728l-140.192 52.71zm0 479.549v-11.324L887.479 576.664zM886.861 0h-14.876L727.021 197.936zm135.629 0h-14.15L853.371 148.256zM770.167 0l-19.858 41.389L772.809 0zm161.311 0-33.795 39.453L934.728 0zm113.152 752.791L806.997 594.26l228.683 166.435zm87.37 97.588v-16.053L879.448 656.83zM993.944 888h16.466L819.267 696.262zM1132 506.997v-3.545l-101.04-13.049zM1111.47 888h17.4L919.035 721.136zM1132 389.193v-2.336l-68.58 4.934zm0 268.31v-4.096l-94.89-36.875zm0 106.549v-10.679L930.632 639.947zM856.661 0 820.39 53.019 860.511 0zm-113.11 0L701.39 100.161 749.762 0zM4.917 54.476l-.105.1L0 51.28v20.022l354.466 218.791zM49.677 0H27.59L294.3 207.188zM0 291.453v2.522l68.668 14.436zm0-108.507v5.272l120.537 48.306zm0 252.905v3.663l107.839-5.138zM118.99 0h-7.845l93.136 84.705zM0 363.469v1.612l46.77 3.833zm0-242.084v9.764l198.021 99.927zM515.627 0h-1.202l2.715 21.664zm44.696 695.777L557.36 888h10.585zM661.898 0l-48.573 207.813L673.828 0zM620.74 0l-4.575 36.756L622.792 0zM227.622 0H216.15l125.277 149.544zm39.694 0h-19.04l197.415 263.294zm223.577 0h-10.844l37.844 193.468zm-39.728 0h-2.074l10.17 36.228zm-62.194 0h-3.051l21.844 50.453zM1132 312.897v-4.893l-136.428 28.374zM0 509.13v1.857l52.662-9.371zm0 308.965v10.177l162.115-122.539zm0-183.122v4.716l111.448-45.935zm0 95.255v6.73l130.916-77.224zM159.966 888h10.863l110.048-137.651zm-119.433 0h14.64l160.121-153.663zm185.242 0h10.288l95.242-143.692zM0 544.768v8.807l239.022-59.665zm0-204.81v2.73l78.037 9.599zm0 85.179v7.035l207.563-6.586zm0 18.711v6.169l181.396-11.614zm1078.16 118.443-30.07-7.633 83.91 24.477v-11.954l-269.314-65.016zM279.775 888l32.687-57.93L275.884 888zM0 569.691v1.741l45.892-13.265zm62.145 97.907 196.742-101.487-162.309 76.06 122.998-61.61L0 680.349v10.201l57.476-28.792zM15.895 888l329.202-289.378L0 876.797V888zM0 249.806v7.61l195.909 54.877zm0-13.51v3.334l83.79 25.811zm1132 36.187v-8.023l-212.635 60.098zM366.34 888l34.715-90.75L360.819 888zm514.762-41.968-142-180.889 103.064 144.95L896.847 888h9.095l-30.513-39.357zM1132 365.24v-3.106l-90.26 10.31zm0 101.039v-6.542l-191.391-10.743zM850.634 888h8.997l-87.936-130.508zM1132 450.565v-1.695l-49.8-1.659zm0-124.636v-9.73l-274.069 51.845zm0-150.265v-9.87L909.201 267.635zM520.672 888l6.022-110.231L514.576 888zm-79.821 0 6.269-28.557L439.223 888zm153.041 0-23.189-256.561L579.731 888zm-174.298 0 59.692-215.945L407.014 888zm263.477 0h6.653l-35.113-115.391zm27.293 0h10.396l-64.871-176.357zm59.293 0h5.28l-41.746-84.837zm-160.723 0-3.001-22.064 1.78 22.064z" fill="#000F2A"/></svg>