<svg width="33" height="33" viewBox="0 0 33 33" fill="none" xmlns="http://www.w3.org/2000/svg"><path d="M16.499 10.143a6.358 6.358 0 1 0 0 12.717 6.358 6.358 0 0 0 0-12.717m0 10.488a4.13 4.13 0 1 1 0-8.261 4.13 4.13 0 0 1 0 8.26m6.609-9.238a1.482 1.482 0 1 0 0-2.965 1.482 1.482 0 0 0 0 2.965" fill="#fff"/><path d="M28.233 8.403a6.33 6.33 0 0 0-3.62-3.62 9.1 9.1 0 0 0-3.006-.577c-1.324-.058-1.744-.074-5.101-.074s-3.788 0-5.102.074a9 9 0 0 0-3.003.578 6.33 6.33 0 0 0-3.62 3.619 9 9 0 0 0-.576 3.005c-.06 1.323-.077 1.742-.077 5.102 0 3.357 0 3.785.077 5.1a9.1 9.1 0 0 0 .576 3.008 6.34 6.34 0 0 0 3.622 3.619 9 9 0 0 0 3.004.619c1.324.057 1.744.075 5.101.075s3.789 0 5.102-.075a9.1 9.1 0 0 0 3.005-.576 6.34 6.34 0 0 0 3.62-3.62 9 9 0 0 0 .577-3.006c.06-1.323.077-1.743.077-5.102s0-3.785-.077-5.101a9 9 0 0 0-.579-3.048m-1.675 13.106a7 7 0 0 1-.427 2.321 4.1 4.1 0 0 1-2.354 2.353 6.9 6.9 0 0 1-2.297.427c-1.306.06-1.674.076-5.024.076-3.352 0-3.694 0-5.025-.076a6.8 6.8 0 0 1-2.295-.427 4.1 4.1 0 0 1-2.364-2.353 7 7 0 0 1-.428-2.295c-.059-1.306-.072-1.675-.072-5.024s0-3.693.072-5.026a6.9 6.9 0 0 1 .428-2.32 4.1 4.1 0 0 1 2.364-2.353 6.9 6.9 0 0 1 2.295-.428c1.307-.059 1.674-.076 5.025-.076s3.695 0 5.024.076a6.8 6.8 0 0 1 2.297.428 4.1 4.1 0 0 1 2.354 2.354c.27.735.415 1.511.427 2.295.06 1.307.075 1.674.075 5.025 0 3.35 0 3.71-.06 5.025h-.015z" fill="#fff"/></svg>